<?xml version="1.0" encoding="iso-8859-1"?>
<!-- Generator: Adobe Illustrator 19.1.1, SVG Export Plug-In . SVG Version: 6.00 Build 0)  -->
<svg version="1.1" xmlns="http://www.w3.org/2000/svg" xmlns:xlink="http://www.w3.org/1999/xlink" x="0px" y="0px"
	 viewBox="0 0 100 100" style="enable-background:new 0 0 100 100;" xml:space="preserve">
<g id="add">
	<g>
		<circle style="fill:#0D70FF;" cx="50" cy="50" r="50"/>
		<linearGradient id="SVGID_1_" gradientUnits="userSpaceOnUse" x1="38.5901" y1="1.8211" x2="61.2412" y2="97.4666">
			<stop  offset="0" style="stop-color:#091A57"/>
			<stop  offset="1" style="stop-color:#091A32"/>
		</linearGradient>
		<circle style="fill:url(#SVGID_1_);" cx="50" cy="50" r="49"/>
		<linearGradient id="SVGID_2_" gradientUnits="userSpaceOnUse" x1="28.0486" y1="12.3921" x2="76.4706" y2="96.0494">
			<stop  offset="0" style="stop-color:#091A57;stop-opacity:0.1"/>
			<stop  offset="1" style="stop-color:#020919"/>
		</linearGradient>
		<path style="fill:url(#SVGID_2_);" d="M3.349,65.004C9.687,84.725,28.173,99,50,99c27.062,0,49-21.938,49-49
			c0-6.928-1.439-13.519-4.034-19.492C92.318,120.159,24.29,7.111,3.349,65.004z"/>
		<path style="opacity:0.1;fill:#5271AF;" d="M50.779,24.948c11.289,3.234,20.039-17.289,7.205-23.29C55.385,1.232,52.72,1,50,1
			C22.938,1,1,22.938,1,50c0,1.814,0.106,3.603,0.298,5.365C4.568,39.659,8.122,12.727,50.779,24.948z"/>
	</g>
	<path style="fill:#000E1E;" d="M62.519,26.722c6.387,0,11.566,5.179,11.566,11.566c0,4.378-2.461,8.141-6.048,10.106
		c6.805,2.129,11.921,8.075,12.828,15.34h-2.153h-0.184H46.51h-0.184h-2.153c0.907-7.265,6.023-13.21,12.828-15.34
		c-3.587-1.964-6.048-5.728-6.048-10.106C50.953,31.901,56.131,26.722,62.519,26.722 M62.519,23.228
		c-8.304,0-15.06,6.756-15.06,15.06c0,3.4,1.165,6.637,3.213,9.238c-5.414,3.472-9.147,9.222-9.965,15.774l-0.49,3.927h3.958h2.153
		h0.184h32.016h0.184h2.153h3.958l-0.49-3.927c-0.818-6.552-4.551-12.302-9.965-15.774c2.048-2.601,3.213-5.838,3.213-9.238
		C77.579,29.984,70.823,23.228,62.519,23.228L62.519,23.228z"/>
	<path style="fill:#00C4FF;" d="M68.334,48.565c3.78-2.07,6.374-6.036,6.374-10.65c0-6.731-5.458-12.189-12.189-12.189
		s-12.189,5.458-12.189,12.189c0,4.614,2.594,8.58,6.374,10.65c-7.172,2.244-12.563,8.51-13.519,16.166h2.269h0.194h33.742h0.194
		h2.269C80.896,57.074,75.505,50.808,68.334,48.565z"/>
	<path style="fill:#000E1E;" d="M43.519,29.04c6.968,0,12.617,5.65,12.617,12.617c0,4.776-2.685,8.881-6.598,11.024
		c7.424,2.323,13.004,8.809,13.994,16.734h-2.349h-0.201H26.055h-0.201h-2.349c0.989-7.925,6.57-14.411,13.994-16.734
		c-3.913-2.143-6.598-6.248-6.598-11.024C30.901,34.69,36.551,29.04,43.519,29.04 M43.519,25.228c-9.059,0-16.43,7.37-16.43,16.43
		c0,3.709,1.271,7.241,3.505,10.078c-5.907,3.788-9.979,10.06-10.871,17.208l-0.535,4.284h4.318h2.349h0.201h34.927h0.201h2.349
		h4.318l-0.535-4.284c-0.892-7.148-4.965-13.42-10.871-17.208c2.234-2.837,3.505-6.369,3.505-10.078
		C59.948,32.598,52.578,25.228,43.519,25.228L43.519,25.228z"/>
	<path style="fill:#00C4FF;" d="M22.168,70.504l0.258-2.063c0.884-7.081,5.29-13.193,11.551-16.344
		c-2.798-2.609-4.444-6.27-4.444-10.159c0-7.712,6.274-13.985,13.985-13.985s13.985,6.274,13.985,13.985
		c0,3.889-1.645,7.55-4.444,10.159c6.262,3.151,10.668,9.263,11.552,16.344l0.258,2.063H22.168z"/>
	<g>
		
			<ellipse transform="matrix(0.892 0.4521 -0.4521 0.892 13.3965 -28.4936)" style="opacity:0.3;fill:#3887F9;" cx="66.318" cy="13.784" rx="7.25" ry="2.875"/>
		<ellipse style="opacity:0.3;fill:#3887F9;" cx="78.006" cy="21.972" rx="2.188" ry="1.938"/>
	</g>
</g>
<g id="Layer_1">
</g>
</svg>
