<?xml version="1.0" encoding="iso-8859-1"?>
<!-- Generator: Adobe Illustrator 19.1.1, SVG Export Plug-In . SVG Version: 6.00 Build 0)  -->
<svg version="1.1" xmlns="http://www.w3.org/2000/svg" xmlns:xlink="http://www.w3.org/1999/xlink" x="0px" y="0px"
	 viewBox="0 0 100 100" style="enable-background:new 0 0 100 100;" xml:space="preserve">
<g id="back">
	<g>
		<circle style="fill:#0D70FF;" cx="50" cy="50" r="50"/>
		<linearGradient id="SVGID_1_" gradientUnits="userSpaceOnUse" x1="38.5901" y1="1.8211" x2="61.2412" y2="97.4666">
			<stop  offset="0" style="stop-color:#091A57"/>
			<stop  offset="1" style="stop-color:#091A32"/>
		</linearGradient>
		<circle style="fill:url(#SVGID_1_);" cx="50" cy="50" r="49"/>
		<linearGradient id="SVGID_2_" gradientUnits="userSpaceOnUse" x1="28.0486" y1="12.3921" x2="76.4706" y2="96.0494">
			<stop  offset="0" style="stop-color:#091A57;stop-opacity:0.1"/>
			<stop  offset="1" style="stop-color:#020919"/>
		</linearGradient>
		<path style="fill:url(#SVGID_2_);" d="M3.349,65.004C9.687,84.725,28.173,99,50,99c27.062,0,49-21.938,49-49
			c0-6.928-1.439-13.519-4.034-19.492C92.318,120.159,24.29,7.111,3.349,65.004z"/>
		<path style="opacity:0.1;fill:#5271AF;" d="M50.779,24.948c11.289,3.234,20.039-17.289,7.205-23.29C55.385,1.232,52.72,1,50,1
			C22.938,1,1,22.938,1,50c0,1.814,0.106,3.603,0.298,5.365C4.568,39.659,8.122,12.727,50.779,24.948z"/>
	</g>
	<g>
		<path d="M44.051,81.85c-1.735,0-3.369-0.676-4.6-1.903L13.963,54.45c-1.23-1.228-1.909-2.862-1.909-4.601
			c0-1.739,0.679-3.374,1.91-4.604l25.485-25.489c1.232-1.229,2.866-1.906,4.602-1.906c1.737,0,3.37,0.678,4.597,1.908
			c1.229,1.229,1.908,2.864,1.908,4.6s-0.679,3.37-1.91,4.602L27.763,49.851l20.882,20.892c1.23,1.227,1.91,2.86,1.91,4.6
			s-0.679,3.375-1.912,4.604C47.421,81.174,45.788,81.85,44.051,81.85z M42.275,77.115c0.949,0.948,2.598,0.948,3.54,0.004
			c0.479-0.478,0.74-1.106,0.74-1.775c0-0.668-0.262-1.297-0.736-1.77L22.107,49.851l23.709-23.721
			c0.478-0.477,0.739-1.105,0.739-1.772s-0.263-1.297-0.738-1.773c-0.946-0.948-2.593-0.946-3.542,0.002L16.791,48.076
			c-0.477,0.476-0.737,1.104-0.737,1.773c0,0.668,0.261,1.297,0.736,1.771L42.275,77.115z"/>
		<path d="M74.863,81.848c-1.664,0-3.33-0.633-4.602-1.899L44.775,54.451c-1.231-1.229-1.91-2.863-1.91-4.602
			c0-1.739,0.679-3.374,1.91-4.604L70.26,19.757c2.544-2.535,6.67-2.533,9.198,0.002c1.229,1.229,1.908,2.864,1.908,4.6
			s-0.679,3.37-1.91,4.602L58.575,49.851l20.882,20.892c1.229,1.227,1.909,2.86,1.909,4.6s-0.679,3.375-1.912,4.604
			C78.191,81.214,76.528,81.847,74.863,81.848z M74.861,21.853c-0.642,0-1.285,0.245-1.775,0.734L47.602,48.076
			c-0.477,0.476-0.737,1.104-0.737,1.773c0,0.668,0.261,1.297,0.736,1.771l0.001,0.002l25.485,25.495
			c0.978,0.974,2.566,0.976,3.538,0.002c0.479-0.478,0.74-1.106,0.74-1.775c0-0.668-0.262-1.297-0.736-1.77L52.919,49.851
			l23.708-23.721c0.478-0.477,0.739-1.105,0.739-1.772s-0.263-1.297-0.738-1.773C76.141,22.098,75.502,21.853,74.861,21.853z"/>
	</g>
	<g>
		<path style="fill:#00C4FF;" d="M46.188,53.036l25.486,25.495c1.765,1.76,4.613,1.76,6.368,0c1.766-1.76,1.766-4.613,0-6.374
			L55.746,49.851l22.296-22.306c1.766-1.764,1.766-4.608,0-6.374c-1.755-1.76-4.603-1.76-6.368,0L46.188,46.662
			C44.423,48.422,44.423,51.276,46.188,53.036z"/>
		<path style="fill:#00C4FF;" d="M40.863,78.531c1.765,1.76,4.613,1.76,6.368,0c1.766-1.76,1.766-4.613,0-6.374L24.936,49.851
			l22.296-22.306c1.766-1.764,1.766-4.608,0-6.374c-1.755-1.76-4.603-1.76-6.368,0L15.377,46.662c-1.764,1.76-1.764,4.613,0,6.374
			L40.863,78.531z"/>
	</g>
	<g>
		
			<ellipse transform="matrix(0.892 0.4521 -0.4521 0.892 13.3965 -28.4936)" style="opacity:0.3;fill:#3887F9;" cx="66.318" cy="13.784" rx="7.25" ry="2.875"/>
		<ellipse style="opacity:0.3;fill:#3887F9;" cx="78.006" cy="21.972" rx="2.188" ry="1.938"/>
	</g>
</g>
<g id="Layer_1">
</g>
</svg>
