<?xml version="1.0" encoding="iso-8859-1"?>
<!-- Generator: Adobe Illustrator 19.1.1, SVG Export Plug-In . SVG Version: 6.00 Build 0)  -->
<svg version="1.1" xmlns="http://www.w3.org/2000/svg" xmlns:xlink="http://www.w3.org/1999/xlink" x="0px" y="0px"
	 viewBox="0 0 60 62.506" style="enable-background:new 0 0 60 62.506;" xml:space="preserve">
<g id="bell">
	<g>
		<path style="fill:#F0BB29;" d="M58.119,44.744c-2.083-2.069-6.87-6.819-7.5-7.5c-0.633-0.681-0.689-1.875-0.689-1.875
			l-1.186-13.125c0,0-1.718-17.06-16.536-18.623c0.032-0.163,0.051-0.33,0.051-0.502c0-1.45-1.175-2.625-2.625-2.625
			s-2.625,1.175-2.625,2.625c0,0.199,0.026,0.391,0.068,0.578C12.9,5.71,11.248,22.244,11.248,22.244l-1.183,13.125
			c0,0-0.055,1.194-0.688,1.875c-0.634,0.681-5.42,5.431-7.496,7.5C-0.2,46.809,0.006,50.5,0.006,50.5s0,2.006,1.875,2.006h56.239
			c1.875,0,1.875-2.006,1.875-2.006S60.199,46.809,58.119,44.744z"/>
		<path style="fill:#F7B208;" d="M58.119,44.744c-2.083-2.069-6.87-6.819-7.5-7.5c-0.633-0.681-0.689-1.875-0.689-1.875
			l-1.186-13.125c0,0-1.718-17.06-16.536-18.623c0.032-0.163,0.051-0.33,0.051-0.502c0-1.45-1.175-2.625-2.625-2.625
			C31.31,1.105,31.592,2.875,30,3.833C52.509,29.833,16.592,51,1.881,44.744C-0.2,46.809,0.006,50.5,0.006,50.5s0,2.006,1.875,2.006
			h56.239c1.875,0,1.875-2.006,1.875-2.006S60.199,46.809,58.119,44.744z"/>
		<path style="fill:#F49A0B;" d="M58.119,44.744c-2.083-2.069-6.87-6.819-7.5-7.5c-0.633-0.681-0.689-1.875-0.689-1.875
			l-1.186-13.125c0,0-1.718-17.06-16.536-18.623c12.967,4.796,16.31,33.588,14.717,34.546C74.426,55.833,7.509,51.545,0.006,50.5
			c0.005,0.107,0,2.006,1.875,2.006h56.239c1.875,0,1.875-2.006,1.875-2.006S60.199,46.809,58.119,44.744z"/>
		<g>
			<path style="fill:#FFCD50;" d="M25.062,7.994c2.544-0.643,6.509,3.288,7.074,7.77c1.001,7.941-3.347,18.005-5.561,19.451
				c-2.353,1.538-9.857,2.106-12.644-4.54C12.553,27.387,13.109,11.017,25.062,7.994z"/>
		</g>
		<g>
			<path style="fill:#FFDF97;" d="M24.496,9.973c1.766-0.447,4.518,2.282,4.91,5.394c0.695,5.512-2.324,12.499-3.86,13.503
				c-1.634,1.067-6.842,1.462-8.777-3.152C15.813,23.435,16.198,12.072,24.496,9.973z"/>
		</g>
		
			<ellipse transform="matrix(0.9865 -0.1638 0.1638 0.9865 -6.6505 2.5564)" style="fill:#FFCD50;" cx="12.177" cy="41.606" rx="4.959" ry="2.356"/>
		<ellipse style="fill:#FFCD50;" cx="29.29" cy="2.047" rx="0.938" ry="0.984"/>
	</g>
	<g id="Layer_62">
		<path style="fill:#F0BB29;" d="M29.994,63.006c4.142,0,7.5-2.5,7.5-7.5h-15C22.494,60.506,25.849,63.006,29.994,63.006z"/>
		<path style="fill:#F49A0B;" d="M29.994,63.006c4.142,0,7.5-2.5,7.5-7.5h-15C41.165,57.506,25.849,63.006,29.994,63.006z"/>
		<ellipse style="fill:#FFCD50;" cx="27.587" cy="59.016" rx="2.953" ry="2.172"/>
	</g>
</g>
<g id="Layer_1">
</g>
</svg>
