<?xml version="1.0" encoding="iso-8859-1"?>
<!-- Generator: Adobe Illustrator 19.1.1, SVG Export Plug-In . SVG Version: 6.00 Build 0)  -->
<svg version="1.1" xmlns="http://www.w3.org/2000/svg" xmlns:xlink="http://www.w3.org/1999/xlink" x="0px" y="0px"
	 viewBox="0 0 100 100" style="enable-background:new 0 0 100 100;" xml:space="preserve">
<g id="check">
	<g>
		<circle style="fill:#0D70FF;" cx="50" cy="50" r="50"/>
		<linearGradient id="SVGID_1_" gradientUnits="userSpaceOnUse" x1="38.5901" y1="1.8211" x2="61.2412" y2="97.4666">
			<stop  offset="0" style="stop-color:#091A57"/>
			<stop  offset="1" style="stop-color:#091A32"/>
		</linearGradient>
		<circle style="fill:url(#SVGID_1_);" cx="50" cy="50" r="49"/>
		<linearGradient id="SVGID_2_" gradientUnits="userSpaceOnUse" x1="28.0486" y1="12.3921" x2="76.4706" y2="96.0494">
			<stop  offset="0" style="stop-color:#091A57;stop-opacity:0.1"/>
			<stop  offset="1" style="stop-color:#020919"/>
		</linearGradient>
		<path style="fill:url(#SVGID_2_);" d="M3.349,65.004C9.687,84.725,28.173,99,50,99c27.062,0,49-21.938,49-49
			c0-6.928-1.439-13.519-4.034-19.492C92.318,120.159,24.29,7.111,3.349,65.004z"/>
		<path style="opacity:0.1;fill:#5271AF;" d="M50.779,24.948c11.289,3.234,20.039-17.289,7.205-23.29C55.385,1.232,52.72,1,50,1
			C22.938,1,1,22.938,1,50c0,1.814,0.106,3.603,0.298,5.365C4.568,39.659,8.122,12.727,50.779,24.948z"/>
	</g>
	<path d="M42.391,74.448L42.391,74.448c-2.451,0-4.754-0.956-6.487-2.693L20.687,56.497c-3.578-3.577-3.578-9.408,0-12.996
		c1.732-1.737,4.037-2.693,6.487-2.693c2.45,0,4.754,0.956,6.487,2.693l8.733,8.752l23.94-24.002
		c1.731-1.74,4.036-2.699,6.489-2.699c2.453,0,4.758,0.959,6.491,2.701c3.575,3.579,3.575,9.407-0.001,12.994L48.879,71.755
		C47.146,73.492,44.842,74.448,42.391,74.448z M27.175,44.808c-1.381,0-2.679,0.539-3.655,1.518
		c-2.022,2.028-2.023,5.324-0.002,7.346l15.219,15.26c0.977,0.979,2.274,1.518,3.655,1.518s2.679-0.539,3.655-1.519l30.434-30.507
		c2.022-2.028,2.023-5.324,0.001-7.346l-0.003-0.004c-0.977-0.981-2.274-1.521-3.655-1.521c-1.381,0-2.679,0.54-3.655,1.521
		L42.395,57.917L30.829,46.326C29.853,45.347,28.555,44.808,27.175,44.808z"/>
	<path style="fill:#00C4FF;" d="M77.897,29.663c-2.801-2.816-7.345-2.816-10.146,0L42.395,55.085L32.245,44.913
		c-2.801-2.808-7.341-2.808-10.142,0c-2.805,2.812-2.805,7.367,0,10.171L37.32,70.342c2.801,2.808,7.341,2.808,10.142,0
		l30.434-30.508C80.701,37.023,80.701,32.468,77.897,29.663z"/>
	<g>
		
			<ellipse transform="matrix(0.892 0.4521 -0.4521 0.892 13.4012 -28.513)" style="opacity:0.3;fill:#3887F9;" cx="66.361" cy="13.784" rx="7.25" ry="2.875"/>
		<ellipse style="opacity:0.3;fill:#3887F9;" cx="78.049" cy="21.972" rx="2.188" ry="1.938"/>
	</g>
</g>
<g id="Layer_1">
</g>
</svg>
