<?xml version="1.0" encoding="iso-8859-1"?>
<!-- Generator: Adobe Illustrator 19.1.1, SVG Export Plug-In . SVG Version: 6.00 Build 0)  -->
<svg version="1.1" xmlns="http://www.w3.org/2000/svg" xmlns:xlink="http://www.w3.org/1999/xlink" x="0px" y="0px"
	 viewBox="0 0 100 100" style="enable-background:new 0 0 100 100;" xml:space="preserve">
<g id="close">
	<g>
		<circle style="fill:#0D70FF;" cx="50" cy="50" r="50"/>
		<linearGradient id="SVGID_1_" gradientUnits="userSpaceOnUse" x1="38.5901" y1="1.8211" x2="61.2412" y2="97.4666">
			<stop  offset="0" style="stop-color:#091A57"/>
			<stop  offset="1" style="stop-color:#091A32"/>
		</linearGradient>
		<circle style="fill:url(#SVGID_1_);" cx="50" cy="50" r="49"/>
		<linearGradient id="SVGID_2_" gradientUnits="userSpaceOnUse" x1="28.0486" y1="12.3921" x2="76.4706" y2="96.0494">
			<stop  offset="0" style="stop-color:#091A57;stop-opacity:0.1"/>
			<stop  offset="1" style="stop-color:#020919"/>
		</linearGradient>
		<path style="fill:url(#SVGID_2_);" d="M3.349,65.004C9.687,84.725,28.173,99,50,99c27.062,0,49-21.938,49-49
			c0-6.928-1.439-13.519-4.034-19.492C92.318,120.159,24.29,7.111,3.349,65.004z"/>
		<path style="opacity:0.1;fill:#5271AF;" d="M50.779,24.948c11.289,3.234,20.039-17.289,7.205-23.29C55.385,1.232,52.72,1,50,1
			C22.938,1,1,22.938,1,50c0,1.814,0.106,3.603,0.298,5.365C4.568,39.659,8.122,12.727,50.779,24.948z"/>
	</g>
	<path d="M29.61,81.994c-2.974,0-5.947-1.131-8.211-3.392c-4.524-4.529-4.524-11.896-0.002-16.424L33.579,50L21.398,37.823
		c-4.523-4.528-4.523-11.896-0.001-16.424c4.529-4.526,11.896-4.522,16.425-0.002L50,33.58l12.177-12.182
		c4.529-4.523,11.897-4.522,16.424-0.001c4.523,4.529,4.523,11.897,0.002,16.425L66.42,50l12.182,12.178
		c4.522,4.528,4.522,11.896,0.001,16.423c-4.53,4.524-11.898,4.522-16.425,0.002L50,66.421L37.823,78.601
		C35.559,80.863,32.584,81.994,29.61,81.994z M29.611,22.003c-1.95,0-3.901,0.742-5.386,2.225
		c-2.963,2.968-2.963,7.799,0.002,10.769L39.238,50L24.226,65.006c-2.964,2.969-2.964,7.799,0.001,10.769
		c2.968,2.965,7.799,2.963,10.768-0.002L50,60.763l15.006,15.011c2.969,2.966,7.8,2.965,10.769-0.001
		c2.963-2.967,2.963-7.799-0.002-10.768L60.762,50l15.012-15.005c2.964-2.969,2.964-7.8-0.001-10.77
		c-2.967-2.962-7.798-2.964-10.769,0.002L50,39.238L34.994,24.226C33.51,22.744,31.561,22.003,29.611,22.003z"/>
	<path style="fill:#00C4FF;" d="M63.591,50l13.596-13.591c3.75-3.755,3.75-9.842,0-13.596c-3.755-3.75-9.842-3.75-13.596,0
		L50,36.409L36.409,22.812c-3.755-3.75-9.842-3.75-13.596,0c-3.75,3.755-3.75,9.842,0,13.596L36.409,50L22.812,63.591
		c-3.75,3.755-3.75,9.842,0,13.596c3.755,3.75,9.842,3.75,13.596,0L50,63.591l13.591,13.596c3.755,3.75,9.842,3.75,13.596,0
		c3.75-3.755,3.75-9.842,0-13.596L63.591,50z"/>
	<g>
		
			<ellipse transform="matrix(0.892 0.4521 -0.4521 0.892 13.3965 -28.4936)" style="opacity:0.3;fill:#3887F9;" cx="66.318" cy="13.784" rx="7.25" ry="2.875"/>
		<ellipse style="opacity:0.3;fill:#3887F9;" cx="78.006" cy="21.972" rx="2.188" ry="1.938"/>
	</g>
</g>
<g id="Layer_1">
</g>
</svg>
