<?xml version="1.0" encoding="iso-8859-1"?>
<!-- Generator: Adobe Illustrator 19.1.1, SVG Export Plug-In . SVG Version: 6.00 Build 0)  -->
<svg version="1.1" xmlns="http://www.w3.org/2000/svg" xmlns:xlink="http://www.w3.org/1999/xlink" x="0px" y="0px"
	 viewBox="0 0 96.862 99.191" style="enable-background:new 0 0 96.862 99.191;" xml:space="preserve">
<g id="coin">
	<g>
		<polygon style="fill:#D38700;" points="42.545,99.191 72.247,95.936 80.587,90.036 95.438,58.3 96.862,52.604 92.183,29.82 
			82.011,14.765 64.923,5.204 47.427,3.983 33.187,7.849 13.25,27.175 7.147,45.281 9.792,68.269 15.285,80.678 26.474,92.274 		"/>
		<polygon style="fill:#F4BD0B;" points="35.398,95.207 65.099,91.952 73.44,86.053 88.291,54.317 89.715,48.621 85.036,25.836 
			74.864,10.782 57.775,1.221 40.28,0 26.04,3.865 6.103,23.192 0,41.297 2.645,64.285 8.137,76.695 19.326,88.291 		"/>
		<path style="fill:#FFDF8F;" d="M35.398,95.207c4.926-0.761,9.866-1.4,14.799-2.101c4.938-0.659,9.876-1.307,14.819-1.915
			l-0.359,0.136l8.269-6.001l-0.292,0.35l3.648-7.964l3.688-7.945c2.449-5.301,4.971-10.569,7.453-15.855l-0.062,0.173l1.475-5.683
			l-0.009,0.402c-1.498-7.608-2.947-15.225-4.334-22.855l0.084,0.198c-1.652-2.538-3.255-5.11-4.882-7.665
			c-1.625-2.556-3.245-5.117-4.831-7.699c1.804,2.436,3.575,4.893,5.34,7.355c1.764,2.463,3.552,4.909,5.29,7.389l0.057,0.081
			l0.027,0.118c1.732,7.559,3.402,15.132,5.023,22.714l0.042,0.194l-0.05,0.208l-1.373,5.709l-0.021,0.086l-0.041,0.088
			c-2.468,5.292-4.897,10.604-7.398,15.881l-3.737,7.923l-3.777,7.904l-0.106,0.221l-0.187,0.129l-8.412,5.798l-0.171,0.118
			l-0.188,0.018c-4.957,0.477-9.919,0.914-14.882,1.34C45.333,94.437,40.372,94.883,35.398,95.207z"/>
		<polygon style="fill:#FEF266;" points="36.782,87.435 61.499,84.727 68.44,79.817 80.799,53.406 81.984,48.666 78.09,29.705 
			69.625,17.177 55.404,9.22 40.845,8.204 28.994,11.42 12.403,27.504 7.324,42.571 9.525,61.702 14.096,72.029 23.407,81.679 		"/>
		<path style="fill:#F7E24B;" d="M36.782,87.435c8.848-0.97,24.718-2.709,24.718-2.709l6.941-4.91l12.359-26.411l1.185-4.74
			L78.09,29.705c0,0-5.506-9.153-8.465-12.528C73.917,40.051,7.324,69.551,36.782,87.435z"/>
		<linearGradient id="SVGID_1_" gradientUnits="userSpaceOnUse" x1="28.6617" y1="52.306" x2="69.9535" y2="52.306">
			<stop  offset="0" style="stop-color:#FFFFFF;stop-opacity:0.1"/>
			<stop  offset="0.5018" style="stop-color:#FFFFFF"/>
			<stop  offset="1" style="stop-color:#FFFFFF;stop-opacity:0.1"/>
		</linearGradient>
		<path style="fill:url(#SVGID_1_);" d="M69.625,17.177c0,0,0.066,0.337,0.189,0.968c0.051,0.317,0.078,0.717,0.129,1.188
			c-0.002,0.469,0.04,1.016-0.035,1.62c-0.093,1.212-0.378,2.68-0.942,4.285c-0.557,1.607-1.382,3.35-2.464,5.134
			c-2.138,3.592-5.23,7.359-8.747,11.141c-1.765,1.889-3.614,3.809-5.538,5.708c-1.919,1.896-3.869,3.823-5.818,5.749
			c-1.952,1.915-3.89,3.839-5.727,5.788c-1.831,1.953-3.614,3.889-5.175,5.88c-1.563,1.985-2.958,3.992-3.98,6.031
			c-1.013,2.034-1.672,4.11-1.694,6.058c-0.066,1.952,0.546,3.704,1.336,5.107c0.808,1.408,1.824,2.454,2.69,3.259
			c0.43,0.411,0.842,0.747,1.203,1.04c0.353,0.303,0.67,0.539,0.933,0.723c0.52,0.378,0.798,0.58,0.798,0.58
			s-0.298-0.17-0.857-0.489c-0.283-0.155-0.626-0.357-1.014-0.621c-0.398-0.25-0.845-0.552-1.314-0.937
			c-0.948-0.748-2.082-1.731-3.066-3.155c-0.966-1.409-1.815-3.307-1.856-5.493c-0.109-2.177,0.491-4.502,1.493-6.71
			c0.998-2.221,2.359-4.386,3.934-6.466c3.124-4.193,7.007-8.138,10.894-12.017c1.967-1.911,3.934-3.821,5.87-5.702
			c1.923-1.886,3.838-3.714,5.621-5.546c3.581-3.644,6.765-7.193,9.054-10.545c1.137-1.677,2.072-3.286,2.738-4.789
			c0.669-1.502,1.06-2.892,1.246-4.06c0.118-0.582,0.123-1.112,0.182-1.573c0-0.458,0.018-0.853,0.002-1.174
			C69.654,17.519,69.625,17.177,69.625,17.177z"/>
		<g>
			<path style="fill:#FFF7E6;" d="M40.845,8.204c-1.927,0.712-3.855,1.422-5.795,2.09c-1.933,0.691-3.881,1.327-5.823,1.986
				l0.386-0.22c-1.294,1.431-2.625,2.825-3.942,4.233c-1.322,1.403-2.631,2.819-3.976,4.198l-4.011,4.161
				c-1.329,1.396-2.697,2.751-4.049,4.123l0.445-0.705c-0.8,2.527-1.578,5.061-2.397,7.582l-2.488,7.551l0.09-0.856
				c0.188,1.594,0.402,3.184,0.569,4.78l0.518,4.786c0.336,3.192,0.715,6.379,0.995,9.577l-0.146-0.538
				c1.441,3.479,2.935,6.935,4.319,10.439l-0.307-0.457l4.486,4.988l4.427,5.045l-0.332-0.23c2.175,1.084,4.347,2.177,6.513,3.283
				c2.161,1.118,4.321,2.238,6.456,3.415c-2.323-0.742-4.621-1.54-6.918-2.341c-2.292-0.812-4.578-1.639-6.861-2.473l-0.145-0.053
				l-0.188-0.177l-4.884-4.604l-4.825-4.661l-0.157-0.152l-0.15-0.305c-1.663-3.381-3.217-6.809-4.823-10.215l-0.1-0.212
				l-0.047-0.327c-0.453-3.178-0.808-6.368-1.206-9.553l-0.583-4.779c-0.2-1.592-0.353-3.19-0.532-4.785l-0.05-0.448l0.141-0.408
				l2.591-7.516c0.875-2.502,1.789-4.99,2.682-7.486l0.157-0.438l0.288-0.267c1.413-1.308,2.81-2.634,4.247-3.919l4.284-3.88
				c1.42-1.302,2.876-2.566,4.319-3.844c1.448-1.272,2.883-2.559,4.353-3.809l0.218-0.185l0.168-0.035
				c2.009-0.413,4.011-0.849,6.028-1.231C36.8,8.926,38.822,8.564,40.845,8.204z"/>
		</g>
		<polygon style="fill:#FF9700;" points="27.984,83.205 18.673,73.555 14.102,63.228 11.901,44.097 16.98,29.03 33.571,12.946 
			45.422,9.73 57.868,10.598 55.404,9.22 40.845,8.204 28.994,11.42 12.403,27.504 7.324,42.571 9.524,61.702 14.096,72.029 
			23.407,81.679 36.782,87.435 37.604,87.345 		"/>
	</g>
</g>
<g id="Layer_1">
</g>
</svg>
