<?xml version="1.0" encoding="iso-8859-1"?>
<!-- Generator: Adobe Illustrator 19.1.1, SVG Export Plug-In . SVG Version: 6.00 Build 0)  -->
<svg version="1.1" xmlns="http://www.w3.org/2000/svg" xmlns:xlink="http://www.w3.org/1999/xlink" x="0px" y="0px"
	 viewBox="0 0 144.667 126.53" style="enable-background:new 0 0 144.667 126.53;" xml:space="preserve">
<g id="diamand">
	<g>
		<path style="fill:#5AFFF7;" d="M103.979,9.042l18.083,18.083H99.458L81.375,9.042H103.979z M90.417,27.125H54.25L72.333,9.042
			L90.417,27.125z M72.333,112.95l-1.81-1.775L54.25,36.167h36.167l-16.273,75.009L72.333,112.95z M40.688,9.042h22.604
			L45.208,27.125H22.604L40.688,9.042z M45.208,36.167l23.734,73.464l-55.38-73.464H45.208z M75.724,109.63l23.734-73.464h31.646
			L75.724,109.63z"/>
		<polygon style="fill:#2FEADC;" points="131.104,36.167 75.724,109.63 114.859,36.796 		"/>
		<polygon style="fill:#2FEADC;" points="13.724,36.167 69.104,109.63 29.969,36.796 		"/>
		<polygon style="fill:#9CFFFA;" points="63.359,36.53 82.359,36.53 72.333,112.247 		"/>
		<path style="fill:#08F7E6;" d="M99.458,27.125h22.604L81.375,9.042L99.458,27.125z M90.417,27.125H54.25l10.167-10.167
			l7.916,6.942l7.108-7.75L90.417,27.125z M46.192,28.233l17.1-19.192L22.604,27.125L46.192,28.233z"/>
		<path style="fill:#D2FFFF;" d="M108.5,0H36.167L0,36.131l72.333,90.399l72.333-90.39L108.5,0z M103.979,9.042l18.083,18.083
			H99.458L81.375,9.042H103.979z M90.417,27.125H54.25L72.333,9.042L90.417,27.125z M72.333,112.95l-1.81-1.775L54.25,36.167h36.167
			l-16.273,75.009L72.333,112.95z M40.688,9.042h22.604L45.208,27.125H22.604L40.688,9.042z M45.208,36.167l23.734,73.464
			l-55.38-73.464H45.208z M75.724,109.63l23.734-73.464h31.646L75.724,109.63z"/>
		<path style="fill:#FFFFFF;" d="M29.969,36.796c0,0,0.636,1.11,1.749,3.051c1.098,1.95,2.667,4.736,4.549,8.079
			c1.852,3.359,4.051,7.258,6.337,11.472c2.288,4.213,4.729,8.708,7.169,13.202c2.401,4.516,4.802,9.031,7.053,13.265
			c2.255,4.231,4.289,8.218,6.069,11.616c1.776,3.4,3.202,6.262,4.225,8.253c1.005,2,1.578,3.143,1.578,3.143
			s-0.636-1.11-1.75-3.051c-1.095-1.952-2.695-4.721-4.55-8.078c-1.851-3.359-4.053-7.256-6.337-11.472
			c-2.288-4.214-4.728-8.708-7.168-13.202c-2.401-4.516-4.801-9.032-7.052-13.265c-2.252-4.233-4.289-8.218-6.068-11.616
			c-1.749-3.415-3.206-6.26-4.226-8.252C30.543,37.939,29.969,36.796,29.969,36.796z"/>
		<path style="fill:#FFFFFF;" d="M114.699,36.796c0,0-0.636,1.11-1.749,3.051c-1.098,1.95-2.667,4.736-4.549,8.079
			c-1.852,3.359-4.051,7.258-6.337,11.472c-2.288,4.213-4.729,8.708-7.169,13.202c-2.401,4.516-4.802,9.031-7.053,13.265
			c-2.255,4.231-4.289,8.218-6.069,11.616c-1.776,3.4-3.202,6.262-4.225,8.253c-1.005,2-1.578,3.143-1.578,3.143
			s0.636-1.11,1.75-3.051c1.095-1.952,2.695-4.721,4.55-8.078c1.851-3.359,4.053-7.256,6.337-11.472
			c2.288-4.214,4.728-8.708,7.168-13.202c2.401-4.516,4.801-9.032,7.052-13.265c2.252-4.233,4.289-8.218,6.068-11.616
			c1.749-3.415,3.206-6.26,4.226-8.252C114.125,37.939,114.699,36.796,114.699,36.796z"/>
		<path style="fill:#FFFFFF;" d="M63.359,37.233c0,0,0.175,1.179,0.482,3.242c0.285,2.066,0.733,5.012,1.199,8.556
			c0.462,3.544,1.044,7.674,1.589,12.109c0.547,4.434,1.13,9.164,1.714,13.893c0.539,4.735,1.077,9.47,1.582,13.909
			c0.509,4.439,0.906,8.59,1.286,12.145c0.377,3.554,0.629,6.524,0.834,8.599c0.184,2.078,0.289,3.265,0.289,3.265
			s-0.175-1.179-0.482-3.242c-0.286-2.066-0.735-5.012-1.199-8.556c-0.461-3.544-1.046-7.674-1.589-12.109
			c-0.547-4.434-1.13-9.164-1.713-13.893c-0.538-4.735-1.077-9.47-1.582-13.909c-0.507-4.439-0.906-8.59-1.286-12.145
			c-0.376-3.555-0.629-6.524-0.834-8.599C63.464,38.42,63.359,37.233,63.359,37.233z"/>
		<path style="fill:#FFFFFF;" d="M82.333,37.233c0,0-0.175,1.179-0.482,3.242c-0.285,2.066-0.733,5.012-1.199,8.556
			c-0.462,3.544-1.044,7.674-1.589,12.109c-0.547,4.434-1.13,9.164-1.714,13.893c-0.539,4.735-1.077,9.47-1.582,13.909
			c-0.509,4.439-0.906,8.59-1.286,12.145c-0.377,3.554-0.629,6.524-0.834,8.599c-0.184,2.078-0.289,3.265-0.289,3.265
			s0.175-1.179,0.482-3.242c0.286-2.066,0.735-5.012,1.199-8.556c0.461-3.544,1.046-7.674,1.589-12.109
			c0.547-4.434,1.13-9.164,1.713-13.893c0.538-4.735,1.077-9.47,1.582-13.909c0.507-4.439,0.906-8.59,1.286-12.145
			c0.376-3.555,0.629-6.524,0.834-8.599C82.228,38.42,82.333,37.233,82.333,37.233z"/>
		<g>
			<g>
				<path style="fill:#FFFFFF;" d="M103.979,9.042c1.589,1.425,3.16,2.868,4.717,4.325l4.686,4.356
					c3.102,2.926,6.186,5.87,9.25,8.833l1.397,1.35l-1.967,0.026l-11.302,0.147l-11.302,0.047l-0.415,0.002l-0.292-0.294
					l-8.998-9.085c-2.978-3.049-5.964-6.091-8.91-9.174L79.579,8.25l1.796,0.04l5.651,0.126l5.651,0.163
					C96.444,8.733,100.212,8.829,103.979,9.042z M103.979,9.042c-3.767,0.212-7.535,0.309-11.302,0.462l-5.651,0.163l-5.651,0.126
					l0.531-1.283c3.082,2.946,6.124,5.931,9.174,8.91l9.085,8.998l-0.707-0.293l11.302,0.047l11.302,0.147l-0.57,1.376
					c-2.963-3.064-5.907-6.148-8.833-9.25l-4.356-4.686C106.847,12.202,105.404,10.63,103.979,9.042z"/>
				<path style="fill:#FFFFFF;" d="M90.417,27.125c-3.014,0.185-6.028,0.28-9.042,0.411c-3.014,0.136-6.028,0.198-9.042,0.287
					c-3.014,0.056-6.028,0.147-9.042,0.174c-3.014,0.031-6.028,0.095-9.042,0.096l-2.32,0l1.636-1.652
					c2.999-3.029,5.997-6.058,9.034-9.049l4.55-4.492l4.579-4.462l0.623-0.607l0.585,0.607c2.957,3.07,5.91,6.145,8.826,9.258
					c1.471,1.543,2.897,3.13,4.348,4.694C87.559,23.955,89.001,25.527,90.417,27.125z M90.417,27.125
					c-1.598-1.416-3.17-2.858-4.736-4.306c-1.564-1.45-3.151-2.877-4.694-4.348c-3.112-2.916-6.187-5.869-9.257-8.826h1.208
					l-4.462,4.579l-4.492,4.55c-2.991,3.037-6.02,6.035-9.049,9.034l-0.684-1.651c3.014,0,6.028,0.064,9.042,0.096
					c3.014,0.027,6.028,0.118,9.042,0.174c3.014,0.089,6.028,0.151,9.042,0.287C84.389,26.845,87.403,26.94,90.417,27.125z"/>
				<path style="fill:#FFFFFF;" d="M70.523,111.175c-1.533-6.212-2.981-12.443-4.461-18.667c-1.496-6.22-2.881-12.465-4.322-18.697
					l-2.142-9.353c-0.713-3.118-1.437-6.233-2.117-9.358l-4.14-18.737l-0.248-1.123l1.157-0.004l18.083-0.069l18.083,0.067
					l1.159,0.004l-0.249,1.125l-4.14,18.737c-1.372,6.247-2.842,12.473-4.258,18.711c-1.443,6.232-2.825,12.477-4.322,18.697
					c-1.481,6.224-2.93,12.454-4.463,18.666c1.178-6.289,2.442-12.56,3.673-18.838c1.215-6.281,2.545-12.538,3.814-18.807
					c1.296-6.264,2.539-12.539,3.879-18.793l3.996-18.768l0.91,1.129l-18.083,0.067L54.25,37.097l0.909-1.127l3.997,18.768
					c0.677,3.126,1.308,6.261,1.951,9.394l1.926,9.4c1.271,6.269,2.599,12.526,3.815,18.807
					C68.08,98.616,69.344,104.886,70.523,111.175z"/>
				<path style="fill:#FFFFFF;" d="M63.292,9.042c-1.341,1.673-2.752,3.276-4.16,4.882c-1.419,1.595-2.856,3.172-4.312,4.73
					c-0.719,0.788-1.463,1.551-2.197,2.324l-2.214,2.307c-1.502,1.512-2.975,3.053-4.501,4.54l-0.302,0.295l-0.397-0.005
					c-1.884-0.023-3.767-0.01-5.651-0.068c-1.884-0.041-3.767-0.085-5.651-0.169c-1.884-0.063-3.767-0.175-5.651-0.286
					c-1.884-0.127-3.767-0.26-5.651-0.466c1.884-0.205,3.767-0.339,5.651-0.465c1.884-0.111,3.767-0.223,5.651-0.286
					c1.884-0.084,3.767-0.129,5.651-0.169c1.884-0.059,3.767-0.046,5.651-0.068l-0.699,0.29c1.488-1.526,3.029-2.999,4.54-4.501
					l2.307-2.214c0.773-0.734,1.536-1.478,2.324-2.197c1.557-1.456,3.135-2.893,4.73-4.312
					C60.016,11.794,61.619,10.383,63.292,9.042z"/>
				<path style="fill:#FFFFFF;" d="M13.563,36.167c2.637-0.127,5.274-0.219,7.911-0.3c2.637-0.079,5.274-0.19,7.911-0.243
					c5.274-0.138,10.549-0.223,15.823-0.306l0.607-0.01l0.201,0.598c2.051,6.098,4.081,12.203,6.065,18.323
					c1.008,3.055,1.981,6.121,2.959,9.185l2.914,9.2l2.859,9.218l2.794,9.239c0.921,3.083,1.833,6.169,2.71,9.266
					c0.887,3.094,1.787,6.184,2.625,9.293c-1.14-3.012-2.217-6.045-3.309-9.073c-1.101-3.025-2.166-6.061-3.223-9.1l-3.139-9.127
					l-3.075-9.148l-3.02-9.166c-1-3.058-2.005-6.113-2.975-9.18c-1.972-6.124-3.897-12.263-5.802-18.408l0.808,0.588
					c-5.274-0.083-10.549-0.168-15.823-0.306c-2.637-0.053-5.274-0.164-7.911-0.243C18.837,36.386,16.2,36.294,13.563,36.167z"/>
				<path style="fill:#FFFFFF;" d="M75.724,109.63c0.839-3.109,1.739-6.199,2.627-9.293c0.878-3.097,1.789-6.183,2.711-9.266
					c1.841-6.166,3.728-12.318,5.653-18.457l2.913-9.201l2.957-9.186c1.984-6.12,4.011-12.226,6.064-18.324l0.202-0.599l0.609,0.009
					c5.274,0.082,10.549,0.167,15.823,0.306c2.637,0.052,5.274,0.165,7.911,0.244c2.637,0.082,5.274,0.173,7.911,0.302
					c-2.637,0.128-5.274,0.22-7.911,0.302c-2.637,0.079-5.274,0.192-7.911,0.244c-5.274,0.139-10.549,0.224-15.823,0.306l0.81-0.59
					c-1.903,6.146-3.831,12.284-5.803,18.408l-2.977,9.18l-3.021,9.165c-2.031,6.105-4.1,12.197-6.215,18.275
					c-1.056,3.039-2.123,6.075-3.223,9.1C77.94,103.585,76.863,106.618,75.724,109.63z"/>
			</g>
		</g>
	</g>
</g>
<g id="Layer_1">
</g>
</svg>
