<?xml version="1.0" encoding="iso-8859-1"?>
<!-- Generator: Adobe Illustrator 19.1.1, SVG Export Plug-In . SVG Version: 6.00 Build 0)  -->
<svg version="1.1" xmlns="http://www.w3.org/2000/svg" xmlns:xlink="http://www.w3.org/1999/xlink" x="0px" y="0px"
	 viewBox="0 0 100 100" style="enable-background:new 0 0 100 100;" xml:space="preserve">
<g id="facebook">
	<g>
		<circle style="fill:#0D70FF;" cx="50" cy="50" r="50"/>
		<linearGradient id="SVGID_1_" gradientUnits="userSpaceOnUse" x1="38.5901" y1="1.8211" x2="61.2412" y2="97.4666">
			<stop  offset="0" style="stop-color:#091A57"/>
			<stop  offset="1" style="stop-color:#091A32"/>
		</linearGradient>
		<circle style="fill:url(#SVGID_1_);" cx="50" cy="50" r="49"/>
		<linearGradient id="SVGID_2_" gradientUnits="userSpaceOnUse" x1="28.0486" y1="12.3921" x2="76.4706" y2="96.0494">
			<stop  offset="0" style="stop-color:#091A57;stop-opacity:0.1"/>
			<stop  offset="1" style="stop-color:#020919"/>
		</linearGradient>
		<path style="fill:url(#SVGID_2_);" d="M3.349,65.004C9.687,84.725,28.173,99,50,99c27.062,0,49-21.938,49-49
			c0-6.928-1.439-13.519-4.034-19.492C92.318,120.159,24.29,7.111,3.349,65.004z"/>
		<path style="opacity:0.1;fill:#5271AF;" d="M50.779,24.948c11.289,3.234,20.039-17.289,7.205-23.29C55.385,1.232,52.72,1,50,1
			C22.938,1,1,22.938,1,50c0,1.814,0.106,3.603,0.298,5.365C4.568,39.659,8.122,12.727,50.779,24.948z"/>
	</g>
	<g>
		
			<ellipse transform="matrix(0.892 0.4521 -0.4521 0.892 13.4012 -28.513)" style="opacity:0.3;fill:#3887F9;" cx="66.361" cy="13.784" rx="7.25" ry="2.875"/>
		<ellipse style="opacity:0.3;fill:#3887F9;" cx="78.049" cy="21.972" rx="2.188" ry="1.938"/>
	</g>
	<g id="icons_-_round_copy_2">
		<path style="fill:#000E1E;" d="M55.913,87H38.349V50.62h-7.237V36.148h7.237v-5.033c0-2.955,0-8.455,2.739-12.057
			C44.214,14.927,48.29,13,53.913,13c9.352,0,13.446,1.351,13.616,1.408l1.613,0.547l-2.464,14.608l-2.153-0.618
			c-0.028-0.008-2.792-0.794-5.276-0.794c-2.213,0-3.335,0.613-3.335,1.822v6.175h11.701L66.501,50.62H55.913V87z M42.349,83h9.564
			V46.62h10.883l0.498-6.472H51.913V29.974c0-3.591,2.811-5.822,7.335-5.822c1.497,0,3.025,0.218,4.211,0.445l1.144-6.78
			C62.753,17.466,59.283,17,53.913,17c-4.383,0-7.265,1.339-9.638,4.476c-1.926,2.533-1.926,7.156-1.926,9.64v9.033h-7.237v6.472
			h7.237V83z"/>
		<path style="fill:#00C4FF;" d="M33.112,38.148h7.237v-7.034c0-3.101,0.078-7.884,2.331-10.846C45.053,17.132,48.311,15,53.914,15
			c9.13,0,12.974,1.302,12.974,1.302l-1.809,10.721c0,0-3.016-0.872-5.83-0.872c-2.815,0-5.336,1.009-5.336,3.822v8.175h11.541
			L64.649,48.62H53.914V85H40.349V48.62h-7.237V38.148z"/>
	</g>
</g>
<g id="Layer_1">
</g>
</svg>
