<?xml version="1.0" encoding="iso-8859-1"?>
<!-- Generator: Adobe Illustrator 19.1.1, SVG Export Plug-In . SVG Version: 6.00 Build 0)  -->
<svg version="1.1" xmlns="http://www.w3.org/2000/svg" xmlns:xlink="http://www.w3.org/1999/xlink" x="0px" y="0px"
	 viewBox="0 0 600 801.086" style="enable-background:new 0 0 600 801.086;" xml:space="preserve">
<g id="fild">
	<path style="fill:#0D70FF;" d="M550,801.086H50c-27.5,0-50-22.5-50-50v-700c0-27.5,22.5-50,50-50h500c27.5,0,50,22.5,50,50v700
		C600,778.586,577.5,801.086,550,801.086z"/>
	<path style="fill:#040E2D;" d="M530,791.086H70c-33,0-60-27-60-60v-660c0-33,27-60,60-60h460c33,0,60,27,60,60v660
		C590,764.086,563,791.086,530,791.086z"/>
	<path style="fill:#091A57;" d="M527,786.086H73c-31.9,0-58-26.1-58-58v-654c0-31.9,26.1-58,58-58h454c31.9,0,58,26.1,58,58v654
		C585,759.986,558.9,786.086,527,786.086z"/>
	<path style="fill:#0D70FF;" d="M505.5,770.086h-411c-35.29,0-64-28.71-64-64v-280c0-35.29,28.71-64,64-64h411
		c35.29,0,64,28.71,64,64v280C569.5,741.376,540.789,770.086,505.5,770.086z M94.5,370.086c-30.878,0-56,25.122-56,56v280
		c0,30.879,25.122,56,56,56h411c30.878,0,56-25.121,56-56v-280c0-30.878-25.122-56-56-56H94.5z"/>
	<path style="fill:#55DFFF;" d="M505.5,766.086h-411c-33.137,0-60-26.863-60-60v-280c0-33.137,26.863-60,60-60h411
		c33.137,0,60,26.863,60,60v280C565.5,739.223,538.637,766.086,505.5,766.086z"/>
	<g>
		<path style="fill:#0F53EA;" d="M515.183,328.667c-5.854,0-14.27-4.669-22.412-9.186c-5.995-3.336-12.759-7.099-15.582-7.099
			c-2.962,0.034-9.986,3.87-15.631,6.953c-8.032,4.353-16.337,8.854-22.206,8.946c-2.076,0.04-3.836-0.453-5.274-1.48
			c-5.841-4.311-3.539-16.039-1.101-28.456l0.023-0.122c1.302-6.659,2.778-14.206,1.924-16.858
			c-0.861-2.675-6.482-8.008-11.44-12.714c-9.191-8.704-17.872-16.926-15.593-23.815c2.268-6.854,14.099-8.293,26.626-9.816
			l0.085-0.011c6.448-0.781,14.473-1.754,16.784-3.398c2.281-1.659,5.756-8.952,8.548-14.813
			c5.426-11.356,10.534-22.044,17.697-22.165l0.201,0.027c7.192,0.012,12.228,10.845,17.558,22.313
			c2.886,6.209,6.149,13.228,8.421,14.886c2.25,1.667,16.9,3.588,16.9,3.588c12.482,1.65,24.272,3.209,26.471,10.083v0.001
			c2.187,6.887-6.534,14.993-15.766,23.575l-0.363,0.339c-4.884,4.558-10.42,9.724-11.287,12.328
			c-0.869,2.712,0.603,10.639,1.785,17.01c2.306,12.482,4.471,24.202-1.386,28.417c-1.31,0.944-2.927,1.436-4.805,1.464
			C515.303,328.667,515.242,328.667,515.183,328.667z M477.185,311.609c3.027,0,9.885,3.816,15.936,7.182
			c8.081,4.483,16.409,9.103,22.061,9.103c0.056,0,0.112,0,0.168-0.001c1.717-0.025,3.185-0.468,4.365-1.318
			c5.459-3.929,3.338-15.414,1.091-27.574c-1.212-6.53-2.704-14.564-1.774-17.465c0.931-2.795,6.302-7.807,11.495-12.653l0.365-0.34
			c9.048-8.41,17.593-16.355,15.555-22.774c-2.051-6.406-13.604-7.934-25.835-9.552l-0.25-0.033
			c-6.842-0.897-14.598-1.914-17.007-3.698c-2.431-1.774-5.738-8.889-8.656-15.167c-5.232-11.255-10.166-21.871-16.93-21.888
			l-0.193-0.027c-6.613,0.118-11.621,10.596-16.922,21.69c-2.996,6.288-6.37,13.371-8.813,15.147
			c-2.474,1.761-10.267,2.705-17.142,3.539l-0.086,0.01c-12.276,1.493-23.871,2.903-25.985,9.292
			c-2.124,6.422,6.383,14.479,15.391,23.01c5.026,4.77,10.723,10.176,11.644,13.038c0.916,2.842-0.58,10.493-1.9,17.243
			l-0.024,0.122c-2.389,12.17-4.646,23.665,0.797,27.681c1.293,0.924,2.896,1.376,4.805,1.332c5.681-0.09,13.901-4.544,21.851-8.852
			C467.205,315.37,474.025,311.645,477.185,311.609z"/>
		<path style="fill:#06267F;" d="M546.435,245.738c-2.123-6.635-13.808-8.151-26.181-9.787c-6.782-0.889-14.487-1.894-16.813-3.616
			c-2.342-1.709-5.608-8.739-8.496-14.953c-5.252-11.298-10.224-21.957-17.178-21.974l-0.129-0.021
			c-6.893,0.116-11.917,10.646-17.259,21.824c-2.944,6.179-6.292,13.183-8.625,14.88c-2.359,1.679-10.065,2.624-16.868,3.448
			c-12.36,1.503-24.063,2.912-26.246,9.512c-2.183,6.6,6.356,14.712,15.407,23.284c4.968,4.715,10.594,10.057,11.479,12.806
			s-0.615,10.375-1.925,17.078c-2.398,12.213-4.663,23.777,0.941,27.913c1.341,0.958,3.026,1.443,5.015,1.4
			c5.72-0.09,13.95-4.539,21.905-8.851c5.961-3.255,12.721-6.927,15.729-6.961c2.91,0,9.691,3.775,15.674,7.103
			c8.135,4.513,16.555,9.185,22.283,9.091c1.788-0.026,3.313-0.485,4.56-1.383c5.639-4.058,3.49-15.618,1.225-27.879
			c-1.246-6.716-2.643-14.36-1.762-17.108c0.911-2.735,6.601-8.009,11.617-12.69C539.92,260.364,548.541,252.373,546.435,245.738z"
			/>
		<linearGradient id="SVGID_1_" gradientUnits="userSpaceOnUse" x1="477.5247" y1="199.0687" x2="477.5247" y2="324.2336">
			<stop  offset="1.076729e-007" style="stop-color:#091A57"/>
			<stop  offset="1" style="stop-color:#091A32"/>
		</linearGradient>
		<path style="fill:url(#SVGID_1_);" d="M542.607,246.622c-2.005-6.266-13.041-7.698-24.727-9.243
			c-6.405-0.84-13.683-1.789-15.878-3.415c-2.212-1.614-5.297-8.253-8.024-14.122c-4.96-10.671-9.656-20.737-16.223-20.753
			l-0.122-0.02c-6.51,0.11-11.255,10.054-16.301,20.611c-2.78,5.836-5.942,12.451-8.146,14.053
			c-2.228,1.586-9.506,2.478-15.931,3.257c-11.673,1.42-22.726,2.75-24.788,8.983c-2.062,6.234,6.003,13.895,14.551,21.99
			c4.692,4.453,10.005,9.499,10.841,12.094c0.836,2.596-0.58,9.799-1.818,16.13c-2.265,11.534-4.404,22.457,0.889,26.362
			c1.266,0.904,2.857,1.363,4.737,1.322c5.402-0.085,13.175-4.287,20.688-8.359c5.63-3.074,12.014-6.542,14.856-6.574
			c2.748,0,9.153,3.565,14.803,6.708c7.684,4.263,15.635,8.675,21.045,8.586c1.689-0.024,3.129-0.458,4.307-1.306
			c5.325-3.833,3.296-14.751,1.157-26.33c-1.177-6.343-2.496-13.562-1.664-16.158c0.86-2.583,6.234-7.564,10.971-11.985
			C536.453,260.436,544.596,252.888,542.607,246.622z"/>
	</g>
	<g>
		<path style="fill:#0F53EA;" d="M326.042,349.307c-4.6,0-11.212-3.668-17.609-7.217c-4.711-2.621-10.025-5.578-12.243-5.578
			c-2.328,0.027-7.846,3.041-12.282,5.463c-6.311,3.42-12.837,6.957-17.447,7.029c-1.631,0.032-3.014-0.356-4.144-1.163
			c-4.589-3.387-2.78-12.602-0.865-22.358l0.018-0.096c1.023-5.232,2.183-11.162,1.512-13.245c-0.677-2.102-5.093-6.292-8.989-9.99
			c-7.222-6.839-14.042-13.299-12.252-18.711c1.782-5.385,11.078-6.516,20.92-7.713l0.067-0.008
			c5.067-0.614,11.372-1.378,13.187-2.67c1.792-1.303,4.522-7.034,6.716-11.639c4.264-8.922,8.277-17.32,13.905-17.415l0.158,0.021
			c5.651,0.01,9.607,8.521,13.796,17.532c2.268,4.878,4.831,10.393,6.617,11.696c1.768,1.31,13.279,2.819,13.279,2.819
			c9.807,1.297,19.07,2.521,20.799,7.923v0.001c1.718,5.411-5.134,11.78-12.387,18.523l-0.285,0.266
			c-3.837,3.581-8.187,7.64-8.868,9.687c-0.683,2.131,0.474,8.36,1.402,13.365c1.812,9.807,3.513,19.016-1.089,22.328
			c-1.03,0.742-2.3,1.129-3.776,1.15C326.136,349.306,326.088,349.307,326.042,349.307z M296.186,335.904
			c2.379,0,7.767,2.998,12.521,5.643c6.35,3.523,12.893,7.152,17.334,7.152c0.044,0,0.088,0,0.132-0.001
			c1.349-0.02,2.503-0.368,3.43-1.035c4.289-3.087,2.623-12.111,0.858-21.665c-0.953-5.13-2.125-11.443-1.394-13.723
			c0.732-2.196,4.951-6.134,9.032-9.942l0.287-0.267c7.109-6.608,13.823-12.85,12.222-17.894
			c-1.611-5.034-10.689-6.234-20.299-7.505l-0.196-0.026c-5.376-0.705-11.47-1.504-13.363-2.906
			c-1.91-1.394-4.509-6.984-6.801-11.917c-4.111-8.844-7.988-17.184-13.302-17.197l-0.152-0.021
			c-5.196,0.093-9.131,8.326-13.296,17.042c-2.354,4.94-5.005,10.506-6.925,11.901c-1.944,1.384-8.067,2.126-13.469,2.78
			l-0.068,0.008c-9.645,1.173-18.756,2.281-20.417,7.3c-1.669,5.046,5.016,11.377,12.093,18.079
			c3.949,3.748,8.425,7.995,9.149,10.244c0.72,2.233-0.456,8.244-1.493,13.548l-0.019,0.096c-1.877,9.562-3.651,18.594,0.626,21.75
			c1.016,0.726,2.275,1.081,3.775,1.047c4.464-0.07,10.923-3.57,17.168-6.955C288.345,338.859,293.703,335.932,296.186,335.904z"/>
		<path style="fill:#06267F;" d="M350.597,284.148c-1.668-5.213-10.849-6.404-20.571-7.69c-5.328-0.698-11.383-1.488-13.21-2.841
			c-1.84-1.343-4.407-6.866-6.676-11.749c-4.126-8.877-8.033-17.252-13.497-17.265l-0.101-0.017
			c-5.416,0.091-9.364,8.364-13.561,17.147c-2.313,4.855-4.944,10.358-6.777,11.691c-1.854,1.319-7.908,2.062-13.254,2.709
			c-9.711,1.181-18.906,2.288-20.622,7.474c-1.715,5.186,4.994,11.56,12.106,18.294c3.904,3.705,8.324,7.902,9.019,10.062
			c0.696,2.159-0.483,8.152-1.513,13.419c-1.884,9.596-3.664,18.682,0.74,21.932c1.054,0.752,2.377,1.134,3.941,1.1
			c4.494-0.071,10.961-3.566,17.211-6.954c4.684-2.558,9.995-5.442,12.359-5.469c2.286,0,7.615,2.966,12.315,5.581
			c6.392,3.546,13.007,7.217,17.508,7.143c1.405-0.02,2.603-0.381,3.583-1.086c4.43-3.189,2.742-12.272,0.962-21.905
			c-0.979-5.277-2.077-11.283-1.384-13.442c0.716-2.149,5.187-6.293,9.127-9.97C345.478,295.64,352.251,289.361,350.597,284.148z"/>
		<linearGradient id="SVGID_2_" gradientUnits="userSpaceOnUse" x1="296.4528" y1="247.4792" x2="296.4528" y2="345.8231">
			<stop  offset="1.076729e-007" style="stop-color:#091A57"/>
			<stop  offset="1" style="stop-color:#091A32"/>
		</linearGradient>
		<path style="fill:url(#SVGID_2_);" d="M347.589,284.843c-1.575-4.923-10.247-6.048-19.428-7.262
			c-5.032-0.66-10.751-1.405-12.476-2.683c-1.738-1.268-4.162-6.485-6.305-11.096c-3.897-8.384-7.587-16.293-12.747-16.306
			l-0.096-0.016c-5.115,0.086-8.843,7.9-12.808,16.194c-2.185,4.586-4.669,9.783-6.401,11.042
			c-1.751,1.246-7.469,1.947-12.517,2.559c-9.172,1.115-17.856,2.161-19.476,7.058c-1.62,4.898,4.717,10.917,11.433,17.278
			c3.687,3.499,7.861,7.463,8.518,9.503c0.657,2.039-0.456,7.699-1.429,12.673c-1.78,9.063-3.46,17.644,0.698,20.713
			c0.995,0.711,2.245,1.071,3.722,1.039c4.245-0.067,10.352-3.368,16.255-6.568c4.423-2.415,9.44-5.14,11.672-5.166
			c2.159,0,7.191,2.801,11.631,5.271c6.037,3.349,12.285,6.816,16.536,6.746c1.327-0.019,2.459-0.36,3.384-1.026
			c4.184-3.011,2.59-11.59,0.909-20.688c-0.925-4.984-1.961-10.656-1.308-12.696c0.676-2.03,4.898-5.943,8.62-9.417
			C342.754,295.696,349.151,289.766,347.589,284.843z"/>
	</g>
	<g>
		<path style="fill:#0F53EA;" d="M160.136,328.667c-5.854,0-14.27-4.669-22.412-9.186c-5.995-3.336-12.759-7.099-15.582-7.099
			c-2.962,0.034-9.986,3.87-15.631,6.953c-8.032,4.353-16.337,8.854-22.206,8.946c-2.076,0.04-3.836-0.453-5.274-1.48
			c-5.841-4.311-3.539-16.039-1.101-28.456l0.023-0.122c1.302-6.659,2.778-14.206,1.924-16.858
			c-0.861-2.675-6.482-8.008-11.44-12.714c-9.191-8.704-17.872-16.926-15.593-23.815c2.268-6.854,14.099-8.293,26.626-9.816
			l0.085-0.011c6.448-0.781,14.473-1.754,16.784-3.398c2.281-1.659,5.756-8.952,8.548-14.813
			c5.426-11.356,10.534-22.044,17.697-22.165l0.201,0.027c7.192,0.012,12.228,10.845,17.558,22.313
			c2.886,6.209,6.149,13.228,8.421,14.886c2.25,1.667,16.9,3.588,16.9,3.588c12.482,1.65,24.272,3.209,26.471,10.083v0.001
			c2.187,6.887-6.534,14.993-15.766,23.575l-0.363,0.339c-4.884,4.558-10.42,9.724-11.287,12.328
			c-0.869,2.712,0.603,10.639,1.785,17.01c2.306,12.482,4.471,24.202-1.386,28.417c-1.311,0.944-2.927,1.436-4.806,1.464
			C160.255,328.667,160.195,328.667,160.136,328.667z M122.137,311.609c3.027,0,9.885,3.816,15.936,7.182
			c8.081,4.483,16.409,9.103,22.061,9.103c0.056,0,0.112,0,0.168-0.001c1.717-0.025,3.185-0.468,4.365-1.318
			c5.459-3.929,3.338-15.414,1.091-27.574c-1.212-6.53-2.704-14.564-1.774-17.465c0.931-2.795,6.302-7.807,11.495-12.653l0.365-0.34
			c9.048-8.41,17.593-16.355,15.555-22.774c-2.051-6.406-13.604-7.934-25.835-9.552l-0.25-0.033
			c-6.842-0.897-14.598-1.914-17.007-3.698c-2.431-1.774-5.738-8.889-8.656-15.167c-5.232-11.255-10.166-21.871-16.93-21.888
			l-0.193-0.027c-6.613,0.118-11.621,10.596-16.922,21.69c-2.996,6.288-6.37,13.371-8.813,15.147
			c-2.474,1.761-10.267,2.705-17.142,3.539l-0.086,0.01c-12.276,1.493-23.871,2.903-25.985,9.292
			c-2.124,6.422,6.383,14.479,15.391,23.01c5.026,4.77,10.723,10.176,11.644,13.038c0.916,2.842-0.58,10.493-1.9,17.243
			l-0.024,0.122c-2.389,12.17-4.646,23.665,0.797,27.681c1.293,0.924,2.896,1.376,4.805,1.332c5.681-0.09,13.901-4.544,21.851-8.852
			C112.158,315.37,118.978,311.645,122.137,311.609z"/>
		<path style="fill:#06267F;" d="M191.388,245.738c-2.123-6.635-13.808-8.151-26.181-9.787c-6.782-0.889-14.487-1.894-16.812-3.616
			c-2.342-1.709-5.608-8.739-8.496-14.953c-5.252-11.298-10.224-21.957-17.178-21.974l-0.129-0.021
			c-6.893,0.116-11.917,10.646-17.259,21.824c-2.944,6.179-6.292,13.183-8.625,14.88c-2.359,1.679-10.065,2.624-16.868,3.448
			c-12.36,1.503-24.063,2.912-26.246,9.512c-2.183,6.6,6.356,14.712,15.407,23.284c4.968,4.715,10.594,10.057,11.479,12.806
			c0.885,2.748-0.615,10.375-1.925,17.078c-2.398,12.213-4.663,23.777,0.941,27.913c1.341,0.958,3.026,1.443,5.015,1.4
			c5.72-0.09,13.95-4.539,21.905-8.851c5.961-3.255,12.721-6.927,15.729-6.961c2.91,0,9.691,3.775,15.674,7.103
			c8.135,4.513,16.555,9.185,22.283,9.091c1.788-0.026,3.314-0.485,4.56-1.383c5.639-4.058,3.49-15.618,1.225-27.879
			c-1.246-6.716-2.643-14.36-1.762-17.108c0.911-2.735,6.601-8.009,11.617-12.69C184.872,260.364,193.493,252.373,191.388,245.738z"
			/>
		<linearGradient id="SVGID_3_" gradientUnits="userSpaceOnUse" x1="122.4773" y1="199.0687" x2="122.4773" y2="324.2336">
			<stop  offset="1.076729e-007" style="stop-color:#091A57"/>
			<stop  offset="1" style="stop-color:#091A32"/>
		</linearGradient>
		<path style="fill:url(#SVGID_3_);" d="M187.559,246.622c-2.005-6.266-13.041-7.698-24.727-9.243
			c-6.405-0.84-13.683-1.789-15.878-3.415c-2.212-1.614-5.297-8.253-8.024-14.122c-4.96-10.671-9.656-20.737-16.223-20.753
			l-0.122-0.02c-6.51,0.11-11.255,10.054-16.301,20.611c-2.78,5.836-5.942,12.451-8.146,14.053
			c-2.228,1.586-9.506,2.478-15.931,3.257c-11.673,1.42-22.726,2.75-24.788,8.983c-2.062,6.234,6.003,13.895,14.551,21.99
			c4.692,4.453,10.005,9.499,10.841,12.094c0.836,2.596-0.58,9.799-1.818,16.13c-2.265,11.534-4.404,22.457,0.889,26.362
			c1.266,0.904,2.857,1.363,4.737,1.322c5.402-0.085,13.175-4.287,20.688-8.359c5.63-3.074,12.014-6.542,14.856-6.574
			c2.748,0,9.153,3.565,14.803,6.708c7.684,4.263,15.635,8.675,21.045,8.586c1.689-0.024,3.129-0.458,4.307-1.306
			c5.325-3.833,3.296-14.751,1.157-26.33c-1.177-6.343-2.496-13.562-1.664-16.158c0.86-2.583,6.234-7.564,10.971-11.985
			C181.406,260.436,189.548,252.888,187.559,246.622z"/>
	</g>
	<g id="conpleted">
		<polygon style="opacity:0.6;fill:#040E2D;" points="557.524,167.379 299.512,242.01 42.476,167.379 42.476,0 557.524,0 		"/>
		<polygon style="fill:#F0BB29;" points="547.524,157.379 299.512,232.01 52.476,157.379 52.476,0 547.524,0 		"/>
		<rect x="52.476" y="0" style="fill:#C17900;" width="495.047" height="21.379"/>
		<g>
			<g>
				<g>
					<g>
						<path style="fill:#C17900;" d="M114.881,86.953c2.179,0.257,4.329,0.61,6.48,0.959c2.136,0.399,4.286,0.753,6.409,1.193
							c0.97,0.201,1.607,1.121,1.468,2.088l-0.054,0.374c-0.422,2.908-1.286,5.868-2.855,8.623c-0.196,0.343-0.406,0.68-0.625,1.013
							l-0.344,0.507c-0.106,0.149-0.177,0.265-0.319,0.449c-0.516,0.689-1,1.278-1.57,1.873c-1.122,1.168-2.403,2.213-3.792,3.077
							c-0.695,0.426-1.423,0.815-2.15,1.15c-0.288,0.137-0.817,0.36-1.159,0.488c-0.383,0.151-0.767,0.282-1.152,0.408
							c-1.543,0.488-3.087,0.788-4.612,0.993c-1.528,0.207-3.028,0.272-4.532,0.285c-0.645,0.007-1.497-0.001-2.215-0.031
							c-0.745-0.035-1.495-0.097-2.248-0.171c-3.014-0.331-6.083-1.026-9.061-2.599c-2.951-1.555-5.332-3.963-7.019-6.52
							c-0.435-0.639-0.819-1.297-1.194-1.954c-0.183-0.347-0.347-0.631-0.543-1.027l-0.225-0.467l-0.251-0.553
							c-0.649-1.463-1.084-2.9-1.402-4.375c-0.672-2.927-0.785-5.852-0.717-8.702c0.085-2.815,0.336-5.713,0.974-8.503
							c0.621-2.804,1.647-5.574,3.237-8.067c0.792-1.235,1.727-2.43,2.749-3.467c1.03-1.077,2.215-2.062,3.46-2.884
							c2.505-1.674,5.348-2.842,8.255-3.529c1.454-0.348,2.926-0.594,4.4-0.762c1.487-0.147,2.901-0.256,4.442-0.24
							c2.989,0.044,6.121,0.417,9.199,1.625c0.764,0.308,1.524,0.656,2.263,1.071c0.372,0.2,0.735,0.424,1.096,0.654l0.135,0.086
							l0.185,0.128l0.212,0.147c0.152,0.109,0.26,0.173,0.449,0.318c0.762,0.573,1.365,1.089,1.979,1.674
							c0.6,0.582,1.174,1.19,1.696,1.83c2.116,2.556,3.582,5.449,4.631,8.358c0.737,2.045-0.323,4.301-2.368,5.038
							c-0.125,0.045-0.25,0.083-0.376,0.115l-0.205,0.051l-6.214,1.551c-2.068,0.531-4.151,0.999-6.228,1.488
							c-2.143,0.504-4.289-0.716-4.981-2.759l-0.05-0.149c-0.167-0.499-0.334-0.972-0.493-1.332
							c-0.078-0.177-0.154-0.322-0.201-0.404c-0.022-0.036-0.036-0.057-0.031-0.052l-0.174-0.229
							c-0.412-0.502-0.865-0.858-1.406-1.128c-0.513-0.243-1.11-0.389-1.946-0.382c-0.794-0.02-1.484,0.099-2.039,0.334
							c-0.562,0.238-1.072,0.594-1.586,1.177c-0.066,0.067-0.124,0.153-0.188,0.228l-0.048,0.058L102,76.106l-0.006,0.007
							c0.088-0.136,0.019-0.031,0.037-0.058l-0.017,0.025l-0.137,0.198l-0.135,0.198c-0.02,0.01-0.079,0.135-0.121,0.2
							c-0.182,0.325-0.349,0.726-0.5,1.169c-0.31,0.887-0.525,1.948-0.667,3.057c-0.139,1.103-0.235,2.296-0.273,3.494
							c-0.041,1.157-0.03,2.337,0.072,3.429c0.104,1.092,0.283,2.139,0.56,2.963c0.069,0.206,0.144,0.4,0.226,0.566
							c0.038,0.091,0.08,0.168,0.122,0.241c0.004,0.017,0.078,0.124,0.023,0.069l0.143,0.194l0.194,0.262
							c0.034,0.06,0.121,0.148,0.184,0.225c0.137,0.158,0.287,0.301,0.442,0.441c0.63,0.537,1.443,0.946,2.43,1.188
							c0.245,0.062,0.501,0.109,0.763,0.146l0.198,0.027l0.05,0.007c-0.008,0.001,0.054,0.002-0.012,0.004l0.03,0.002l0.121,0.009
							l0.45,0.033c0.491,0.038,1.061,0.032,1.562-0.022c1.029-0.096,1.975-0.388,2.784-0.985c0.836-0.651,1.594-1.535,2.228-2.575
							c0.628-1.035,1.164-2.179,1.625-3.371c0.08-0.206,0.287-0.324,0.497-0.3L114.881,86.953z M115.1,87.931
							c-0.099,1.148-0.27,2.307-0.623,3.453c-0.397,1.305-0.994,2.654-1.972,3.828c-1.021,1.217-2.471,2.092-3.943,2.554
							c-0.751,0.233-1.459,0.383-2.25,0.481l-0.512,0.06l-0.12,0.014l-0.03,0.003l-0.072,0.003l-0.071,0.004l-0.283,0.017
							c-0.379,0.021-0.764,0.028-1.156,0.01c-1.558-0.047-3.259-0.447-4.762-1.349c-0.372-0.225-0.735-0.47-1.076-0.74
							c-0.171-0.141-0.331-0.26-0.515-0.436l-0.462-0.442l-0.172-0.169l-0.27-0.313c-0.156-0.18-0.302-0.363-0.429-0.547
							c-0.273-0.369-0.501-0.743-0.707-1.116c-0.829-1.498-1.261-2.974-1.577-4.409c-0.318-1.442-0.502-2.827-0.63-4.235
							c-0.117-1.368-0.213-2.745-0.17-4.204c0.043-1.45,0.169-2.946,0.534-4.538c0.186-0.794,0.438-1.611,0.8-2.45
							c0.102-0.222,0.167-0.393,0.31-0.66l0.346-0.635l0.12-0.209l0.215-0.335c0.124-0.185,0.237-0.371,0.375-0.553
							c1.028-1.468,2.521-2.826,4.268-3.715c1.75-0.906,3.634-1.314,5.403-1.395c1.725-0.088,3.729,0.168,5.573,0.958
							c1.815,0.753,3.45,2.013,4.654,3.505l0.414,0.533c0.195,0.264,0.356,0.512,0.501,0.75c0.28,0.47,0.494,0.899,0.678,1.307
							c0.363,0.813,0.625,1.552,0.844,2.277l-5.031-2.907c2.089-0.438,4.173-0.897,6.272-1.293l6.286-1.23l-2.95,5.204
							c-0.702-2.302-1.621-4.469-2.918-6.251c-0.317-0.452-0.665-0.87-1.026-1.274c-0.354-0.394-0.78-0.796-1.096-1.081
							c-0.076-0.075-0.253-0.205-0.375-0.305l-0.202-0.161l-0.051-0.04c-0.07-0.051,0.066,0.047,0.045,0.032l-0.02-0.014
							l-0.079-0.058c-0.209-0.157-0.419-0.314-0.645-0.457c-0.44-0.297-0.917-0.561-1.413-0.809
							c-1.985-0.991-4.347-1.652-6.843-1.996c-1.206-0.184-2.55-0.316-3.816-0.384c-1.278-0.056-2.553-0.045-3.817,0.051
							c-2.525,0.192-5.006,0.77-7.263,1.874c-1.133,0.567-2.173,1.231-3.158,2.032c-0.993,0.84-1.864,1.747-2.62,2.789
							c-1.532,2.059-2.523,4.525-3.085,7.092c-0.271,1.287-0.465,2.6-0.52,3.928c-0.04,0.671-0.057,1.297-0.046,1.98l0.028,1.034
							l0.055,0.977c0.191,2.652,0.767,5.246,1.711,7.592c0.483,1.159,1.082,2.289,1.748,3.248l0.245,0.353l0.306,0.419l0.567,0.715
							c0.405,0.478,0.809,0.95,1.24,1.383c1.721,1.755,3.586,3.08,5.628,3.889c2.014,0.79,4.415,1.251,6.866,1.503
							c0.618,0.06,1.241,0.112,1.872,0.141c0.657,0.044,1.183,0.069,1.915,0.084c1.25,0.038,2.507-0.012,3.718-0.096
							c1.212-0.093,2.392-0.266,3.497-0.541c0.276-0.066,0.552-0.135,0.817-0.217c0.311-0.094,0.424-0.121,0.77-0.25
							c0.542-0.198,1.051-0.42,1.554-0.674c1.006-0.496,1.954-1.105,2.824-1.84c0.426-0.355,0.882-0.777,1.244-1.148
							c0.083-0.076,0.219-0.237,0.328-0.356l0.28-0.316c0.19-0.221,0.377-0.447,0.554-0.683c1.46-1.859,2.568-4.133,3.433-6.571
							l1.414,2.462c-2.012-0.81-3.998-1.706-5.997-2.557C118.742,89.677,116.911,88.836,115.1,87.931z"/>
					</g>
				</g>
				<g>
					<g>
						<path style="fill:#C17900;" d="M131.866,83.204c0,0-0.007-0.591,0.026-1.72c0.03-1.142,0.089-2.794,0.319-4.93
							c0.265-2.124,0.645-4.769,1.806-7.757c1.175-2.945,3.223-6.272,6.64-8.737c3.371-2.505,7.869-3.86,12.38-3.978
							c1.139-0.026,2.251,0.005,3.423,0.111c0.979,0.102,2.316,0.263,3.42,0.508c2.304,0.473,4.629,1.247,6.843,2.31
							c1.098,0.562,2.188,1.141,3.216,1.838c1.019,0.712,2.004,1.466,2.926,2.297c0.91,0.824,1.791,1.76,2.544,2.673
							c0.84,0.981,1.513,1.989,2.171,3.06c2.57,4.298,3.813,9.307,4.34,14.337c0.249,2.486,0.321,5.067,0.037,7.697
							c-0.169,1.31-0.427,2.632-0.802,3.951c-0.186,0.659-0.43,1.308-0.683,1.957c-0.146,0.334-0.253,0.617-0.44,0.991
							c-0.132,0.271-0.235,0.505-0.429,0.859c-1.323,2.504-3.089,4.69-5.19,6.51c-0.521,0.456-1.064,0.879-1.616,1.281
							c-0.275,0.205-0.559,0.391-0.841,0.581l-0.43,0.271l-0.215,0.134l-0.108,0.067l-0.164,0.094l-0.368,0.214l-0.184,0.107
							l-0.245,0.13c-0.33,0.174-0.67,0.352-0.966,0.489c-0.613,0.298-1.234,0.56-1.856,0.798c-2.491,0.97-5.02,1.457-7.439,1.673
							c-1.229,0.097-2.364,0.141-3.601,0.128c-0.558-0.024-1.112-0.047-1.663-0.071c-0.594-0.035-1.143-0.073-1.715-0.131
							c-2.256-0.241-4.489-0.656-6.612-1.365c-1.064-0.345-2.091-0.786-3.074-1.285c-0.505-0.248-0.943-0.517-1.455-0.828
							c-0.329-0.223-0.884-0.572-1.312-0.904c-1.716-1.278-3.067-2.823-4.143-4.339c-1.063-1.541-1.82-3.097-2.419-4.556
							c-1.19-2.999-1.587-5.656-1.832-7.788c-0.228-2.141-0.259-3.802-0.283-4.935c-0.028-1.132-0.004-1.734-0.004-1.734
							L131.866,83.204z M132.665,83.211c0,0,0.002,0.592,0.075,1.695c0.079,1.1,0.27,2.724,0.85,4.683
							c0.584,1.946,1.653,4.231,3.463,6.233c1.812,2.063,4.218,3.865,6.962,4.923c2.714,1.052,5.922,1.697,9.599,1.815
							c0.45,0.024,0.933,0.032,1.377,0.036c0.488-0.004,0.979-0.007,1.473-0.011c0.867-0.015,1.862-0.048,2.778-0.134
							c1.867-0.151,3.702-0.454,5.44-0.957c0.434-0.128,0.862-0.271,1.277-0.436l0.568-0.229l0.136-0.055l0.191-0.093l0.383-0.187
							l0.048-0.023c0.078-0.042-0.051,0.03-0.025,0.016l0.077-0.04l0.153-0.08l0.307-0.161l0.602-0.341
							c0.397-0.234,0.789-0.48,1.163-0.748c1.502-1.047,2.842-2.44,3.896-3.988c0.113-0.147,0.284-0.434,0.436-0.678l0.359-0.584
							c0.24-0.421,0.468-0.856,0.685-1.309c0.446-0.899,0.83-1.868,1.153-2.882c0.699-2.023,1.162-4.223,1.447-6.507
							c0.298-2.245,0.347-4.532,0.061-6.764c-0.302-2.226-0.991-4.393-2.105-6.296c-0.535-0.951-1.216-1.864-1.922-2.625
							c-0.784-0.833-1.57-1.518-2.465-2.124c-1.774-1.198-3.779-1.921-5.783-2.328c-2.024-0.372-4.041-0.475-6.025-0.393
							c-1.038,0.029-1.832,0.091-2.956,0.172c-0.932,0.07-1.898,0.18-2.806,0.281c-3.659,0.462-6.836,1.232-9.6,2.453
							c-2.765,1.19-5.21,2.938-6.967,4.989c-1.794,2.04-2.849,4.34-3.434,6.29c-0.565,1.965-0.755,3.597-0.815,4.688
							c-0.054,1.106-0.059,1.708-0.059,1.708L132.665,83.211z"/>
						<path style="fill:#C17900;" d="M146.822,83.271c0,0-0.005,0.286,0.022,0.826c0.042,0.527,0.11,1.312,0.407,2.269
							c0.278,0.95,0.817,2.089,1.671,3.109c0.412,0.509,0.896,0.984,1.417,1.336c0.249,0.18,0.513,0.333,0.758,0.454
							c0.048,0.012,0.153,0.103,0.151,0.051c0.091,0.059,0.186,0.115,0.274,0.178c0.185,0.128,0.236,0.09,0.367,0.153
							c1.071,0.439,1.9,0.701,3.218,1.062c0.345,0.083,0.695,0.167,1.049,0.251c0.122,0.014,0.266,0.044,0.373,0.064l0.241,0.06
							l0.568,0.115c0.781,0.147,1.593,0.237,2.426,0.115c0.83-0.111,1.694-0.477,2.384-1.114c0.652-0.572,1.148-1.507,1.408-2.501
							c0.578-2.012,0.362-4.303-0.173-6.485l-0.1-0.411l-0.106-0.392c-0.073-0.288-0.146-0.584-0.227-0.814
							c-0.144-0.48-0.318-1.005-0.496-1.476c-0.342-0.961-0.713-1.827-1.077-2.569c-0.374-0.734-0.79-1.313-1.22-1.666l-0.08-0.065
							l-0.039-0.033l-0.01-0.008c-0.067-0.074,0.082,0.092,0.058,0.068l-0.039-0.035l-0.311-0.277
							c-0.106-0.053-0.16-0.083-0.309-0.175c-0.249-0.151-0.503-0.256-0.748-0.361c-0.504-0.181-1.023-0.322-1.638-0.399
							c-0.304-0.043-0.624-0.084-0.965-0.102l-0.127-0.011l-0.032-0.003l-0.016-0.001c-0.092,0,0.108-0.002,0.078-0.002
							l-0.095-0.002l-0.378-0.007c-0.174,0.004-0.2-0.021-0.376-0.012c-0.596-0.02-1.095,0.053-1.584,0.138
							c-0.483,0.095-0.989,0.201-1.538,0.403c-0.268,0.102-0.567,0.228-0.832,0.359c-0.218,0.16-0.254,0.137-0.382,0.185
							c-0.112,0.036-0.25,0.148-0.379,0.222c-0.523,0.343-1.021,0.811-1.43,1.319c-0.857,1.016-1.394,2.153-1.68,3.1
							c-0.294,0.955-0.396,1.739-0.442,2.27C146.825,82.988,146.822,83.271,146.822,83.271z M146.022,83.276
							c0,0,0.004-0.293-0.022-0.841c-0.007-0.548-0.074-1.35-0.153-2.402c-0.078-1.056-0.248-2.355-0.276-4.025
							c0.01-0.831,0.063-1.763,0.315-2.792c0.079-0.261,0.131-0.502,0.247-0.798c0.105-0.282,0.287-0.652,0.337-0.809
							c0.233-0.531,0.529-1.01,0.874-1.517c0.71-0.981,1.685-1.939,2.898-2.621c1.2-0.702,2.586-1.138,3.959-1.371
							c0.314-0.058,0.787-0.098,1.114-0.128l0.377-0.024l0.095-0.006l0.22-0.003l0.254-0.003c0.675-0.003,1.382,0.044,2.106,0.161
							c1.44,0.231,2.978,0.747,4.366,1.61c0.698,0.423,1.342,0.943,1.929,1.502c0.274,0.259,0.612,0.614,0.899,0.95l0.251,0.333
							l0.031,0.042c-0.011-0.012,0.148,0.168,0.092,0.108l0.023,0.032l0.093,0.128l0.184,0.257c0.96,1.388,1.537,2.867,1.876,4.284
							c0.326,1.419,0.404,2.808,0.3,4.13c-0.058,0.671-0.141,1.293-0.25,1.964c-0.052,0.345-0.121,0.626-0.187,0.913l-0.103,0.472
							l-0.109,0.453c-0.615,2.416-1.18,4.77-1.889,7.12c-0.387,1.174-0.794,2.344-1.496,3.543c-0.66,1.131-1.519,2.204-2.588,3.122
							c-1.064,0.92-2.331,1.599-3.604,2.046c-0.326,0.105-0.623,0.209-0.974,0.282c-0.308,0.064-0.614,0.128-0.918,0.191
							c-0.667,0.099-1.291,0.146-1.956,0.117c-1.312-0.031-2.657-0.37-3.856-0.96c-1.205-0.591-2.213-1.47-2.953-2.414
							c-0.178-0.239-0.437-0.572-0.536-0.758c-0.054-0.094-0.099-0.195-0.148-0.292c-0.145-0.205-0.16-0.286-0.243-0.433
							c-0.279-0.519-0.448-1.053-0.596-1.551c-0.263-1.016-0.335-1.938-0.349-2.766c0.013-1.662,0.182-2.959,0.247-4.012
							c0.081-1.048,0.115-1.85,0.116-2.402C146.034,83.566,146.022,83.276,146.022,83.276z"/>
					</g>
				</g>
				<g>
					<g>
						<path style="fill:#C17900;" d="M187.203,59.873c3.103-0.338,6.206-0.596,9.309-0.845c1.551-0.139,3.103-0.225,4.654-0.339
							l4.654-0.322c0.815-0.056,1.538,0.459,1.775,1.205l0.071,0.226l2.182,6.869l1.083,3.437l1.042,3.447l2.085,6.894
							c0.69,2.299,1.332,4.611,2,6.916l-6.119,0.005l1.592-7.017c0.531-2.339,1.104-4.667,1.654-7.001l1.703-6.989
							c0.565-2.33,1.152-4.655,1.752-6.976c0.419-1.622,1.876-2.7,3.476-2.709l0.011,0.001c1.55-0.008,3.101,0.021,4.651,0.036
							c1.55,0.011,3.101,0.048,4.651,0.084c3.101,0.068,6.202,0.17,9.303,0.317l0.281,0.013c1.664,0.079,2.95,1.488,2.882,3.15
							c-0.157,3.818-0.349,7.635-0.571,11.453l-0.63,11.453l-0.271,5.727c-0.104,1.909-0.148,3.818-0.21,5.727l-0.175,5.727
							l-0.082,5.727l0,0.02c-0.01,0.669-0.556,1.204-1.223,1.203c-1.932-0.003-3.865-0.039-5.797-0.011l-5.797,0.045
							c-0.689,0.005-1.252-0.549-1.257-1.238l0-0.02c-0.014-1.456-0.013-2.911-0.057-4.367l-0.102-4.367
							c-0.052-2.911-0.168-5.823-0.277-8.734c-0.096-2.911-0.24-5.823-0.374-8.734l-0.412-8.734l4.883,0.614l-1.817,8.841
							c-0.603,2.948-1.261,5.881-1.888,8.823c-0.627,2.942-1.327,5.864-1.987,8.797l-2.041,8.783
							c-0.382,1.644-1.83,2.763-3.444,2.795l-0.159,0.002l-10.494,0.21c-1.79,0.036-3.318-1.164-3.769-2.816l-0.037-0.14
							l-4.744-17.396l-2.301-8.716l-2.22-8.737l8.441-1.06l-0.088,8.734l-0.154,8.734c-0.042,2.911-0.144,5.823-0.217,8.734
							l-0.238,8.734l-0.005,0.178c-0.053,1.937-1.649,3.466-3.586,3.413c-1.932-0.043-3.865-0.134-5.797-0.202l-5.797-0.218
							l-0.245-0.009c-1.679-0.063-2.99-1.476-2.926-3.155l0-0.006l0.228-5.727l0.274-5.727c0.17-3.818,0.375-7.635,0.607-11.453
							c0.205-3.818,0.474-7.635,0.733-11.453L186.307,66l0.496-5.727c0.018-0.213,0.185-0.377,0.39-0.399L187.203,59.873z
							 M187.641,60.713L188.099,66l0.433,5.727c0.259,3.818,0.527,7.635,0.733,11.453c0.232,3.818,0.438,7.635,0.607,11.453
							l0.274,5.727l0.228,5.727l-3.171-3.171l5.797-0.218c1.932-0.068,3.865-0.159,5.797-0.202l-3.591,3.591l-0.238-8.734
							c-0.073-2.911-0.175-5.823-0.217-8.734l-0.154-8.734l-0.088-8.734c-0.024-2.365,1.874-4.301,4.239-4.325
							c2.011-0.02,3.713,1.35,4.191,3.215l0.012,0.049l2.238,8.732l2.158,8.753l4.173,17.541l-3.806-2.957l10.494,0.21l-3.603,2.797
							l2.425-8.685c0.829-2.89,1.617-5.79,2.48-8.671c0.861-2.882,1.692-5.771,2.578-8.646l2.65-8.628l0.069-0.225
							c0.399-1.3,1.777-2.03,3.077-1.631c1.098,0.337,1.789,1.374,1.737,2.47l-0.412,8.734c-0.134,2.911-0.277,5.823-0.374,8.734
							c-0.109,2.911-0.225,5.823-0.277,8.734l-0.102,4.367c-0.044,1.456-0.044,2.911-0.057,4.367l-1.257-1.257l5.797,0.045
							c1.932,0.028,3.865-0.008,5.797-0.011l-1.223,1.223l-0.082-5.727l-0.175-5.727c-0.062-1.909-0.106-3.818-0.21-5.727
							l-0.271-5.727l-0.63-11.453c-0.222-3.818-0.414-7.635-0.571-11.453l3.163,3.163c-3.101,0.148-6.202,0.249-9.303,0.317
							c-1.55,0.035-3.101,0.073-4.651,0.084c-1.55,0.015-3.101,0.044-4.651,0.036l3.487-2.708c-0.588,2.324-1.189,4.645-1.812,6.961
							l-1.861,6.949c-0.638,2.312-1.253,4.629-1.91,6.936l-1.973,6.92l-0.05,0.174c-0.474,1.664-2.208,2.629-3.872,2.154
							c-1.139-0.325-1.951-1.244-2.197-2.323c-0.528-2.341-1.084-4.675-1.59-7.021l-1.505-7.043l-0.752-3.522l-0.712-3.532
							l-1.407-7.069l1.846,1.43l-4.654-0.322c-1.551-0.114-3.103-0.2-4.654-0.339C193.555,61.281,190.598,61.028,187.641,60.713z"/>
					</g>
				</g>
				<g>
					<g>
						<path style="fill:#C17900;" d="M247.703,59.873c1.681-0.411,3.361-0.726,5.042-1.018c1.681-0.27,3.361-0.543,5.042-0.757
							c1.681-0.215,3.361-0.399,5.042-0.566c1.681-0.153,3.361-0.297,5.042-0.407c1.693-0.098,3.293-0.246,5.225-0.221
							c1.912,0.038,3.855,0.264,5.837,0.847c1.972,0.57,3.984,1.554,5.663,3.053l0.684,0.644l0.421,0.47l0.586,0.706l0.489,0.673
							c0.612,0.914,1.106,1.894,1.475,2.891c0.731,2.003,0.985,4.046,0.931,5.965c-0.023,0.958-0.093,1.913-0.231,2.809
							c-0.058,0.395-0.148,0.959-0.239,1.406c-0.095,0.462-0.203,0.921-0.331,1.378c-0.481,1.828-1.243,3.604-2.297,5.179
							c-1.055,1.572-2.346,2.954-3.858,4.017c-1.531,1.1-3.2,1.851-4.914,2.391c-1.712,0.549-3.461,0.869-5.208,1.104
							c-0.872,0.109-1.758,0.203-2.619,0.277l-2.521,0.221l-5.042,0.54l2.389-2.389l0.465,4.25c0.171,1.417,0.266,2.833,0.396,4.25
							c0.245,2.833,0.358,5.667,0.489,8.5c0.091,1.966-1.428,3.634-3.394,3.725l-0.013,0.001l-0.332,0.014
							c-2.37,0.101-4.74,0.234-7.109,0.309c-2.37,0.071-4.74,0.201-7.109,0.223c-2.317,0.021-4.215-1.824-4.269-4.132l-0.003-0.14
							c-0.043-1.909-0.022-3.818-0.015-5.727c0.052-1.909,0.07-3.818,0.167-5.727c0.072-1.909,0.168-3.818,0.285-5.727
							c0.122-1.909,0.233-3.818,0.409-5.727l0.248-2.863c0.089-0.954,0.15-1.909,0.266-2.863c0.221-1.909,0.394-3.818,0.655-5.727
							c0.249-1.909,0.5-3.818,0.814-5.727c0.294-1.909,0.639-3.818,1.044-5.727c0.043-0.201,0.197-0.35,0.384-0.396L247.703,59.873z
							 M248.194,60.773c0.36,1.742,0.684,3.485,0.953,5.227c0.314,1.909,0.565,3.818,0.814,5.727
							c0.26,1.909,0.434,3.818,0.655,5.727c0.116,0.954,0.177,1.909,0.266,2.863l0.248,2.863c0.176,1.909,0.286,3.818,0.409,5.727
							c0.117,1.909,0.213,3.818,0.285,5.727c0.097,1.909,0.115,3.818,0.167,5.727c0.007,1.909,0.029,3.818-0.015,5.727l-4.272-4.272
							c2.37,0.021,4.74,0.152,7.109,0.223c2.37,0.075,4.74,0.208,7.109,0.309l-3.74,3.74c0.132-2.833,0.244-5.667,0.489-8.5
							c0.13-1.417,0.225-2.833,0.396-4.25l0.465-4.25l0.056-0.512c0.127-1.164,1.169-2.005,2.333-1.877l5.042,0.54l2.521,0.221
							c0.819,0.07,1.614,0.128,2.419,0.115c1.604,0,3.198-0.185,4.712-0.59c0.752-0.214,1.487-0.476,2.183-0.802
							c0.68-0.345,1.349-0.747,1.916-1.203c1.182-0.951,2.116-2.186,2.704-3.542c0.603-1.356,0.848-2.843,0.89-4.331
							c0.006-0.374-0.005-0.749-0.026-1.124c-0.026-0.391-0.053-0.665-0.1-1.11c-0.082-0.784-0.218-1.511-0.386-2.227
							c-0.339-1.427-0.854-2.706-1.494-3.774c-0.32-0.535-0.673-1.018-1.063-1.454l-0.29-0.317l-0.248-0.24l-0.465-0.427
							c-0.07-0.069,0.079,0.078,0.06,0.06l-0.01-0.008l-0.02-0.017l-0.041-0.033l-0.081-0.067l-0.161-0.135
							c-0.888-0.683-1.946-1.223-3.176-1.658c-1.232-0.408-2.639-0.681-4.08-0.834c-1.426-0.142-3.19-0.194-4.857-0.318
							c-1.681-0.11-3.361-0.254-5.042-0.407c-1.681-0.167-3.361-0.351-5.042-0.566c-1.681-0.213-3.361-0.487-5.042-0.757
							C251.228,61.428,249.711,61.127,248.194,60.773z"/>
						<path style="fill:#C17900;" d="M261.922,79.405c0.572-0.579,1.144-0.995,1.716-1.366c0.572-0.357,1.144-0.664,1.716-0.896
							c0.563-0.246,0.973-0.448,1.43-0.633l1.169-0.486c0.337-0.137,0.575-0.272,0.761-0.26c0.085,0.001,0.179,0.04,0.251,0.096
							c-0.105,0.148,0.289-0.112,0.257-0.02c0.035,0.039,0.126,0.045,0.216,0.045c0.349,0.018,0.752-0.007,1.138-0.202
							c0.387-0.186,0.695-0.57,0.844-0.996c0.303-0.931-0.133-1.848-0.911-2.269c-0.104-0.049-0.2-0.099-0.308-0.138
							c0.019,0.091-0.287-0.136-0.309-0.062c-0.094,0.084-0.341,0.068-0.512,0.13c-0.387,0.111-0.795,0.256-1.222,0.421
							c-0.423,0.153-0.856,0.284-1.306,0.381c-0.457,0.097-0.88,0.196-1.496,0.31c-1.144,0.217-2.288,0.434-3.432,0.431l4.303-4.303
							c0.007,0.852-0.107,1.703-0.278,2.555c-0.186,0.852-0.405,1.703-0.714,2.555c-0.307,0.852-0.68,1.703-1.144,2.555
							c-0.226,0.426-0.499,0.852-0.782,1.277c-0.129,0.213-0.304,0.426-0.457,0.639c-0.149,0.213-0.354,0.426-0.528,0.639
							L261.922,79.405z M261.495,79.772c-0.168-0.202-0.36-0.404-0.501-0.607c-0.154-0.213-0.328-0.426-0.457-0.639
							c-0.283-0.426-0.556-0.852-0.782-1.277c-0.464-0.852-0.837-1.703-1.144-2.555c-0.309-0.852-0.528-1.703-0.714-2.555
							c-0.171-0.852-0.285-1.703-0.278-2.555l0-0.025c0.02-2.366,1.944-4.27,4.303-4.278c1.144-0.003,2.288,0.214,3.432,0.431
							c0.527,0.113,1.249,0.209,1.934,0.378c0.691,0.168,1.397,0.43,2.094,0.816c0.691,0.397,1.389,0.877,2.02,1.513
							c0.335,0.326,0.58,0.61,0.919,1.068c0.199,0.255,0.097,0.229,0.311,0.529c0.089,0.169,0.174,0.339,0.253,0.511
							c0.665,1.366,0.975,2.742,1.284,4.098c0.169,0.717,0.324,1.483,0.346,2.382c0.027,0.893-0.163,1.87-0.554,2.759
							c-0.101,0.212-0.201,0.432-0.372,0.669c-0.096,0.134-0.132,0.203-0.16,0.266l-0.052,0.102l-0.014,0.024l-0.004,0.006
							c-0.029,0.026,0.059-0.05-0.065,0.06l-0.017,0.019l-0.068,0.077c-0.364,0.428-0.763,0.765-1.178,1.039
							c-0.829,0.543-1.684,0.776-2.461,0.895c-0.783,0.124-1.52,0.112-2.22,0.034c-0.682-0.085-1.416-0.249-1.997-0.493
							c-0.572-0.232-1.144-0.54-1.716-0.896c-0.572-0.371-1.144-0.786-1.716-1.366L261.495,79.772z"/>
					</g>
				</g>
				<g>
					<g>
						<path style="fill:#C17900;" d="M293.984,59.873c1.18-0.279,2.359-0.513,3.539-0.721c1.18-0.231,2.359-0.394,3.539-0.578
							c2.359-0.372,4.719-0.644,7.078-0.884c1.268-0.129,2.4,0.795,2.529,2.062l0.054,0.52c0.298,2.878,0.511,5.755,0.674,8.633
							c0.162,2.878,0.268,5.755,0.315,8.633c0.065,2.878,0.027,5.755-0.166,8.633c-0.182,2.878-0.522,5.755-0.879,8.633
							l-2.527-2.527c1.841,0.214,3.682,0.477,5.523,0.656c1.841,0.2,3.682,0.388,5.523,0.486c3.682,0.223,7.365,0.23,11.047,0.083
							c0.689-0.028,1.27,0.509,1.298,1.198l0,0.003l0.004,0.101c0.071,1.88,0.19,3.76,0.354,5.641
							c0.136,1.88,0.347,3.76,0.535,5.641c0.107,1.073-0.673,2.03-1.744,2.143l-0.446,0.047l-4.531,0.477
							c-1.51,0.154-3.021,0.334-4.531,0.444c-1.51,0.128-3.021,0.257-4.531,0.342l-4.531,0.222
							c-3.021,0.125-6.042,0.285-9.062,0.381l-4.531,0.156c-1.51,0.066-3.021,0.055-4.531,0.086
							c-2.325,0.048-4.25-1.798-4.298-4.123l-0.001-0.083l0-0.092c0.007-1.909-0.011-3.818,0.048-5.727
							c0.032-1.909,0.102-3.818,0.187-5.727c0.067-1.909,0.191-3.818,0.295-5.727c0.123-1.909,0.248-3.818,0.419-5.727
							c0.171-1.909,0.287-3.818,0.51-5.727c0.212-1.909,0.376-3.818,0.64-5.727c0.233-1.909,0.49-3.818,0.789-5.727
							c0.289-1.909,0.618-3.818,1.009-5.727c0.041-0.202,0.196-0.352,0.384-0.396L293.984,59.873z M294.472,60.773
							c0.347,1.742,0.657,3.485,0.921,5.227c0.3,1.909,0.556,3.818,0.789,5.727c0.264,1.909,0.428,3.818,0.64,5.727
							c0.223,1.909,0.339,3.818,0.51,5.727c0.171,1.909,0.296,3.818,0.419,5.727c0.104,1.909,0.228,3.818,0.295,5.727
							c0.085,1.909,0.156,3.818,0.187,5.727c0.059,1.909,0.041,3.818,0.048,5.727l-4.298-4.298c1.51,0.031,3.021,0.02,4.531,0.086
							l4.531,0.156c3.021,0.095,6.042,0.256,9.062,0.381l4.531,0.222c1.51,0.086,3.021,0.214,4.531,0.342
							c1.51,0.11,3.021,0.29,4.531,0.444l4.531,0.477l-2.19,2.19c0.188-1.88,0.398-3.76,0.535-5.641
							c0.164-1.88,0.283-3.76,0.354-5.641l1.301,1.301c-3.682-0.147-7.365-0.14-11.047,0.083c-1.841,0.098-3.682,0.286-5.523,0.486
							c-1.841,0.179-3.682,0.442-5.523,0.656c-1.208,0.141-2.302-0.72-2.452-1.925l-0.075-0.602
							c-0.358-2.878-0.697-5.755-0.879-8.633c-0.193-2.878-0.231-5.755-0.166-8.633c0.047-2.878,0.153-5.755,0.315-8.633
							c0.163-2.878,0.376-5.755,0.674-8.633l2.582,2.582c-2.359-0.24-4.719-0.512-7.078-0.884c-1.18-0.183-2.359-0.347-3.539-0.578
							C296.506,61.215,295.489,61.003,294.472,60.773z"/>
					</g>
				</g>
				<g>
					<g>
						<path style="fill:#C17900;" d="M336.64,59.873c1.581-0.231,3.161-0.446,4.742-0.62c1.581-0.184,3.161-0.369,4.742-0.51
							c1.581-0.145,3.161-0.322,4.742-0.44l4.742-0.367c1.581-0.135,3.161-0.217,4.742-0.309l4.742-0.274
							c3.161-0.169,6.323-0.296,9.484-0.395c1.765-0.055,3.242,1.326,3.307,3.088l0.008,0.227c0.06,1.63,0.1,3.26,0.135,4.891
							c0.037,1.63,0.08,3.26,0.094,4.891c0.016,1.941-1.544,3.527-3.484,3.544l-0.06,0.001c-1.979,0.018-3.958,0.068-5.937,0.056
							c-1.979,0.012-3.958-0.026-5.937-0.061c-1.979-0.055-3.958-0.122-5.937-0.221c-1.979-0.104-3.958-0.24-5.937-0.359
							l2.958-2.958c-0.071,1.214-0.179,2.427-0.267,3.641l-0.279,3.641l-2.412-2.412c3.672,0.301,7.344,0.558,11.016,0.787
							c1.836,0.102,3.672,0.198,5.508,0.258c1.836,0.078,3.672,0.104,5.508,0.141l0.029,0.001c0.667,0.013,1.199,0.56,1.196,1.225
							c-0.006,1.557-0.037,3.115-0.019,4.672c0.004,1.557,0.018,3.115,0.05,4.672c0.014,0.68-0.526,1.242-1.206,1.256l-0.008,0
							l-0.043,0c-1.836,0.016-3.672,0.106-5.508,0.157c-1.836,0.047-3.672,0.133-5.508,0.235c-3.672,0.168-7.344,0.437-11.016,0.67
							l2.318-2.318l0.599,9.031l-2.917-2.917c2.036-0.137,4.073-0.222,6.109-0.335c2.036-0.123,4.073-0.162,6.109-0.245
							c4.073-0.159,8.146-0.239,12.219-0.362c2.066-0.063,3.792,1.562,3.854,3.628l0.001,0.022l0.005,0.21l0.253,10.375
							c0.054,2.215-1.698,4.055-3.913,4.109l-0.015,0l-0.185,0.004c-3.219,0.067-6.437,0.156-9.656,0.167
							c-1.609,0.019-3.219,0.027-4.828,0.017l-4.828-0.024l-4.828-0.07l-4.828-0.115c-3.219-0.066-6.437-0.205-9.656-0.325
							l-0.282-0.01c-1.996-0.074-3.554-1.752-3.48-3.749l0-0.003l0.218-5.727l0.3-5.727c0.107-1.909,0.185-3.818,0.315-5.727
							l0.381-5.727c0.116-1.909,0.276-3.818,0.43-5.727c0.157-1.909,0.295-3.818,0.487-5.727c0.183-1.909,0.347-3.818,0.563-5.727
							c0.193-1.909,0.43-3.818,0.669-5.727c0.026-0.21,0.19-0.369,0.39-0.399L336.64,59.873z M337.094,60.733
							c0.219,1.756,0.437,3.511,0.615,5.267c0.217,1.909,0.38,3.818,0.563,5.727c0.191,1.909,0.33,3.818,0.487,5.727
							c0.154,1.909,0.314,3.818,0.43,5.727l0.381,5.727c0.129,1.909,0.208,3.818,0.315,5.727l0.3,5.727l0.218,5.727l-3.762-3.762
							c3.219-0.119,6.437-0.259,9.656-0.325l4.828-0.115l4.828-0.07l4.828-0.024c1.609-0.011,3.219-0.002,4.828,0.017
							c3.219,0.011,6.437,0.1,9.656,0.167l-4.113,4.113l0.253-10.375l3.86,3.86c-4.073-0.123-8.146-0.203-12.219-0.362
							c-2.036-0.083-4.073-0.122-6.109-0.245c-2.036-0.113-4.073-0.198-6.109-0.335l-0.388-0.026c-1.498-0.1-2.63-1.394-2.53-2.891
							l0.599-9.031l0.02-0.3c0.079-1.194,1.105-2.098,2.299-2.019c3.672,0.233,7.344,0.502,11.016,0.67
							c1.836,0.102,3.672,0.188,5.508,0.235c1.836,0.051,3.672,0.141,5.508,0.157l-1.257,1.257c0.032-1.557,0.045-3.115,0.05-4.672
							c0.018-1.557-0.012-3.115-0.019-4.672l1.226,1.226c-1.836,0.036-3.672,0.063-5.508,0.141c-1.836,0.06-3.672,0.156-5.508,0.258
							c-3.672,0.229-7.344,0.487-11.016,0.787c-1.216,0.1-2.283-0.806-2.382-2.022l-0.001-0.011l-0.029-0.379l-0.279-3.641
							c-0.088-1.214-0.196-2.427-0.267-3.641c-0.09-1.533,1.08-2.848,2.613-2.938l0.345-0.021c1.979-0.119,3.958-0.255,5.937-0.359
							c1.979-0.099,3.958-0.166,5.937-0.221c1.979-0.036,3.958-0.073,5.937-0.061c1.979-0.013,3.958,0.038,5.937,0.056l-3.544,3.544
							c0.014-1.63,0.057-3.26,0.094-4.891c0.034-1.63,0.075-3.26,0.135-4.891l3.315,3.315c-3.161-0.099-6.323-0.226-9.484-0.395
							l-4.742-0.274c-1.581-0.092-3.161-0.173-4.742-0.309l-4.742-0.367c-1.581-0.119-3.161-0.295-4.742-0.44
							c-1.581-0.141-3.161-0.325-4.742-0.51C339.953,61.136,338.524,60.939,337.094,60.733z"/>
					</g>
				</g>
				<g>
					<path style="fill:#C17900;" d="M379.672,59.873c1.793-0.393,3.586-0.686,5.379-0.976c1.793-0.247,3.586-0.527,5.379-0.726
						c3.586-0.424,7.172-0.734,10.758-0.969c1.793-0.124,3.586-0.208,5.379-0.293c1.793-0.069,3.586-0.139,5.379-0.175
						c1.793-0.035,3.586-0.075,5.379-0.061c1.793,0.012,3.586,0.075,5.379,0.172l0.375,0.02c1.783,0.097,3.15,1.62,3.053,3.403
						l0,0.005c-0.21,3.771-0.658,7.542-1.086,11.312l-0.059,0.517c-0.129,1.136-1.147,1.953-2.283,1.825
						c-1.203-0.132-2.406-0.285-3.609-0.4l-3.609-0.347c-1.203-0.09-2.406-0.181-3.609-0.237c-0.602-0.037-1.203-0.062-1.805-0.078
						l-1.805-0.053l1.225-1.225c-0.057,2.875-0.006,5.75,0.107,8.625c0.058,1.438,0.13,2.875,0.246,4.312
						c0.115,1.437,0.199,2.875,0.347,4.312l0.829,8.625c0.145,1.437,0.281,2.875,0.38,4.312c0.112,1.438,0.226,2.875,0.301,4.312
						c0.094,1.793-1.284,3.323-3.077,3.416l-0.359,0.02c-2.359,0.133-4.719,0.219-7.078,0.316l-7.078,0.277
						c-2.137,0.084-3.937-1.581-4.021-3.718l-0.001-0.026l-0.008-0.285c-0.077-2.875-0.214-5.75-0.243-8.625
						c-0.024-1.438-0.037-2.875-0.023-4.312c-0.002-1.437,0.014-2.875,0.053-4.312c0.027-1.437,0.06-2.875,0.123-4.312
						c0.059-1.438,0.096-2.875,0.177-4.312c0.143-2.875,0.295-5.75,0.52-8.625l3.422,3.422c-2.406-0.201-4.812-0.334-7.219-0.59
						l-3.609-0.352c-1.203-0.11-2.406-0.275-3.609-0.41l-0.454-0.051c-1.005-0.113-1.729-1.014-1.616-2.019
						c0.207-1.885,0.474-3.771,0.736-5.656c0.279-1.885,0.572-3.771,0.934-5.656c0.039-0.204,0.196-0.355,0.386-0.397
						L379.672,59.873z M380.152,60.761c0.32,1.723,0.599,3.446,0.854,5.169c0.262,1.885,0.529,3.771,0.736,5.656l-2.07-2.07
						c1.203-0.135,2.406-0.3,3.609-0.41l3.609-0.352c2.406-0.256,4.812-0.389,7.219-0.59c1.722-0.144,3.234,1.136,3.378,2.858
						l0.001,0.016l0.043,0.548c0.225,2.875,0.377,5.75,0.52,8.625c0.081,1.438,0.118,2.875,0.177,4.312
						c0.063,1.437,0.096,2.875,0.123,4.312c0.039,1.437,0.055,2.875,0.053,4.312c0.014,1.438,0.001,2.875-0.023,4.312
						c-0.028,2.875-0.165,5.75-0.243,8.625l-4.029-4.029l7.078,0.277c2.359,0.097,4.719,0.183,7.078,0.316l-3.436,3.436
						c0.075-1.437,0.19-2.875,0.301-4.312c0.099-1.437,0.235-2.875,0.38-4.312l0.829-8.625c0.148-1.437,0.232-2.875,0.347-4.312
						c0.115-1.438,0.187-2.875,0.246-4.312c0.113-2.875,0.164-5.75,0.107-8.625c-0.013-0.659,0.507-1.204,1.164-1.224l0.062-0.002
						l1.805-0.053c0.602-0.016,1.203-0.041,1.805-0.078c1.203-0.056,2.406-0.148,3.609-0.237l3.609-0.347
						c1.203-0.115,2.406-0.268,3.609-0.4l-2.342,2.342c-0.428-3.771-0.876-7.542-1.086-11.312l3.428,3.428
						c-1.793,0.097-3.586,0.159-5.379,0.172c-1.793,0.014-3.586-0.025-5.379-0.061c-1.793-0.035-3.586-0.106-5.379-0.175
						c-1.793-0.085-3.586-0.169-5.379-0.293c-3.586-0.235-7.172-0.545-10.758-0.969c-1.793-0.2-3.586-0.48-5.379-0.726
						C383.418,61.386,381.785,61.103,380.152,60.761z"/>
				</g>
				<g>
					<path style="fill:#C17900;" d="M429.078,59.873c1.581-0.231,3.161-0.446,4.742-0.62c1.581-0.184,3.161-0.369,4.742-0.51
						c1.581-0.145,3.161-0.322,4.742-0.44l4.742-0.367c1.581-0.135,3.161-0.217,4.742-0.309l4.742-0.274
						c3.161-0.169,6.323-0.296,9.484-0.395c1.765-0.055,3.242,1.326,3.307,3.088l0.008,0.227c0.06,1.63,0.101,3.26,0.135,4.891
						c0.037,1.63,0.08,3.26,0.094,4.891c0.016,1.941-1.544,3.527-3.484,3.544l-0.06,0.001c-1.979,0.018-3.958,0.068-5.937,0.056
						c-1.979,0.012-3.958-0.026-5.937-0.061c-1.979-0.055-3.958-0.122-5.937-0.221c-1.979-0.104-3.958-0.24-5.937-0.359l2.958-2.958
						c-0.071,1.214-0.179,2.427-0.267,3.641l-0.279,3.641l-2.412-2.412c3.672,0.301,7.344,0.558,11.016,0.787
						c1.836,0.102,3.672,0.198,5.508,0.258c1.836,0.078,3.672,0.104,5.508,0.141l0.029,0.001c0.667,0.013,1.199,0.56,1.196,1.225
						c-0.006,1.557-0.037,3.115-0.019,4.672c0.004,1.557,0.018,3.115,0.05,4.672c0.014,0.68-0.526,1.242-1.206,1.256l-0.008,0
						l-0.043,0c-1.836,0.016-3.672,0.106-5.508,0.157c-1.836,0.047-3.672,0.133-5.508,0.235c-3.672,0.168-7.344,0.437-11.016,0.67
						l2.318-2.318l0.599,9.031l-2.917-2.917c2.036-0.137,4.073-0.222,6.109-0.335c2.036-0.123,4.073-0.162,6.109-0.245
						c4.073-0.159,8.146-0.239,12.219-0.362c2.066-0.063,3.792,1.562,3.854,3.628l0.001,0.022l0.005,0.21l0.253,10.375
						c0.054,2.215-1.698,4.055-3.913,4.109l-0.015,0l-0.185,0.004c-3.219,0.067-6.437,0.156-9.656,0.167
						c-1.609,0.019-3.219,0.027-4.828,0.017l-4.828-0.024l-4.828-0.07l-4.828-0.115c-3.219-0.066-6.438-0.205-9.656-0.325
						l-0.282-0.01c-1.996-0.074-3.554-1.752-3.48-3.749l0-0.003l0.218-5.727l0.3-5.727c0.107-1.909,0.185-3.818,0.315-5.727
						l0.381-5.727c0.116-1.909,0.277-3.818,0.431-5.727c0.157-1.909,0.295-3.818,0.487-5.727c0.183-1.909,0.347-3.818,0.563-5.727
						c0.193-1.909,0.43-3.818,0.669-5.727c0.026-0.21,0.19-0.369,0.39-0.399L429.078,59.873z M429.532,60.733
						c0.219,1.756,0.437,3.511,0.615,5.267c0.217,1.909,0.38,3.818,0.563,5.727c0.191,1.909,0.33,3.818,0.487,5.727
						c0.154,1.909,0.314,3.818,0.431,5.727l0.381,5.727c0.129,1.909,0.208,3.818,0.315,5.727l0.3,5.727l0.218,5.727l-3.762-3.762
						c3.219-0.119,6.437-0.259,9.656-0.325l4.828-0.115l4.828-0.07l4.828-0.024c1.609-0.011,3.219-0.002,4.828,0.017
						c3.219,0.011,6.438,0.1,9.656,0.167l-4.113,4.113l0.253-10.375l3.86,3.86c-4.073-0.123-8.146-0.203-12.219-0.362
						c-2.036-0.083-4.073-0.122-6.109-0.245c-2.036-0.113-4.073-0.198-6.109-0.335l-0.388-0.026c-1.498-0.1-2.63-1.394-2.53-2.891
						l0.599-9.031l0.02-0.3c0.079-1.194,1.105-2.098,2.299-2.019c3.672,0.233,7.344,0.502,11.016,0.67
						c1.836,0.102,3.672,0.188,5.508,0.235c1.836,0.051,3.672,0.141,5.508,0.157l-1.257,1.257c0.032-1.557,0.045-3.115,0.05-4.672
						c0.018-1.557-0.012-3.115-0.019-4.672l1.226,1.226c-1.836,0.036-3.672,0.063-5.508,0.141c-1.836,0.06-3.672,0.156-5.508,0.258
						c-3.672,0.229-7.344,0.487-11.016,0.787c-1.216,0.1-2.283-0.806-2.382-2.022l-0.001-0.011l-0.029-0.379l-0.279-3.641
						c-0.088-1.214-0.196-2.427-0.267-3.641c-0.09-1.533,1.08-2.848,2.613-2.938l0.345-0.021c1.979-0.119,3.958-0.255,5.937-0.359
						c1.979-0.099,3.958-0.166,5.937-0.221c1.979-0.036,3.958-0.073,5.937-0.061c1.979-0.013,3.958,0.038,5.937,0.056l-3.544,3.544
						c0.014-1.63,0.057-3.26,0.094-4.891c0.034-1.63,0.075-3.26,0.135-4.891l3.315,3.315c-3.161-0.099-6.323-0.226-9.484-0.395
						l-4.742-0.274c-1.581-0.092-3.161-0.173-4.742-0.309l-4.742-0.367c-1.581-0.119-3.161-0.295-4.742-0.44
						c-1.581-0.141-3.161-0.325-4.742-0.51C432.391,61.136,430.961,60.939,429.532,60.733z"/>
				</g>
				<g>
					<path style="fill:#C17900;" d="M475.515,59.873c2.363-0.57,4.726-0.97,7.089-1.333c2.363-0.371,4.726-0.658,7.089-0.895
						c2.375-0.247,4.698-0.425,7.117-0.58c2.511-0.12,5.139-0.041,7.845,0.544c0.676,0.156,1.356,0.334,2.04,0.565
						c0.342,0.117,0.684,0.235,1.027,0.375l0.519,0.216l0.43,0.191c1.352,0.649,2.539,1.371,3.673,2.297
						c1.131,0.899,2.123,1.971,2.973,3.116l0.326,0.457l0.249,0.378c0.21,0.318,0.405,0.627,0.569,0.924
						c0.34,0.606,0.656,1.221,0.931,1.851c1.112,2.515,1.603,5.22,1.799,7.715c0.094,1.27,0.133,2.529,0.129,3.777
						c-0.019,1.252-0.09,2.481-0.181,3.716c-0.186,2.403-0.399,4.829-0.812,7.253c-0.204,1.216-0.474,2.432-0.861,3.648
						c-0.094,0.307-0.207,0.599-0.324,0.914c-0.099,0.27-0.209,0.556-0.337,0.862c-0.244,0.586-0.512,1.151-0.792,1.722
						c-0.577,1.128-1.231,2.237-2.001,3.282c-0.384,0.523-0.804,1.021-1.238,1.511c-0.269,0.297-0.393,0.447-0.649,0.71
						c-0.242,0.25-0.474,0.477-0.714,0.705c-0.963,0.906-2.048,1.736-3.251,2.433c-1.193,0.712-2.593,1.22-3.72,1.616
						c-1.193,0.422-2.42,0.791-3.692,1.061c-1.269,0.278-2.578,0.508-3.932,0.589c-2.431,0.163-4.745,0.249-7.123,0.361
						c-2.363,0.104-4.726,0.227-7.089,0.3c-2.363,0.071-4.726,0.2-7.089,0.21c-2.325,0.01-4.224-1.845-4.276-4.161l-0.003-0.118
						c-0.042-1.909-0.013-3.818,0-5.727c0.048-1.909,0.077-3.818,0.173-5.727c0.07-1.909,0.174-3.818,0.286-5.727
						c0.125-1.909,0.236-3.818,0.412-5.727c0.173-1.909,0.305-3.818,0.513-5.727c0.22-1.909,0.388-3.818,0.651-5.727
						c0.245-1.909,0.498-3.818,0.808-5.727c0.293-1.909,0.634-3.818,1.035-5.727c0.042-0.202,0.197-0.351,0.384-0.396
						L475.515,59.873z M476.004,60.765c0.358,1.745,0.679,3.49,0.946,5.235c0.31,1.909,0.562,3.818,0.808,5.727
						c0.263,1.909,0.431,3.818,0.651,5.727c0.208,1.909,0.339,3.818,0.513,5.727c0.176,1.909,0.287,3.818,0.412,5.727
						c0.112,1.909,0.216,3.818,0.286,5.727c0.095,1.909,0.125,3.818,0.173,5.727c0.012,1.909,0.042,3.818,0,5.727l-4.278-4.278
						c2.363,0.01,4.726,0.14,7.089,0.21c2.363,0.073,4.726,0.196,7.089,0.3c2.348,0.109,4.76,0.202,7.054,0.356
						c2.024,0.154,4.187,0.008,6.397-0.24c1.169-0.15,2.065-0.257,3.012-0.562c0.943-0.292,1.879-0.718,2.778-1.266
						c1.827-1.089,3.409-2.6,4.632-4.431c0.308-0.454,0.583-0.939,0.84-1.423c0.122-0.229,0.249-0.484,0.379-0.759
						c0.102-0.233,0.217-0.487,0.309-0.741c0.403-1.012,0.659-2.109,0.865-3.219c0.368-2.239,0.414-4.548,0.243-6.869
						c-0.081-1.128-0.251-2.262-0.485-3.363c-0.223-1.105-0.517-2.188-0.889-3.235c-0.722-2.134-1.67-3.99-2.854-5.616
						c-0.294-0.405-0.593-0.8-0.914-1.173l-0.457-0.521l-0.29-0.325l-0.231-0.233c-0.659-0.673-1.365-1.264-2.106-1.807
						c-0.737-0.518-1.574-1.04-2.353-1.412l-0.374-0.183l-0.293-0.137c-0.199-0.094-0.414-0.177-0.627-0.261
						c-0.429-0.167-0.888-0.308-1.358-0.439c-1.891-0.536-4.01-0.821-6.219-0.974c-2.307-0.163-4.71-0.336-7.061-0.584
						c-2.363-0.236-4.726-0.524-7.089-0.895C480.404,61.669,478.204,61.275,476.004,60.765z"/>
					<path style="fill:#C17900;" d="M490.402,71.343c0.141,0.294,0.292,0.576,0.413,0.87c0.229,0.521,0.424,1.043,0.6,1.564
						c0.355,1.043,0.655,2.086,0.888,3.129c0.247,1.043,0.424,2.086,0.582,3.129c0.14,1.043,0.246,2.086,0.316,3.129
						c0.05,1.043,0.122,2.086,0.042,3.129c-0.078,1.043-0.237,2.086-0.488,3.129c-0.505,2.086-1.277,4.172-1.622,6.258l-1.461-1.461
						c0.94,0.15,1.881,0.251,2.821,0.258c0.939,0.002,1.851-0.033,2.727-0.207c0.875-0.164,1.734-0.435,2.422-0.826
						c0.707-0.412,1.004-0.843,1.257-1.393c0.241-0.528,0.364-1.131,0.475-1.786l0.042-0.247l0.005-0.031l0.001-0.008
						c0.027-0.067-0.036,0.082-0.028,0.063l0.005-0.022l0.018-0.088l0.036-0.175c0.022-0.11-0.009-0.12-0.003-0.18
						c-0.001-0.045,0.009-0.15,0.013-0.22l0.057-1.051c0.075-1.509-0.056-3.247-0.214-4.98c-0.076-0.918-0.156-1.666-0.236-2.486
						c-0.085-0.8-0.161-1.571-0.257-2.278c-0.094-0.706-0.182-1.358-0.317-1.873c-0.06-0.246-0.111-0.492-0.168-0.658l-0.039-0.126
						l-0.014-0.064l-0.003-0.017l-0.001-0.004c-0.081-0.09,0.111,0.119,0.088,0.093l-0.013-0.018l-0.051-0.073l-0.193-0.281
						c-0.003-0.018-0.004-0.04-0.004-0.067c-0.175-0.351-0.56-0.791-1.086-1.187c-0.526-0.402-1.212-0.78-1.973-1.12
						c-0.783-0.359-1.563-0.639-2.546-0.978C491.791,71.951,491.103,71.65,490.402,71.343z M489.672,70.248
						c0.94-0.448,1.881-0.823,2.821-1.139c0.897-0.352,2.002-0.613,3.088-0.751c1.105-0.121,2.28-0.143,3.523,0.098
						c1.245,0.233,2.542,0.705,3.787,1.591l0.812,0.638l0.071,0.055l0.018,0.014l0.115,0.123l0.052,0.052l0.208,0.21
						c0.137,0.142,0.273,0.289,0.389,0.434c0.504,0.591,0.884,1.186,1.23,1.787c0.635,1.203,1.07,2.369,1.353,3.505
						c0.279,1.136,0.433,2.236,0.491,3.311c0.063,1.055,0.039,2.188-0.031,3.152c-0.173,2.025-0.445,4.063-1.029,6.262
						c-0.158,0.552-0.335,1.116-0.585,1.695l-0.198,0.453c-0.074,0.161-0.176,0.376-0.241,0.484l-0.096,0.152l-0.048,0.076
						l-0.012,0.019c0.005-0.013-0.061,0.143-0.037,0.083l-0.008,0.012l-0.031,0.05c-0.085,0.132-0.161,0.263-0.254,0.393
						c-0.703,1.036-1.649,2.025-2.807,2.76c-1.134,0.732-2.577,1.147-3.696,1.183c-1.135,0.078-2.152,0.032-3.152,0.002
						c-1.001-0.041-1.972-0.063-2.913-0.067c-0.94,0.008-1.881,0.108-2.821,0.258c-0.658,0.105-1.276-0.341-1.385-0.997
						l-0.077-0.464c-0.345-2.086-1.117-4.172-1.622-6.258c-0.251-1.043-0.41-2.086-0.488-3.129c-0.08-1.043-0.008-2.086,0.042-3.129
						c0.07-1.043,0.175-2.086,0.316-3.129c0.158-1.043,0.334-2.086,0.582-3.129c0.233-1.043,0.532-2.086,0.888-3.129
						c0.176-0.521,0.371-1.043,0.6-1.564c0.215-0.521,0.454-1.043,0.743-1.564l0.028-0.05
						C489.388,70.44,489.519,70.321,489.672,70.248z"/>
				</g>
			</g>
			<g>
				<path style="fill:#E7ECEB;stroke:#C17900;stroke-width:2;stroke-linejoin:round;stroke-miterlimit:10;" d="M114.765,87.336
					l12.406,3.75c-0.833,3.479-2.146,6.386-3.938,8.719c-1.792,2.333-4.016,4.094-6.672,5.281s-6.036,1.781-10.141,1.781
					c-4.979,0-9.047-0.724-12.203-2.17s-5.88-3.992-8.172-7.635s-3.438-8.307-3.438-13.991c0-7.578,2.016-13.402,6.047-17.473
					s9.734-6.105,17.109-6.105c5.771,0,10.308,1.167,13.609,3.5c3.302,2.333,5.755,5.917,7.359,10.75l-12.5,2.781
					c-0.438-1.396-0.896-2.417-1.375-3.063c-0.792-1.083-1.761-1.917-2.906-2.5c-1.146-0.583-2.427-0.875-3.844-0.875
					c-3.208,0-5.667,1.291-7.375,3.871c-1.292,1.915-1.938,4.921-1.938,9.02c0,5.078,0.771,8.558,2.313,10.441
					c1.542,1.883,3.708,2.825,6.5,2.825c2.708,0,4.755-0.76,6.141-2.281C113.136,92.44,114.14,90.232,114.765,87.336z"/>
				<path style="fill:#E7ECEB;stroke:#C17900;stroke-width:2;stroke-linejoin:round;stroke-miterlimit:10;" d="M132.265,83.211
					c0-7.479,2.083-13.302,6.25-17.469c4.167-4.167,9.969-6.25,17.406-6.25c7.625,0,13.5,2.047,17.625,6.141
					s6.188,9.828,6.188,17.203c0,5.354-0.901,9.745-2.703,13.172c-1.802,3.427-4.406,6.094-7.813,8s-7.651,2.859-12.734,2.859
					c-5.167,0-9.442-0.823-12.828-2.469c-3.386-1.646-6.13-4.25-8.234-7.813S132.265,88.565,132.265,83.211z M146.422,83.273
					c0,4.625,0.859,7.948,2.578,9.969c1.719,2.021,4.058,3.031,7.016,3.031c3.042,0,5.396-0.989,7.063-2.969
					c1.667-1.979,2.5-5.531,2.5-10.656c0-4.313-0.87-7.463-2.609-9.453c-1.739-1.989-4.099-2.984-7.078-2.984
					c-2.854,0-5.146,1.011-6.875,3.031C147.286,75.263,146.422,78.607,146.422,83.273z"/>
				<path style="fill:#E7ECEB;stroke:#C17900;stroke-width:2;stroke-linejoin:round;stroke-miterlimit:10;" d="M187.203,60.273
					h18.617L213,88.148l7.129-27.875h18.605v45.813H227.14V71.148l-8.933,34.938h-10.494l-8.917-34.938v34.938h-11.594V60.273z"/>
				<path style="fill:#E7ECEB;stroke:#C17900;stroke-width:2;stroke-linejoin:round;stroke-miterlimit:10;" d="M247.703,60.273
					h23.531c5.125,0,8.964,1.219,11.516,3.656s3.828,5.906,3.828,10.406c0,4.625-1.391,8.24-4.172,10.844
					c-2.781,2.604-7.026,3.906-12.734,3.906h-7.75v17h-14.219V60.273z M261.922,79.805h3.469c2.729,0,4.646-0.474,5.75-1.422
					c1.104-0.948,1.656-2.161,1.656-3.641c0-1.438-0.479-2.656-1.438-3.656s-2.761-1.5-5.406-1.5h-4.031V79.805z"/>
				<path style="fill:#E7ECEB;stroke:#C17900;stroke-width:2;stroke-linejoin:round;stroke-miterlimit:10;" d="M293.984,60.273
					h14.156v34.531h22.094v11.281h-36.25V60.273z"/>
				<path style="fill:#E7ECEB;stroke:#C17900;stroke-width:2;stroke-linejoin:round;stroke-miterlimit:10;" d="M336.64,60.273
					h37.938v9.781h-23.75v7.281h22.031v9.344h-22.031v9.031h24.438v10.375H336.64V60.273z"/>
				<path style="fill:#E7ECEB;stroke:#C17900;stroke-width:2;stroke-linejoin:round;stroke-miterlimit:10;" d="M379.672,60.273
					h43.031v11.313h-14.438v34.5h-14.156v-34.5h-14.438V60.273z"/>
				<path style="fill:#E7ECEB;stroke:#C17900;stroke-width:2;stroke-linejoin:round;stroke-miterlimit:10;" d="M429.078,60.273
					h37.938v9.781h-23.75v7.281h22.031v9.344h-22.031v9.031h24.438v10.375h-38.625V60.273z"/>
				<path style="fill:#E7ECEB;stroke:#C17900;stroke-width:2;stroke-linejoin:round;stroke-miterlimit:10;" d="M475.515,60.273
					h21.031c4.146,0,7.495,0.563,10.047,1.688s4.661,2.74,6.328,4.844c1.667,2.104,2.875,4.552,3.625,7.344
					c0.75,2.792,1.125,5.75,1.125,8.875c0,4.896-0.558,8.693-1.672,11.391c-1.114,2.698-2.661,4.958-4.641,6.781
					c-1.979,1.823-4.104,3.037-6.375,3.641c-3.104,0.833-5.917,1.25-8.438,1.25h-21.031V60.273z M489.672,70.648V95.68h3.469
					c2.958,0,5.063-0.328,6.313-0.984s2.229-1.802,2.938-3.438c0.708-1.635,1.063-4.286,1.063-7.953
					c0-4.854-0.792-8.177-2.375-9.969c-1.583-1.792-4.208-2.688-7.875-2.688H489.672z"/>
			</g>
		</g>
	</g>
</g>
<g id="Layer_1">
</g>
</svg>
