<?xml version="1.0" encoding="iso-8859-1"?>
<!-- Generator: Adobe Illustrator 19.1.1, SVG Export Plug-In . SVG Version: 6.00 Build 0)  -->
<svg version="1.1" xmlns="http://www.w3.org/2000/svg" xmlns:xlink="http://www.w3.org/1999/xlink" x="0px" y="0px"
	 viewBox="0 0 359.686 72.726" style="enable-background:new 0 0 359.686 72.726;" xml:space="preserve">
<g id="flags">
	<polygon style="fill:#DD0B43;" points="205.263,72.726 177.251,59.062 150.216,72.726 150.216,0.737 205.263,0.737 	"/>
	<linearGradient id="SVGID_1_" gradientUnits="userSpaceOnUse" x1="100.7558" y1="0.7163" x2="100.7558" y2="72.7261">
		<stop  offset="1.076729e-007" style="stop-color:#DD0B43"/>
		<stop  offset="1" style="stop-color:#800B25"/>
	</linearGradient>
	<polygon style="fill:url(#SVGID_1_);" points="128.28,58.096 100.267,72.726 73.232,58.096 73.232,0.716 128.28,0.716 	"/>
	<g>
		<g>
			<polyline style="fill:none;stroke:#FFFFFF;stroke-width:1.7554;stroke-miterlimit:10;" points="123.583,51.97 123.583,54.165 
				121.624,55.153 			"/>
			
				<line style="fill:none;stroke:#FFFFFF;stroke-width:1.7554;stroke-miterlimit:10;stroke-dasharray:4.3263,4.3263;" x1="117.762" y1="57.101" x2="104.242" y2="63.92"/>
			<polyline style="fill:none;stroke:#FFFFFF;stroke-width:1.7554;stroke-miterlimit:10;" points="102.31,64.894 100.351,65.882 
				98.406,64.866 			"/>
			
				<line style="fill:none;stroke:#FFFFFF;stroke-width:1.7554;stroke-miterlimit:10;stroke-dasharray:4.1823,4.1823;" x1="94.7" y1="62.929" x2="81.726" y2="56.149"/>
			<polyline style="fill:none;stroke:#FFFFFF;stroke-width:1.7554;stroke-miterlimit:10;" points="79.873,55.181 77.928,54.165 
				77.928,51.97 			"/>
			
				<line style="fill:none;stroke:#FFFFFF;stroke-width:1.7554;stroke-miterlimit:10;stroke-dasharray:4.6906,4.6906;" x1="77.928" y1="47.28" x2="77.928" y2="12.1"/>
			<polyline style="fill:none;stroke:#FFFFFF;stroke-width:1.7554;stroke-miterlimit:10;" points="77.928,9.755 77.928,7.561 
				80.122,7.561 			"/>
			
				<line style="fill:none;stroke:#FFFFFF;stroke-width:1.7554;stroke-miterlimit:10;stroke-dasharray:4.5852,4.5852;" x1="84.708" y1="7.561" x2="119.097" y2="7.561"/>
			<polyline style="fill:none;stroke:#FFFFFF;stroke-width:1.7554;stroke-miterlimit:10;" points="121.389,7.561 123.583,7.561 
				123.583,9.755 			"/>
			
				<line style="fill:none;stroke:#FFFFFF;stroke-width:1.7554;stroke-miterlimit:10;stroke-dasharray:4.6906,4.6906;" x1="123.583" y1="14.445" x2="123.583" y2="49.625"/>
		</g>
	</g>
	<polygon style="fill:#DD0B43;" points="282.483,72.726 254.471,59.062 227.436,72.726 227.436,0.737 282.483,0.737 	"/>
	<g>
		<g>
			<polyline style="fill:none;stroke:#FFFFFF;stroke-width:1.8547;stroke-miterlimit:10;" points="277.987,62.682 277.987,65 
				275.951,63.891 			"/>
			
				<line style="fill:none;stroke:#FFFFFF;stroke-width:1.8547;stroke-miterlimit:10;stroke-dasharray:4.4096,4.4096;" x1="272.078" y1="61.783" x2="258.524" y2="54.402"/>
			<polyline style="fill:none;stroke:#FFFFFF;stroke-width:1.8547;stroke-miterlimit:10;" points="256.587,53.347 254.551,52.239 
				252.532,53.378 			"/>
			
				<line style="fill:none;stroke:#FFFFFF;stroke-width:1.8547;stroke-miterlimit:10;stroke-dasharray:4.2668,4.2668;" x1="248.816" y1="55.475" x2="235.809" y2="62.813"/>
			<polyline style="fill:none;stroke:#FFFFFF;stroke-width:1.8547;stroke-miterlimit:10;" points="233.951,63.861 231.932,65 
				231.932,62.682 			"/>
			
				<line style="fill:none;stroke:#FFFFFF;stroke-width:1.8547;stroke-miterlimit:10;stroke-dasharray:4.8503,4.8503;" x1="231.932" y1="57.831" x2="231.932" y2="11.753"/>
			<polyline style="fill:none;stroke:#FFFFFF;stroke-width:1.8547;stroke-miterlimit:10;" points="231.932,9.328 231.932,7.01 
				234.25,7.01 			"/>
			
				<line style="fill:none;stroke:#FFFFFF;stroke-width:1.8547;stroke-miterlimit:10;stroke-dasharray:4.602,4.602;" x1="238.852" y1="7.01" x2="273.367" y2="7.01"/>
			<polyline style="fill:none;stroke:#FFFFFF;stroke-width:1.8547;stroke-miterlimit:10;" points="275.668,7.01 277.987,7.01 
				277.987,9.328 			"/>
			
				<line style="fill:none;stroke:#FFFFFF;stroke-width:1.8547;stroke-miterlimit:10;stroke-dasharray:4.8503,4.8503;" x1="277.987" y1="14.178" x2="277.987" y2="60.257"/>
		</g>
	</g>
	<polygon style="fill:#DD0B43;" points="359.686,72.726 331.674,59.062 304.639,72.726 304.639,0.737 359.686,0.737 	"/>
	<polygon style="fill:none;stroke:#FFFFFF;stroke-width:1.8547;stroke-miterlimit:10;" points="355.189,65 331.754,52.239 
		309.135,65 309.135,7.01 355.189,7.01 	"/>
	<linearGradient id="SVGID_2_" gradientUnits="userSpaceOnUse" x1="27.5237" y1="-7.064136e-007" x2="27.5237" y2="72.0098">
		<stop  offset="1.076729e-007" style="stop-color:#DD0B43"/>
		<stop  offset="1" style="stop-color:#800B25"/>
	</linearGradient>
	<polygon style="fill:url(#SVGID_2_);" points="55.047,57.379 27.036,72.01 0,57.379 0,0 55.047,0 	"/>
</g>
<g id="Layer_1">
</g>
</svg>
