<?xml version="1.0" encoding="iso-8859-1"?>
<!-- Generator: Adobe Illustrator 19.1.1, SVG Export Plug-In . SVG Version: 6.00 Build 0)  -->
<svg version="1.1" xmlns="http://www.w3.org/2000/svg" xmlns:xlink="http://www.w3.org/1999/xlink" x="0px" y="0px"
	 viewBox="0 0 100 100" style="enable-background:new 0 0 100 100;" xml:space="preserve">
<g id="full_screen">
	<g>
		<circle style="fill:#0D70FF;" cx="50" cy="50" r="50"/>
		<linearGradient id="SVGID_1_" gradientUnits="userSpaceOnUse" x1="38.5901" y1="1.8211" x2="61.2412" y2="97.4666">
			<stop  offset="0" style="stop-color:#091A57"/>
			<stop  offset="1" style="stop-color:#091A32"/>
		</linearGradient>
		<circle style="fill:url(#SVGID_1_);" cx="50" cy="50" r="49"/>
		<linearGradient id="SVGID_2_" gradientUnits="userSpaceOnUse" x1="28.0486" y1="12.3921" x2="76.4706" y2="96.0494">
			<stop  offset="0" style="stop-color:#091A57;stop-opacity:0.1"/>
			<stop  offset="1" style="stop-color:#020919"/>
		</linearGradient>
		<path style="fill:url(#SVGID_2_);" d="M3.349,65.004C9.687,84.725,28.173,99,50,99c27.062,0,49-21.938,49-49
			c0-6.928-1.439-13.519-4.034-19.492C92.318,120.159,24.29,7.111,3.349,65.004z"/>
		<path style="opacity:0.1;fill:#5271AF;" d="M50.779,24.948c11.289,3.234,20.039-17.289,7.205-23.29C55.385,1.232,52.72,1,50,1
			C22.938,1,1,22.938,1,50c0,1.814,0.106,3.603,0.298,5.365C4.568,39.659,8.122,12.727,50.779,24.948z"/>
	</g>
	<path d="M76.25,82H57.5c-3.17,0-5.75-2.579-5.75-5.75V72.5c0-2.699,1.87-4.971,4.382-5.586l-2.697-2.697
		c-1.086-1.086-1.685-2.529-1.685-4.065c0-1.535,0.599-2.979,1.685-4.065l2.65-2.651c2.242-2.242,5.89-2.242,8.131,0l2.698,2.697
		c0.615-2.513,2.886-4.382,5.585-4.382h3.75c3.17,0,5.75,2.579,5.75,5.75v18.75C82,79.421,79.42,82,76.25,82z M57.5,70.75
		c-0.965,0-1.75,0.785-1.75,1.75v3.75c0,0.965,0.785,1.75,1.75,1.75h18.75c0.965,0,1.75-0.785,1.75-1.75V57.5
		c0-0.965-0.785-1.75-1.75-1.75H72.5c-0.965,0-1.75,0.785-1.75,1.75v8.124l-9.361-9.361c-0.683-0.682-1.792-0.682-2.475,0
		l-2.65,2.651c-0.332,0.331-0.514,0.771-0.514,1.237s0.182,0.906,0.513,1.237l9.361,9.361H57.5z M42.5,82H23.75
		c-3.17,0-5.75-2.579-5.75-5.75V57.5c0-3.171,2.58-5.75,5.75-5.75h3.75c2.699,0,4.97,1.869,5.585,4.382l2.698-2.697
		c2.241-2.242,5.89-2.242,8.131,0l2.651,2.651c1.086,1.086,1.685,2.53,1.685,4.065c0,1.536-0.599,2.979-1.685,4.065l-2.697,2.697
		c2.512,0.616,4.382,2.887,4.382,5.586v3.75C48.25,79.421,45.67,82,42.5,82z M23.75,55.75c-0.965,0-1.75,0.785-1.75,1.75v18.75
		c0,0.965,0.785,1.75,1.75,1.75H42.5c0.965,0,1.75-0.785,1.75-1.75V72.5c0-0.965-0.785-1.75-1.75-1.75h-8.125l9.362-9.361
		c0.331-0.331,0.513-0.771,0.513-1.237s-0.182-0.906-0.513-1.237l-2.651-2.651c-0.683-0.682-1.792-0.682-2.475,0l-9.361,9.361V57.5
		c0-0.965-0.785-1.75-1.75-1.75H23.75z M76.25,48.25H72.5c-2.699,0-4.97-1.869-5.585-4.382l-2.698,2.697
		c-2.241,2.242-5.89,2.242-8.131,0l-2.651-2.651c-1.086-1.086-1.685-2.53-1.685-4.065c0-1.536,0.599-2.979,1.685-4.065l2.697-2.697
		c-2.513-0.615-4.382-2.887-4.382-5.586v-3.75c0-3.171,2.58-5.75,5.75-5.75h18.75c3.17,0,5.75,2.579,5.75,5.75V42.5
		C82,45.671,79.42,48.25,76.25,48.25z M70.75,34.376V42.5c0,0.965,0.785,1.75,1.75,1.75h3.75c0.965,0,1.75-0.785,1.75-1.75V23.75
		c0-0.965-0.785-1.75-1.75-1.75H57.5c-0.965,0-1.75,0.785-1.75,1.75v3.75c0,0.965,0.785,1.75,1.75,1.75h8.124l-9.361,9.361
		c-0.331,0.331-0.513,0.771-0.513,1.237s0.182,0.906,0.513,1.237l2.651,2.651c0.682,0.682,1.792,0.682,2.474,0L70.75,34.376z
		 M27.5,48.25h-3.75c-3.17,0-5.75-2.579-5.75-5.75V23.75c0-3.171,2.58-5.75,5.75-5.75H42.5c3.17,0,5.75,2.579,5.75,5.75v3.75
		c0,2.699-1.87,4.97-4.382,5.586l2.697,2.697c1.086,1.086,1.685,2.529,1.685,4.065c0,1.535-0.599,2.979-1.685,4.065l-2.651,2.651
		c-2.241,2.242-5.89,2.242-8.131,0l-2.698-2.697C32.47,46.381,30.199,48.25,27.5,48.25z M23.75,22C22.785,22,22,22.785,22,23.75
		V42.5c0,0.965,0.785,1.75,1.75,1.75h3.75c0.965,0,1.75-0.785,1.75-1.75v-8.124l9.361,9.361c0.683,0.682,1.792,0.682,2.475,0
		l2.651-2.651c0.331-0.331,0.513-0.771,0.513-1.237s-0.182-0.906-0.513-1.237l-9.362-9.361H42.5c0.965,0,1.75-0.785,1.75-1.75v-3.75
		c0-0.965-0.785-1.75-1.75-1.75H23.75z"/>
	<path style="fill:#00C4FF;" d="M76.25,20H57.5c-2.073,0-3.75,1.681-3.75,3.75v3.75c0,2.073,1.677,3.75,3.75,3.75h3.296
		l-5.947,5.947c-1.465,1.465-1.465,3.838,0,5.303l2.651,2.651c1.465,1.465,3.838,1.465,5.303,0l5.947-5.947V42.5
		c0,2.073,1.677,3.75,3.75,3.75h3.75c2.073,0,3.75-1.677,3.75-3.75V23.75C80,21.681,78.323,20,76.25,20z M45.151,57.5L42.5,54.849
		c-1.465-1.465-3.838-1.465-5.303,0l-5.947,5.947V57.5c0-2.069-1.677-3.75-3.75-3.75h-3.75c-2.069,0-3.75,1.681-3.75,3.75v18.75
		c0,2.073,1.681,3.75,3.75,3.75H42.5c2.073,0,3.75-1.677,3.75-3.75V72.5c0-2.069-1.677-3.75-3.75-3.75h-3.296l5.947-5.947
		C46.616,61.338,46.616,58.965,45.151,57.5z M76.25,53.75H72.5c-2.069,0-3.75,1.677-3.75,3.75v3.296l-5.947-5.947
		c-1.465-1.465-3.838-1.465-5.303,0L54.849,57.5c-1.465,1.465-1.465,3.838,0,5.303l5.947,5.947H57.5c-2.069,0-3.75,1.681-3.75,3.75
		v3.75c0,2.073,1.681,3.75,3.75,3.75h18.75c2.073,0,3.75-1.677,3.75-3.75V57.5C80,55.427,78.323,53.75,76.25,53.75z M39.204,31.25
		H42.5c2.073,0,3.75-1.677,3.75-3.75v-3.75c0-2.069-1.681-3.75-3.75-3.75H23.75C21.677,20,20,21.681,20,23.75V42.5
		c0,2.073,1.677,3.75,3.75,3.75h3.75c2.073,0,3.75-1.677,3.75-3.75v-3.296l5.947,5.947c1.465,1.465,3.838,1.465,5.303,0l2.651-2.651
		c1.465-1.465,1.465-3.838,0-5.303L39.204,31.25z"/>
	<g>
		
			<ellipse transform="matrix(0.892 0.4521 -0.4521 0.892 13.3965 -28.4936)" style="opacity:0.3;fill:#3887F9;" cx="66.318" cy="13.784" rx="7.25" ry="2.875"/>
		<ellipse style="opacity:0.3;fill:#3887F9;" cx="78.006" cy="21.972" rx="2.188" ry="1.938"/>
	</g>
</g>
<g id="Layer_1">
</g>
</svg>
