<?xml version="1.0" encoding="iso-8859-1"?>
<!-- Generator: Adobe Illustrator 19.1.1, SVG Export Plug-In . SVG Version: 6.00 Build 0)  -->
<svg version="1.1" xmlns="http://www.w3.org/2000/svg" xmlns:xlink="http://www.w3.org/1999/xlink" x="0px" y="0px"
	 viewBox="0 0 100 100" style="enable-background:new 0 0 100 100;" xml:space="preserve">
<g id="google">
	<g>
		<circle style="fill:#0D70FF;" cx="50" cy="50" r="50"/>
		<linearGradient id="SVGID_1_" gradientUnits="userSpaceOnUse" x1="38.5901" y1="1.8211" x2="61.2412" y2="97.4666">
			<stop  offset="0" style="stop-color:#091A57"/>
			<stop  offset="1" style="stop-color:#091A32"/>
		</linearGradient>
		<circle style="fill:url(#SVGID_1_);" cx="50" cy="50" r="49"/>
		<linearGradient id="SVGID_2_" gradientUnits="userSpaceOnUse" x1="28.0486" y1="12.3921" x2="76.4706" y2="96.0494">
			<stop  offset="0" style="stop-color:#091A57;stop-opacity:0.1"/>
			<stop  offset="1" style="stop-color:#020919"/>
		</linearGradient>
		<path style="fill:url(#SVGID_2_);" d="M3.349,65.004C9.687,84.725,28.173,99,50,99c27.062,0,49-21.938,49-49
			c0-6.928-1.439-13.519-4.034-19.492C92.318,120.159,24.29,7.111,3.349,65.004z"/>
		<path style="opacity:0.1;fill:#5271AF;" d="M50.779,24.948c11.289,3.234,20.039-17.289,7.205-23.29C55.385,1.232,52.72,1,50,1
			C22.938,1,1,22.938,1,50c0,1.814,0.106,3.603,0.298,5.365C4.568,39.659,8.122,12.727,50.779,24.948z"/>
	</g>
	<g>
		<path style="fill:#000E1E;" d="M37.109,78.25c-2.66,0-5.221-0.307-7.612-0.91c-4.861-1.227-8.509-3.635-10.271-6.781
			C18.411,69.094,18,67.537,18,65.927c0-1.604,0.379-3.22,1.125-4.802c2.391-5.091,8.158-8.699,14.8-9.442
			c-0.054-0.35-0.084-0.702-0.092-1.06c-7.249-1.118-12.479-6.939-12.479-14.286c0-5.782,4.508-11.373,10.962-13.595
			c1.914-0.658,3.854-0.992,5.768-0.992h15.52c1.396,0,2.627,0.889,3.061,2.211c0.438,1.331-0.035,2.778-1.177,3.602l-3.42,2.453
			c0.899,1.93,1.365,4.09,1.365,6.38c0,4.049-1.995,7.839-5.616,10.672c-1.263,0.981-1.615,1.392-1.712,1.54
			c0.397,0.551,1.449,1.67,2.693,2.55c4.883,3.454,6.785,7.016,6.785,12.704c0,6.133-4.541,11.412-11.569,13.449
			C41.858,77.934,39.536,78.25,37.109,78.25z M35.986,55.547c-5.966,0.148-11.249,3.037-13.242,7.282
			C22.25,63.876,22,64.917,22,65.927c0,0.922,0.242,1.824,0.719,2.683c1.216,2.172,3.972,3.897,7.757,4.852
			c2.072,0.523,4.303,0.789,6.633,0.789c2.05,0,3.999-0.263,5.791-0.781c5.274-1.529,8.682-5.3,8.682-9.607
			c0-4.362-1.286-6.744-5.095-9.438c-0.043-0.03-4.3-3.103-4.414-5.358l-0.002-0.101c0-1.983,0.675-3.021,3.285-5.051
			c2.627-2.055,4.076-4.726,4.076-7.518c0-2.497-0.734-4.761-2.124-6.546l-2.513-3.229h5.141l1.215-0.871H38.084
			c-1.47,0-2.973,0.261-4.466,0.774c-4.865,1.675-8.264,5.71-8.264,9.813c0,5.927,4.515,10.333,10.736,10.478l2.521,0.058
			l-0.631,2.441c-0.099,0.383-0.149,0.765-0.149,1.137c0,0.734,0.188,1.419,0.574,2.095l1.629,2.846l-1.229,0.055
			c1.122,0.066,2.195,0.258,3.214,0.572l0.291,0.09l1.26,0.857c2.657,1.81,4.723,3.216,5.36,5.713l0.007,0.031
			c0.141,0.589,0.212,1.19,0.212,1.786c0,3.301-1.568,8.837-12.071,8.837c-6.189,0-11.038-3.983-11.038-9.068
			C26.042,59.967,30.426,56.268,35.986,55.547z M38.076,59.42h-0.117c-4.459,0-7.917,2.604-7.917,4.844
			c0,2.842,3.091,5.068,7.038,5.068c8.071,0,8.071-3.514,8.071-4.837c0-0.278-0.033-0.562-0.099-0.842
			c-0.259-0.979-1.447-1.826-3.691-3.354l-0.793-0.538C39.782,59.545,38.945,59.431,38.076,59.42z M38.739,46.726
			c-4.439,0-8.608-4.646-9.351-10.357c-0.414-3.117,0.298-5.99,1.953-7.882c1.199-1.363,2.841-2.112,4.629-2.112l0.25,0.011
			c4.389,0.131,8.449,4.635,9.188,10.251c0.415,3.162-0.318,6.081-2.011,8.008C42.201,46.007,40.59,46.726,38.739,46.726z
			 M35.925,30.375c-0.627,0.012-1.143,0.257-1.576,0.749c-0.881,1.007-1.254,2.773-0.995,4.722l0.001,0.006
			c0.503,3.872,3.276,6.875,5.326,6.875c0.764,0,1.274-0.223,1.714-0.723c0.904-1.029,1.307-2.887,1.05-4.847
			c-0.466-3.537-2.988-6.703-5.397-6.775L35.925,30.375z"/>
		<path style="fill:#00C4FF;" d="M53.603,23.75h-15.52c-1.7,0-3.424,0.3-5.116,0.883c-5.658,1.948-9.613,6.76-9.613,11.704
			c0,7.002,5.431,12.309,12.689,12.477c-0.143,0.553-0.212,1.099-0.212,1.637c0,1.08,0.274,2.102,0.839,3.087
			c-0.066,0.003-0.132,0.003-0.201,0.003c-6.918,0-13.165,3.391-15.535,8.438C20.315,63.29,20,64.616,20,65.927
			c0,1.274,0.33,2.501,0.97,3.655c1.491,2.662,4.691,4.728,9.016,5.819c2.234,0.564,4.632,0.85,7.123,0.85
			c2.238,0,4.372-0.289,6.347-0.861c6.152-1.784,10.126-6.306,10.126-11.528c0-5.01-1.611-8.009-5.94-11.071
			c-1.853-1.311-3.541-3.234-3.571-3.827c0-1.077,0.095-1.593,2.513-3.471c3.127-2.446,4.848-5.702,4.848-9.097
			c0-3.08-0.941-5.713-2.545-7.775h1.245c0.256,0,0.509-0.04,0.714-0.191l3.472-2.49c0.432-0.311,0.612-0.854,0.447-1.355
			C54.6,24.083,54.134,23.75,53.603,23.75z M31.371,36.11c-0.34-2.563,0.201-4.849,1.476-6.306c0.828-0.941,1.908-1.428,3.124-1.428
			l0.135,0.007c3.432,0.102,6.716,3.922,7.321,8.514c0.337,2.571-0.234,4.951-1.531,6.427c-0.828,0.941-1.893,1.403-3.157,1.403
			c0,0,0,0-0.004,0H38.68C35.322,44.727,31.968,40.698,31.371,36.11z M46.993,63.173c0.107,0.447,0.158,0.89,0.158,1.322
			c0,4.537-3.387,6.837-10.071,6.837c-5.069,0-9.038-3.105-9.038-7.068c0-3.647,4.637-6.844,9.917-6.844h0.142
			c1.15,0.015,2.271,0.183,3.329,0.509c0.363,0.249,0.714,0.487,1.051,0.714C44.928,60.309,46.543,61.408,46.993,63.173z"/>
	</g>
	<g>
		<path style="fill:#000E1E;" d="M68.75,63.25c-3.17,0-5.75-2.579-5.75-5.75v-1.75h-1.75c-3.17,0-5.75-2.579-5.75-5.75
			s2.58-5.75,5.75-5.75H63V42.5c0-3.171,2.58-5.75,5.75-5.75s5.75,2.579,5.75,5.75v1.75h1.75c3.17,0,5.75,2.579,5.75,5.75
			s-2.58,5.75-5.75,5.75H74.5v1.75C74.5,60.671,71.92,63.25,68.75,63.25z M61.25,48.25c-0.965,0-1.75,0.785-1.75,1.75
			s0.785,1.75,1.75,1.75H67v5.75c0,0.965,0.785,1.75,1.75,1.75s1.75-0.785,1.75-1.75v-5.75h5.75c0.965,0,1.75-0.785,1.75-1.75
			s-0.785-1.75-1.75-1.75H70.5V42.5c0-0.965-0.785-1.75-1.75-1.75S67,41.535,67,42.5v5.75H61.25z"/>
		<path style="fill:#00C4FF;" d="M76.25,46.25H72.5V42.5c0-2.073-1.677-3.75-3.75-3.75c-2.073,0-3.75,1.677-3.75,3.75v3.75h-3.75
			c-2.073,0-3.75,1.677-3.75,3.75c0,2.073,1.677,3.75,3.75,3.75H65v3.75c0,2.073,1.677,3.75,3.75,3.75c2.073,0,3.75-1.677,3.75-3.75
			v-3.75h3.75c2.073,0,3.75-1.677,3.75-3.75C80,47.927,78.323,46.25,76.25,46.25z"/>
	</g>
	<g>
		
			<ellipse transform="matrix(0.892 0.4521 -0.4521 0.892 13.3965 -28.4936)" style="opacity:0.3;fill:#3887F9;" cx="66.318" cy="13.784" rx="7.25" ry="2.875"/>
		<ellipse style="opacity:0.3;fill:#3887F9;" cx="78.006" cy="21.972" rx="2.188" ry="1.938"/>
	</g>
</g>
<g id="Layer_1">
</g>
</svg>
