<?xml version="1.0" encoding="iso-8859-1"?>
<!-- Generator: Adobe Illustrator 19.1.1, SVG Export Plug-In . SVG Version: 6.00 Build 0)  -->
<svg version="1.1" xmlns="http://www.w3.org/2000/svg" xmlns:xlink="http://www.w3.org/1999/xlink" x="0px" y="0px"
	 viewBox="0 0 100 100" style="enable-background:new 0 0 100 100;" xml:space="preserve">
<g id="home">
	<g>
		<circle style="fill:#0D70FF;" cx="50" cy="50" r="50"/>
		<linearGradient id="SVGID_1_" gradientUnits="userSpaceOnUse" x1="38.5901" y1="1.8211" x2="61.2412" y2="97.4666">
			<stop  offset="0" style="stop-color:#091A57"/>
			<stop  offset="1" style="stop-color:#091A32"/>
		</linearGradient>
		<circle style="fill:url(#SVGID_1_);" cx="50" cy="50" r="49"/>
		<linearGradient id="SVGID_2_" gradientUnits="userSpaceOnUse" x1="28.0486" y1="12.3921" x2="76.4706" y2="96.0494">
			<stop  offset="0" style="stop-color:#091A57;stop-opacity:0.1"/>
			<stop  offset="1" style="stop-color:#020919"/>
		</linearGradient>
		<path style="fill:url(#SVGID_2_);" d="M3.349,65.004C9.687,84.725,28.173,99,50,99c27.062,0,49-21.938,49-49
			c0-6.928-1.439-13.519-4.034-19.492C92.318,120.159,24.29,7.111,3.349,65.004z"/>
		<path style="opacity:0.1;fill:#5271AF;" d="M50.779,24.948c11.289,3.234,20.039-17.289,7.205-23.29C55.385,1.232,52.72,1,50,1
			C22.938,1,1,22.938,1,50c0,1.814,0.106,3.603,0.298,5.365C4.568,39.659,8.122,12.727,50.779,24.948z"/>
	</g>
	<path d="M71.25,84h-19V62.75h-4.5V84h-19c-3.446,0-6.25-2.804-6.25-6.25V50H11.171L50,11.172L88.828,50H77.5v27.75
		C77.5,81.196,74.696,84,71.25,84z M56.25,80h15c0.371,0,0.722-0.09,1.03-0.25H56.5V58.5h-13v21.25H27.72
		c0.309,0.16,0.659,0.25,1.03,0.25h15V58.75h12.5V80z M50,17.547l23.25,23.25V78.78c0.16-0.309,0.25-0.659,0.25-1.03V41.047
		L78.453,46h0.719L50,16.828L20.828,46h0.718l4.954-4.953V77.75c0,0.371,0.09,0.722,0.25,1.03V40.797L50,17.547z M60.5,75.75h8.75
		V42.453L50,23.203l-19.25,19.25V75.75h8.75V54.5h21V75.75z"/>
	<path style="fill:#00C4FF;" d="M45.75,77.75v-17h8.5v17V82h17c2.347,0,4.25-1.901,4.25-4.25V45.875L77.625,48H84L50,14L16,48h6.375
		l2.125-2.125V77.75c0,2.349,1.903,4.25,4.25,4.25h17V77.75z M71.25,77.75H58.5V56.5h-17v21.25H28.75V41.625L50,20.375l21.25,21.25
		V77.75z"/>
	<g>
		
			<ellipse transform="matrix(0.892 0.4521 -0.4521 0.892 13.3965 -28.4936)" style="opacity:0.3;fill:#3887F9;" cx="66.318" cy="13.784" rx="7.25" ry="2.875"/>
		<ellipse style="opacity:0.3;fill:#3887F9;" cx="78.006" cy="21.972" rx="2.188" ry="1.938"/>
	</g>
</g>
<g id="Layer_1">
</g>
</svg>
