<?xml version="1.0" encoding="iso-8859-1"?>
<!-- Generator: Adobe Illustrator 19.1.1, SVG Export Plug-In . SVG Version: 6.00 Build 0)  -->
<svg version="1.1" xmlns="http://www.w3.org/2000/svg" xmlns:xlink="http://www.w3.org/1999/xlink" x="0px" y="0px"
	 viewBox="0 0 100 100" style="enable-background:new 0 0 100 100;" xml:space="preserve">
<g id="info">
	<g>
		<circle style="fill:#0D70FF;" cx="-650" cy="700" r="50"/>
		<linearGradient id="SVGID_1_" gradientUnits="userSpaceOnUse" x1="-661.4099" y1="651.8211" x2="-638.7588" y2="747.4666">
			<stop  offset="0" style="stop-color:#091A57"/>
			<stop  offset="1" style="stop-color:#091A32"/>
		</linearGradient>
		<circle style="fill:url(#SVGID_1_);" cx="-650" cy="700" r="49"/>
		<linearGradient id="SVGID_2_" gradientUnits="userSpaceOnUse" x1="-671.9515" y1="662.3921" x2="-623.5295" y2="746.0494">
			<stop  offset="0" style="stop-color:#091A57;stop-opacity:0.1"/>
			<stop  offset="1" style="stop-color:#020919"/>
		</linearGradient>
		<path style="fill:url(#SVGID_2_);" d="M-696.651,715.004C-690.313,734.725-671.827,749-650,749c27.062,0,49-21.938,49-49
			c0-6.928-1.439-13.519-4.034-19.492C-607.682,770.159-675.71,657.111-696.651,715.004z"/>
		<path style="opacity:0.1;fill:#5271AF;" d="M-649.221,674.948c11.289,3.234,20.039-17.289,7.205-23.29
			C-644.615,651.232-647.28,651-650,651c-27.062,0-49,21.938-49,49c0,1.814,0.106,3.603,0.298,5.365
			C-695.432,689.659-691.878,662.727-649.221,674.948z"/>
	</g>
	<g>
		
			<ellipse transform="matrix(0.892 0.4521 -0.4521 0.892 231.6398 358.2018)" style="opacity:0.3;fill:#3887F9;" cx="-633.682" cy="663.784" rx="7.25" ry="2.875"/>
		<ellipse style="opacity:0.3;fill:#3887F9;" cx="-621.994" cy="671.972" rx="2.188" ry="1.938"/>
	</g>
	<g id="Layer_6_copy_3">
		<g>
			<g>
				<path d="M-650,737.5c-6.695,0-12.143-5.447-12.143-12.143v-20.286c0-6.695,5.447-12.143,12.143-12.143
					c6.696,0,12.143,5.447,12.143,12.143v20.286C-637.857,732.053-643.304,737.5-650,737.5z M-650,696.929
					c-4.49,0-8.143,3.652-8.143,8.143v20.286c0,4.49,3.653,8.143,8.143,8.143c4.49,0,8.143-3.652,8.143-8.143v-20.286
					C-641.857,700.581-645.51,696.929-650,696.929z"/>
				<path d="M-650,686.786c-6.695,0-12.143-5.447-12.143-12.144c0-6.695,5.447-12.143,12.143-12.143
					c6.696,0,12.143,5.447,12.143,12.143C-637.857,681.339-643.304,686.786-650,686.786z M-650,666.5
					c-4.49,0-8.143,3.652-8.143,8.143s3.653,8.144,8.143,8.144c4.49,0,8.143-3.653,8.143-8.144S-645.51,666.5-650,666.5z"/>
			</g>
			<g>
				<path style="fill:#00C4FF;" d="M-650,694.929c5.606,0,10.143,4.542,10.143,10.143v20.286c0,5.601-4.537,10.143-10.143,10.143
					c-5.606,0-10.143-4.542-10.143-10.143v-20.286C-660.143,699.471-655.606,694.929-650,694.929z"/>
				<path style="fill:#00C4FF;" d="M-650,664.5c5.606,0,10.143,4.537,10.143,10.143s-4.537,10.143-10.143,10.143
					c-5.606,0-10.143-4.537-10.143-10.143S-655.606,664.5-650,664.5z"/>
			</g>
		</g>
	</g>
</g>
<g id="Layer_1">
</g>
</svg>
