<?xml version="1.0" encoding="iso-8859-1"?>
<!-- Generator: Adobe Illustrator 19.1.1, SVG Export Plug-In . SVG Version: 6.00 Build 0)  -->
<svg version="1.1" xmlns="http://www.w3.org/2000/svg" xmlns:xlink="http://www.w3.org/1999/xlink" x="0px" y="0px"
	 viewBox="0 0 100 100" style="enable-background:new 0 0 100 100;" xml:space="preserve">
<g id="Layer_3_copy_4">
	<g>
		<circle style="fill:#0D70FF;" cx="50" cy="50" r="50"/>
		<linearGradient id="SVGID_1_" gradientUnits="userSpaceOnUse" x1="38.5901" y1="1.8211" x2="61.2412" y2="97.4666">
			<stop  offset="0" style="stop-color:#091A57"/>
			<stop  offset="1" style="stop-color:#091A32"/>
		</linearGradient>
		<circle style="fill:url(#SVGID_1_);" cx="50" cy="50" r="49"/>
		<linearGradient id="SVGID_2_" gradientUnits="userSpaceOnUse" x1="28.0486" y1="12.3921" x2="76.4706" y2="96.0494">
			<stop  offset="0" style="stop-color:#091A57;stop-opacity:0.1"/>
			<stop  offset="1" style="stop-color:#020919"/>
		</linearGradient>
		<path style="fill:url(#SVGID_2_);" d="M3.349,65.004C9.687,84.725,28.173,99,50,99c27.062,0,49-21.938,49-49
			c0-6.928-1.439-13.519-4.034-19.492C92.318,120.159,24.29,7.111,3.349,65.004z"/>
		<path style="opacity:0.1;fill:#5271AF;" d="M50.779,24.948c11.289,3.234,20.039-17.289,7.205-23.29C55.385,1.232,52.72,1,50,1
			C22.938,1,1,22.938,1,50c0,1.814,0.106,3.603,0.298,5.365C4.568,39.659,8.122,12.727,50.779,24.948z"/>
	</g>
	<g>
		<path d="M82,78.25H63v-32c0-5.238,4.262-9.5,9.5-9.5s9.5,4.262,9.5,9.5V78.25z M67,74.25h11v-28c0-3.032-2.467-5.5-5.5-5.5
			s-5.5,2.468-5.5,5.5V74.25z"/>
		<path d="M59.5,78.25h-19v-47c0-5.238,4.262-9.5,9.5-9.5s9.5,4.262,9.5,9.5V78.25z M44.5,74.25h11v-43c0-3.032-2.467-5.5-5.5-5.5
			s-5.5,2.468-5.5,5.5V74.25z"/>
		<path d="M37,78.25H18v-39.5c0-5.238,4.262-9.5,9.5-9.5s9.5,4.262,9.5,9.5V78.25z M22,74.25h11v-35.5c0-3.032-2.467-5.5-5.5-5.5
			s-5.5,2.468-5.5,5.5V74.25z"/>
	</g>
	<g>
		<path style="fill:#00C4FF;" d="M72.5,38.75c-4.145,0-7.5,3.359-7.5,7.5v30h15v-30C80,42.108,76.645,38.75,72.5,38.75z"/>
		<path style="fill:#00C4FF;" d="M50,23.75c-4.145,0-7.5,3.358-7.5,7.5v45h15v-45C57.5,27.108,54.145,23.75,50,23.75z"/>
		<path style="fill:#00C4FF;" d="M27.5,31.25c-4.145,0-7.5,3.359-7.5,7.5v37.5h15v-37.5C35,34.608,31.645,31.25,27.5,31.25z"/>
	</g>
	<g>
		
			<ellipse transform="matrix(0.892 0.4521 -0.4521 0.892 13.3965 -28.4936)" style="opacity:0.3;fill:#3887F9;" cx="66.318" cy="13.784" rx="7.25" ry="2.875"/>
		<ellipse style="opacity:0.3;fill:#3887F9;" cx="78.006" cy="21.972" rx="2.188" ry="1.938"/>
	</g>
</g>
<g id="Layer_1">
</g>
</svg>
