<?xml version="1.0" encoding="iso-8859-1"?>
<!-- Generator: Adobe Illustrator 19.1.1, SVG Export Plug-In . SVG Version: 6.00 Build 0)  -->
<svg version="1.1" xmlns="http://www.w3.org/2000/svg" xmlns:xlink="http://www.w3.org/1999/xlink" x="0px" y="0px"
	 viewBox="0 0 100 100" style="enable-background:new 0 0 100 100;" xml:space="preserve">
<g id="like">
	<g>
		<circle style="fill:#0D70FF;" cx="50" cy="50" r="50"/>
		<linearGradient id="SVGID_1_" gradientUnits="userSpaceOnUse" x1="38.5901" y1="1.8211" x2="61.2412" y2="97.4666">
			<stop  offset="0" style="stop-color:#091A57"/>
			<stop  offset="1" style="stop-color:#091A32"/>
		</linearGradient>
		<circle style="fill:url(#SVGID_1_);" cx="50" cy="50" r="49"/>
		<linearGradient id="SVGID_2_" gradientUnits="userSpaceOnUse" x1="28.0486" y1="12.3921" x2="76.4706" y2="96.0494">
			<stop  offset="0" style="stop-color:#091A57;stop-opacity:0.1"/>
			<stop  offset="1" style="stop-color:#020919"/>
		</linearGradient>
		<path style="fill:url(#SVGID_2_);" d="M3.349,65.004C9.687,84.725,28.173,99,50,99c27.062,0,49-21.938,49-49
			c0-6.928-1.439-13.519-4.034-19.492C92.318,120.159,24.29,7.111,3.349,65.004z"/>
		<path style="opacity:0.1;fill:#5271AF;" d="M50.779,24.948c11.289,3.234,20.039-17.289,7.205-23.29C55.385,1.232,52.72,1,50,1
			C22.938,1,1,22.938,1,50c0,1.814,0.106,3.603,0.298,5.365C4.568,39.659,8.122,12.727,50.779,24.948z"/>
	</g>
	<g>
		<path d="M35.319,81H23.75c-3.17,0-5.75-2.579-5.75-5.75V45c0-3.171,2.58-5.75,5.75-5.75l11.568-0.016v2.016h2.941
			c0.093-0.104,0.218-0.322,0.276-0.49l5.903-20.858c0.094-0.2,2.356-4.901,7.436-4.901h1.875c5.267,0,7.625,2.888,7.625,5.75
			l-0.007,0.166L59.674,41.25H72.5c3.17,0,5.75,2.579,5.75,5.75v3.607C80.118,50.705,82,52.057,82,54.5v3.75
			c0,0.722-0.164,1.349-0.443,1.875C81.836,60.651,82,61.278,82,62v3.75c0,2.468-1.563,4.577-3.75,5.392v2.108
			c0,3.171-2.58,5.75-5.75,5.75H35.318L35.319,81z M31.318,43.24l-7.566,0.01C22.785,43.25,22,44.035,22,45v30.25
			c0,0.965,0.785,1.75,1.75,1.75h7.568l0-2h0.001V43.24z M49.494,75h2.255v-2.255C51.357,73.781,50.531,74.607,49.494,75z
			 M35.318,71.25H48V47c0-3.175,1.948-4.828,3.896-5.451l1.707-18.776c-0.104-0.013-0.24-0.022-0.417-0.022
			c-0.554,0-1.086,0.469-1.365,0.786l-5.686,20.181C45.738,45.605,43.73,49,38.75,49l-3.432,0.001V71.25z M48.119,21.488
			l-5.756,20.429c-0.285,0.926-1.033,2.275-2.325,2.938c1.736-0.435,2.123-1.707,2.19-2.003l0.035-0.144l5.894-20.918l0.166-0.256
			c0.148-0.228,1.271-1.87,3.23-2.521C49.532,19.192,48.384,21.017,48.119,21.488z M55.536,19.189
			c1.005,0.455,1.532,1.195,1.804,1.894l0.033-0.396C57.333,19.892,56.535,19.424,55.536,19.189z"/>
		<path style="display:none;fill:#99ECFF;" d="M72.5,47v3.75H53.75V47H72.5z M50,47c0,0.938,0,24.375,0,24.375
			c0,1.036-0.839,1.875-1.875,1.875h-22.5c-1.037,0-1.875-0.839-1.875-1.875v-22.5c0-1.035,0.838-1.875,1.875-1.875
			c0,0,8.375,0,13.125,0c4.75,0,5.438-3.75,5.438-3.75L50,22.625c0,0,1.219-1.875,3.186-1.875c1.97,0,2.439,0.84,2.439,1.875
			L53.75,43.25C53.75,43.25,50,43.25,50,47z M72.5,73.25H53.75V69.5H72.5V73.25z M76.25,65.75h-22.5V62h22.5V65.75z M76.25,58.25
			h-22.5V54.5h22.5V58.25z"/>
		<path style="fill:#00C4FF;" d="M80,58.25c0-1.875,0-1.875,0-3.75s-2-1.875-2-1.875s-2,0-2-1.875S76,47,76,47
			c0-2.071-1.427-4-3.5-4h-15l1.875-22.375C59.375,18.554,57.5,17,53.75,17c-0.187,0-0.337,0-0.476,0c-0.571,0-0.816,0-0.857,0
			c-0.157,0-0.33,0-0.542,0c-3.867,0-5.625,3.75-5.625,3.75l-5.812,20.5c0,0-0.579,1.75-2.062,1.75C37.835,43,33,43,33,43v-1.763
			l-9.409,0.013C21.518,41.25,20,42.929,20,45v30.25c0,2.071,1.677,3.75,3.75,3.75H33v-2h39.5c2.073,0,3.5-1.679,3.5-3.75V69.5
			c2,0,4-1.679,4-3.75c0,0,0-1.875,0-3.75s-1.875-1.875-1.875-1.875S80,60.125,80,58.25z M26.801,69.892c-1.657,0-3-1.343-3-3
			c0-1.657,1.343-3,3-3s3,1.343,3,3C29.801,68.549,28.458,69.892,26.801,69.892z M26.801,57.892c-1.657,0-3-1.343-3-3
			c0-1.657,1.343-3,3-3s3,1.343,3,3C29.801,56.549,28.458,57.892,26.801,57.892z M72,47v3H53v-3H72z M50,47
			c0,0.938,0,24.375,0,24.375C50,72.412,49.161,73,48.125,73H33c0,0,0-23,0-26c2,0,4.562,0,5.75,0c4.75,0,5.438-3.75,5.438-3.75
			L50,22.625c0,0,1.219-1.875,3.186-1.875c1.97,0,2.439,0.84,2.439,1.875L53.75,43.25C53.75,43.25,50,43.25,50,47z M72,73H53v-4h19
			V73z M76,65H53v-3h23V65z M76,58H53v-4h23V58z"/>
	</g>
	<g>
		
			<ellipse transform="matrix(0.892 0.4521 -0.4521 0.892 13.4012 -28.513)" style="opacity:0.3;fill:#3887F9;" cx="66.361" cy="13.784" rx="7.25" ry="2.875"/>
		<ellipse style="opacity:0.3;fill:#3887F9;" cx="78.049" cy="21.972" rx="2.188" ry="1.938"/>
	</g>
</g>
<g id="Layer_1">
</g>
</svg>
