<?xml version="1.0" encoding="iso-8859-1"?>
<!-- Generator: Adobe Illustrator 19.1.1, SVG Export Plug-In . SVG Version: 6.00 Build 0)  -->
<svg version="1.1" xmlns="http://www.w3.org/2000/svg" xmlns:xlink="http://www.w3.org/1999/xlink" x="0px" y="0px"
	 viewBox="0 0 100 100" style="enable-background:new 0 0 100 100;" xml:space="preserve">
<g id="local">
	<g>
		<circle style="fill:#0D70FF;" cx="50" cy="50" r="50"/>
		<linearGradient id="SVGID_1_" gradientUnits="userSpaceOnUse" x1="38.5901" y1="1.8211" x2="61.2412" y2="97.4666">
			<stop  offset="0" style="stop-color:#091A57"/>
			<stop  offset="1" style="stop-color:#091A32"/>
		</linearGradient>
		<circle style="fill:url(#SVGID_1_);" cx="50" cy="50" r="49"/>
		<linearGradient id="SVGID_2_" gradientUnits="userSpaceOnUse" x1="28.0486" y1="12.3921" x2="76.4706" y2="96.0494">
			<stop  offset="0" style="stop-color:#091A57;stop-opacity:0.1"/>
			<stop  offset="1" style="stop-color:#020919"/>
		</linearGradient>
		<path style="fill:url(#SVGID_2_);" d="M3.349,65.004C9.687,84.725,28.173,99,50,99c27.062,0,49-21.938,49-49
			c0-6.928-1.439-13.519-4.034-19.492C92.318,120.159,24.29,7.111,3.349,65.004z"/>
		<path style="opacity:0.1;fill:#5271AF;" d="M50.779,24.948c11.289,3.234,20.039-17.289,7.205-23.29C55.385,1.232,52.72,1,50,1
			C22.938,1,1,22.938,1,50c0,1.814,0.106,3.603,0.298,5.365C4.568,39.659,8.122,12.727,50.779,24.948z"/>
	</g>
	<g>
		<path d="M50.023,85.36L28.273,56h-0.145l-0.621-0.997C25.213,51.044,24,46.548,24,42c0-14.337,11.663-26,26-26s26,11.663,26,26
			c0,4.548-1.213,9.044-3.508,13.003l-0.123,0.188L50.023,85.36z M48.497,76.579l1.526,2.061l4.348-5.87l-4.376,5.812L48.497,76.579
			z M50,24c-9.925,0-18,8.075-18,18c0,3.869,1.274,7.602,3.686,10.795l14.319,19.124L61.99,56h-0.097l2.421-3.205
			C66.725,49.601,68,45.869,68,42C68,32.075,59.925,24,50,24z"/>
		<path d="M50,56c-7.72,0-14-6.28-14-14s6.28-14,14-14s14,6.28,14,14S57.72,56,50,56z M50,36c-3.309,0-6,2.691-6,6s2.691,6,6,6
			s6-2.691,6-6S53.308,36,50,36z"/>
		<path style="display:none;fill:#99ECFF;" d="M71.568,42.176c0-11.767-9.597-21.324-21.437-21.324
			c-11.841,0-21.437,9.526-21.437,21.293c0,4.819,1.67,9.207,4.384,12.777l17.054,22.674L67.281,55h-0.097
			C69.898,50,71.568,46.995,71.568,42.176z M50.131,50.656c-4.736,0-8.575-3.815-8.575-8.521s3.839-8.521,8.575-8.521
			c4.736,0,8.575,3.815,8.575,8.521S54.866,50.656,50.131,50.656z"/>
		<path style="fill:#00C4FF;" d="M50,18c-13.254,0-24,10.746-24,24c0,4.375,1.192,8.469,3.238,12h0.043l20.742,28l20.738-28
			C72.808,50.469,74,46.375,74,42C74,28.746,63.254,18,50,18z M66,54L50,75.25L34.09,54C31.558,50.648,30,46.524,30,42
			c0-11.047,8.953-20,20-20s20,8.953,20,20c0,4.524-1.558,8.648-4.09,12H66z"/>
		<path style="fill:#00C4FF;" d="M50,30c-6.629,0-12,5.375-12,12c0,6.625,5.371,12,12,12s12-5.375,12-12C62,35.375,56.629,30,50,30z
			 M50,50c-4.418,0-8-3.582-8-8s3.582-8,8-8s8,3.582,8,8S54.418,50,50,50z"/>
	</g>
	<g>
		
			<ellipse transform="matrix(0.892 0.4521 -0.4521 0.892 13.4012 -28.513)" style="opacity:0.3;fill:#3887F9;" cx="66.361" cy="13.784" rx="7.25" ry="2.875"/>
		<ellipse style="opacity:0.3;fill:#3887F9;" cx="78.049" cy="21.972" rx="2.188" ry="1.938"/>
	</g>
</g>
<g id="Layer_1">
</g>
</svg>
