<?xml version="1.0" encoding="iso-8859-1"?>
<!-- Generator: Adobe Illustrator 19.1.1, SVG Export Plug-In . SVG Version: 6.00 Build 0)  -->
<svg version="1.1" xmlns="http://www.w3.org/2000/svg" xmlns:xlink="http://www.w3.org/1999/xlink" x="0px" y="0px"
	 viewBox="0 0 100 100" style="enable-background:new 0 0 100 100;" xml:space="preserve">
<g id="lock">
	<g>
		<circle style="fill:#0D70FF;" cx="50" cy="50" r="50"/>
		<linearGradient id="SVGID_1_" gradientUnits="userSpaceOnUse" x1="38.5901" y1="1.8211" x2="61.2412" y2="97.4666">
			<stop  offset="0" style="stop-color:#091A57"/>
			<stop  offset="1" style="stop-color:#091A32"/>
		</linearGradient>
		<circle style="fill:url(#SVGID_1_);" cx="50" cy="50" r="49"/>
		<linearGradient id="SVGID_2_" gradientUnits="userSpaceOnUse" x1="28.0486" y1="12.3921" x2="76.4706" y2="96.0494">
			<stop  offset="0" style="stop-color:#091A57;stop-opacity:0.1"/>
			<stop  offset="1" style="stop-color:#020919"/>
		</linearGradient>
		<path style="fill:url(#SVGID_2_);" d="M3.349,65.004C9.687,84.725,28.173,99,50,99c27.062,0,49-21.938,49-49
			c0-6.928-1.439-13.519-4.034-19.492C92.318,120.159,24.29,7.111,3.349,65.004z"/>
		<path style="opacity:0.1;fill:#5271AF;" d="M50.779,24.948c11.289,3.234,20.039-17.289,7.205-23.29C55.385,1.232,52.72,1,50,1
			C22.938,1,1,22.938,1,50c0,1.814,0.106,3.603,0.298,5.365C4.568,39.659,8.122,12.727,50.779,24.948z"/>
	</g>
	<g>
		<path d="M50,70.75c-3.17,0-5.75-2.579-5.75-5.75v-7.5c0-3.171,2.58-5.75,5.75-5.75s5.75,2.579,5.75,5.75V65
			C55.75,68.171,53.17,70.75,50,70.75z M50,55.75c-0.965,0-1.75,0.785-1.75,1.75V65c0,0.965,0.785,1.75,1.75,1.75
			s1.75-0.785,1.75-1.75v-7.5C51.75,56.535,50.965,55.75,50,55.75z"/>
		<path d="M68.75,84.409h-37.5c-4.225,0-7.932-3.813-7.932-8.159v-30c0-4.25,3.632-7.841,7.932-7.841h0.068V35
			c0-10.477,8.523-19,19-19s19,8.523,19,19v3.431c3.909,0.303,7,3.694,7,7.819v30C76.318,80.673,72.852,84.409,68.75,84.409z
			 M31.25,42.409c-2.094,0-3.932,1.795-3.932,3.841v30c0,2.138,1.911,4.159,3.932,4.159h37.5c2.103,0,3.568-2.192,3.568-4.159v-30
			c0-2.153-1.567-3.841-3.568-3.841h-3.432V35c0-8.271-6.729-15-15-15s-15,6.729-15,15v7.409H31.25z M68.318,76.409h-37v-30h37
			V76.409z M35.318,72.409h29v-22h-29V72.409z M61.318,42.409h-23V35c0-6.098,5.267-11.25,11.5-11.25s11.5,5.152,11.5,11.25V42.409z
			 M42.318,38.409h15V35c0-3.93-3.435-7.25-7.5-7.25s-7.5,3.32-7.5,7.25V38.409z"/>
	</g>
	<g>
		<path style="fill:#00C4FF;" d="M50,68.75c2.073,0,3.75-1.677,3.75-3.75v-7.5c0-2.073-1.677-3.75-3.75-3.75
			c-2.073,0-3.75,1.677-3.75,3.75V65C46.25,67.073,47.927,68.75,50,68.75z"/>
		<path style="fill:#00C4FF;" d="M68.75,40H67v-5c0-9.374-7.626-17-17-17s-17,7.626-17,17v5h-1.75c-3.17,0-6.25,3.079-6.25,6.25v30
			c0,3.171,3.079,5.75,6.25,5.75h37.5c3.17,0,5.25-2.579,5.25-5.75v-30C74,43.079,71.92,40,68.75,40z M49.5,25.75
			c5.101,0,9.5,4.149,9.5,9.25v5H40v-5C40,29.899,44.399,25.75,49.5,25.75z M66,48v26H33V48H66z"/>
	</g>
	<g>
		
			<ellipse transform="matrix(0.892 0.4521 -0.4521 0.892 13.4012 -28.513)" style="opacity:0.3;fill:#3887F9;" cx="66.361" cy="13.784" rx="7.25" ry="2.875"/>
		<ellipse style="opacity:0.3;fill:#3887F9;" cx="78.049" cy="21.972" rx="2.188" ry="1.938"/>
	</g>
</g>
<g id="Layer_1">
</g>
</svg>
