<?xml version="1.0" encoding="iso-8859-1"?>
<!-- Generator: Adobe Illustrator 19.1.1, SVG Export Plug-In . SVG Version: 6.00 Build 0)  -->
<svg version="1.1" xmlns="http://www.w3.org/2000/svg" xmlns:xlink="http://www.w3.org/1999/xlink" x="0px" y="0px"
	 viewBox="0 0 100 100" style="enable-background:new 0 0 100 100;" xml:space="preserve">
<g id="map">
	<g>
		<circle style="fill:#0D70FF;" cx="50" cy="50" r="50"/>
		<linearGradient id="SVGID_1_" gradientUnits="userSpaceOnUse" x1="38.5901" y1="1.8211" x2="61.2412" y2="97.4666">
			<stop  offset="0" style="stop-color:#091A57"/>
			<stop  offset="1" style="stop-color:#091A32"/>
		</linearGradient>
		<circle style="fill:url(#SVGID_1_);" cx="50" cy="50" r="49"/>
		<linearGradient id="SVGID_2_" gradientUnits="userSpaceOnUse" x1="28.0486" y1="12.3921" x2="76.4706" y2="96.0494">
			<stop  offset="0" style="stop-color:#091A57;stop-opacity:0.1"/>
			<stop  offset="1" style="stop-color:#020919"/>
		</linearGradient>
		<path style="fill:url(#SVGID_2_);" d="M3.349,65.004C9.687,84.725,28.173,99,50,99c27.062,0,49-21.938,49-49
			c0-6.928-1.439-13.519-4.034-19.492C92.318,120.159,24.29,7.111,3.349,65.004z"/>
		<path style="opacity:0.1;fill:#5271AF;" d="M50.779,24.948c11.289,3.234,20.039-17.289,7.205-23.29C55.385,1.232,52.72,1,50,1
			C22.938,1,1,22.938,1,50c0,1.814,0.106,3.603,0.298,5.365C4.568,39.659,8.122,12.727,50.779,24.948z"/>
	</g>
	<g>
		<path d="M64.51,84.231c-1.152,0-2.249-0.497-3.009-1.363c-0.704-0.803-1.054-1.832-0.983-2.898
			c0.069-1.066,0.551-2.042,1.354-2.746c0.228-0.2,0.454-0.402,0.676-0.607c1.627-1.493,4.16-1.386,5.652,0.234
			c1.493,1.622,1.389,4.158-0.234,5.652c-0.27,0.247-0.542,0.493-0.821,0.737C66.418,83.879,65.481,84.231,64.51,84.231z
			 M65.257,79.559c-0.245,0.225-0.493,0.448-0.746,0.671l-0.001,0.001h0.002C64.763,80.008,65.013,79.785,65.257,79.559z
			 M71.372,75.661c-0.597,0-1.173-0.13-1.712-0.386c-0.962-0.454-1.693-1.26-2.053-2.267c-0.36-1.006-0.307-2.092,0.15-3.059
			c0.108-0.23,0.213-0.469,0.31-0.708c0.397-0.988,1.16-1.766,2.146-2.185c0.983-0.417,2.071-0.425,3.063-0.024
			c2.041,0.823,3.034,3.158,2.209,5.204c-0.151,0.378-0.317,0.759-0.498,1.138C74.333,74.762,72.913,75.661,71.372,75.661z
			 M71.774,70.744c-0.124,0.306-0.256,0.608-0.398,0.912v0.001C71.519,71.351,71.652,71.048,71.774,70.744z M71.93,64.941
			c-1.66,0-3.123-0.999-3.728-2.546c-0.087-0.225-0.183-0.446-0.288-0.668c-0.456-0.965-0.51-2.051-0.15-3.058
			c0.36-1.006,1.091-1.812,2.057-2.269c1.994-0.938,4.384-0.086,5.325,1.905c0.187,0.394,0.356,0.786,0.51,1.18
			c0.801,2.054-0.218,4.378-2.271,5.18C72.913,64.85,72.426,64.941,71.93,64.941z M64.805,56.788c-0.717,0-1.422-0.194-2.041-0.561
			c-0.234-0.14-0.469-0.271-0.706-0.397c-1.949-1.036-2.692-3.462-1.659-5.41c1.031-1.945,3.458-2.688,5.406-1.659
			c0.358,0.191,0.705,0.386,1.047,0.59c1.896,1.13,2.52,3.589,1.393,5.483C67.527,56.04,66.209,56.788,64.805,56.788z M64.15,52.413
			c0.222,0.121,0.44,0.246,0.656,0.375c0.001,0,0.003-0.001,0.004-0.001C64.592,52.659,64.372,52.534,64.15,52.413z M54.429,53.127
			c-0.274,0-0.548-0.028-0.813-0.083c-0.303-0.063-0.61-0.123-0.92-0.182c-1.05-0.198-1.96-0.794-2.562-1.677
			c-0.603-0.884-0.824-1.948-0.625-2.998c0.199-1.054,0.797-1.966,1.683-2.568c0.884-0.599,1.948-0.814,2.999-0.615
			c0.343,0.065,0.692,0.134,1.04,0.205c1.046,0.214,1.946,0.824,2.535,1.716c0.588,0.893,0.794,1.961,0.578,3.008
			C57.965,51.783,56.317,53.127,54.429,53.127z M43.49,51.446c-0.188,0-0.376-0.013-0.567-0.04l-0.991-0.14
			c-2.186-0.311-3.71-2.338-3.402-4.521c0.15-1.06,0.706-1.997,1.564-2.64c0.854-0.642,1.906-0.914,2.959-0.761l0.993,0.14
			c2.182,0.306,3.709,2.332,3.402,4.517C47.172,49.966,45.471,51.446,43.49,51.446z M32.684,49.142
			c-0.464,0-0.924-0.081-1.366-0.241c-0.382-0.14-0.751-0.285-1.113-0.437c-0.985-0.411-1.752-1.184-2.157-2.172
			c-0.405-0.989-0.401-2.076,0.012-3.063c0.849-2.031,3.197-2.996,5.231-2.146c0.252,0.105,0.505,0.204,0.765,0.299
			c1.004,0.366,1.805,1.102,2.256,2.07c0.451,0.97,0.497,2.056,0.131,3.06C35.869,48.085,34.358,49.142,32.684,49.142z
			 M24.924,41.936c-1.752,0-3.284-1.123-3.813-2.795c-0.133-0.419-0.25-0.855-0.351-1.308c-0.231-1.041-0.043-2.112,0.531-3.015
			c0.573-0.9,1.464-1.524,2.507-1.756c2.161-0.482,4.294,0.887,4.771,3.037c0.049,0.216,0.104,0.426,0.168,0.63
			c0.322,1.016,0.229,2.1-0.263,3.048c-0.493,0.948-1.325,1.648-2.345,1.971C25.748,41.872,25.338,41.936,24.924,41.936z
			 M25.165,31.039c-0.387,0-0.773-0.057-1.15-0.169c-2.117-0.64-3.316-2.875-2.681-4.986c0.115-0.381,0.238-0.759,0.37-1.134
			c0.355-1.005,1.081-1.813,2.043-2.274c0.964-0.462,2.051-0.521,3.061-0.163c1.007,0.355,1.815,1.082,2.276,2.046
			s0.52,2.05,0.163,3.058c-0.09,0.255-0.174,0.516-0.253,0.778C28.478,29.896,26.939,31.039,25.165,31.039z M25.474,26.087
			c-0.076,0.214-0.148,0.431-0.217,0.647C25.327,26.517,25.399,26.301,25.474,26.087z M30.592,21.505
			c-0.963,0-1.895-0.348-2.622-0.98c-1.665-1.446-1.843-3.978-0.396-5.643c0.247-0.284,0.498-0.565,0.754-0.842
			c0.724-0.784,1.712-1.24,2.78-1.281c1.076-0.039,2.088,0.335,2.871,1.06c0.785,0.726,1.24,1.713,1.282,2.78
			c0.042,1.068-0.335,2.089-1.061,2.873c-0.199,0.215-0.395,0.435-0.588,0.656C32.851,21.003,31.751,21.505,30.592,21.505z
			 M30.914,17.141c-0.107,0.12-0.215,0.242-0.321,0.364c0.001,0,0.002,0,0.002,0C30.699,17.383,30.806,17.261,30.914,17.141z
			 M39.014,14.392c-1.389,0-2.656-0.701-3.392-1.877c-0.566-0.904-0.748-1.976-0.509-3.018c0.238-1.042,0.869-1.928,1.774-2.495
			c0.31-0.193,0.621-0.384,0.935-0.57c0.919-0.548,1.995-0.705,3.029-0.443c1.036,0.262,1.908,0.911,2.456,1.829
			c1.129,1.894,0.508,4.354-1.387,5.484c-0.263,0.156-0.524,0.315-0.784,0.479C40.5,14.181,39.765,14.392,39.014,14.392z
			 M49.048,9.812c-1.754,0-3.33-1.175-3.831-2.855c-0.307-1.023-0.195-2.104,0.312-3.045s1.351-1.627,2.374-1.933
			c0.361-0.107,0.72-0.211,1.077-0.307c1.018-0.277,2.096-0.142,3.023,0.39c0.931,0.533,1.597,1.397,1.876,2.434
			c0.278,1.03,0.138,2.108-0.396,3.035c-0.532,0.926-1.395,1.589-2.427,1.867c-0.282,0.076-0.57,0.158-0.859,0.244
			C49.824,9.755,49.436,9.812,49.048,9.812z M50.012,5.537c-0.152,0.041-0.306,0.084-0.458,0.127
			C49.706,5.621,49.858,5.579,50.012,5.537z"/>
		<path d="M45.439,95.214c-1.653,0-3.157-1.039-3.742-2.587c-0.779-2.063,0.265-4.376,2.328-5.156
			c0.295-0.111,0.588-0.224,0.884-0.34c0.987-0.393,2.075-0.377,3.058,0.048c0.981,0.425,1.738,1.207,2.131,2.202
			c0.393,0.991,0.375,2.079-0.05,3.059c-0.424,0.981-1.205,1.737-2.199,2.131c-0.329,0.13-0.661,0.258-0.994,0.384
			C46.399,95.127,45.923,95.214,45.439,95.214z M45.861,91.052c-0.142,0.055-0.282,0.108-0.423,0.161l0,0
			C45.58,91.16,45.721,91.106,45.861,91.052z M55.453,90.543c-1.439,0-2.774-0.778-3.483-2.03c-1.085-1.922-0.406-4.366,1.512-5.451
			c0.279-0.157,0.553-0.314,0.825-0.474c0.921-0.537,1.997-0.685,3.031-0.414s1.9,0.929,2.438,1.851
			c0.539,0.921,0.688,1.999,0.416,3.032s-0.929,1.899-1.852,2.438c-0.303,0.178-0.611,0.354-0.919,0.529
			C56.819,90.364,56.139,90.543,55.453,90.543z M55.608,86.182c-0.054,0.03-0.333,0.196-0.386,0.226L55,88.543V86
			c0,0,0.451,0,0.45,0C55.503,86,55.555,86.211,55.608,86.182z"/>
		<path d="M35.316,98.159c-1.901,0-3.55-1.354-3.922-3.22c-0.429-2.164,0.981-4.273,3.144-4.704l0.465-0.094
			c2.146-0.443,4.271,0.945,4.722,3.102c0.45,2.159-0.94,4.281-3.1,4.732l-0.519,0.105C35.833,98.134,35.573,98.159,35.316,98.159z"
			/>
		<path d="M60.571,8.659c-0.2,0-0.402-0.015-0.605-0.046c-0.102-0.015-0.228-0.032-0.354-0.046
			c-2.197-0.261-3.768-2.254-3.509-4.444c0.258-2.178,2.248-3.755,4.432-3.503c0.224,0.027,0.429,0.054,0.634,0.085
			c1.048,0.156,1.98,0.717,2.615,1.576c0.636,0.859,0.898,1.914,0.739,2.971C64.233,7.194,62.534,8.659,60.571,8.659z"/>
		<path d="M25.131,42.284c-5.617,0-10.188-4.57-10.188-10.188s4.57-10.188,10.188-10.188s10.187,4.57,10.187,10.188
			S30.748,42.284,25.131,42.284z M25.131,25.909c-3.412,0-6.188,2.775-6.188,6.188s2.775,6.188,6.188,6.188s6.188-2.775,6.188-6.188
			S28.543,25.909,25.131,25.909z"/>
		<path d="M68.881,85.909c-5.549,0-10.063-4.514-10.063-10.063s4.514-10.063,10.063-10.063s10.063,4.514,10.063,10.063
			S74.43,85.909,68.881,85.909z M68.881,69.784c-3.343,0-6.063,2.72-6.063,6.063s2.72,6.063,6.063,6.063s6.063-2.72,6.063-6.063
			S72.223,69.784,68.881,69.784z"/>
	</g>
	<g>
		<path style="fill:#00C4FF;" d="M64.51,82.231c-0.557,0-1.109-0.23-1.505-0.682c-0.729-0.83-0.646-2.094,0.186-2.822
			c0.241-0.212,0.479-0.425,0.712-0.64c0.814-0.748,2.078-0.695,2.826,0.117s0.695,2.078-0.117,2.826
			c-0.257,0.236-0.518,0.471-0.784,0.704C65.448,82.068,64.977,82.231,64.51,82.231z M71.372,73.661
			c-0.287,0-0.578-0.062-0.854-0.192c-0.999-0.472-1.426-1.664-0.953-2.662c0.127-0.271,0.245-0.541,0.355-0.813
			c0.412-1.024,1.577-1.522,2.603-1.106c1.024,0.413,1.52,1.578,1.106,2.603c-0.138,0.343-0.287,0.686-0.449,1.026
			C72.84,73.238,72.121,73.661,71.372,73.661z M71.93,62.941c-0.801,0-1.556-0.483-1.864-1.273c-0.104-0.266-0.218-0.53-0.343-0.795
			c-0.473-0.999-0.046-2.191,0.952-2.663c0.999-0.471,2.191-0.045,2.663,0.952c0.166,0.351,0.317,0.7,0.454,1.051
			c0.401,1.029-0.106,2.188-1.136,2.591C72.418,62.896,72.172,62.941,71.93,62.941z M64.805,54.788c-0.348,0-0.7-0.091-1.021-0.281
			c-0.259-0.154-0.522-0.303-0.79-0.444c-0.976-0.519-1.346-1.729-0.828-2.705c0.519-0.977,1.729-1.344,2.705-0.828
			c0.324,0.173,0.645,0.353,0.96,0.54c0.948,0.565,1.26,1.793,0.695,2.742C66.152,54.439,65.487,54.788,64.805,54.788z
			 M54.429,51.127c-0.133,0-0.269-0.013-0.404-0.041c-0.318-0.065-0.637-0.128-0.957-0.188c-1.085-0.205-1.799-1.252-1.593-2.337
			c0.205-1.086,1.246-1.804,2.337-1.593c0.34,0.064,0.68,0.131,1.018,0.2c1.082,0.222,1.779,1.279,1.557,2.361
			C56.191,50.475,55.358,51.127,54.429,51.127z M43.49,49.446c-0.093,0-0.187-0.006-0.281-0.02l-0.999-0.141
			c-1.094-0.155-1.854-1.167-1.7-2.261c0.155-1.095,1.18-1.854,2.261-1.7l0.995,0.141c1.094,0.153,1.855,1.165,1.702,2.259
			C45.327,48.724,44.471,49.446,43.49,49.446z M32.684,47.142c-0.228,0-0.459-0.04-0.686-0.122c-0.348-0.127-0.688-0.261-1.022-0.4
			c-1.019-0.426-1.499-1.598-1.072-2.617c0.426-1.019,1.596-1.498,2.617-1.072c0.277,0.116,0.56,0.227,0.849,0.332
			c1.038,0.379,1.572,1.527,1.193,2.564C34.267,46.638,33.501,47.142,32.684,47.142z M24.924,39.936
			c-0.849,0-1.636-0.545-1.905-1.397c-0.116-0.366-0.218-0.745-0.305-1.138c-0.24-1.078,0.44-2.146,1.519-2.386
			c1.076-0.238,2.146,0.44,2.386,1.519c0.062,0.275,0.132,0.541,0.213,0.798c0.334,1.053-0.249,2.177-1.303,2.51
			C25.328,39.906,25.124,39.936,24.924,39.936z M25.165,29.039c-0.191,0-0.386-0.028-0.579-0.086
			c-1.058-0.319-1.655-1.436-1.337-2.493c0.105-0.35,0.219-0.697,0.341-1.042c0.367-1.041,1.506-1.589,2.552-1.22
			c1.041,0.367,1.588,1.51,1.22,2.552c-0.101,0.286-0.194,0.575-0.282,0.866C26.817,28.48,26.023,29.039,25.165,29.039z
			 M30.592,19.505c-0.465,0-0.932-0.161-1.311-0.49c-0.834-0.725-0.923-1.987-0.198-2.821c0.233-0.269,0.471-0.534,0.712-0.795
			c0.75-0.813,2.016-0.86,2.826-0.111c0.812,0.75,0.861,2.016,0.111,2.826c-0.214,0.231-0.424,0.466-0.63,0.703
			C31.707,19.271,31.151,19.505,30.592,19.505z M39.014,12.392c-0.666,0-1.317-0.332-1.696-0.938
			c-0.587-0.937-0.304-2.171,0.632-2.757c0.298-0.187,0.598-0.369,0.898-0.549c0.947-0.565,2.176-0.256,2.742,0.693
			c0.565,0.948,0.256,2.176-0.693,2.742c-0.275,0.164-0.55,0.331-0.822,0.502C39.745,12.293,39.377,12.392,39.014,12.392z
			 M49.048,7.812c-0.86,0-1.656-0.561-1.915-1.428c-0.316-1.059,0.284-2.173,1.343-2.489c0.341-0.102,0.681-0.199,1.021-0.29
			c1.065-0.292,2.164,0.344,2.451,1.41c0.288,1.066-0.344,2.164-1.41,2.451c-0.305,0.083-0.609,0.169-0.915,0.261
			C49.43,7.785,49.237,7.812,49.048,7.812z"/>
		<path style="fill:#00C4FF;" d="M45.439,93.214c-0.808,0-1.568-0.493-1.871-1.294c-0.391-1.033,0.131-2.188,1.164-2.578
			c0.303-0.114,0.605-0.23,0.91-0.351c1.028-0.408,2.189,0.097,2.595,1.124c0.406,1.026-0.097,2.188-1.124,2.595
			c-0.322,0.128-0.645,0.252-0.967,0.374C45.914,93.172,45.675,93.214,45.439,93.214z M55.453,88.543
			c-0.698,0-1.375-0.365-1.743-1.016c-0.543-0.962-0.204-2.182,0.757-2.726c0.284-0.16,0.566-0.322,0.848-0.486
			c0.952-0.557,2.179-0.235,2.735,0.718c0.558,0.953,0.236,2.178-0.718,2.735c-0.297,0.174-0.597,0.346-0.896,0.516
			C56.124,88.46,55.786,88.543,55.453,88.543z"/>
		<path style="fill:#00C4FF;" d="M35.316,96.159c-0.935,0-1.771-0.658-1.96-1.61c-0.215-1.083,0.488-2.136,1.572-2.352l0.472-0.096
			c1.082-0.224,2.141,0.469,2.366,1.55c0.226,1.082-0.469,2.141-1.55,2.366l-0.509,0.104C35.577,96.146,35.445,96.159,35.316,96.159
			z"/>
		<circle style="fill:#00C4FF;" cx="68.881" cy="75.847" r="8.063"/>
		<path style="fill:#00C4FF;" d="M60.571,6.659c-0.099,0-0.198-0.007-0.299-0.022c-0.143-0.021-0.287-0.04-0.432-0.057
			c-1.097-0.13-1.881-1.124-1.751-2.222s1.13-1.874,2.222-1.751c0.186,0.022,0.369,0.046,0.553,0.074
			c1.093,0.163,1.846,1.182,1.682,2.273C62.397,5.947,61.545,6.659,60.571,6.659z"/>
		<circle style="fill:#00C4FF;" cx="25.131" cy="32.097" r="8.188"/>
	</g>
	<g>
		
			<ellipse transform="matrix(0.892 0.4521 -0.4521 0.892 13.4012 -28.513)" style="opacity:0.3;fill:#3887F9;" cx="66.361" cy="13.784" rx="7.25" ry="2.875"/>
		<ellipse style="opacity:0.3;fill:#3887F9;" cx="78.049" cy="21.972" rx="2.188" ry="1.938"/>
	</g>
</g>
<g id="Layer_1">
</g>
</svg>
