<?xml version="1.0" encoding="iso-8859-1"?>
<!-- Generator: Adobe Illustrator 19.1.1, SVG Export Plug-In . SVG Version: 6.00 Build 0)  -->
<svg version="1.1" xmlns="http://www.w3.org/2000/svg" xmlns:xlink="http://www.w3.org/1999/xlink" x="0px" y="0px"
	 viewBox="0 0 100 100" style="enable-background:new 0 0 100 100;" xml:space="preserve">
<g id="max">
	<g>
		<circle style="fill:#0D70FF;" cx="50" cy="50" r="50"/>
		<linearGradient id="SVGID_1_" gradientUnits="userSpaceOnUse" x1="38.5901" y1="1.8211" x2="61.2412" y2="97.4666">
			<stop  offset="0" style="stop-color:#091A57"/>
			<stop  offset="1" style="stop-color:#091A32"/>
		</linearGradient>
		<circle style="fill:url(#SVGID_1_);" cx="50" cy="50" r="49"/>
		<linearGradient id="SVGID_2_" gradientUnits="userSpaceOnUse" x1="28.0486" y1="12.3921" x2="76.4706" y2="96.0494">
			<stop  offset="0" style="stop-color:#091A57;stop-opacity:0.1"/>
			<stop  offset="1" style="stop-color:#020919"/>
		</linearGradient>
		<path style="fill:url(#SVGID_2_);" d="M3.349,65.004C9.687,84.725,28.173,99,50,99c27.062,0,49-21.938,49-49
			c0-6.928-1.439-13.519-4.034-19.492C92.318,120.159,24.29,7.111,3.349,65.004z"/>
		<path style="opacity:0.1;fill:#5271AF;" d="M50.779,24.948c11.289,3.234,20.039-17.289,7.205-23.29C55.385,1.232,52.72,1,50,1
			C22.938,1,1,22.938,1,50c0,1.814,0.106,3.603,0.298,5.365C4.568,39.659,8.122,12.727,50.779,24.948z"/>
	</g>
	<path d="M50,82c-5.238,0-9.5-4.262-9.5-9.5v-13h-13c-5.238,0-9.5-4.262-9.5-9.5s4.262-9.5,9.5-9.5h13v-13
		c0-5.238,4.262-9.5,9.5-9.5s9.5,4.262,9.5,9.5v13h13c5.238,0,9.5,4.262,9.5,9.5s-4.262,9.5-9.5,9.5h-13v13
		C59.5,77.738,55.238,82,50,82z M27.5,44.5c-3.033,0-5.5,2.468-5.5,5.5s2.467,5.5,5.5,5.5h17v17c0,3.032,2.467,5.5,5.5,5.5
		s5.5-2.468,5.5-5.5v-17h17c3.033,0,5.5-2.468,5.5-5.5s-2.467-5.5-5.5-5.5h-17v-17c0-3.032-2.467-5.5-5.5-5.5s-5.5,2.468-5.5,5.5v17
		H27.5z"/>
	<path style="fill:#00C4FF;" d="M72.5,42.5h-15v-15c0-4.142-3.359-7.5-7.5-7.5c-4.142,0-7.5,3.358-7.5,7.5v15h-15
		c-4.142,0-7.5,3.359-7.5,7.5s3.358,7.5,7.5,7.5h15v15c0,4.141,3.358,7.5,7.5,7.5c4.141,0,7.5-3.359,7.5-7.5v-15h15
		c4.141,0,7.5-3.359,7.5-7.5S76.641,42.5,72.5,42.5z"/>
	<g>
		
			<ellipse transform="matrix(0.892 0.4521 -0.4521 0.892 13.3965 -28.4936)" style="opacity:0.3;fill:#3887F9;" cx="66.318" cy="13.784" rx="7.25" ry="2.875"/>
		<ellipse style="opacity:0.3;fill:#3887F9;" cx="78.006" cy="21.972" rx="2.188" ry="1.938"/>
	</g>
</g>
<g id="Layer_1">
</g>
</svg>
