<?xml version="1.0" encoding="iso-8859-1"?>
<!-- Generator: Adobe Illustrator 19.1.1, SVG Export Plug-In . SVG Version: 6.00 Build 0)  -->
<svg version="1.1" xmlns="http://www.w3.org/2000/svg" xmlns:xlink="http://www.w3.org/1999/xlink" x="0px" y="0px"
	 viewBox="0 0 100 100" style="enable-background:new 0 0 100 100;" xml:space="preserve">
<g id="menu">
	<g>
		<circle style="fill:#0D70FF;" cx="-650" cy="700" r="50"/>
		<linearGradient id="SVGID_1_" gradientUnits="userSpaceOnUse" x1="-661.4099" y1="651.8211" x2="-638.7588" y2="747.4666">
			<stop  offset="0" style="stop-color:#091A57"/>
			<stop  offset="1" style="stop-color:#091A32"/>
		</linearGradient>
		<circle style="fill:url(#SVGID_1_);" cx="-650" cy="700" r="49"/>
		<linearGradient id="SVGID_2_" gradientUnits="userSpaceOnUse" x1="-671.9515" y1="662.3921" x2="-623.5295" y2="746.0494">
			<stop  offset="0" style="stop-color:#091A57;stop-opacity:0.1"/>
			<stop  offset="1" style="stop-color:#020919"/>
		</linearGradient>
		<path style="fill:url(#SVGID_2_);" d="M-696.651,715.004C-690.313,734.725-671.827,749-650,749c27.062,0,49-21.938,49-49
			c0-6.928-1.439-13.519-4.034-19.492C-607.682,770.159-675.71,657.111-696.651,715.004z"/>
		<path style="opacity:0.1;fill:#5271AF;" d="M-649.221,674.948c11.289,3.234,20.039-17.289,7.205-23.29
			C-644.615,651.232-647.28,651-650,651c-27.062,0-49,21.938-49,49c0,1.814,0.106,3.603,0.298,5.365
			C-695.432,689.659-691.878,662.727-649.221,674.948z"/>
	</g>
	<g>
		
			<ellipse transform="matrix(0.892 0.4521 -0.4521 0.892 231.6398 358.2018)" style="opacity:0.3;fill:#3887F9;" cx="-633.682" cy="663.784" rx="7.25" ry="2.875"/>
		<ellipse style="opacity:0.3;fill:#3887F9;" cx="-621.994" cy="671.972" rx="2.188" ry="1.938"/>
	</g>
	<g id="Layer_34">
		<g>
			<path d="M-674.508,708.127h-4.085c-3.354,0-6.084-2.729-6.084-6.085v-4.084c0-3.355,2.729-6.085,6.084-6.085h4.085
				c3.355,0,6.085,2.729,6.085,6.085v4.084C-668.423,705.397-671.153,708.127-674.508,708.127z"/>
			<path d="M-674.508,728.55h-4.085c-3.354,0-6.084-2.729-6.084-6.084v-4.085c0-3.355,2.729-6.085,6.084-6.085h4.085
				c3.355,0,6.085,2.729,6.085,6.085v4.085C-668.423,725.82-671.153,728.55-674.508,728.55z"/>
			<path d="M-674.508,687.704h-4.085c-3.354,0-6.084-2.729-6.084-6.085v-4.085c0-3.354,2.729-6.084,6.084-6.084h4.085
				c3.355,0,6.085,2.729,6.085,6.084v4.085C-668.423,684.975-671.153,687.704-674.508,687.704z"/>
			<path d="M-619.365,687.704h-44.931c-2.229,0-4.043-1.813-4.043-4.043c0-2.229,1.813-4.042,4.043-4.042h44.931
				c2.229,0,4.043,1.813,4.043,4.042C-615.322,685.891-617.136,687.704-619.365,687.704z M-664.296,683.619l44.931,0.085v-0.085
				H-664.296z"/>
			<path d="M-619.365,679.534h-44.931c-2.229,0-4.043-1.813-4.043-4.042s1.813-4.042,4.043-4.042h44.931
				c2.229,0,4.043,1.813,4.043,4.042S-617.136,679.534-619.365,679.534z M-664.296,675.45v0.084h44.931L-664.296,675.45z"/>
			<path d="M-619.365,708.127h-44.931c-2.229,0-4.043-1.813-4.043-4.042c0-2.229,1.813-4.043,4.043-4.043h44.931
				c2.229,0,4.043,1.813,4.043,4.043C-615.322,706.313-617.136,708.127-619.365,708.127z M-664.296,704.042l44.931,0.085v-0.085
				H-664.296z"/>
			<path d="M-619.365,699.958h-44.931c-2.229,0-4.043-1.813-4.043-4.043c0-2.229,1.813-4.042,4.043-4.042h44.931
				c2.229,0,4.043,1.813,4.043,4.042C-615.322,698.144-617.136,699.958-619.365,699.958z M-664.296,695.873l44.931,0.085v-0.085
				H-664.296z"/>
			<path d="M-619.365,720.381h-44.931c-2.229,0-4.043-1.813-4.043-4.042c0-2.229,1.813-4.043,4.043-4.043h44.931
				c2.229,0,4.043,1.813,4.043,4.043C-615.322,718.567-617.136,720.381-619.365,720.381z M-664.296,716.296l44.931,0.085v-0.085
				H-664.296z"/>
			<path d="M-619.365,728.55h-44.931c-2.229,0-4.043-1.813-4.043-4.042s1.813-4.042,4.043-4.042h44.931
				c2.229,0,4.043,1.813,4.043,4.042S-617.136,728.55-619.365,728.55z M-664.296,724.466l44.931,0.084v-0.084H-664.296z"/>
		</g>
	</g>
	<g id="Layer_35">
		<g>
			<path style="fill:#99ECFF;" d="M-674.508,681.619h-4.085v-4.085h4.085V681.619z"/>
			<path style="fill:#99ECFF;" d="M-674.508,722.466h-4.085v-4.085h4.085V722.466z"/>
			<path style="fill:#99ECFF;" d="M-674.508,702.042h-4.085v-4.085h4.085V702.042z"/>
			<path style="fill:#00C4FF;" d="M-674.508,673.45h-4.085c-2.258,0-4.085,1.827-4.085,4.085v4.085c0,2.258,1.827,4.085,4.085,4.085
				h4.085c2.258,0,4.085-1.827,4.085-4.085v-4.085C-670.423,675.277-672.25,673.45-674.508,673.45z M-674.508,681.619h-4.085v-4.085
				h4.085V681.619z"/>
			<path style="fill:#00C4FF;" d="M-674.508,714.296h-4.085c-2.258,0-4.085,1.827-4.085,4.085v4.085
				c0,2.258,1.827,4.085,4.085,4.085h4.085c2.258,0,4.085-1.827,4.085-4.085v-4.085
				C-670.423,716.123-672.25,714.296-674.508,714.296z M-674.508,722.466h-4.085v-4.085h4.085V722.466z"/>
			<path style="fill:#00C4FF;" d="M-674.508,693.873h-4.085c-2.258,0-4.085,1.827-4.085,4.085v4.085
				c0,2.258,1.827,4.085,4.085,4.085h4.085c2.258,0,4.085-1.827,4.085-4.085v-4.085C-670.423,695.7-672.25,693.873-674.508,693.873z
				 M-674.508,702.042h-4.085v-4.085h4.085V702.042z"/>
			<path style="fill:#00C4FF;" d="M-619.365,722.466h-44.931c-1.129,0-2.042,0.913-2.042,2.042c0,1.129,0.913,2.042,2.042,2.042
				h44.931c1.129,0,2.042-0.913,2.042-2.042C-617.323,723.379-618.236,722.466-619.365,722.466z"/>
			<path style="fill:#00C4FF;" d="M-619.365,714.296h-44.931c-1.129,0-2.042,0.913-2.042,2.042c0,1.129,0.913,2.042,2.042,2.042
				h44.931c1.129,0,2.042-0.913,2.042-2.042C-617.323,715.21-618.236,714.296-619.365,714.296z"/>
			<path style="fill:#00C4FF;" d="M-619.365,693.873h-44.931c-1.129,0-2.042,0.913-2.042,2.042c0,1.129,0.913,2.042,2.042,2.042
				h44.931c1.129,0,2.042-0.913,2.042-2.042C-617.323,694.786-618.236,693.873-619.365,693.873z"/>
			<path style="fill:#00C4FF;" d="M-619.365,702.042h-44.931c-1.129,0-2.042,0.913-2.042,2.042c0,1.129,0.913,2.042,2.042,2.042
				h44.931c1.129,0,2.042-0.913,2.042-2.042C-617.323,702.956-618.236,702.042-619.365,702.042z"/>
			<path style="fill:#00C4FF;" d="M-664.296,677.534h44.931c1.129,0,2.042-0.913,2.042-2.042c0-1.129-0.913-2.042-2.042-2.042
				h-44.931c-1.129,0-2.042,0.913-2.042,2.042C-666.339,676.621-665.425,677.534-664.296,677.534z"/>
			<path style="fill:#00C4FF;" d="M-619.365,681.619h-44.931c-1.129,0-2.042,0.913-2.042,2.042c0,1.129,0.913,2.042,2.042,2.042
				h44.931c1.129,0,2.042-0.913,2.042-2.042C-617.323,682.532-618.236,681.619-619.365,681.619z"/>
		</g>
	</g>
</g>
<g id="Layer_1">
</g>
</svg>
