<?xml version="1.0" encoding="iso-8859-1"?>
<!-- Generator: Adobe Illustrator 19.1.1, SVG Export Plug-In . SVG Version: 6.00 Build 0)  -->
<svg version="1.1" xmlns="http://www.w3.org/2000/svg" xmlns:xlink="http://www.w3.org/1999/xlink" x="0px" y="0px"
	 viewBox="0 0 100 100" style="enable-background:new 0 0 100 100;" xml:space="preserve">
<g id="mix">
	<g>
		<circle style="fill:#0D70FF;" cx="50" cy="50" r="50"/>
		<linearGradient id="SVGID_1_" gradientUnits="userSpaceOnUse" x1="38.5901" y1="1.8211" x2="61.2412" y2="97.4666">
			<stop  offset="0" style="stop-color:#091A57"/>
			<stop  offset="1" style="stop-color:#091A32"/>
		</linearGradient>
		<circle style="fill:url(#SVGID_1_);" cx="50" cy="50" r="49"/>
		<linearGradient id="SVGID_2_" gradientUnits="userSpaceOnUse" x1="28.0486" y1="12.3921" x2="76.4706" y2="96.0494">
			<stop  offset="0" style="stop-color:#091A57;stop-opacity:0.1"/>
			<stop  offset="1" style="stop-color:#020919"/>
		</linearGradient>
		<path style="fill:url(#SVGID_2_);" d="M3.349,65.004C9.687,84.725,28.173,99,50,99c27.062,0,49-21.938,49-49
			c0-6.928-1.439-13.519-4.034-19.492C92.318,120.159,24.29,7.111,3.349,65.004z"/>
		<path style="opacity:0.1;fill:#5271AF;" d="M50.779,24.948c11.289,3.234,20.039-17.289,7.205-23.29C55.385,1.232,52.72,1,50,1
			C22.938,1,1,22.938,1,50c0,1.814,0.106,3.603,0.298,5.365C4.568,39.659,8.122,12.727,50.779,24.948z"/>
	</g>
	<g>
		<path d="M50.036,82c-6.749,0-13.119-2.038-18.533-5.912l-4.332,4.348C26.16,81.445,24.834,82,23.432,82
			c-0.674,0-1.459-0.129-2.128-0.406C19.364,80.788,18,78.9,18,76.666V58.889C18,55.816,20.533,53,23.36,53h17.778
			c2.11,0,4.091,1.562,4.927,3.581c0.832,2.006,0.367,4.479-1.157,6.001l-2.46,2.524c2.354,1.199,4.935,1.85,7.579,1.85
			c4.57,0,8.811-1.711,11.938-4.842c3.238-3.238,4.95-7.501,4.95-11.954c0-2.829,2.293-5.16,5.333-5.16h4.444
			c3.042,0,5.336,2.337,5.336,5.166c0,8.427-3.241,16.224-9.373,22.356C66.613,78.569,58.58,82,50.036,82z M31.171,70.756l1.4,1.124
			C37.56,75.884,43.6,78,50.036,78c7.475,0,14.504-2.913,19.792-8.203c5.365-5.365,8.201-12.288,8.201-19.63
			c0-0.893-1.022-1.166-1.336-1.166h-4.444c-0.313,0-1.333,0.274-1.333,1.166c0,5.537-2.116,10.682-6.121,14.686
			c-3.884,3.886-9.128,6.078-14.768,6.078c-4.268,0-8.397-1.285-11.939-3.764l-1.948-1.35l5.938-5.963
			c0.378-0.378,0.502-1.238,0.293-1.741C42.148,57.574,41.642,57,41.138,57H23.36C22.601,57,22,58.316,22,58.889v17.777
			c0,0.286,0.225,0.979,0.838,1.232C23.044,77.984,23.226,78,23.353,78c0.343,0,0.687-0.132,0.947-0.391L31.171,70.756z"/>
		<path d="M27.805,55H23.36c-2.938,0-5.328-2.205-5.328-5.167c0-8.567,3.331-16.514,9.379-22.561
			c6.043-6.046,14.081-9.324,22.634-9.324c6.769,0,13.15,2.066,18.567,5.943L73,19.545c1.515-1.517,3.722-1.975,5.722-1.144
			C80.778,19.253,82,21.239,82,23.334v17.777C82,43.983,79.742,46,76.693,46H58.916c-2.169,0-4.104-1.081-4.927-3.069
			c-0.827-1.993-0.373-4.165,1.157-5.693l2.446-2.393c-2.324-1.167-4.899-1.75-7.565-1.75c-4.505,0-8.745,1.774-11.939,4.97
			c-3.191,3.192-4.949,7.241-4.949,11.762C33.138,52.789,30.746,55,27.805,55z M50.045,22c-7.483,0-14.518,2.913-19.806,8.203
			c-5.292,5.292-8.207,12.131-8.207,19.63c0,0.743,0.608,1.167,1.328,1.167h4.445c0.723,0,1.333-0.423,1.333-1.167
			c0-5.589,2.174-10.739,6.12-14.686c3.95-3.952,9.195-6.078,14.769-6.078c4.314,0,8.443,1.319,11.938,3.765l1.954,1.38l-5.946,5.95
			c-0.386,0.386-0.496,0.732-0.289,1.231C57.887,41.886,58.37,42,58.916,42h17.777C77.498,42,78,41.754,78,41.111V23.334
			c0-0.474-0.258-1.003-0.811-1.232l0.079-0.001c-0.505-0.207-1.107-0.088-1.484,0.289l-6.874,6.85l-1.384-1.119
			C62.538,24.116,56.499,22,50.045,22z"/>
	</g>
	<g>
		<path style="fill:#00C4FF;" d="M76.693,47h-4.444c-1.841,0-3.333,1.326-3.333,3.167c0,5.043-1.965,9.703-5.535,13.272
			c-3.567,3.568-8.31,5.492-13.354,5.492c-3.916,0-7.65-1.204-10.793-3.403l4.261-4.271c0.954-0.953,1.239-2.67,0.723-3.915
			C43.702,56.095,42.487,55,41.139,55H23.36C21.52,55,20,57.048,20,58.889v17.777c0,1.348,0.826,2.563,2.072,3.079
			C22.483,79.917,22.923,80,23.353,80c0.868,0,1.724-0.339,2.361-0.977L31.3,73.44C36.598,77.691,43.135,80,50.026,80
			c8.013,0,15.546-3.122,21.211-8.789c5.668-5.667,8.789-13.033,8.789-21.044C80.026,48.326,78.534,47,76.693,47z"/>
		<path style="fill:#00C4FF;" d="M77.955,20.254c-1.244-0.517-2.672-0.232-3.625,0.723l-5.581,5.583
			C63.45,22.309,56.916,20,50.025,20c-8.013,0-15.545,3.122-21.21,8.789c-5.668,5.667-8.789,13.033-8.789,21.044
			c0,1.841,1.493,3.167,3.334,3.167h4.445c1.841,0,3.333-1.326,3.333-3.167c0-5.043,1.965-9.703,5.534-13.272
			c3.567-3.568,8.31-5.491,13.354-5.491c3.916,0,7.65,1.204,10.793,3.403l-4.26,4.271c-0.954,0.953-1.239,2.17-0.723,3.415
			C56.352,43.405,57.567,44,58.916,44h17.777C78.534,44,80,42.952,80,41.111V23.333C80,21.985,79.201,20.77,77.955,20.254z"/>
	</g>
	<g>
		
			<ellipse transform="matrix(0.892 0.4521 -0.4521 0.892 13.4012 -28.513)" style="opacity:0.3;fill:#3887F9;" cx="66.361" cy="13.784" rx="7.25" ry="2.875"/>
		<ellipse style="opacity:0.3;fill:#3887F9;" cx="78.049" cy="21.972" rx="2.188" ry="1.938"/>
	</g>
</g>
<g id="Layer_1">
</g>
</svg>
