<?xml version="1.0" encoding="iso-8859-1"?>
<!-- Generator: Adobe Illustrator 19.1.1, SVG Export Plug-In . SVG Version: 6.00 Build 0)  -->
<svg version="1.1" xmlns="http://www.w3.org/2000/svg" xmlns:xlink="http://www.w3.org/1999/xlink" x="0px" y="0px"
	 viewBox="0 0 100 100" style="enable-background:new 0 0 100 100;" xml:space="preserve">
<g id="more">
	<g>
		<circle style="fill:#0D70FF;" cx="50" cy="50" r="50"/>
		<linearGradient id="SVGID_1_" gradientUnits="userSpaceOnUse" x1="38.5901" y1="1.8211" x2="61.2412" y2="97.4666">
			<stop  offset="0" style="stop-color:#091A57"/>
			<stop  offset="1" style="stop-color:#091A32"/>
		</linearGradient>
		<circle style="fill:url(#SVGID_1_);" cx="50" cy="50" r="49"/>
		<linearGradient id="SVGID_2_" gradientUnits="userSpaceOnUse" x1="28.0486" y1="12.3921" x2="76.4706" y2="96.0494">
			<stop  offset="0" style="stop-color:#091A57;stop-opacity:0.1"/>
			<stop  offset="1" style="stop-color:#020919"/>
		</linearGradient>
		<path style="fill:url(#SVGID_2_);" d="M3.349,65.004C9.687,84.725,28.173,99,50,99c27.062,0,49-21.938,49-49
			c0-6.928-1.439-13.519-4.034-19.492C92.318,120.159,24.29,7.111,3.349,65.004z"/>
		<path style="opacity:0.1;fill:#5271AF;" d="M50.779,24.948c11.289,3.234,20.039-17.289,7.205-23.29C55.385,1.232,52.72,1,50,1
			C22.938,1,1,22.938,1,50c0,1.814,0.106,3.603,0.298,5.365C4.568,39.659,8.122,12.727,50.779,24.948z"/>
	</g>
	<g>
		<path style="display:none;fill:#99ECFF;" d="M80.625,67.5c0,0,0,2.188-2.188,0c-1.201-1.2-9.844-9.844-9.844-9.844
			s-1.094-1.094-3.281-1.094H34.688c-2.679,0-3.281,1.094-3.281,1.094s-8.643,8.643-9.844,9.844c-2.188,2.188-2.188,0-2.188,0
			V43.437c0-7.25,5.875-13.125,13.125-13.125h35c7.25,0,13.125,5.875,13.125,13.125V67.5z M39.063,43.437h-2.188V41.25
			c0-1.209-0.978-2.188-2.188-2.188c-1.209,0-2.188,0.978-2.188,2.188v2.188h-2.187c-1.209,0-2.188,0.978-2.188,2.188
			s0.978,2.188,2.188,2.188H32.5V50c0,1.209,0.978,2.188,2.188,2.188c1.209,0,2.188-0.978,2.188-2.188v-2.188h2.188
			c1.209,0,2.188-0.978,2.188-2.188S40.272,43.437,39.063,43.437z M69.688,39.062c-1.209,0-2.188,0.978-2.188,2.188
			s0.978,2.188,2.188,2.188c1.209,0,2.188-0.978,2.188-2.188S70.897,39.062,69.688,39.062z M63.125,45.625
			c-1.209,0-2.188,0.978-2.188,2.188S61.916,50,63.125,50c1.209,0,2.188-0.978,2.188-2.188S64.334,45.625,63.125,45.625z
			 M63.125,39.062c-1.209,0-2.188,0.978-2.188,2.188s0.978,2.188,2.188,2.188c1.209,0,2.188-0.978,2.188-2.188
			S64.334,39.062,63.125,39.062z M69.688,45.625c-1.209,0-2.188,0.978-2.188,2.188S68.478,50,69.688,50
			c1.209,0,2.188-0.978,2.188-2.188S70.897,45.625,69.688,45.625z"/>
		<path d="M80.625,76.062c-2.932,0-5.505-2.489-5.789-2.773L64.484,62.937H35.515L25.164,73.289
			c-0.284,0.284-2.857,2.773-5.789,2.773c-3.396,0-6.375-2.979-6.375-6.375v-26.25c0-10.752,8.748-19.5,19.5-19.5h35
			c10.752,0,19.5,8.748,19.5,19.5v26.25C87,73.084,84.021,76.062,80.625,76.062z M33.859,58.937H66.14l11.523,11.523
			c0.527,0.52,1.952,1.602,2.961,1.602c1.076,0,2.375-1.06,2.375-2.375v-26.25c0-8.547-6.953-15.5-15.5-15.5h-35
			c-8.547,0-15.5,6.953-15.5,15.5v26.25c0,1.315,1.299,2.375,2.375,2.375c1.009,0,2.434-1.082,2.966-1.606L33.859,58.937z
			 M79.973,70.477c-1.387,0-2.523-1.137-2.95-1.563L67.18,59.07c0,0.001,0,0.001,0,0.001c-0.005,0-0.629-0.509-1.867-0.509H34.687
			c-1.017,0-1.49,0.195-1.653,0.284l-0.013,0.023L22.976,68.914c-0.523,0.523-2.113,2.118-3.927,1.366
			c-1.235-0.511-1.675-1.771-1.675-2.78V43.437c0-8.34,6.785-15.125,15.125-15.125h35c8.34,0,15.125,6.785,15.125,15.125V67.5
			c0,1.009-0.439,2.27-1.675,2.78C80.616,70.419,80.288,70.477,79.973,70.477z M34.687,54.562h30.625
			c2.932,0,4.523,1.508,4.695,1.68l8.617,8.617V43.437c0-6.135-4.99-11.125-11.125-11.125h-35c-6.135,0-11.125,4.99-11.125,11.125
			v21.422l8.499-8.5C30.388,55.693,31.703,54.562,34.687,54.562z M34.687,54.187c-2.309,0-4.187-1.879-4.187-4.188v-0.188h-0.188
			c-2.309,0-4.188-1.879-4.188-4.188s1.879-4.188,4.188-4.188H30.5V41.25c0-2.309,1.879-4.188,4.187-4.188s4.188,1.879,4.188,4.188
			v0.188h0.188c2.309,0,4.188,1.879,4.188,4.188s-1.879,4.188-4.188,4.188h-0.188V50C38.875,52.309,36.996,54.187,34.687,54.187z
			 M30.312,45.437c-0.105,0-0.188,0.082-0.188,0.188s0.082,0.188,0.188,0.188H34.5V50c0,0.211,0.375,0.211,0.375,0v-4.188h4.188
			c0.105,0,0.188-0.082,0.188-0.188s-0.082-0.188-0.188-0.188h-4.188V41.25c0-0.211-0.375-0.211-0.375,0v4.188H30.312z M69.687,52
			c-1.328,0-2.514-0.621-3.281-1.589C65.638,51.379,64.453,52,63.125,52c-2.309,0-4.188-1.879-4.188-4.188
			c0-1.328,0.621-2.514,1.589-3.281c-0.968-0.768-1.589-1.953-1.589-3.281c0-2.309,1.879-4.188,4.188-4.188
			c1.328,0,2.514,0.621,3.281,1.589c0.768-0.968,1.953-1.589,3.281-1.589c2.309,0,4.188,1.879,4.188,4.188
			c0,1.328-0.621,2.514-1.589,3.281c0.968,0.768,1.589,1.953,1.589,3.281C73.875,50.121,71.996,52,69.687,52z M69.687,47.625
			c-0.105,0-0.188,0.082-0.188,0.188c0,0.211,0.375,0.211,0.375,0C69.875,47.707,69.793,47.625,69.687,47.625z M63.125,47.625
			c-0.105,0-0.188,0.082-0.188,0.188c0,0.211,0.375,0.211,0.375,0C63.312,47.707,63.23,47.625,63.125,47.625z M65.723,44.531
			c0.253,0.2,0.482,0.43,0.683,0.683c0.2-0.253,0.43-0.482,0.683-0.683c-0.253-0.2-0.482-0.43-0.683-0.683
			C66.206,44.101,65.976,44.331,65.723,44.531z M69.687,41.062c-0.105,0-0.188,0.082-0.188,0.188c0,0.211,0.375,0.211,0.375,0
			C69.875,41.144,69.793,41.062,69.687,41.062z M63.125,41.062c-0.105,0-0.188,0.082-0.188,0.188c0,0.211,0.375,0.211,0.375,0
			C63.312,41.144,63.23,41.062,63.125,41.062z"/>
		<path style="fill:#00C4FF;" d="M67.5,25.937h-35c-9.664,0-17.5,7.836-17.5,17.5v26.25c0,2.418,2.188,4.375,4.375,4.375
			s4.375-2.188,4.375-2.188l10.937-10.937h30.625L76.25,71.875c0,0,2.188,2.188,4.375,2.188S85,72.105,85,69.687v-26.25
			C85,33.773,77.164,25.937,67.5,25.937z M80.625,67.5c0,0,0,2.188-2.188,0c-1.201-1.2-9.844-9.844-9.844-9.844
			s-1.094-1.094-3.281-1.094H34.688c-2.679,0-3.281,1.094-3.281,1.094s-8.643,8.643-9.844,9.844c-2.188,2.188-2.188,0-2.188,0
			V43.437c0-7.25,5.875-13.125,13.125-13.125h35c7.25,0,13.125,5.875,13.125,13.125V67.5z M39.063,43.437h-2.188V41.25
			c0-1.209-0.978-2.188-2.188-2.188c-1.209,0-2.188,0.978-2.188,2.188v2.188h-2.187c-1.209,0-2.188,0.978-2.188,2.188
			s0.978,2.188,2.188,2.188H32.5V50c0,1.209,0.978,2.188,2.188,2.188c1.209,0,2.188-0.978,2.188-2.188v-2.188h2.188
			c1.209,0,2.188-0.978,2.188-2.188S40.272,43.437,39.063,43.437z M69.688,39.062c-1.209,0-2.188,0.978-2.188,2.188
			s0.978,2.188,2.188,2.188c1.209,0,2.188-0.978,2.188-2.188S70.897,39.062,69.688,39.062z M63.125,45.625
			c-1.209,0-2.188,0.978-2.188,2.188S61.916,50,63.125,50c1.209,0,2.188-0.978,2.188-2.188S64.334,45.625,63.125,45.625z
			 M63.125,39.062c-1.209,0-2.188,0.978-2.188,2.188s0.978,2.188,2.188,2.188c1.209,0,2.188-0.978,2.188-2.188
			S64.334,39.062,63.125,39.062z M69.688,45.625c-1.209,0-2.188,0.978-2.188,2.188S68.478,50,69.688,50
			c1.209,0,2.188-0.978,2.188-2.188S70.897,45.625,69.688,45.625z"/>
	</g>
	<g>
		
			<ellipse transform="matrix(0.892 0.4521 -0.4521 0.892 13.4012 -28.513)" style="opacity:0.3;fill:#3887F9;" cx="66.361" cy="13.784" rx="7.25" ry="2.875"/>
		<ellipse style="opacity:0.3;fill:#3887F9;" cx="78.049" cy="21.972" rx="2.188" ry="1.938"/>
	</g>
</g>
<g id="Layer_1">
</g>
</svg>
