<?xml version="1.0" encoding="iso-8859-1"?>
<!-- Generator: Adobe Illustrator 19.1.1, SVG Export Plug-In . SVG Version: 6.00 Build 0)  -->
<svg version="1.1" xmlns="http://www.w3.org/2000/svg" xmlns:xlink="http://www.w3.org/1999/xlink" x="0px" y="0px"
	 viewBox="0 0 100 100" style="enable-background:new 0 0 100 100;" xml:space="preserve">
<g id="music_off">
	<g>
		<circle style="fill:#0D70FF;" cx="50" cy="50" r="50"/>
		<linearGradient id="SVGID_1_" gradientUnits="userSpaceOnUse" x1="38.5901" y1="1.8211" x2="61.2412" y2="97.4666">
			<stop  offset="0" style="stop-color:#091A57"/>
			<stop  offset="1" style="stop-color:#091A32"/>
		</linearGradient>
		<circle style="fill:url(#SVGID_1_);" cx="50" cy="50" r="49"/>
		<linearGradient id="SVGID_2_" gradientUnits="userSpaceOnUse" x1="28.0486" y1="12.3921" x2="76.4706" y2="96.0494">
			<stop  offset="0" style="stop-color:#091A57;stop-opacity:0.1"/>
			<stop  offset="1" style="stop-color:#020919"/>
		</linearGradient>
		<path style="fill:url(#SVGID_2_);" d="M3.349,65.004C9.687,84.725,28.173,99,50,99c27.062,0,49-21.938,49-49
			c0-6.928-1.439-13.519-4.034-19.492C92.318,120.159,24.29,7.111,3.349,65.004z"/>
		<path style="opacity:0.1;fill:#5271AF;" d="M50.779,24.948c11.289,3.234,20.039-17.289,7.205-23.29C55.385,1.232,52.72,1,50,1
			C22.938,1,1,22.938,1,50c0,1.814,0.106,3.603,0.298,5.365C4.568,39.659,8.122,12.727,50.779,24.948z"/>
	</g>
	<g>
		
			<ellipse transform="matrix(0.892 0.4521 -0.4521 0.892 13.4012 -28.513)" style="opacity:0.3;fill:#3887F9;" cx="66.361" cy="13.784" rx="7.25" ry="2.875"/>
		<ellipse style="opacity:0.3;fill:#3887F9;" cx="78.049" cy="21.972" rx="2.188" ry="1.938"/>
	</g>
	<g id="Layer_8_copy_2">
		<g>
			<path d="M32.192,80.51c-8.057,0-14.612-6.555-14.612-14.612s6.555-14.612,14.612-14.612c0.732,0,1.464,0.062,2.204,0.186V17.652
				h46.041v39.837c0,8.058-6.555,14.612-14.612,14.612s-14.612-6.555-14.612-14.612s6.555-14.612,14.612-14.612
				c0.732,0,1.464,0.062,2.204,0.186V30.06H46.805v35.837C46.805,73.955,40.249,80.51,32.192,80.51z M32.192,55.285
				c-5.852,0-10.612,4.761-10.612,10.612S26.341,76.51,32.192,76.51s10.612-4.761,10.612-10.612V26.06h29.225v22.42l-2.668-0.946
				c-1.248-0.442-2.404-0.657-3.536-0.657c-5.852,0-10.612,4.761-10.612,10.612s4.761,10.612,10.612,10.612
				s10.612-4.761,10.612-10.612V21.652H38.396v35.236l-2.668-0.946C34.48,55.5,33.324,55.285,32.192,55.285z"/>
			<path style="fill:#00C4FF;" d="M36.396,54.057c-1.322-0.468-2.718-0.772-4.204-0.772c-6.971,0-12.612,5.649-12.612,12.612
				S25.221,78.51,32.192,78.51c6.971,0,12.612-5.649,12.612-12.612c0-1.482,0-37.837,0-37.837h25.224v17.588
				c-1.322-0.468-2.718-0.772-4.204-0.772c-6.971,0-12.612,5.649-12.612,12.612s5.641,12.612,12.612,12.612
				c6.971,0,12.612-5.649,12.612-12.612c0-0.928,0-37.837,0-37.837H36.396V54.057z"/>
		</g>
		<g>
			<path d="M30.339,97.589l-10.343-6.085L71.704,3.611l10.343,6.085L30.339,97.589z M25.472,90.084l3.448,2.028l47.651-80.996
				l-3.448-2.028L25.472,90.084z"/>
			
				<rect x="47.021" y="1.613" transform="matrix(0.8619 0.5071 -0.5071 0.8619 32.703 -18.8836)" style="fill:#00C4FF;" width="8" height="97.974"/>
		</g>
	</g>
</g>
<g id="Layer_1">
</g>
</svg>
