<?xml version="1.0" encoding="iso-8859-1"?>
<!-- Generator: Adobe Illustrator 19.1.1, SVG Export Plug-In . SVG Version: 6.00 Build 0)  -->
<svg version="1.1" xmlns="http://www.w3.org/2000/svg" xmlns:xlink="http://www.w3.org/1999/xlink" x="0px" y="0px"
	 viewBox="0 0 100 100" style="enable-background:new 0 0 100 100;" xml:space="preserve">
<g id="music">
	<g>
		<circle style="fill:#0D70FF;" cx="-650" cy="700" r="50"/>
		<linearGradient id="SVGID_1_" gradientUnits="userSpaceOnUse" x1="-661.4099" y1="651.8211" x2="-638.7588" y2="747.4666">
			<stop  offset="0" style="stop-color:#091A57"/>
			<stop  offset="1" style="stop-color:#091A32"/>
		</linearGradient>
		<circle style="fill:url(#SVGID_1_);" cx="-650" cy="700" r="49"/>
		<linearGradient id="SVGID_2_" gradientUnits="userSpaceOnUse" x1="-671.9515" y1="662.3921" x2="-623.5295" y2="746.0494">
			<stop  offset="0" style="stop-color:#091A57;stop-opacity:0.1"/>
			<stop  offset="1" style="stop-color:#020919"/>
		</linearGradient>
		<path style="fill:url(#SVGID_2_);" d="M-696.651,715.004C-690.313,734.725-671.827,749-650,749c27.062,0,49-21.938,49-49
			c0-6.928-1.439-13.519-4.034-19.492C-607.682,770.159-675.71,657.111-696.651,715.004z"/>
		<path style="opacity:0.1;fill:#5271AF;" d="M-649.221,674.948c11.289,3.234,20.039-17.289,7.205-23.29
			C-644.615,651.232-647.28,651-650,651c-27.062,0-49,21.938-49,49c0,1.814,0.106,3.603,0.298,5.365
			C-695.432,689.659-691.878,662.727-649.221,674.948z"/>
	</g>
	<g>
		
			<ellipse transform="matrix(0.892 0.4521 -0.4521 0.892 231.6398 358.2018)" style="opacity:0.3;fill:#3887F9;" cx="-633.682" cy="663.784" rx="7.25" ry="2.875"/>
		<ellipse style="opacity:0.3;fill:#3887F9;" cx="-621.994" cy="671.972" rx="2.188" ry="1.938"/>
	</g>
	<g id="Layer_8_copy_3">
		<g>
			<path d="M-666.816,731.429c-8.057,0-14.612-6.555-14.612-14.612s6.555-14.612,14.612-14.612c0.731,0,1.463,0.062,2.204,0.185
				v-33.817h46.041v39.837c0,8.058-6.555,14.612-14.612,14.612s-14.612-6.555-14.612-14.612s6.555-14.612,14.612-14.612
				c0.732,0,1.464,0.062,2.204,0.186v-13.002h-21.225v35.837C-652.204,724.874-658.759,731.429-666.816,731.429z M-666.816,706.204
				c-5.852,0-10.612,4.761-10.612,10.612s4.761,10.612,10.612,10.612s10.612-4.761,10.612-10.612v-39.837h29.225v22.42l-2.668-0.946
				c-1.248-0.442-2.404-0.657-3.536-0.657c-5.852,0-10.612,4.761-10.612,10.612s4.761,10.612,10.612,10.612
				s10.612-4.761,10.612-10.612v-35.837h-38.041v35.233l-2.667-0.943C-664.529,706.419-665.686,706.204-666.816,706.204z"/>
			<path style="fill:#00C4FF;" d="M-662.612,704.976c-1.322-0.468-2.718-0.772-4.204-0.772c-6.971,0-12.612,5.649-12.612,12.612
				c0,6.963,5.641,12.612,12.612,12.612c6.971,0,12.612-5.649,12.612-12.612c0-1.482,0-37.837,0-37.837h25.224v17.588
				c-1.322-0.468-2.718-0.772-4.204-0.772c-6.971,0-12.612,5.649-12.612,12.612c0,6.963,5.641,12.612,12.612,12.612
				c6.971,0,12.612-5.649,12.612-12.612c0-0.928,0-37.837,0-37.837h-42.041V704.976z"/>
		</g>
	</g>
</g>
<g id="Layer_1">
</g>
</svg>
