<?xml version="1.0" encoding="iso-8859-1"?>
<!-- Generator: Adobe Illustrator 19.1.1, SVG Export Plug-In . SVG Version: 6.00 Build 0)  -->
<svg version="1.1" xmlns="http://www.w3.org/2000/svg" xmlns:xlink="http://www.w3.org/1999/xlink" x="0px" y="0px"
	 viewBox="0 0 100 100" style="enable-background:new 0 0 100 100;" xml:space="preserve">
<g id="next">
	<g>
		<circle style="fill:#0D70FF;" cx="50" cy="50" r="50"/>
		<linearGradient id="SVGID_1_" gradientUnits="userSpaceOnUse" x1="38.5901" y1="1.8211" x2="61.2412" y2="97.4666">
			<stop  offset="0" style="stop-color:#091A57"/>
			<stop  offset="1" style="stop-color:#091A32"/>
		</linearGradient>
		<circle style="fill:url(#SVGID_1_);" cx="50" cy="50" r="49"/>
		<linearGradient id="SVGID_2_" gradientUnits="userSpaceOnUse" x1="28.0486" y1="12.3921" x2="76.4706" y2="96.0494">
			<stop  offset="0" style="stop-color:#091A57;stop-opacity:0.1"/>
			<stop  offset="1" style="stop-color:#020919"/>
		</linearGradient>
		<path style="fill:url(#SVGID_2_);" d="M3.349,65.004C9.687,84.725,28.173,99,50,99c27.062,0,49-21.938,49-49
			c0-6.928-1.439-13.519-4.034-19.492C92.318,120.159,24.29,7.111,3.349,65.004z"/>
		<path style="opacity:0.1;fill:#5271AF;" d="M50.779,24.948c11.289,3.234,20.039-17.289,7.205-23.29C55.385,1.232,52.72,1,50,1
			C22.938,1,1,22.938,1,50c0,1.814,0.106,3.603,0.298,5.365C4.568,39.659,8.122,12.727,50.779,24.948z"/>
	</g>
	<g>
		<path d="M51.066,79.947c-1.233-1.229-1.912-2.865-1.912-4.604s0.68-3.373,1.91-4.6l20.882-20.892L51.064,28.96
			c-1.231-1.231-1.91-2.866-1.91-4.602s0.679-3.37,1.908-4.6c1.227-1.23,2.859-1.908,4.597-1.908c1.735,0,3.369,0.677,4.602,1.906
			l25.485,25.489c1.231,1.229,1.91,2.864,1.91,4.604c0,1.738-0.679,3.373-1.909,4.601L60.259,79.947
			c-1.23,1.228-2.864,1.903-4.6,1.903C53.922,81.85,52.289,81.174,51.066,79.947z M82.92,51.62c0.476-0.474,0.736-1.103,0.736-1.771
			c0-0.669-0.261-1.298-0.737-1.773L57.435,22.587c-0.949-0.948-2.596-0.95-3.542-0.002c-0.476,0.477-0.738,1.106-0.738,1.773
			s0.262,1.296,0.739,1.772l23.709,23.721L53.891,73.574c-0.475,0.473-0.736,1.102-0.736,1.77c0,0.669,0.262,1.298,0.74,1.775
			c0.942,0.944,2.591,0.944,3.54-0.004L82.92,51.62z"/>
		<path d="M20.256,79.947c-1.233-1.229-1.912-2.865-1.912-4.604s0.68-3.373,1.909-4.6l20.882-20.892L20.254,28.96
			c-1.231-1.231-1.91-2.866-1.91-4.602s0.679-3.37,1.908-4.6c2.528-2.535,6.654-2.537,9.198-0.002l25.484,25.489
			c1.231,1.229,1.91,2.864,1.91,4.604c0,1.738-0.679,3.372-1.91,4.602L29.448,79.948c-1.271,1.267-2.938,1.899-4.602,1.899
			C23.182,81.847,21.519,81.214,20.256,79.947z M23.082,22.585c-0.476,0.477-0.738,1.106-0.738,1.773s0.262,1.296,0.739,1.772
			l23.708,23.721L23.08,73.574c-0.475,0.473-0.736,1.102-0.736,1.77c0,0.669,0.262,1.298,0.74,1.775
			c0.972,0.974,2.561,0.972,3.538-0.002l25.485-25.495l0.001-0.002c0.476-0.474,0.736-1.103,0.736-1.771
			c0-0.669-0.261-1.298-0.737-1.773L26.624,22.588c-0.49-0.489-1.134-0.734-1.775-0.734C24.208,21.853,23.568,22.098,23.082,22.585z
			"/>
	</g>
	<g>
		<path style="fill:#00C4FF;" d="M53.522,53.036L28.036,78.531c-1.765,1.76-4.613,1.76-6.368,0c-1.766-1.76-1.766-4.613,0-6.374
			l22.296-22.306L21.668,27.545c-1.766-1.764-1.766-4.608,0-6.374c1.755-1.76,4.603-1.76,6.368,0l25.486,25.491
			C55.287,48.422,55.287,51.276,53.522,53.036z"/>
		<path style="fill:#00C4FF;" d="M58.847,78.531c-1.765,1.76-4.613,1.76-6.368,0c-1.766-1.76-1.766-4.613,0-6.374l22.296-22.306
			L52.479,27.545c-1.766-1.764-1.766-4.608,0-6.374c1.755-1.76,4.603-1.76,6.368,0l25.486,25.491c1.764,1.76,1.764,4.613,0,6.374
			L58.847,78.531z"/>
	</g>
	<g>
		
			<ellipse transform="matrix(0.892 0.4521 -0.4521 0.892 13.4012 -28.513)" style="opacity:0.3;fill:#3887F9;" cx="66.361" cy="13.784" rx="7.25" ry="2.875"/>
		<ellipse style="opacity:0.3;fill:#3887F9;" cx="78.049" cy="21.972" rx="2.188" ry="1.938"/>
	</g>
</g>
<g id="Layer_1">
</g>
</svg>
