<?xml version="1.0" encoding="iso-8859-1"?>
<!-- Generator: Adobe Illustrator 19.1.1, SVG Export Plug-In . SVG Version: 6.00 Build 0)  -->
<svg version="1.1" xmlns="http://www.w3.org/2000/svg" xmlns:xlink="http://www.w3.org/1999/xlink" x="0px" y="0px"
	 viewBox="0 0 100 100" style="enable-background:new 0 0 100 100;" xml:space="preserve">
<g id="normal">
	<g>
		<circle style="fill:#0D70FF;" cx="50" cy="50" r="50"/>
		<linearGradient id="SVGID_1_" gradientUnits="userSpaceOnUse" x1="38.5901" y1="1.8211" x2="61.2412" y2="97.4666">
			<stop  offset="0" style="stop-color:#091A57"/>
			<stop  offset="1" style="stop-color:#091A32"/>
		</linearGradient>
		<circle style="fill:url(#SVGID_1_);" cx="50" cy="50" r="49"/>
		<linearGradient id="SVGID_2_" gradientUnits="userSpaceOnUse" x1="28.0486" y1="12.3921" x2="76.4706" y2="96.0494">
			<stop  offset="0" style="stop-color:#091A57;stop-opacity:0.1"/>
			<stop  offset="1" style="stop-color:#020919"/>
		</linearGradient>
		<path style="fill:url(#SVGID_2_);" d="M3.349,65.004C9.687,84.725,28.173,99,50,99c27.062,0,49-21.938,49-49
			c0-6.928-1.439-13.519-4.034-19.492C92.318,120.159,24.29,7.111,3.349,65.004z"/>
		<path style="opacity:0.1;fill:#5271AF;" d="M50.779,24.948c11.289,3.234,20.039-17.289,7.205-23.29C55.385,1.232,52.72,1,50,1
			C22.938,1,1,22.938,1,50c0,1.814,0.106,3.603,0.298,5.365C4.568,39.659,8.122,12.727,50.779,24.948z"/>
	</g>
	<g>
		<path d="M61.251,82.004h-3.75c-3.171,0-5.75-2.58-5.75-5.751V57.501c0-3.171,2.58-5.751,5.75-5.751h18.749
			c3.171,0,5.75,2.58,5.75,5.751v3.75c0,2.699-1.869,4.97-4.381,5.586l2.697,2.698c2.241,2.243,2.241,5.891,0,8.132l-2.647,2.65
			c-1.086,1.088-2.531,1.687-4.069,1.687c-1.537,0-2.982-0.599-4.068-1.686l-2.694-2.696C66.221,80.135,63.951,82.004,61.251,82.004
			z M57.501,55.75c-0.965,0-1.75,0.785-1.75,1.751v18.752c0,0.966,0.785,1.751,1.75,1.751h3.75c0.965,0,1.75-0.785,1.75-1.751
			v-8.126l9.359,9.363c0.661,0.663,1.817,0.661,2.478,0l2.647-2.65c0.683-0.684,0.683-1.794,0-2.477l-9.356-9.361h8.119
			c0.965,0,1.75-0.785,1.75-1.751v-3.75c0-0.966-0.785-1.751-1.75-1.751H57.501z M42.503,82.004h-3.75
			c-2.7,0-4.971-1.87-5.586-4.383l-2.698,2.697c-1.086,1.087-2.53,1.686-4.066,1.686s-2.98-0.599-4.066-1.686l-2.651-2.651
			C18.598,76.581,18,75.137,18,73.601s0.598-2.979,1.685-4.066l2.698-2.697C19.87,66.222,18,63.951,18,61.251v-3.75
			c0-3.171,2.58-5.751,5.75-5.751h18.752c3.169,0,5.747,2.58,5.747,5.751v18.752C48.25,79.424,45.672,82.004,42.503,82.004z
			 M37.002,68.129v8.124c0,0.966,0.785,1.751,1.75,1.751h3.75c0.963,0,1.747-0.785,1.747-1.751V57.501
			c0-0.966-0.784-1.751-1.747-1.751H23.751c-0.965,0-1.75,0.785-1.75,1.751v3.75c0,0.966,0.785,1.751,1.75,1.751h8.125l-9.362,9.361
			C22.182,72.694,22,73.134,22,73.601c0,0.467,0.182,0.906,0.513,1.237l2.652,2.651c0.663,0.662,1.813,0.662,2.475,0L37.002,68.129z
			 M76.253,48.25H57.501c-3.171,0-5.75-2.58-5.75-5.751V23.747c0-3.171,2.58-5.751,5.75-5.751h3.75c2.699,0,4.97,1.869,5.586,4.382
			l2.694-2.696c1.086-1.087,2.531-1.686,4.068-1.686c1.538,0,2.982,0.599,4.068,1.686l2.648,2.652c2.24,2.24,2.241,5.888,0,8.131
			l-2.696,2.697c2.511,0.615,4.38,2.887,4.38,5.587v3.75C82,45.67,79.422,48.25,76.253,48.25z M57.501,21.996
			c-0.965,0-1.75,0.785-1.75,1.751v18.752c0,0.966,0.785,1.751,1.75,1.751h18.752c0.963,0,1.747-0.785,1.747-1.751v-3.75
			c0-0.966-0.784-1.751-1.747-1.751H68.13l9.356-9.361c0.682-0.683,0.683-1.793,0-2.476l-2.649-2.652
			c-0.66-0.66-1.816-0.661-2.478,0.001l-9.359,9.363v-8.126c0-0.966-0.785-1.751-1.75-1.751H57.501z M42.499,48.25H23.751
			c-3.171,0-5.75-2.58-5.75-5.751v-3.75c0-2.699,1.869-4.97,4.381-5.586l-2.697-2.698C18.598,29.378,18,27.934,18,26.398
			s0.599-2.979,1.685-4.065l2.652-2.651c1.085-1.087,2.53-1.686,4.065-1.686s2.98,0.599,4.066,1.686l2.698,2.697
			c0.615-2.513,2.886-4.383,5.586-4.383h3.747c3.171,0,5.75,2.58,5.75,5.751v18.752C48.25,45.67,45.67,48.25,42.499,48.25z
			 M23.751,36.998c-0.965,0-1.75,0.785-1.75,1.751v3.75c0,0.966,0.785,1.751,1.75,1.751h18.749c0.965,0,1.75-0.785,1.75-1.751
			V23.747c0-0.966-0.785-1.751-1.75-1.751h-3.747c-0.965,0-1.75,0.785-1.75,1.751v8.124L27.64,22.51
			c-0.663-0.662-1.813-0.662-2.475,0l-2.652,2.651C22.182,25.492,22,25.932,22,26.398c0,0.468,0.183,0.907,0.514,1.238l9.356,9.361
			H23.751z"/>
		<path style="fill:#00C4FF;" d="M57.501,46.25h18.752c2.069,0,3.747-1.678,3.747-3.75v-3.75c0-2.07-1.677-3.75-3.747-3.75h-3.296
			l5.944-5.948c1.465-1.465,1.465-3.839,0-5.304l-2.648-2.651c-1.465-1.465-3.842-1.465-5.307,0l-5.944,5.948v-3.296
			c0-2.069-1.681-3.75-3.75-3.75h-3.75c-2.069,0-3.75,1.681-3.75,3.75v18.752C53.75,44.572,55.432,46.25,57.501,46.25z
			 M42.503,53.75H23.751c-2.073,0-3.75,1.678-3.75,3.75v3.75c0,2.073,1.678,3.75,3.75,3.75h3.296l-5.948,5.948
			c-1.465,1.465-1.465,3.839,0,5.303l2.652,2.652c1.465,1.465,3.838,1.465,5.303,0l5.948-5.948v3.296c0,2.073,1.677,3.75,3.75,3.75
			h3.75c2.069,0,3.747-1.681,3.747-3.75V57.501C46.25,55.428,44.572,53.75,42.503,53.75z M72.957,65.002h3.293
			c2.073,0,3.75-1.678,3.75-3.75v-3.75c0-2.07-1.677-3.75-3.75-3.75H57.501c-2.073,0-3.75,1.681-3.75,3.75v18.752
			c0,2.073,1.678,3.75,3.75,3.75h3.75c2.069,0,3.75-1.677,3.75-3.75v-3.296l5.944,5.948c1.465,1.465,3.842,1.465,5.307,0
			l2.648-2.652c1.465-1.465,1.465-3.838,0-5.303L72.957,65.002z M42.499,19.996h-3.747c-2.073,0-3.75,1.681-3.75,3.75v3.296
			l-5.948-5.948c-1.465-1.465-3.839-1.465-5.303,0l-2.652,2.651c-1.465,1.465-1.465,3.838,0,5.304l5.944,5.948h-3.292
			c-2.073,0-3.75,1.681-3.75,3.75v3.75c0,2.073,1.681,3.75,3.75,3.75h18.748c2.073,0,3.75-1.678,3.75-3.75V23.747
			C46.25,21.677,44.572,19.996,42.499,19.996z"/>
	</g>
	<g>
		
			<ellipse transform="matrix(0.892 0.4521 -0.4521 0.892 13.4012 -28.513)" style="opacity:0.3;fill:#3887F9;" cx="66.361" cy="13.784" rx="7.25" ry="2.875"/>
		<ellipse style="opacity:0.3;fill:#3887F9;" cx="78.049" cy="21.972" rx="2.188" ry="1.938"/>
	</g>
</g>
<g id="Layer_1">
</g>
</svg>
