<?xml version="1.0" encoding="iso-8859-1"?>
<!-- Generator: Adobe Illustrator 19.1.1, SVG Export Plug-In . SVG Version: 6.00 Build 0)  -->
<svg version="1.1" xmlns="http://www.w3.org/2000/svg" xmlns:xlink="http://www.w3.org/1999/xlink" x="0px" y="0px"
	 viewBox="0 0 100 100" style="enable-background:new 0 0 100 100;" xml:space="preserve">
<g id="pause">
	<g>
		<circle style="fill:#0D70FF;" cx="50" cy="50" r="50"/>
		<linearGradient id="SVGID_1_" gradientUnits="userSpaceOnUse" x1="38.5901" y1="1.8211" x2="61.2412" y2="97.4666">
			<stop  offset="0" style="stop-color:#091A57"/>
			<stop  offset="1" style="stop-color:#091A32"/>
		</linearGradient>
		<circle style="fill:url(#SVGID_1_);" cx="50" cy="50" r="49"/>
		<linearGradient id="SVGID_2_" gradientUnits="userSpaceOnUse" x1="28.0486" y1="12.3921" x2="76.4706" y2="96.0494">
			<stop  offset="0" style="stop-color:#091A57;stop-opacity:0.1"/>
			<stop  offset="1" style="stop-color:#020919"/>
		</linearGradient>
		<path style="fill:url(#SVGID_2_);" d="M3.349,65.004C9.687,84.725,28.173,99,50,99c27.062,0,49-21.938,49-49
			c0-6.928-1.439-13.519-4.034-19.492C92.318,120.159,24.29,7.111,3.349,65.004z"/>
		<path style="opacity:0.1;fill:#5271AF;" d="M50.779,24.948c11.289,3.234,20.039-17.289,7.205-23.29C55.385,1.232,52.72,1,50,1
			C22.938,1,1,22.938,1,50c0,1.814,0.106,3.603,0.298,5.365C4.568,39.659,8.122,12.727,50.779,24.948z"/>
	</g>
	<path d="M66,84c-4.043,0-7.333-3.29-7.333-7.333V23.333C58.667,19.29,61.957,16,66,16s7.333,3.29,7.333,7.333v53.334
		C73.333,80.71,70.043,84,66,84z M66,20c-1.838,0-3.333,1.495-3.333,3.333v53.334C62.667,78.505,64.162,80,66,80
		s3.333-1.495,3.333-3.333V23.333C69.333,21.495,67.838,20,66,20z M34,84c-4.043,0-7.333-3.29-7.333-7.333V23.333
		C26.667,19.29,29.957,16,34,16c4.044,0,7.334,3.29,7.334,7.333v53.334C41.334,80.71,38.044,84,34,84z M34,20
		c-1.838,0-3.333,1.495-3.333,3.333v53.334C30.667,78.505,32.162,80,34,80s3.334-1.495,3.334-3.333V23.333
		C37.334,21.495,35.838,20,34,20z"/>
	<path style="fill:#00C4FF;" d="M34,18c-2.948,0-5.333,2.385-5.333,5.333v53.334C28.667,79.615,31.052,82,34,82
		c2.948,0,5.334-2.385,5.334-5.333V23.333C39.334,20.385,36.948,18,34,18z M66,18c-2.948,0-5.333,2.385-5.333,5.333v53.334
		C60.667,79.615,63.052,82,66,82c2.948,0,5.333-2.385,5.333-5.333V23.333C71.333,20.385,68.948,18,66,18z"/>
	<g>
		
			<ellipse transform="matrix(0.892 0.4521 -0.4521 0.892 13.4012 -28.513)" style="opacity:0.3;fill:#3887F9;" cx="66.361" cy="13.784" rx="7.25" ry="2.875"/>
		<ellipse style="opacity:0.3;fill:#3887F9;" cx="78.049" cy="21.972" rx="2.188" ry="1.938"/>
	</g>
</g>
<g id="Layer_1">
</g>
</svg>
