<?xml version="1.0" encoding="iso-8859-1"?>
<!-- Generator: Adobe Illustrator 19.1.1, SVG Export Plug-In . SVG Version: 6.00 Build 0)  -->
<svg version="1.1" xmlns="http://www.w3.org/2000/svg" xmlns:xlink="http://www.w3.org/1999/xlink" x="0px" y="0px"
	 viewBox="0 0 100 100" style="enable-background:new 0 0 100 100;" xml:space="preserve">
<g id="play">
	<g>
		<circle style="fill:#0D70FF;" cx="50" cy="50" r="50"/>
		<linearGradient id="SVGID_1_" gradientUnits="userSpaceOnUse" x1="38.5901" y1="1.8211" x2="61.2412" y2="97.4666">
			<stop  offset="0" style="stop-color:#091A57"/>
			<stop  offset="1" style="stop-color:#091A32"/>
		</linearGradient>
		<circle style="fill:url(#SVGID_1_);" cx="50" cy="50" r="49"/>
		<linearGradient id="SVGID_2_" gradientUnits="userSpaceOnUse" x1="28.0486" y1="12.3921" x2="76.4706" y2="96.0494">
			<stop  offset="0" style="stop-color:#091A57;stop-opacity:0.1"/>
			<stop  offset="1" style="stop-color:#020919"/>
		</linearGradient>
		<path style="fill:url(#SVGID_2_);" d="M3.349,65.004C9.687,84.725,28.173,99,50,99c27.062,0,49-21.938,49-49
			c0-6.928-1.439-13.519-4.034-19.492C92.318,120.159,24.29,7.111,3.349,65.004z"/>
		<path style="opacity:0.1;fill:#5271AF;" d="M50.779,24.948c11.289,3.234,20.039-17.289,7.205-23.29C55.385,1.232,52.72,1,50,1
			C22.938,1,1,22.938,1,50c0,1.814,0.106,3.603,0.298,5.365C4.568,39.659,8.122,12.727,50.779,24.948z"/>
	</g>
	<path d="M32.736,86.005c-0.588,0-1.155-0.119-1.682-0.36c-0.943-0.435-2.525-1.642-2.525-4.854V19.015
		c0-3.037,1.554-4.203,2.479-4.629c1.859-0.855,4.201-0.146,5.586,1.007l38.562,28.81c0.276,0.214,2.706,2.19,2.706,5.695
		c0,3.513-2.429,5.49-2.706,5.705l-38.56,28.809C35.356,85.458,33.999,86.005,32.736,86.005z M32.68,18.02
		c0.01,0.005-0.15,0.248-0.15,0.994V80.79c0,0.816,0.178,1.184,0.239,1.248c0.024-0.018,0.543-0.078,1.279-0.71l0.104-0.084
		l38.584-28.827c0-0.002,1.126-0.945,1.126-2.52c0-1.523-1.073-2.464-1.147-2.526L34.046,18.475
		C33.636,18.123,32.897,17.936,32.68,18.02z"/>
	<path style="fill:#00C4FF;" d="M73.934,45.785L35.349,16.959c-1.347-1.158-4.82-1.999-4.82,2.056V80.79
		c0,3.672,2.597,3.964,4.82,2.057L73.934,54.02c0,0,1.929-1.49,1.929-4.122C75.862,47.275,73.934,45.785,73.934,45.785z"/>
	<g>
		
			<ellipse transform="matrix(0.892 0.4521 -0.4521 0.892 13.3965 -28.4936)" style="opacity:0.3;fill:#3887F9;" cx="66.318" cy="13.784" rx="7.25" ry="2.875"/>
		<ellipse style="opacity:0.3;fill:#3887F9;" cx="78.006" cy="21.972" rx="2.188" ry="1.938"/>
	</g>
</g>
<g id="Layer_1">
</g>
</svg>
