<?xml version="1.0" encoding="iso-8859-1"?>
<!-- Generator: Adobe Illustrator 19.1.1, SVG Export Plug-In . SVG Version: 6.00 Build 0)  -->
<svg version="1.1" xmlns="http://www.w3.org/2000/svg" xmlns:xlink="http://www.w3.org/1999/xlink" x="0px" y="0px"
	 viewBox="0 0 100 100" style="enable-background:new 0 0 100 100;" xml:space="preserve">
<g id="presant">
	<g>
		<circle style="fill:#0D70FF;" cx="50" cy="50" r="50"/>
		<linearGradient id="SVGID_1_" gradientUnits="userSpaceOnUse" x1="38.5901" y1="1.8211" x2="61.2412" y2="97.4666">
			<stop  offset="0" style="stop-color:#091A57"/>
			<stop  offset="1" style="stop-color:#091A32"/>
		</linearGradient>
		<circle style="fill:url(#SVGID_1_);" cx="50" cy="50" r="49"/>
		<linearGradient id="SVGID_2_" gradientUnits="userSpaceOnUse" x1="28.0486" y1="12.3921" x2="76.4706" y2="96.0494">
			<stop  offset="0" style="stop-color:#091A57;stop-opacity:0.1"/>
			<stop  offset="1" style="stop-color:#020919"/>
		</linearGradient>
		<path style="fill:url(#SVGID_2_);" d="M3.349,65.004C9.687,84.725,28.173,99,50,99c27.062,0,49-21.938,49-49
			c0-6.928-1.439-13.519-4.034-19.492C92.318,120.159,24.29,7.111,3.349,65.004z"/>
		<path style="opacity:0.1;fill:#5271AF;" d="M50.779,24.948c11.289,3.234,20.039-17.289,7.205-23.29C55.385,1.232,52.72,1,50,1
			C22.938,1,1,22.938,1,50c0,1.814,0.106,3.603,0.298,5.365C4.568,39.659,8.122,12.727,50.779,24.948z"/>
	</g>
	<path d="M72.5,81h-45c-3.17,0-5.75-2.579-5.75-5.75v-37.5c0-3.171,2.58-5.75,5.75-5.75h1.761c-2.089-3.08-3.011-5.138-3.011-6.625
		C26.25,19.102,31.353,14,37.625,14c4.374,0,9.584,3.867,12.375,8.342C52.79,17.867,58.001,14,62.375,14
		c6.272,0,11.375,5.103,11.375,11.375c0,1.488-0.923,3.548-3.011,6.625H72.5c3.17,0,5.75,2.579,5.75,5.75v37.5
		C78.25,78.421,75.67,81,72.5,81z M48.25,77h3.5V58.25h22.5v-3.5h-22.5v-19h3.971c-2.311-1.149-3.941-3.316-4.438-5.785h-2.565
		c-0.497,2.469-2.127,4.636-4.438,5.785h3.97v19h-22.5v3.5h22.5V77z M55.75,73.25H70.5v-11H55.75V73.25z M29.5,73.25h14.75v-11H29.5
		V73.25z M55.75,50.75H70.5v-11H55.75V50.75z M29.5,50.75h14.75v-11H29.5V50.75z M57.193,32h4.344
		c1.865-1.204,5.089-5.329,5.089-6.625c0-2.344-1.907-4.251-4.251-4.251c-2.372,0-7.251,4.879-7.251,7.251
		C55.124,29.876,55.907,31.23,57.193,32z M38.463,32h4.344c1.286-0.77,2.069-2.125,2.069-3.625c0-2.372-4.879-7.251-7.251-7.251
		c-2.344,0-4.251,1.907-4.251,4.251C33.374,26.671,36.598,30.797,38.463,32z"/>
	<path style="fill:#00C4FF;" d="M72.5,34h-5.669c1.187-1.571,4.919-6.505,4.919-8.625c0-5.175-4.2-9.375-9.375-9.375
		C57.2,16,50,23.2,50,28.375c0,2.12,0,2.12,0,0C50,23.2,42.8,16,37.625,16c-5.175,0-9.375,4.2-9.375,9.375
		c0,2.12,3.732,7.054,4.919,8.625H27.5c-2.073,0-3.75,1.677-3.75,3.75v37.5c0,2.073,1.677,3.75,3.75,3.75h45
		c2.073,0,3.75-1.677,3.75-3.75v-37.5C76.25,35.677,74.573,34,72.5,34z M53.124,28.375c0-3.45,5.802-9.251,9.251-9.251
		c3.45,0,6.251,2.802,6.251,6.251c0,2.487-4.469,7.618-6.571,8.625h-5.361C54.592,32.993,53.124,30.862,53.124,28.375z
		 M31.374,25.375c0-3.45,2.802-6.251,6.251-6.251c3.45,0,9.251,5.802,9.251,9.251c0,2.487-1.469,4.618-3.571,5.625h-5.361
		C35.842,32.993,31.374,27.862,31.374,25.375z M27.5,37.75h18.75v15H27.5V37.75z M27.5,75.25v-15h18.75v15H27.5z M72.5,75.25H53.75
		v-15H72.5V75.25z M72.5,52.75H53.75v-15H72.5V52.75z"/>
	<g>
		
			<ellipse transform="matrix(0.892 0.4521 -0.4521 0.892 13.3965 -28.4936)" style="opacity:0.3;fill:#3887F9;" cx="66.318" cy="13.784" rx="7.25" ry="2.875"/>
		<ellipse style="opacity:0.3;fill:#3887F9;" cx="78.006" cy="21.972" rx="2.188" ry="1.938"/>
	</g>
</g>
<g id="Layer_1">
</g>
</svg>
