<?xml version="1.0" encoding="iso-8859-1"?>
<!-- Generator: Adobe Illustrator 19.1.1, SVG Export Plug-In . SVG Version: 6.00 Build 0)  -->
<svg version="1.1" xmlns="http://www.w3.org/2000/svg" xmlns:xlink="http://www.w3.org/1999/xlink" x="0px" y="0px"
	 viewBox="0 0 635 202" style="enable-background:new 0 0 635 202;" xml:space="preserve">
<g id="progress_or_volume">
	<path style="fill:#0062D8;" d="M627,196H8c-4.4,0-8-3.6-8-8v-34c0-4.4,3.6-8,8-8h619c4.4,0,8,3.6,8,8v34
		C635,192.4,631.4,196,627,196z"/>
	<path style="fill:#00263F;" d="M625.349,194H9.651C5.443,194,2,190.557,2,186.349v-30.699C2,151.443,5.443,148,9.651,148h615.698
		c4.208,0,7.651,3.443,7.651,7.651v30.699C633,190.557,629.557,194,625.349,194z"/>
	<linearGradient id="SVGID_1_" gradientUnits="userSpaceOnUse" x1="317.5" y1="215" x2="317.5" y2="134.8284">
		<stop  offset="5.998919e-007" style="stop-color:#240D6A"/>
		<stop  offset="0.4397" style="stop-color:#1855A2"/>
		<stop  offset="0.8179" style="stop-color:#0F8CCE"/>
		<stop  offset="1" style="stop-color:#0BA2DF"/>
	</linearGradient>
	<path style="fill:url(#SVGID_1_);" d="M624.529,193H10.471C6.362,193,3,189.638,3,185.529v-29.057C3,152.362,6.362,149,10.471,149
		h614.057c4.109,0,7.471,3.362,7.471,7.471v29.057C632,189.638,628.638,193,624.529,193z"/>
	<g id="Layer_71">
		<g id="_x32_5_1_">
			<path style="fill:#00101E;" d="M623.572,192h-13.145c-1.885,0-3.428-1.542-3.428-3.428v-35.145c0-1.885,1.542-3.428,3.428-3.428
				h13.145c1.885,0,3.428,1.542,3.428,3.428v35.145C627,190.458,625.458,192,623.572,192z"/>
			<linearGradient id="SVGID_2_" gradientUnits="userSpaceOnUse" x1="617" y1="191" x2="617" y2="151">
				<stop  offset="7.075648e-007" style="stop-color:#240D3B"/>
				<stop  offset="0.6508" style="stop-color:#0B2D6C"/>
				<stop  offset="1" style="stop-color:#003B82"/>
			</linearGradient>
			<path style="fill:url(#SVGID_2_);" d="M622,191h-10c-2.2,0-4-1.8-4-4v-32c0-2.2,1.8-4,4-4h10c2.2,0,4,1.8,4,4v32
				C626,189.2,624.2,191,622,191z"/>
		</g>
		<g id="_x32_4_3_">
			<path style="fill:#00101E;" d="M598.572,192h-13.145c-1.885,0-3.428-1.542-3.428-3.428v-35.145c0-1.885,1.542-3.428,3.428-3.428
				h13.145c1.885,0,3.428,1.542,3.428,3.428v35.145C602,190.458,600.458,192,598.572,192z"/>
			<linearGradient id="SVGID_3_" gradientUnits="userSpaceOnUse" x1="592" y1="191" x2="592" y2="151">
				<stop  offset="7.075648e-007" style="stop-color:#240D3B"/>
				<stop  offset="0.6508" style="stop-color:#0B2D6C"/>
				<stop  offset="1" style="stop-color:#003B82"/>
			</linearGradient>
			<path style="fill:url(#SVGID_3_);" d="M597,191h-10c-2.2,0-4-1.8-4-4v-32c0-2.2,1.8-4,4-4h10c2.2,0,4,1.8,4,4v32
				C601,189.2,599.2,191,597,191z"/>
		</g>
		<g id="_x32_3_3_">
			<path style="fill:#00101E;" d="M573.572,192h-13.145c-1.885,0-3.428-1.542-3.428-3.428v-35.145c0-1.885,1.542-3.428,3.428-3.428
				h13.145c1.885,0,3.428,1.542,3.428,3.428v35.145C577,190.458,575.458,192,573.572,192z"/>
			<linearGradient id="SVGID_4_" gradientUnits="userSpaceOnUse" x1="567" y1="191" x2="567" y2="151">
				<stop  offset="7.075648e-007" style="stop-color:#240D3B"/>
				<stop  offset="0.6508" style="stop-color:#0B2D6C"/>
				<stop  offset="1" style="stop-color:#003B82"/>
			</linearGradient>
			<path style="fill:url(#SVGID_4_);" d="M572,191h-10c-2.2,0-4-1.8-4-4v-32c0-2.2,1.8-4,4-4h10c2.2,0,4,1.8,4,4v32
				C576,189.2,574.2,191,572,191z"/>
		</g>
		<g id="_x32_2_3_">
			<path style="fill:#00101E;" d="M548.572,192h-13.145c-1.885,0-3.428-1.542-3.428-3.428v-35.145c0-1.885,1.542-3.428,3.428-3.428
				h13.145c1.885,0,3.428,1.542,3.428,3.428v35.145C552,190.458,550.458,192,548.572,192z"/>
			<linearGradient id="SVGID_5_" gradientUnits="userSpaceOnUse" x1="542" y1="191" x2="542" y2="151">
				<stop  offset="7.075648e-007" style="stop-color:#240D3B"/>
				<stop  offset="0.6508" style="stop-color:#0B2D6C"/>
				<stop  offset="1" style="stop-color:#003B82"/>
			</linearGradient>
			<path style="fill:url(#SVGID_5_);" d="M547,191h-10c-2.2,0-4-1.8-4-4v-32c0-2.2,1.8-4,4-4h10c2.2,0,4,1.8,4,4v32
				C551,189.2,549.2,191,547,191z"/>
		</g>
		<g id="_x32_1_3_">
			<path style="fill:#00101E;" d="M523.572,192h-13.145c-1.885,0-3.428-1.542-3.428-3.428v-35.145c0-1.885,1.542-3.428,3.428-3.428
				h13.145c1.885,0,3.428,1.542,3.428,3.428v35.145C527,190.458,525.458,192,523.572,192z"/>
			<linearGradient id="SVGID_6_" gradientUnits="userSpaceOnUse" x1="517" y1="191" x2="517" y2="151">
				<stop  offset="7.075648e-007" style="stop-color:#240D3B"/>
				<stop  offset="0.6508" style="stop-color:#0B2D6C"/>
				<stop  offset="1" style="stop-color:#003B82"/>
			</linearGradient>
			<path style="fill:url(#SVGID_6_);" d="M522,191h-10c-2.2,0-4-1.8-4-4v-32c0-2.2,1.8-4,4-4h10c2.2,0,4,1.8,4,4v32
				C526,189.2,524.2,191,522,191z"/>
		</g>
		<g id="_x32_0_3_">
			<path style="fill:#00101E;" d="M498.572,192h-13.145c-1.885,0-3.428-1.542-3.428-3.428v-35.145c0-1.885,1.542-3.428,3.428-3.428
				h13.145c1.885,0,3.428,1.542,3.428,3.428v35.145C502,190.458,500.458,192,498.572,192z"/>
			<linearGradient id="SVGID_7_" gradientUnits="userSpaceOnUse" x1="492" y1="191" x2="492" y2="151">
				<stop  offset="7.075648e-007" style="stop-color:#240D3B"/>
				<stop  offset="0.6508" style="stop-color:#0B2D6C"/>
				<stop  offset="1" style="stop-color:#003B82"/>
			</linearGradient>
			<path style="fill:url(#SVGID_7_);" d="M497,191h-10c-2.2,0-4-1.8-4-4v-32c0-2.2,1.8-4,4-4h10c2.2,0,4,1.8,4,4v32
				C501,189.2,499.2,191,497,191z"/>
		</g>
		<g id="_x31_9_3_">
			<path style="fill:#00101E;" d="M473.572,192h-13.145c-1.885,0-3.428-1.542-3.428-3.428v-35.145c0-1.885,1.542-3.428,3.428-3.428
				h13.145c1.885,0,3.428,1.542,3.428,3.428v35.145C477,190.458,475.458,192,473.572,192z"/>
			<linearGradient id="SVGID_8_" gradientUnits="userSpaceOnUse" x1="467" y1="191" x2="467" y2="151">
				<stop  offset="7.075648e-007" style="stop-color:#240D3B"/>
				<stop  offset="0.6508" style="stop-color:#0B2D6C"/>
				<stop  offset="1" style="stop-color:#003B82"/>
			</linearGradient>
			<path style="fill:url(#SVGID_8_);" d="M472,191h-10c-2.2,0-4-1.8-4-4v-32c0-2.2,1.8-4,4-4h10c2.2,0,4,1.8,4,4v32
				C476,189.2,474.2,191,472,191z"/>
		</g>
		<g id="_x31_8_3_">
			<path style="fill:#00101E;" d="M448.572,192h-13.145c-1.885,0-3.428-1.542-3.428-3.428v-35.145c0-1.885,1.542-3.428,3.428-3.428
				h13.145c1.885,0,3.428,1.542,3.428,3.428v35.145C452,190.458,450.458,192,448.572,192z"/>
			<linearGradient id="SVGID_9_" gradientUnits="userSpaceOnUse" x1="442" y1="191" x2="442" y2="151">
				<stop  offset="7.075648e-007" style="stop-color:#240D3B"/>
				<stop  offset="0.6508" style="stop-color:#0B2D6C"/>
				<stop  offset="1" style="stop-color:#003B82"/>
			</linearGradient>
			<path style="fill:url(#SVGID_9_);" d="M447,191h-10c-2.2,0-4-1.8-4-4v-32c0-2.2,1.8-4,4-4h10c2.2,0,4,1.8,4,4v32
				C451,189.2,449.2,191,447,191z"/>
		</g>
		<g id="_x31_7_3_">
			<path style="fill:#00101E;" d="M423.572,192h-13.145c-1.885,0-3.428-1.542-3.428-3.428v-35.145c0-1.885,1.542-3.428,3.428-3.428
				h13.145c1.885,0,3.428,1.542,3.428,3.428v35.145C427,190.458,425.458,192,423.572,192z"/>
			<linearGradient id="SVGID_10_" gradientUnits="userSpaceOnUse" x1="417" y1="191" x2="417" y2="151">
				<stop  offset="7.075648e-007" style="stop-color:#240D3B"/>
				<stop  offset="0.6508" style="stop-color:#0B2D6C"/>
				<stop  offset="1" style="stop-color:#003B82"/>
			</linearGradient>
			<path style="fill:url(#SVGID_10_);" d="M422,191h-10c-2.2,0-4-1.8-4-4v-32c0-2.2,1.8-4,4-4h10c2.2,0,4,1.8,4,4v32
				C426,189.2,424.2,191,422,191z"/>
		</g>
		<g id="_x31_6_3_">
			<path style="fill:#00101E;" d="M398.572,192h-13.145c-1.885,0-3.428-1.542-3.428-3.428v-35.145c0-1.885,1.542-3.428,3.428-3.428
				h13.145c1.885,0,3.428,1.542,3.428,3.428v35.145C402,190.458,400.458,192,398.572,192z"/>
			<linearGradient id="SVGID_11_" gradientUnits="userSpaceOnUse" x1="392" y1="191" x2="392" y2="151">
				<stop  offset="7.075648e-007" style="stop-color:#240D3B"/>
				<stop  offset="0.6508" style="stop-color:#0B2D6C"/>
				<stop  offset="1" style="stop-color:#003B82"/>
			</linearGradient>
			<path style="fill:url(#SVGID_11_);" d="M397,191h-10c-2.2,0-4-1.8-4-4v-32c0-2.2,1.8-4,4-4h10c2.2,0,4,1.8,4,4v32
				C401,189.2,399.2,191,397,191z"/>
		</g>
		<g id="_x31_5_3_">
			<path style="fill:#00101E;" d="M373.572,192h-13.145c-1.885,0-3.428-1.542-3.428-3.428v-35.145c0-1.885,1.542-3.428,3.428-3.428
				h13.145c1.885,0,3.428,1.542,3.428,3.428v35.145C377,190.458,375.458,192,373.572,192z"/>
			<linearGradient id="SVGID_12_" gradientUnits="userSpaceOnUse" x1="367" y1="191" x2="367" y2="151">
				<stop  offset="7.075648e-007" style="stop-color:#240D3B"/>
				<stop  offset="0.6508" style="stop-color:#0B2D6C"/>
				<stop  offset="1" style="stop-color:#003B82"/>
			</linearGradient>
			<path style="fill:url(#SVGID_12_);" d="M372,191h-10c-2.2,0-4-1.8-4-4v-32c0-2.2,1.8-4,4-4h10c2.2,0,4,1.8,4,4v32
				C376,189.2,374.2,191,372,191z"/>
		</g>
		<g id="_x31_4_3_">
			<path style="fill:#00101E;" d="M348.572,192h-13.145c-1.885,0-3.428-1.542-3.428-3.428v-35.145c0-1.885,1.542-3.428,3.428-3.428
				h13.145c1.885,0,3.428,1.542,3.428,3.428v35.145C352,190.458,350.458,192,348.572,192z"/>
			<linearGradient id="SVGID_13_" gradientUnits="userSpaceOnUse" x1="342" y1="191" x2="342" y2="151">
				<stop  offset="7.075648e-007" style="stop-color:#240D3B"/>
				<stop  offset="0.6508" style="stop-color:#0B2D6C"/>
				<stop  offset="1" style="stop-color:#003B82"/>
			</linearGradient>
			<path style="fill:url(#SVGID_13_);" d="M347,191h-10c-2.2,0-4-1.8-4-4v-32c0-2.2,1.8-4,4-4h10c2.2,0,4,1.8,4,4v32
				C351,189.2,349.2,191,347,191z"/>
		</g>
		<g id="_x31_3_3_">
			<path style="fill:#00101E;" d="M323.572,202h-13.145c-1.885,0-3.428-1.542-3.428-3.428v-55.145c0-1.885,1.542-3.428,3.428-3.428
				h13.145c1.885,0,3.428,1.542,3.428,3.428v55.145C327,200.458,325.458,202,323.572,202z"/>
			<linearGradient id="SVGID_14_" gradientUnits="userSpaceOnUse" x1="317" y1="201" x2="317" y2="141">
				<stop  offset="7.075648e-007" style="stop-color:#240D3B"/>
				<stop  offset="0.6508" style="stop-color:#0B2D6C"/>
				<stop  offset="1" style="stop-color:#003B82"/>
			</linearGradient>
			<path style="fill:url(#SVGID_14_);" d="M322,201h-10c-2.2,0-4-1.8-4-4v-52c0-2.2,1.8-4,4-4h10c2.2,0,4,1.8,4,4v52
				C326,199.2,324.2,201,322,201z"/>
		</g>
		<g id="_x31_2_4_">
			<path style="fill:#00101E;" d="M299.572,192h-13.145c-1.885,0-3.428-1.542-3.428-3.428v-35.145c0-1.885,1.542-3.428,3.428-3.428
				h13.145c1.885,0,3.428,1.542,3.428,3.428v35.145C303,190.458,301.458,192,299.572,192z"/>
			<linearGradient id="SVGID_15_" gradientUnits="userSpaceOnUse" x1="293" y1="191" x2="293" y2="151">
				<stop  offset="7.075648e-007" style="stop-color:#240D3B"/>
				<stop  offset="0.6508" style="stop-color:#0B2D6C"/>
				<stop  offset="1" style="stop-color:#003B82"/>
			</linearGradient>
			<path style="fill:url(#SVGID_15_);" d="M298,191h-10c-2.2,0-4-1.8-4-4v-32c0-2.2,1.8-4,4-4h10c2.2,0,4,1.8,4,4v32
				C302,189.2,300.2,191,298,191z"/>
		</g>
		<g id="_x31_1_4_">
			<path style="fill:#00101E;" d="M274.572,192h-13.145c-1.885,0-3.428-1.542-3.428-3.428v-35.145c0-1.885,1.542-3.428,3.428-3.428
				h13.145c1.885,0,3.428,1.542,3.428,3.428v35.145C278,190.458,276.458,192,274.572,192z"/>
			<linearGradient id="SVGID_16_" gradientUnits="userSpaceOnUse" x1="268" y1="191" x2="268" y2="151">
				<stop  offset="7.075648e-007" style="stop-color:#240D3B"/>
				<stop  offset="0.6508" style="stop-color:#0B2D6C"/>
				<stop  offset="1" style="stop-color:#003B82"/>
			</linearGradient>
			<path style="fill:url(#SVGID_16_);" d="M273,191h-10c-2.2,0-4-1.8-4-4v-32c0-2.2,1.8-4,4-4h10c2.2,0,4,1.8,4,4v32
				C277,189.2,275.2,191,273,191z"/>
		</g>
		<g id="_x31_0_4_">
			<path style="fill:#00101E;" d="M249.572,192h-13.145c-1.885,0-3.428-1.542-3.428-3.428v-35.145c0-1.885,1.542-3.428,3.428-3.428
				h13.145c1.885,0,3.428,1.542,3.428,3.428v35.145C253,190.458,251.458,192,249.572,192z"/>
			<linearGradient id="SVGID_17_" gradientUnits="userSpaceOnUse" x1="243" y1="191" x2="243" y2="151">
				<stop  offset="7.075648e-007" style="stop-color:#240D3B"/>
				<stop  offset="0.6508" style="stop-color:#0B2D6C"/>
				<stop  offset="1" style="stop-color:#003B82"/>
			</linearGradient>
			<path style="fill:url(#SVGID_17_);" d="M248,191h-10c-2.2,0-4-1.8-4-4v-32c0-2.2,1.8-4,4-4h10c2.2,0,4,1.8,4,4v32
				C252,189.2,250.2,191,248,191z"/>
		</g>
		<g id="_x39__4_">
			<path style="fill:#00101E;" d="M224.572,192h-13.145c-1.885,0-3.428-1.542-3.428-3.428v-35.145c0-1.885,1.542-3.428,3.428-3.428
				h13.145c1.885,0,3.428,1.542,3.428,3.428v35.145C228,190.458,226.458,192,224.572,192z"/>
			<linearGradient id="SVGID_18_" gradientUnits="userSpaceOnUse" x1="218" y1="191" x2="218" y2="151">
				<stop  offset="7.075648e-007" style="stop-color:#240D3B"/>
				<stop  offset="0.6508" style="stop-color:#0B2D6C"/>
				<stop  offset="1" style="stop-color:#003B82"/>
			</linearGradient>
			<path style="fill:url(#SVGID_18_);" d="M223,191h-10c-2.2,0-4-1.8-4-4v-32c0-2.2,1.8-4,4-4h10c2.2,0,4,1.8,4,4v32
				C227,189.2,225.2,191,223,191z"/>
		</g>
		<g id="_x38__4_">
			<path style="fill:#00101E;" d="M199.572,192h-13.145c-1.885,0-3.428-1.542-3.428-3.428v-35.145c0-1.885,1.542-3.428,3.428-3.428
				h13.145c1.885,0,3.428,1.542,3.428,3.428v35.145C203,190.458,201.458,192,199.572,192z"/>
			<linearGradient id="SVGID_19_" gradientUnits="userSpaceOnUse" x1="193" y1="191" x2="193" y2="151">
				<stop  offset="7.075648e-007" style="stop-color:#240D3B"/>
				<stop  offset="0.6508" style="stop-color:#0B2D6C"/>
				<stop  offset="1" style="stop-color:#003B82"/>
			</linearGradient>
			<path style="fill:url(#SVGID_19_);" d="M198,191h-10c-2.2,0-4-1.8-4-4v-32c0-2.2,1.8-4,4-4h10c2.2,0,4,1.8,4,4v32
				C202,189.2,200.2,191,198,191z"/>
		</g>
		<g id="_x37__4_">
			<path style="fill:#00101E;" d="M174.572,192h-13.145c-1.885,0-3.428-1.542-3.428-3.428v-35.145c0-1.885,1.542-3.428,3.428-3.428
				h13.145c1.885,0,3.428,1.542,3.428,3.428v35.145C178,190.458,176.458,192,174.572,192z"/>
			<linearGradient id="SVGID_20_" gradientUnits="userSpaceOnUse" x1="168" y1="191" x2="168" y2="151">
				<stop  offset="7.075648e-007" style="stop-color:#240D3B"/>
				<stop  offset="0.6508" style="stop-color:#0B2D6C"/>
				<stop  offset="1" style="stop-color:#003B82"/>
			</linearGradient>
			<path style="fill:url(#SVGID_20_);" d="M173,191h-10c-2.2,0-4-1.8-4-4v-32c0-2.2,1.8-4,4-4h10c2.2,0,4,1.8,4,4v32
				C177,189.2,175.2,191,173,191z"/>
		</g>
		<g id="_x36__4_">
			<path style="fill:#00101E;" d="M149.572,192h-13.145c-1.885,0-3.428-1.542-3.428-3.428v-35.145c0-1.885,1.542-3.428,3.428-3.428
				h13.145c1.885,0,3.428,1.542,3.428,3.428v35.145C153,190.458,151.458,192,149.572,192z"/>
			<linearGradient id="SVGID_21_" gradientUnits="userSpaceOnUse" x1="143" y1="191" x2="143" y2="151">
				<stop  offset="7.075648e-007" style="stop-color:#240D3B"/>
				<stop  offset="0.6508" style="stop-color:#0B2D6C"/>
				<stop  offset="1" style="stop-color:#003B82"/>
			</linearGradient>
			<path style="fill:url(#SVGID_21_);" d="M148,191h-10c-2.2,0-4-1.8-4-4v-32c0-2.2,1.8-4,4-4h10c2.2,0,4,1.8,4,4v32
				C152,189.2,150.2,191,148,191z"/>
		</g>
		<g id="_x35__4_">
			<path style="fill:#00101E;" d="M124.572,192h-13.145c-1.885,0-3.428-1.542-3.428-3.428v-35.145c0-1.885,1.542-3.428,3.428-3.428
				h13.145c1.885,0,3.428,1.542,3.428,3.428v35.145C128,190.458,126.458,192,124.572,192z"/>
			<linearGradient id="SVGID_22_" gradientUnits="userSpaceOnUse" x1="118" y1="191" x2="118" y2="151">
				<stop  offset="7.075648e-007" style="stop-color:#240D3B"/>
				<stop  offset="0.6508" style="stop-color:#0B2D6C"/>
				<stop  offset="1" style="stop-color:#003B82"/>
			</linearGradient>
			<path style="fill:url(#SVGID_22_);" d="M123,191h-10c-2.2,0-4-1.8-4-4v-32c0-2.2,1.8-4,4-4h10c2.2,0,4,1.8,4,4v32
				C127,189.2,125.2,191,123,191z"/>
		</g>
		<g id="_x34__4_">
			<path style="fill:#00101E;" d="M99.572,192H86.428c-1.885,0-3.428-1.542-3.428-3.428v-35.145c0-1.885,1.542-3.428,3.428-3.428
				h13.145c1.885,0,3.428,1.542,3.428,3.428v35.145C103,190.458,101.458,192,99.572,192z"/>
			<linearGradient id="SVGID_23_" gradientUnits="userSpaceOnUse" x1="93" y1="191" x2="93" y2="151">
				<stop  offset="7.075648e-007" style="stop-color:#240D3B"/>
				<stop  offset="0.6508" style="stop-color:#0B2D6C"/>
				<stop  offset="1" style="stop-color:#003B82"/>
			</linearGradient>
			<path style="fill:url(#SVGID_23_);" d="M98,191H88c-2.2,0-4-1.8-4-4v-32c0-2.2,1.8-4,4-4h10c2.2,0,4,1.8,4,4v32
				C102,189.2,100.2,191,98,191z"/>
		</g>
		<g id="_x33__4_">
			<path style="fill:#00101E;" d="M74.572,192H61.428c-1.885,0-3.428-1.542-3.428-3.428v-35.145c0-1.885,1.542-3.428,3.428-3.428
				h13.145c1.885,0,3.428,1.542,3.428,3.428v35.145C78,190.458,76.458,192,74.572,192z"/>
			<linearGradient id="SVGID_24_" gradientUnits="userSpaceOnUse" x1="68" y1="191" x2="68" y2="151">
				<stop  offset="7.075648e-007" style="stop-color:#240D3B"/>
				<stop  offset="0.6508" style="stop-color:#0B2D6C"/>
				<stop  offset="1" style="stop-color:#003B82"/>
			</linearGradient>
			<path style="fill:url(#SVGID_24_);" d="M73,191H63c-2.2,0-4-1.8-4-4v-32c0-2.2,1.8-4,4-4h10c2.2,0,4,1.8,4,4v32
				C77,189.2,75.2,191,73,191z"/>
		</g>
		<g id="_x32__4_">
			<path style="fill:#00101E;" d="M49.572,192H36.428c-1.885,0-3.428-1.542-3.428-3.428v-35.145c0-1.885,1.542-3.428,3.428-3.428
				h13.145c1.885,0,3.428,1.542,3.428,3.428v35.145C53,190.458,51.458,192,49.572,192z"/>
			<linearGradient id="SVGID_25_" gradientUnits="userSpaceOnUse" x1="43" y1="191" x2="43" y2="151">
				<stop  offset="7.075648e-007" style="stop-color:#240D3B"/>
				<stop  offset="0.6508" style="stop-color:#0B2D6C"/>
				<stop  offset="1" style="stop-color:#003B82"/>
			</linearGradient>
			<path style="fill:url(#SVGID_25_);" d="M48,191H38c-2.2,0-4-1.8-4-4v-32c0-2.2,1.8-4,4-4h10c2.2,0,4,1.8,4,4v32
				C52,189.2,50.2,191,48,191z"/>
		</g>
		<g id="_x31__4_">
			<path style="fill:#00101E;" d="M24.572,192H11.428C9.542,192,8,190.458,8,188.572v-35.145C8,151.542,9.542,150,11.428,150h13.145
				c1.885,0,3.428,1.542,3.428,3.428v35.145C28,190.458,26.458,192,24.572,192z"/>
			<linearGradient id="SVGID_26_" gradientUnits="userSpaceOnUse" x1="18" y1="191" x2="18" y2="151">
				<stop  offset="7.075648e-007" style="stop-color:#240D3B"/>
				<stop  offset="0.6508" style="stop-color:#0B2D6C"/>
				<stop  offset="1" style="stop-color:#003B82"/>
			</linearGradient>
			<path style="fill:url(#SVGID_26_);" d="M23,191H13c-2.2,0-4-1.8-4-4v-32c0-2.2,1.8-4,4-4h10c2.2,0,4,1.8,4,4v32
				C27,189.2,25.2,191,23,191z"/>
		</g>
	</g>
	<g id="Layer_71_copy">
		<g id="_x32_5_2_" style="display:none;">
			<path style="display:inline;fill:#00101E;" d="M552.572,52h-13.145c-1.885,0-3.428-1.542-3.428-3.428V13.428
				c0-1.885,1.542-3.428,3.428-3.428h13.145c1.885,0,3.428,1.542,3.428,3.428v35.145C556,50.458,554.458,52,552.572,52z"/>
			<linearGradient id="SVGID_27_" gradientUnits="userSpaceOnUse" x1="546" y1="51" x2="546" y2="11">
				<stop  offset="8.152377e-007" style="stop-color:#18A0F2"/>
				<stop  offset="0.0667" style="stop-color:#1EA5F2"/>
				<stop  offset="0.6956" style="stop-color:#55CDEE"/>
				<stop  offset="1" style="stop-color:#6BDDED"/>
			</linearGradient>
			<path style="display:inline;fill:url(#SVGID_27_);" d="M551,51h-10c-2.2,0-4-1.8-4-4V15c0-2.2,1.8-4,4-4h10c2.2,0,4,1.8,4,4v32
				C555,49.2,553.2,51,551,51z"/>
		</g>
		<g id="_x32_4_1_" style="display:none;">
			<path style="display:inline;fill:#00101E;" d="M527.572,52h-13.145c-1.885,0-3.428-1.542-3.428-3.428V13.428
				c0-1.885,1.542-3.428,3.428-3.428h13.145c1.885,0,3.428,1.542,3.428,3.428v35.145C531,50.458,529.458,52,527.572,52z"/>
			<linearGradient id="SVGID_28_" gradientUnits="userSpaceOnUse" x1="521" y1="51" x2="521" y2="11">
				<stop  offset="8.152377e-007" style="stop-color:#18A0F2"/>
				<stop  offset="0.0667" style="stop-color:#1EA5F2"/>
				<stop  offset="0.6956" style="stop-color:#55CDEE"/>
				<stop  offset="1" style="stop-color:#6BDDED"/>
			</linearGradient>
			<path style="display:inline;fill:url(#SVGID_28_);" d="M526,51h-10c-2.2,0-4-1.8-4-4V15c0-2.2,1.8-4,4-4h10c2.2,0,4,1.8,4,4v32
				C530,49.2,528.2,51,526,51z"/>
		</g>
		<g id="_x32_3_1_" style="display:none;">
			<path style="display:inline;fill:#00101E;" d="M502.572,52h-13.145c-1.885,0-3.428-1.542-3.428-3.428V13.428
				c0-1.885,1.542-3.428,3.428-3.428h13.145c1.885,0,3.428,1.542,3.428,3.428v35.145C506,50.458,504.458,52,502.572,52z"/>
			<linearGradient id="SVGID_29_" gradientUnits="userSpaceOnUse" x1="496" y1="51" x2="496" y2="11">
				<stop  offset="8.152377e-007" style="stop-color:#18A0F2"/>
				<stop  offset="0.0667" style="stop-color:#1EA5F2"/>
				<stop  offset="0.6956" style="stop-color:#55CDEE"/>
				<stop  offset="1" style="stop-color:#6BDDED"/>
			</linearGradient>
			<path style="display:inline;fill:url(#SVGID_29_);" d="M501,51h-10c-2.2,0-4-1.8-4-4V15c0-2.2,1.8-4,4-4h10c2.2,0,4,1.8,4,4v32
				C505,49.2,503.2,51,501,51z"/>
		</g>
		<g id="_x32_2_1_" style="display:none;">
			<path style="display:inline;fill:#00101E;" d="M477.572,52h-13.145c-1.885,0-3.428-1.542-3.428-3.428V13.428
				c0-1.885,1.542-3.428,3.428-3.428h13.145c1.885,0,3.428,1.542,3.428,3.428v35.145C481,50.458,479.458,52,477.572,52z"/>
			<linearGradient id="SVGID_30_" gradientUnits="userSpaceOnUse" x1="471" y1="51" x2="471" y2="11">
				<stop  offset="8.152377e-007" style="stop-color:#18A0F2"/>
				<stop  offset="0.0667" style="stop-color:#1EA5F2"/>
				<stop  offset="0.6956" style="stop-color:#55CDEE"/>
				<stop  offset="1" style="stop-color:#6BDDED"/>
			</linearGradient>
			<path style="display:inline;fill:url(#SVGID_30_);" d="M476,51h-10c-2.2,0-4-1.8-4-4V15c0-2.2,1.8-4,4-4h10c2.2,0,4,1.8,4,4v32
				C480,49.2,478.2,51,476,51z"/>
		</g>
		<g id="_x32_1_1_" style="display:none;">
			<path style="display:inline;fill:#00101E;" d="M452.572,52h-13.145c-1.885,0-3.428-1.542-3.428-3.428V13.428
				c0-1.885,1.542-3.428,3.428-3.428h13.145c1.885,0,3.428,1.542,3.428,3.428v35.145C456,50.458,454.458,52,452.572,52z"/>
			<linearGradient id="SVGID_31_" gradientUnits="userSpaceOnUse" x1="446" y1="51" x2="446" y2="11">
				<stop  offset="8.152377e-007" style="stop-color:#18A0F2"/>
				<stop  offset="0.0667" style="stop-color:#1EA5F2"/>
				<stop  offset="0.6956" style="stop-color:#55CDEE"/>
				<stop  offset="1" style="stop-color:#6BDDED"/>
			</linearGradient>
			<path style="display:inline;fill:url(#SVGID_31_);" d="M451,51h-10c-2.2,0-4-1.8-4-4V15c0-2.2,1.8-4,4-4h10c2.2,0,4,1.8,4,4v32
				C455,49.2,453.2,51,451,51z"/>
		</g>
		<g id="_x32_0_1_" style="display:none;">
			<path style="display:inline;fill:#00101E;" d="M427.572,52h-13.145c-1.885,0-3.428-1.542-3.428-3.428V13.428
				c0-1.885,1.542-3.428,3.428-3.428h13.145c1.885,0,3.428,1.542,3.428,3.428v35.145C431,50.458,429.458,52,427.572,52z"/>
			<linearGradient id="SVGID_32_" gradientUnits="userSpaceOnUse" x1="421" y1="51" x2="421" y2="11">
				<stop  offset="8.152377e-007" style="stop-color:#18A0F2"/>
				<stop  offset="0.0667" style="stop-color:#1EA5F2"/>
				<stop  offset="0.6956" style="stop-color:#55CDEE"/>
				<stop  offset="1" style="stop-color:#6BDDED"/>
			</linearGradient>
			<path style="display:inline;fill:url(#SVGID_32_);" d="M426,51h-10c-2.2,0-4-1.8-4-4V15c0-2.2,1.8-4,4-4h10c2.2,0,4,1.8,4,4v32
				C430,49.2,428.2,51,426,51z"/>
		</g>
		<g id="_x31_9_1_" style="display:none;">
			<path style="display:inline;fill:#00101E;" d="M402.572,52h-13.145c-1.885,0-3.428-1.542-3.428-3.428V13.428
				c0-1.885,1.542-3.428,3.428-3.428h13.145c1.885,0,3.428,1.542,3.428,3.428v35.145C406,50.458,404.458,52,402.572,52z"/>
			<linearGradient id="SVGID_33_" gradientUnits="userSpaceOnUse" x1="396" y1="51" x2="396" y2="11">
				<stop  offset="8.152377e-007" style="stop-color:#18A0F2"/>
				<stop  offset="0.0667" style="stop-color:#1EA5F2"/>
				<stop  offset="0.6956" style="stop-color:#55CDEE"/>
				<stop  offset="1" style="stop-color:#6BDDED"/>
			</linearGradient>
			<path style="display:inline;fill:url(#SVGID_33_);" d="M401,51h-10c-2.2,0-4-1.8-4-4V15c0-2.2,1.8-4,4-4h10c2.2,0,4,1.8,4,4v32
				C405,49.2,403.2,51,401,51z"/>
		</g>
		<g id="_x31_8_1_" style="display:none;">
			<path style="display:inline;fill:#00101E;" d="M377.572,52h-13.145c-1.885,0-3.428-1.542-3.428-3.428V13.428
				c0-1.885,1.542-3.428,3.428-3.428h13.145c1.885,0,3.428,1.542,3.428,3.428v35.145C381,50.458,379.458,52,377.572,52z"/>
			<linearGradient id="SVGID_34_" gradientUnits="userSpaceOnUse" x1="371" y1="51" x2="371" y2="11">
				<stop  offset="8.152377e-007" style="stop-color:#18A0F2"/>
				<stop  offset="0.0667" style="stop-color:#1EA5F2"/>
				<stop  offset="0.6956" style="stop-color:#55CDEE"/>
				<stop  offset="1" style="stop-color:#6BDDED"/>
			</linearGradient>
			<path style="display:inline;fill:url(#SVGID_34_);" d="M376,51h-10c-2.2,0-4-1.8-4-4V15c0-2.2,1.8-4,4-4h10c2.2,0,4,1.8,4,4v32
				C380,49.2,378.2,51,376,51z"/>
		</g>
		<g id="_x31_7_1_" style="display:none;">
			<path style="display:inline;fill:#00101E;" d="M352.572,52h-13.145c-1.885,0-3.428-1.542-3.428-3.428V13.428
				c0-1.885,1.542-3.428,3.428-3.428h13.145c1.885,0,3.428,1.542,3.428,3.428v35.145C356,50.458,354.458,52,352.572,52z"/>
			<linearGradient id="SVGID_35_" gradientUnits="userSpaceOnUse" x1="346" y1="51" x2="346" y2="11">
				<stop  offset="8.152377e-007" style="stop-color:#18A0F2"/>
				<stop  offset="0.0667" style="stop-color:#1EA5F2"/>
				<stop  offset="0.6956" style="stop-color:#55CDEE"/>
				<stop  offset="1" style="stop-color:#6BDDED"/>
			</linearGradient>
			<path style="display:inline;fill:url(#SVGID_35_);" d="M351,51h-10c-2.2,0-4-1.8-4-4V15c0-2.2,1.8-4,4-4h10c2.2,0,4,1.8,4,4v32
				C355,49.2,353.2,51,351,51z"/>
		</g>
		<g id="_x31_6_1_" style="display:none;">
			<path style="display:inline;fill:#00101E;" d="M327.572,52h-13.145c-1.885,0-3.428-1.542-3.428-3.428V13.428
				c0-1.885,1.542-3.428,3.428-3.428h13.145c1.885,0,3.428,1.542,3.428,3.428v35.145C331,50.458,329.458,52,327.572,52z"/>
			<linearGradient id="SVGID_36_" gradientUnits="userSpaceOnUse" x1="321" y1="51" x2="321" y2="11">
				<stop  offset="8.152377e-007" style="stop-color:#18A0F2"/>
				<stop  offset="0.0667" style="stop-color:#1EA5F2"/>
				<stop  offset="0.6956" style="stop-color:#55CDEE"/>
				<stop  offset="1" style="stop-color:#6BDDED"/>
			</linearGradient>
			<path style="display:inline;fill:url(#SVGID_36_);" d="M326,51h-10c-2.2,0-4-1.8-4-4V15c0-2.2,1.8-4,4-4h10c2.2,0,4,1.8,4,4v32
				C330,49.2,328.2,51,326,51z"/>
		</g>
		<g id="_x31_5_1_" style="display:none;">
			<path style="display:inline;fill:#00101E;" d="M302.572,52h-13.145c-1.885,0-3.428-1.542-3.428-3.428V13.428
				c0-1.885,1.542-3.428,3.428-3.428h13.145c1.885,0,3.428,1.542,3.428,3.428v35.145C306,50.458,304.458,52,302.572,52z"/>
			<linearGradient id="SVGID_37_" gradientUnits="userSpaceOnUse" x1="296" y1="51" x2="296" y2="11">
				<stop  offset="8.152377e-007" style="stop-color:#18A0F2"/>
				<stop  offset="0.0667" style="stop-color:#1EA5F2"/>
				<stop  offset="0.6956" style="stop-color:#55CDEE"/>
				<stop  offset="1" style="stop-color:#6BDDED"/>
			</linearGradient>
			<path style="display:inline;fill:url(#SVGID_37_);" d="M301,51h-10c-2.2,0-4-1.8-4-4V15c0-2.2,1.8-4,4-4h10c2.2,0,4,1.8,4,4v32
				C305,49.2,303.2,51,301,51z"/>
		</g>
		<g id="_x31_4_1_" style="display:none;">
			<path style="display:inline;fill:#00101E;" d="M277.572,52h-13.145c-1.885,0-3.428-1.542-3.428-3.428V13.428
				c0-1.885,1.542-3.428,3.428-3.428h13.145c1.885,0,3.428,1.542,3.428,3.428v35.145C281,50.458,279.458,52,277.572,52z"/>
			<linearGradient id="SVGID_38_" gradientUnits="userSpaceOnUse" x1="271" y1="51" x2="271" y2="11">
				<stop  offset="8.152377e-007" style="stop-color:#18A0F2"/>
				<stop  offset="0.0667" style="stop-color:#1EA5F2"/>
				<stop  offset="0.6956" style="stop-color:#55CDEE"/>
				<stop  offset="1" style="stop-color:#6BDDED"/>
			</linearGradient>
			<path style="display:inline;fill:url(#SVGID_38_);" d="M276,51h-10c-2.2,0-4-1.8-4-4V15c0-2.2,1.8-4,4-4h10c2.2,0,4,1.8,4,4v32
				C280,49.2,278.2,51,276,51z"/>
		</g>
		<g id="_x31_3_1_" style="display:none;">
			<path style="display:inline;fill:#00101E;" d="M252.572,62h-13.145c-1.885,0-3.428-1.542-3.428-3.428V3.428
				C236,1.542,237.542,0,239.428,0h13.145C254.458,0,256,1.542,256,3.428v55.145C256,60.458,254.458,62,252.572,62z"/>
			<linearGradient id="SVGID_39_" gradientUnits="userSpaceOnUse" x1="246" y1="61" x2="246" y2="1">
				<stop  offset="8.152377e-007" style="stop-color:#18A0F2"/>
				<stop  offset="0.0667" style="stop-color:#1EA5F2"/>
				<stop  offset="0.6956" style="stop-color:#55CDEE"/>
				<stop  offset="1" style="stop-color:#6BDDED"/>
			</linearGradient>
			<path style="display:inline;fill:url(#SVGID_39_);" d="M251,61h-10c-2.2,0-4-1.8-4-4V5c0-2.2,1.8-4,4-4h10c2.2,0,4,1.8,4,4v52
				C255,59.2,253.2,61,251,61z"/>
		</g>
		<g id="_x31_2_1_">
			<path style="fill:#00101E;" d="M299.572,192h-13.145c-1.885,0-3.428-1.542-3.428-3.428v-35.145c0-1.885,1.542-3.428,3.428-3.428
				h13.145c1.885,0,3.428,1.542,3.428,3.428v35.145C303,190.458,301.458,192,299.572,192z"/>
			<linearGradient id="SVGID_40_" gradientUnits="userSpaceOnUse" x1="293" y1="191" x2="293" y2="151">
				<stop  offset="8.152377e-007" style="stop-color:#18A0F2"/>
				<stop  offset="0.0667" style="stop-color:#1EA5F2"/>
				<stop  offset="0.6956" style="stop-color:#55CDEE"/>
				<stop  offset="1" style="stop-color:#6BDDED"/>
			</linearGradient>
			<path style="fill:url(#SVGID_40_);" d="M298,191h-10c-2.2,0-4-1.8-4-4v-32c0-2.2,1.8-4,4-4h10c2.2,0,4,1.8,4,4v32
				C302,189.2,300.2,191,298,191z"/>
		</g>
		<g id="_x31_1_1_">
			<path style="fill:#00101E;" d="M274.572,192h-13.145c-1.885,0-3.428-1.542-3.428-3.428v-35.145c0-1.885,1.542-3.428,3.428-3.428
				h13.145c1.885,0,3.428,1.542,3.428,3.428v35.145C278,190.458,276.458,192,274.572,192z"/>
			<linearGradient id="SVGID_41_" gradientUnits="userSpaceOnUse" x1="268" y1="191" x2="268" y2="151">
				<stop  offset="8.152377e-007" style="stop-color:#18A0F2"/>
				<stop  offset="0.0667" style="stop-color:#1EA5F2"/>
				<stop  offset="0.6956" style="stop-color:#55CDEE"/>
				<stop  offset="1" style="stop-color:#6BDDED"/>
			</linearGradient>
			<path style="fill:url(#SVGID_41_);" d="M273,191h-10c-2.2,0-4-1.8-4-4v-32c0-2.2,1.8-4,4-4h10c2.2,0,4,1.8,4,4v32
				C277,189.2,275.2,191,273,191z"/>
		</g>
		<g id="_x31_0_1_">
			<path style="fill:#00101E;" d="M249.572,192h-13.145c-1.885,0-3.428-1.542-3.428-3.428v-35.145c0-1.885,1.542-3.428,3.428-3.428
				h13.145c1.885,0,3.428,1.542,3.428,3.428v35.145C253,190.458,251.458,192,249.572,192z"/>
			<linearGradient id="SVGID_42_" gradientUnits="userSpaceOnUse" x1="243" y1="191" x2="243" y2="151">
				<stop  offset="8.152377e-007" style="stop-color:#18A0F2"/>
				<stop  offset="0.0667" style="stop-color:#1EA5F2"/>
				<stop  offset="0.6956" style="stop-color:#55CDEE"/>
				<stop  offset="1" style="stop-color:#6BDDED"/>
			</linearGradient>
			<path style="fill:url(#SVGID_42_);" d="M248,191h-10c-2.2,0-4-1.8-4-4v-32c0-2.2,1.8-4,4-4h10c2.2,0,4,1.8,4,4v32
				C252,189.2,250.2,191,248,191z"/>
		</g>
		<g id="_x39__1_">
			<path style="fill:#00101E;" d="M224.572,192h-13.145c-1.885,0-3.428-1.542-3.428-3.428v-35.145c0-1.885,1.542-3.428,3.428-3.428
				h13.145c1.885,0,3.428,1.542,3.428,3.428v35.145C228,190.458,226.458,192,224.572,192z"/>
			<linearGradient id="SVGID_43_" gradientUnits="userSpaceOnUse" x1="218" y1="191" x2="218" y2="151">
				<stop  offset="8.152377e-007" style="stop-color:#18A0F2"/>
				<stop  offset="0.0667" style="stop-color:#1EA5F2"/>
				<stop  offset="0.6956" style="stop-color:#55CDEE"/>
				<stop  offset="1" style="stop-color:#6BDDED"/>
			</linearGradient>
			<path style="fill:url(#SVGID_43_);" d="M223,191h-10c-2.2,0-4-1.8-4-4v-32c0-2.2,1.8-4,4-4h10c2.2,0,4,1.8,4,4v32
				C227,189.2,225.2,191,223,191z"/>
		</g>
		<g id="_x38__1_">
			<path style="fill:#00101E;" d="M199.572,192h-13.145c-1.885,0-3.428-1.542-3.428-3.428v-35.145c0-1.885,1.542-3.428,3.428-3.428
				h13.145c1.885,0,3.428,1.542,3.428,3.428v35.145C203,190.458,201.458,192,199.572,192z"/>
			<linearGradient id="SVGID_44_" gradientUnits="userSpaceOnUse" x1="193" y1="191" x2="193" y2="151">
				<stop  offset="8.152377e-007" style="stop-color:#18A0F2"/>
				<stop  offset="0.0667" style="stop-color:#1EA5F2"/>
				<stop  offset="0.6956" style="stop-color:#55CDEE"/>
				<stop  offset="1" style="stop-color:#6BDDED"/>
			</linearGradient>
			<path style="fill:url(#SVGID_44_);" d="M198,191h-10c-2.2,0-4-1.8-4-4v-32c0-2.2,1.8-4,4-4h10c2.2,0,4,1.8,4,4v32
				C202,189.2,200.2,191,198,191z"/>
		</g>
		<g id="_x37__1_">
			<path style="fill:#00101E;" d="M174.572,192h-13.145c-1.885,0-3.428-1.542-3.428-3.428v-35.145c0-1.885,1.542-3.428,3.428-3.428
				h13.145c1.885,0,3.428,1.542,3.428,3.428v35.145C178,190.458,176.458,192,174.572,192z"/>
			<linearGradient id="SVGID_45_" gradientUnits="userSpaceOnUse" x1="168" y1="191" x2="168" y2="151">
				<stop  offset="8.152377e-007" style="stop-color:#18A0F2"/>
				<stop  offset="0.0667" style="stop-color:#1EA5F2"/>
				<stop  offset="0.6956" style="stop-color:#55CDEE"/>
				<stop  offset="1" style="stop-color:#6BDDED"/>
			</linearGradient>
			<path style="fill:url(#SVGID_45_);" d="M173,191h-10c-2.2,0-4-1.8-4-4v-32c0-2.2,1.8-4,4-4h10c2.2,0,4,1.8,4,4v32
				C177,189.2,175.2,191,173,191z"/>
		</g>
		<g id="_x36__1_">
			<path style="fill:#00101E;" d="M149.572,192h-13.145c-1.885,0-3.428-1.542-3.428-3.428v-35.145c0-1.885,1.542-3.428,3.428-3.428
				h13.145c1.885,0,3.428,1.542,3.428,3.428v35.145C153,190.458,151.458,192,149.572,192z"/>
			<linearGradient id="SVGID_46_" gradientUnits="userSpaceOnUse" x1="143" y1="191" x2="143" y2="151">
				<stop  offset="8.152377e-007" style="stop-color:#18A0F2"/>
				<stop  offset="0.0667" style="stop-color:#1EA5F2"/>
				<stop  offset="0.6956" style="stop-color:#55CDEE"/>
				<stop  offset="1" style="stop-color:#6BDDED"/>
			</linearGradient>
			<path style="fill:url(#SVGID_46_);" d="M148,191h-10c-2.2,0-4-1.8-4-4v-32c0-2.2,1.8-4,4-4h10c2.2,0,4,1.8,4,4v32
				C152,189.2,150.2,191,148,191z"/>
		</g>
		<g id="_x35__1_">
			<path style="fill:#00101E;" d="M124.572,192h-13.145c-1.885,0-3.428-1.542-3.428-3.428v-35.145c0-1.885,1.542-3.428,3.428-3.428
				h13.145c1.885,0,3.428,1.542,3.428,3.428v35.145C128,190.458,126.458,192,124.572,192z"/>
			<linearGradient id="SVGID_47_" gradientUnits="userSpaceOnUse" x1="118" y1="191" x2="118" y2="151">
				<stop  offset="8.152377e-007" style="stop-color:#18A0F2"/>
				<stop  offset="0.0667" style="stop-color:#1EA5F2"/>
				<stop  offset="0.6956" style="stop-color:#55CDEE"/>
				<stop  offset="1" style="stop-color:#6BDDED"/>
			</linearGradient>
			<path style="fill:url(#SVGID_47_);" d="M123,191h-10c-2.2,0-4-1.8-4-4v-32c0-2.2,1.8-4,4-4h10c2.2,0,4,1.8,4,4v32
				C127,189.2,125.2,191,123,191z"/>
		</g>
		<g id="_x34__1_">
			<path style="fill:#00101E;" d="M99.572,192H86.428c-1.885,0-3.428-1.542-3.428-3.428v-35.145c0-1.885,1.542-3.428,3.428-3.428
				h13.145c1.885,0,3.428,1.542,3.428,3.428v35.145C103,190.458,101.458,192,99.572,192z"/>
			<linearGradient id="SVGID_48_" gradientUnits="userSpaceOnUse" x1="93" y1="191" x2="93" y2="151">
				<stop  offset="8.152377e-007" style="stop-color:#18A0F2"/>
				<stop  offset="0.0667" style="stop-color:#1EA5F2"/>
				<stop  offset="0.6956" style="stop-color:#55CDEE"/>
				<stop  offset="1" style="stop-color:#6BDDED"/>
			</linearGradient>
			<path style="fill:url(#SVGID_48_);" d="M98,191H88c-2.2,0-4-1.8-4-4v-32c0-2.2,1.8-4,4-4h10c2.2,0,4,1.8,4,4v32
				C102,189.2,100.2,191,98,191z"/>
		</g>
		<g id="_x33__1_">
			<path style="fill:#00101E;" d="M74.572,192H61.428c-1.885,0-3.428-1.542-3.428-3.428v-35.145c0-1.885,1.542-3.428,3.428-3.428
				h13.145c1.885,0,3.428,1.542,3.428,3.428v35.145C78,190.458,76.458,192,74.572,192z"/>
			<linearGradient id="SVGID_49_" gradientUnits="userSpaceOnUse" x1="68" y1="191" x2="68" y2="151">
				<stop  offset="8.152377e-007" style="stop-color:#18A0F2"/>
				<stop  offset="0.0667" style="stop-color:#1EA5F2"/>
				<stop  offset="0.6956" style="stop-color:#55CDEE"/>
				<stop  offset="1" style="stop-color:#6BDDED"/>
			</linearGradient>
			<path style="fill:url(#SVGID_49_);" d="M73,191H63c-2.2,0-4-1.8-4-4v-32c0-2.2,1.8-4,4-4h10c2.2,0,4,1.8,4,4v32
				C77,189.2,75.2,191,73,191z"/>
		</g>
		<g id="_x32__1_">
			<path style="fill:#00101E;" d="M49.572,192H36.428c-1.885,0-3.428-1.542-3.428-3.428v-35.145c0-1.885,1.542-3.428,3.428-3.428
				h13.145c1.885,0,3.428,1.542,3.428,3.428v35.145C53,190.458,51.458,192,49.572,192z"/>
			<linearGradient id="SVGID_50_" gradientUnits="userSpaceOnUse" x1="43" y1="191" x2="43" y2="151">
				<stop  offset="8.152377e-007" style="stop-color:#18A0F2"/>
				<stop  offset="0.0667" style="stop-color:#1EA5F2"/>
				<stop  offset="0.6956" style="stop-color:#55CDEE"/>
				<stop  offset="1" style="stop-color:#6BDDED"/>
			</linearGradient>
			<path style="fill:url(#SVGID_50_);" d="M48,191H38c-2.2,0-4-1.8-4-4v-32c0-2.2,1.8-4,4-4h10c2.2,0,4,1.8,4,4v32
				C52,189.2,50.2,191,48,191z"/>
		</g>
		<g id="_x31__1_">
			<path style="fill:#00101E;" d="M24.572,192H11.428C9.542,192,8,190.458,8,188.572v-35.145C8,151.542,9.542,150,11.428,150h13.145
				c1.885,0,3.428,1.542,3.428,3.428v35.145C28,190.458,26.458,192,24.572,192z"/>
			<linearGradient id="SVGID_51_" gradientUnits="userSpaceOnUse" x1="18" y1="191" x2="18" y2="151">
				<stop  offset="8.152377e-007" style="stop-color:#18A0F2"/>
				<stop  offset="0.0667" style="stop-color:#1EA5F2"/>
				<stop  offset="0.6956" style="stop-color:#55CDEE"/>
				<stop  offset="1" style="stop-color:#6BDDED"/>
			</linearGradient>
			<path style="fill:url(#SVGID_51_);" d="M23,191H13c-2.2,0-4-1.8-4-4v-32c0-2.2,1.8-4,4-4h10c2.2,0,4,1.8,4,4v32
				C27,189.2,25.2,191,23,191z"/>
		</g>
	</g>
</g>
<g id="Layer_1">
</g>
</svg>
