<?xml version="1.0" encoding="iso-8859-1"?>
<!-- Generator: Adobe Illustrator 19.1.1, SVG Export Plug-In . SVG Version: 6.00 Build 0)  -->
<svg version="1.1" xmlns="http://www.w3.org/2000/svg" xmlns:xlink="http://www.w3.org/1999/xlink" x="0px" y="0px"
	 viewBox="0 0 686.75 80" style="enable-background:new 0 0 686.75 80;" xml:space="preserve">
<g id="progress_bar">
	<g>
		<path style="fill:#0D70FF;" d="M613.121,70h-540c-16.5,0-30-13.5-30-30v0c0-16.5,13.5-30,30-30h540c16.5,0,30,13.5,30,30v0
			C643.121,56.5,629.621,70,613.121,70z"/>
		<path style="fill:#00263F;" d="M613.215,68H73.028c-15.349,0-27.906-12.558-27.906-27.906v-0.187
			C45.121,24.558,57.679,12,73.028,12h540.187c15.349,0,27.906,12.558,27.906,27.906v0.187C641.121,55.442,628.563,68,613.215,68z"
			/>
		<path style="fill:#003B5B;" d="M613.166,67H73.076c-14.825,0-26.955-12.13-26.955-26.955v-0.091C46.121,25.13,58.251,13,73.076,13
			h540.091c14.825,0,26.955,12.13,26.955,26.955v0.091C640.121,54.87,627.992,67,613.166,67z"/>
		<linearGradient id="SVGID_1_" gradientUnits="userSpaceOnUse" x1="46.1211" y1="40" x2="640.1211" y2="40">
			<stop  offset="2.717459e-007" style="stop-color:#240D6A"/>
			<stop  offset="0.1309" style="stop-color:#221873"/>
			<stop  offset="0.3613" style="stop-color:#1D358A"/>
			<stop  offset="0.6638" style="stop-color:#1565AF"/>
			<stop  offset="1" style="stop-color:#0BA2DF"/>
		</linearGradient>
		<path style="fill:url(#SVGID_1_);" d="M613.166,67H73.076c-14.825,0-26.955-12.13-26.955-26.955v-0.091
			C46.121,25.13,58.251,13,73.076,13h540.091c14.825,0,26.955,12.13,26.955,26.955v0.091C640.121,54.87,627.992,67,613.166,67z"/>
		<linearGradient id="SVGID_2_" gradientUnits="userSpaceOnUse" x1="46.1211" y1="53.4773" x2="640.1211" y2="53.4773">
			<stop  offset="5.127281e-008" style="stop-color:#001C28"/>
			<stop  offset="0.1352" style="stop-color:#012233"/>
			<stop  offset="0.373" style="stop-color:#033150"/>
			<stop  offset="0.6853" style="stop-color:#074A80"/>
			<stop  offset="1" style="stop-color:#0B67B7"/>
		</linearGradient>
		<path style="opacity:0.5;fill:url(#SVGID_2_);" d="M613.166,67H73.076c-14.825,0-26.955-12.13-26.955-26.955v-0.091
			c4.414,2.815,8.836,14.047,31.364,15.379c124.025,7.331,473.015,0,532.515,0c11.281,0,23-1.856,30.121-15.379v0.091
			C640.121,54.87,627.992,67,613.166,67z"/>
		<path style="opacity:0.5;fill:#B0EBFF;" d="M613.166,16.955H73.076c-14.825,0-18.119,12.998,4.41,11.667
			c124.025-7.331,473.015,2,532.515,2C621.281,30.621,627.992,16.955,613.166,16.955z"/>
	</g>
	<g>
		<path style="fill:#0D70FF;" d="M263.439,80h-0.636c-8.075,0-14.682-6.607-14.682-14.682V14.682C248.121,6.607,254.728,0,262.803,0
			h0.636c8.075,0,14.682,6.607,14.682,14.682v50.636C278.121,73.393,271.514,80,263.439,80z"/>
		<path style="fill:#00263F;" d="M263.121,78L263.121,78c-7.15,0-13-5.85-13-13V15c0-7.15,5.85-13,13-13h0c7.15,0,13,5.85,13,13v50
			C276.121,72.15,270.271,78,263.121,78z"/>
		<linearGradient id="SVGID_3_" gradientUnits="userSpaceOnUse" x1="263.1211" y1="77" x2="263.1211" y2="3">
			<stop  offset="2.717459e-007" style="stop-color:#2465C6"/>
			<stop  offset="0.1465" style="stop-color:#2A70CA"/>
			<stop  offset="0.4042" style="stop-color:#3A8DD3"/>
			<stop  offset="0.74" style="stop-color:#54BDE3"/>
			<stop  offset="1" style="stop-color:#6BE6F0"/>
		</linearGradient>
		<path style="fill:url(#SVGID_3_);" d="M263.121,77L263.121,77c-6.6,0-12-5.4-12-12V15c0-6.6,5.4-12,12-12h0c6.6,0,12,5.4,12,12v50
			C275.121,71.6,269.721,77,263.121,77z"/>
		<ellipse style="opacity:0.79;fill:#B0EBFF;" cx="266.936" cy="47.822" rx="3.814" ry="8.012"/>
		<ellipse style="opacity:0.79;fill:#B0EBFF;" cx="266.936" cy="22.208" rx="3.814" ry="13.625"/>
	</g>
	<g>
		<path style="fill:#0D70FF;" d="M681.25,33.544c-0.421,0-0.83,0.052-1.224,0.141c-1.858-6.76-7.122-11.641-13.338-11.641
			c-0.176,0-0.346,0.024-0.52,0.032C658.88,11.585,645.378,6.992,634,11c18.614,7.208,19.625,44.333,1.875,56
			c12.994,4.003,25.65,0.058,31.775-11.015c5.791-0.475,10.615-5.175,12.376-11.582c0.394,0.09,0.803,0.141,1.224,0.141
			c3.038,0,5.5-2.462,5.5-5.5C686.75,36.007,684.288,33.544,681.25,33.544z"/>
		<path style="fill:#004BA5;" d="M678.25,39.955c-1.858-6.76-5.894,13.542-12,12.379c-11.375-2.167-19.826-37.008-20-37
			C642.875,12,639.25,9.563,634,11c18.614,7.208,19.625,44.333,1.875,56c12.994,4.003,25.65,0.058,31.775-11.015
			c5.791-0.475,10.615-5.175,12.376-11.582c0.394,0.09,0.803,0.141,1.224,0.141c3.038,0,5.5-2.462,5.5-5.5
			C683.75,42.833,678.644,39.865,678.25,39.955z"/>
		<path style="fill:#00376D;" d="M662.891,56.558c-0.497-1.38-5.787,2.261-11.815,4.432c-6.028,2.171-10.512,2.05-10.015,3.43
			c0.497,1.38,5.787,3.739,11.815,1.568C658.904,63.817,663.388,57.938,662.891,56.558z"/>
		<ellipse style="fill:#52A1FF;" cx="682.781" cy="37.349" rx="2.594" ry="2.203"/>
		<path style="fill:#52A1FF;" d="M674.798,28.099c2.877,3.08,2.437,8.166,1.391,9.143c-1.046,0.977-2.302-2.525-5.179-5.605
			c-2.877-3.08-6.285-4.572-5.239-5.549C666.817,25.111,671.921,25.019,674.798,28.099z"/>
		
			<ellipse transform="matrix(0.8449 0.5349 -0.5349 0.8449 111.8012 -347.4666)" style="fill:#52A1FF;" cx="655.06" cy="19.053" rx="5.781" ry="3.287"/>
		<path style="fill:#004BA5;" d="M666.071,23.504c0,0-0.206,0.382-0.508,1.008c-0.309,0.638-0.739,1.576-1.192,2.724
			c-0.23,0.574-0.468,1.199-0.694,1.871c-0.248,0.665-0.445,1.385-0.678,2.124c-0.198,0.746-0.416,1.518-0.582,2.312
			c-0.161,0.795-0.339,1.604-0.433,2.424c-0.138,0.817-0.192,1.639-0.243,2.452c-0.081,0.813-0.006,1.611-0.018,2.389
			c0.05,0.772,0.147,1.517,0.222,2.227c0.151,0.697,0.293,1.357,0.425,1.965c0.205,0.59,0.392,1.131,0.559,1.61
			c0.142,0.493,0.405,0.859,0.551,1.195c0.331,0.655,0.521,1.029,0.521,1.029s-0.217-0.359-0.596-0.988
			c-0.171-0.324-0.465-0.679-0.645-1.162c-0.205-0.473-0.436-1.007-0.687-1.589c-0.18-0.61-0.375-1.271-0.582-1.97
			c-0.131-0.715-0.287-1.473-0.397-2.263c-0.048-0.793-0.185-1.617-0.165-2.455c-0.01-0.839-0.017-1.693,0.061-2.542
			c0.035-0.855,0.154-1.698,0.26-2.532c0.111-0.833,0.275-1.643,0.422-2.43c0.182-0.778,0.332-1.539,0.536-2.244
			c0.182-0.711,0.38-1.377,0.573-1.988c0.382-1.226,0.753-2.227,1.032-2.933c0.287-0.693,0.451-1.09,0.451-1.09
			c0.21-0.512,0.795-0.756,1.307-0.546s0.756,0.795,0.546,1.307C666.104,23.441,666.087,23.475,666.071,23.504z"/>
	</g>
	<g>
		<path style="fill:#0D70FF;" d="M5.5,33.544c0.421,0,0.83,0.052,1.224,0.141c1.858-6.76,7.122-11.641,13.338-11.641
			c0.176,0,0.346,0.024,0.52,0.032C27.87,11.585,41.372,6.992,52.75,11c-18.614,7.208-19.625,44.333-1.875,56
			c-12.994,4.003-25.65,0.058-31.775-11.015c-5.791-0.475-10.615-5.175-12.376-11.582c-0.394,0.09-0.803,0.141-1.224,0.141
			c-3.038,0-5.5-2.462-5.5-5.5C0,36.007,2.462,33.544,5.5,33.544z"/>
		<path style="fill:#004BA5;" d="M8.5,39.955c1.858-6.76,5.894,13.542,12,12.379c11.375-2.167,19.826-37.008,20-37
			C43.875,12,47.5,9.563,52.75,11c-18.614,7.208-19.625,44.333-1.875,56c-12.994,4.003-25.65,0.058-31.775-11.015
			c-5.791-0.475-10.615-5.175-12.376-11.582c-0.394,0.09-0.803,0.141-1.224,0.141c-3.038,0-5.5-2.462-5.5-5.5
			C3,42.833,8.106,39.865,8.5,39.955z"/>
		<path style="fill:#00376D;" d="M23.859,56.558c0.497-1.38,5.787,2.261,11.815,4.432c6.028,2.171,10.512,2.05,10.015,3.43
			c-0.497,1.38-5.787,3.739-11.815,1.568C27.846,63.817,23.362,57.938,23.859,56.558z"/>
		<ellipse style="fill:#52A1FF;" cx="3.969" cy="37.349" rx="2.594" ry="2.203"/>
		<path style="fill:#52A1FF;" d="M11.952,28.099c-2.877,3.08-2.437,8.166-1.391,9.143c1.046,0.977,2.302-2.525,5.179-5.605
			s6.285-4.572,5.239-5.549C19.933,25.111,14.829,25.019,11.952,28.099z"/>
		
			<ellipse transform="matrix(-0.8449 0.5349 -0.5349 -0.8449 68.6562 18.1982)" style="fill:#52A1FF;" cx="31.69" cy="19.053" rx="5.781" ry="3.287"/>
		<path style="fill:#004BA5;" d="M20.679,23.504c0,0,0.206,0.382,0.508,1.008c0.309,0.638,0.739,1.576,1.192,2.724
			c0.23,0.574,0.468,1.199,0.694,1.871c0.248,0.665,0.445,1.385,0.678,2.124c0.198,0.746,0.416,1.518,0.582,2.312
			c0.161,0.795,0.339,1.604,0.433,2.424c0.138,0.817,0.192,1.639,0.243,2.452c0.081,0.813,0.006,1.611,0.018,2.389
			c-0.05,0.772-0.147,1.517-0.222,2.227c-0.151,0.697-0.293,1.357-0.425,1.965c-0.205,0.59-0.392,1.131-0.559,1.61
			c-0.142,0.493-0.405,0.859-0.551,1.195c-0.331,0.655-0.521,1.029-0.521,1.029s0.217-0.359,0.596-0.988
			c0.171-0.324,0.465-0.679,0.645-1.162c0.205-0.473,0.436-1.007,0.687-1.589c0.18-0.61,0.375-1.271,0.582-1.97
			c0.131-0.715,0.287-1.473,0.397-2.263c0.048-0.793,0.185-1.617,0.165-2.455c0.01-0.839,0.017-1.693-0.061-2.542
			c-0.035-0.855-0.154-1.698-0.26-2.532c-0.111-0.833-0.275-1.643-0.422-2.43c-0.182-0.778-0.332-1.539-0.536-2.244
			c-0.182-0.711-0.38-1.377-0.573-1.988c-0.382-1.226-0.753-2.227-1.032-2.933c-0.287-0.693-0.451-1.09-0.451-1.09
			c-0.21-0.512-0.795-0.756-1.307-0.546s-0.756,0.795-0.546,1.307C20.646,23.441,20.663,23.475,20.679,23.504z"/>
	</g>
	<g id="Layer_69">
		<g>
			<path style="fill:#0062D8;" d="M467.28,38.618c-0.221-0.113-0.443-0.225-0.665-0.338c-0.84-0.427-1.768-0.609-2.697-0.353
				c-0.812,0.224-1.692,0.851-2.092,1.608c-0.843,1.595-0.487,3.903,1.256,4.789c0.221,0.112,0.443,0.225,0.665,0.338
				c0.84,0.427,1.768,0.609,2.697,0.353c0.812-0.224,1.692-0.851,2.092-1.608C469.378,41.812,469.023,39.504,467.28,38.618z"/>
			<path style="fill:#0062D8;" d="M618,30.5c-5,0-5,7,0,7C622,37.5,622,30.5,618,30.5z"/>
			<path style="fill:#0062D8;" d="M595.111,27.027c-0.224-0.812-0.851-1.692-1.608-2.092c-0.812-0.429-1.796-0.644-2.697-0.353
				c-0.809,0.262-1.734,0.794-2.092,1.608c-0.1,0.227-0.2,0.454-0.299,0.682c-0.392,0.893-0.623,1.717-0.353,2.697
				c0.224,0.812,0.851,1.692,1.608,2.092c0.812,0.429,1.796,0.644,2.697,0.353c0.809-0.262,1.734-0.794,2.092-1.608
				c0.1-0.227,0.2-0.454,0.3-0.682C595.15,28.831,595.381,28.007,595.111,27.027z"/>
			<path style="fill:#0062D8;" d="M604.642,36.525l-0.333-0.333c-1.296-1.296-3.671-1.393-4.95,0c-1.282,1.397-1.383,3.566,0,4.95
				c0.111,0.111,0.222,0.222,0.333,0.333c1.296,1.296,3.671,1.393,4.95,0C605.924,40.078,606.025,37.909,604.642,36.525z"/>
			<path style="fill:#0062D8;" d="M616,21.5c-4,0-4,7,0,7C621,28.5,621,21.5,616,21.5z"/>
			<path style="fill:#0062D8;" d="M623.5,42.833c-1.896,0.085-3.5,1.538-3.5,3.5v0.333c0,1.831,1.61,3.585,3.5,3.5
				c1.896-0.085,3.5-1.538,3.5-3.5v-0.333C627,44.503,625.39,42.749,623.5,42.833z"/>
			<path style="fill:#0062D8;" d="M572.5,43.5c-1.896,0.085-3.5,1.538-3.5,3.5v0.333c0,1.831,1.61,3.585,3.5,3.5
				c1.896-0.085,3.5-1.538,3.5-3.5V47C576,45.169,574.39,43.415,572.5,43.5z"/>
			<path style="fill:#0062D8;" d="M548.5,22h-0.333c-1.831,0-3.585,1.61-3.5,3.5c0.085,1.896,1.538,3.5,3.5,3.5h0.333
				c1.831,0,3.585-1.61,3.5-3.5C551.915,23.604,550.462,22,548.5,22z"/>
			<path style="fill:#0062D8;" d="M499.5,25.833c-1.896,0.085-3.5,1.538-3.5,3.5V30c0,1.831,1.61,3.585,3.5,3.5
				c1.896-0.085,3.5-1.538,3.5-3.5v-0.667C503,27.503,501.39,25.749,499.5,25.833z"/>
			<path style="fill:#0062D8;" d="M491.308,46.525c-1.397-1.283-3.566-1.383-4.95,0c-0.111,0.111-0.222,0.222-0.333,0.333
				c-1.296,1.296-1.393,3.671,0,4.95c1.397,1.283,3.566,1.383,4.95,0c0.111-0.111,0.222-0.222,0.333-0.333
				C492.605,50.178,492.701,47.804,491.308,46.525z"/>
			<path style="fill:#0062D8;" d="M520,57.167c-4,0-4,7,0,7C525,64.167,525,57.167,520,57.167z"/>
			<path style="fill:#0062D8;" d="M536.5,37.167c-1.896,0.085-3.5,1.538-3.5,3.5V41c0,1.831,1.61,3.585,3.5,3.5
				c1.896-0.085,3.5-1.538,3.5-3.5v-0.333C540,38.836,538.39,37.082,536.5,37.167z"/>
			<path style="fill:#0062D8;" d="M520.848,35.056c-0.224-0.812-0.851-1.692-1.609-2.092c-1.595-0.843-3.904-0.488-4.789,1.256
				c-0.112,0.222-0.225,0.443-0.337,0.665c-0.427,0.84-0.609,1.768-0.353,2.697c0.224,0.812,0.851,1.692,1.609,2.092
				c1.594,0.842,3.904,0.488,4.789-1.256l0.337-0.665C520.921,36.912,521.104,35.985,520.848,35.056z"/>
			<path style="fill:#0062D8;" d="M547.973,52.773c0.011-0.341-0.01-0.679-0.108-0.98c-0.274-0.847-0.799-1.664-1.608-2.092
				c-0.871-0.46-1.728-0.536-2.697-0.353c-0.88,0.166-1.701,0.878-2.159,1.621c-0.44,0.713-0.576,1.536-0.465,2.36
				c0.107,0.798,0.422,1.523,1,2.109c0.715,0.724,1.591,0.944,2.565,1.059c0.829,0.098,1.911-0.462,2.475-1.025
				c0.607-0.607,1.064-1.603,1.025-2.475C547.996,52.922,547.979,52.848,547.973,52.773z"/>
			<path style="fill:#0062D8;" d="M566,29.833c-4,0-4,7,0,7C571,36.833,571,29.833,566,29.833z"/>
			<path style="fill:#0062D8;" d="M598.975,51.858c-0.111-0.111-0.222-0.222-0.333-0.333c-1.296-1.296-3.671-1.393-4.95,0
				c-1.283,1.397-1.383,3.566,0,4.95c0.111,0.111,0.222,0.222,0.333,0.333c1.296,1.296,3.671,1.393,4.95,0
				C600.257,55.411,600.358,53.242,598.975,51.858z"/>
			<path style="fill:#0062D8;" d="M561,51.5c-5,0-5,7,0,7C565,58.5,565,51.5,561,51.5z"/>
			<path style="fill:#0062D8;" d="M475,20.167c-4,0-4,7,0,7C480,27.167,480,20.167,475,20.167z"/>
			<path style="fill:#0062D8;" d="M453.855,37.9c-0.111-0.222-0.222-0.444-0.333-0.667c-0.821-1.641-3.272-2.234-4.789-1.256
				c-1.678,1.082-2.133,3.033-1.256,4.789c0.111,0.222,0.222,0.444,0.333,0.667c0.821,1.641,3.272,2.234,4.789,1.256
				C454.278,41.607,454.733,39.655,453.855,37.9z"/>
			<path style="fill:#0062D8;" d="M479,52.5c-4,0-4,7,0,7C484,59.5,484,52.5,479,52.5z"/>
		</g>
		<g>
			<path style="fill:#3EFAFF;" d="M379.833,34H379.5c-0.785,0-1.536,0.69-1.5,1.5c0.036,0.813,0.659,1.5,1.5,1.5h0.333
				c0.785,0,1.536-0.69,1.5-1.5C381.297,34.687,380.674,34,379.833,34z"/>
			<path style="fill:#3EFAFF;" d="M364.561,40.939c-0.111-0.111-0.222-0.222-0.333-0.333c-0.573-0.573-1.548-0.573-2.121,0
				c-0.575,0.575-0.575,1.547,0,2.121l0.333,0.333c0.573,0.573,1.548,0.573,2.121,0C365.135,42.486,365.135,41.514,364.561,40.939z"
				/>
			<path style="fill:#3EFAFF;" d="M483,35.5c-2,0-2,3,0,3S485,35.5,483,35.5z"/>
			<path style="fill:#3EFAFF;" d="M486,40.5c-2,0-2,3,0,3S488,40.5,486,40.5z"/>
			<path style="fill:#3EFAFF;" d="M500.833,43H500.5c-0.785,0-1.536,0.69-1.5,1.5c0.036,0.813,0.659,1.5,1.5,1.5h0.333
				c0.785,0,1.536-0.69,1.5-1.5C502.297,43.687,501.674,43,500.833,43z"/>
			<path style="fill:#3EFAFF;" d="M505,45.833c-2,0-2,3,0,3S507,45.833,505,45.833z"/>
			<path style="fill:#3EFAFF;" d="M517.5,38h-0.333c-0.785,0-1.536,0.69-1.5,1.5c0.036,0.813,0.659,1.5,1.5,1.5h0.333
				c0.785,0,1.536-0.69,1.5-1.5C518.964,38.687,518.341,38,517.5,38z"/>
			<path style="fill:#3EFAFF;" d="M527.227,42.606c-0.111-0.111-0.222-0.222-0.333-0.333c-0.573-0.573-1.549-0.573-2.121,0
				c-0.575,0.575-0.575,1.547,0,2.121c0.111,0.111,0.222,0.222,0.333,0.333c0.573,0.573,1.549,0.573,2.121,0
				C527.802,44.152,527.802,43.181,527.227,42.606z"/>
			<path style="fill:#3EFAFF;" d="M517,48.833c-2,0-2,3,0,3S519,48.833,517,48.833z"/>
			<path style="fill:#3EFAFF;" d="M509,47.5c-2,0-2,3,0,3S511,47.5,509,47.5z"/>
			<path style="fill:#3EFAFF;" d="M509.833,25H509.5c-0.785,0-1.536,0.69-1.5,1.5c0.036,0.813,0.659,1.5,1.5,1.5h0.333
				c0.785,0,1.536-0.69,1.5-1.5C511.297,25.687,510.674,25,509.833,25z"/>
			<path style="fill:#3EFAFF;" d="M500,19.167c-1,0-1,3,0,3C502,22.167,502,19.167,500,19.167z"/>
			<path style="fill:#3EFAFF;" d="M484.833,20H484.5c-0.785,0-1.536,0.69-1.5,1.5c0.036,0.813,0.659,1.5,1.5,1.5h0.333
				c0.785,0,1.536-0.69,1.5-1.5C486.297,20.687,485.674,20,484.833,20z"/>
			<path style="fill:#3EFAFF;" d="M478,32.5c0,0,0.058,0.011,0.003,0.016C477.946,32.511,479,32.5,478,32.5c-2,0-2,3,0,3
				c1,0-0.054-0.011,0.003-0.016C478.058,35.489,478,35.5,478,35.5C480,35.5,480,32.5,478,32.5z"/>
			<path style="fill:#3EFAFF;" d="M506.833,38H506.5c-0.121,0-0.239,0.271-0.355,0.302c0.125-0.216,0.2-0.501,0.189-0.76
				c-0.036-0.813-0.659-1.542-1.5-1.542H504.5c-0.785,0-1.536,0.69-1.5,1.5c0.036,0.813,0.659,1.5,1.5,1.5h0.333
				c0.121,0,0.239,0.145,0.355,0.115c-0.125,0.216-0.2,0.293-0.189,0.552c0.036,0.813,0.659,1.333,1.5,1.333h0.333
				c0.785,0,1.536-0.69,1.5-1.5C508.297,38.687,507.674,38,506.833,38z"/>
			<path style="fill:#3EFAFF;" d="M513,18.5c-2,0-2,3,0,3S515,18.5,513,18.5z"/>
			<path style="fill:#3EFAFF;" d="M531,28.583c-0.036-0.813-0.659-1.583-1.5-1.583h-1c-0.785,0-1.536,0.773-1.5,1.583
				c0.03,0.676,0.469,1.301,1.099,1.48c-0.321,0.88,0.146,2.083,1.401,2.083c1.498,0,1.874-1.714,1.127-2.559
				C530.865,29.322,531.016,28.951,531,28.583z"/>
			<path style="fill:#3EFAFF;" d="M559,33.5c-2,0-2,3,0,3S561,33.5,559,33.5z"/>
			<path style="fill:#3EFAFF;" d="M576,20.167c-2,0-2,3,0,3S578,20.167,576,20.167z"/>
			<path style="fill:#3EFAFF;" d="M597.167,22h-0.333c-0.785,0-1.536,0.69-1.5,1.5c0.036,0.813,0.659,1.5,1.5,1.5h0.333
				c0.785,0,1.536-0.69,1.5-1.5C598.63,22.687,598.008,22,597.167,22z"/>
			<path style="fill:#3EFAFF;" d="M609,20.167c-1,0-1,3,0,3C611,23.167,611,20.167,609,20.167z"/>
			<path style="fill:#3EFAFF;" d="M614.561,37.606c-0.575-0.575-1.547-0.575-2.121,0c-0.111,0.111-0.222,0.222-0.333,0.333
				c-0.573,0.573-0.573,1.548,0,2.121c0.575,0.575,1.547,0.575,2.121,0c0.111-0.111,0.222-0.222,0.333-0.333
				C615.134,39.154,615.134,38.179,614.561,37.606z"/>
			<path style="fill:#3EFAFF;" d="M611,47.167c-2,0-2,3,0,3S613,47.167,611,47.167z"/>
			<path style="fill:#3EFAFF;" d="M596.5,42h-0.333c-0.785,0-1.536,0.69-1.5,1.5c0.036,0.813,0.659,1.5,1.5,1.5h0.333
				c0.785,0,1.536-0.69,1.5-1.5C597.964,42.687,597.341,42,596.5,42z"/>
			<path style="fill:#3EFAFF;" d="M589.833,51H589.5c-0.785,0-1.536,0.69-1.5,1.5c0.036,0.813,0.659,1.5,1.5,1.5h0.333
				c0.785,0,1.536-0.69,1.5-1.5C591.297,51.687,590.674,51,589.833,51z"/>
			<path style="fill:#3EFAFF;" d="M583,39.167c-2,0-2,3,0,3S585,39.167,583,39.167z"/>
			<path style="fill:#3EFAFF;" d="M598.5,50h-0.333c-0.785,0-1.536,0.69-1.5,1.5c0.036,0.813,0.659,1.5,1.5,1.5h0.333
				c0.785,0,1.536-0.69,1.5-1.5C599.964,50.687,599.341,50,598.5,50z"/>
			<path style="fill:#3EFAFF;" d="M605,56.833c-1,0-1,3,0,3C607,59.833,607,56.833,605,56.833z"/>
			<path style="fill:#3EFAFF;" d="M580,57.833c-2,0-2,3,0,3S582,57.833,580,57.833z"/>
			<path style="fill:#3EFAFF;" d="M584.167,52h-0.333c-0.785,0-1.536,0.69-1.5,1.5c0.036,0.813,0.659,1.5,1.5,1.5h0.333
				c0.785,0,1.536-0.69,1.5-1.5C585.63,52.687,585.008,52,584.167,52z"/>
			<path style="fill:#3EFAFF;" d="M568,48.5c-2,0-2,3,0,3S570,48.5,568,48.5z"/>
			<path style="fill:#3EFAFF;" d="M560,42.167c-2,0-2,3,0,3S562,42.167,560,42.167z"/>
			<path style="fill:#3EFAFF;" d="M550,39.167c-2,0-2,3,0,3S552,39.167,550,39.167z"/>
			<path style="fill:#3EFAFF;" d="M550,44.5c-2,0-2,3,0,3S552,44.5,550,44.5z"/>
			<path style="fill:#3EFAFF;" d="M555,53.167c-1,0-1,3,0,3C557,56.167,557,53.167,555,53.167z"/>
			<path style="fill:#3EFAFF;" d="M625,39.167c-2,0-2,3,0,3S627,39.167,625,39.167z"/>
			<path style="fill:#3EFAFF;" d="M623,31.167c-2,0-2,3,0,3S625,31.167,623,31.167z"/>
			<path style="fill:#3EFAFF;" d="M630.227,35.939c-0.575-0.575-1.547-0.575-2.121,0c-0.111,0.111-0.222,0.222-0.333,0.333
				c-0.573,0.573-0.573,1.548,0,2.121c0.575,0.575,1.547,0.575,2.121,0l0.333-0.333C630.8,37.488,630.8,36.512,630.227,35.939z"/>
			<path style="fill:#3EFAFF;" d="M627.167,50h-0.333c-0.785,0-1.536,0.69-1.5,1.5c0.036,0.813,0.659,1.5,1.5,1.5h0.333
				c0.785,0,1.536-0.69,1.5-1.5C628.63,50.687,628.008,50,627.167,50z"/>
			<path style="fill:#3EFAFF;" d="M617,50.833c-2,0-2,3,0,3S619,50.833,617,50.833z"/>
			<path style="fill:#3EFAFF;" d="M603.5,28h-0.333c-0.785,0-1.536,0.69-1.5,1.5c0.036,0.813,0.659,1.5,1.5,1.5h0.333
				c0.785,0,1.536-0.69,1.5-1.5C604.964,28.687,604.341,28,603.5,28z"/>
			<path style="fill:#3EFAFF;" d="M612.561,32.273l-0.333-0.333c-0.573-0.573-1.548-0.573-2.121,0c-0.575,0.575-0.575,1.547,0,2.121
				c0.111,0.111,0.222,0.222,0.333,0.333c0.573,0.573,1.548,0.573,2.121,0C613.135,33.819,613.135,32.847,612.561,32.273z"/>
			<path style="fill:#3EFAFF;" d="M599.5,19.833c-0.813,0.036-1.5,0.659-1.5,1.5v0.333c0,0.785,0.69,1.536,1.5,1.5
				c0.813-0.036,1.5-0.659,1.5-1.5v-0.333C601,20.549,600.31,19.797,599.5,19.833z"/>
			<path style="fill:#3EFAFF;" d="M593,36.833c-2,0-2,3,0,3S595,36.833,593,36.833z"/>
			<path style="fill:#3EFAFF;" d="M602,45.833c-1,0-1,3,0,3C604,48.833,604,45.833,602,45.833z"/>
			<path style="fill:#3EFAFF;" d="M603.561,49.939c-0.111-0.111-0.222-0.222-0.333-0.333c-0.573-0.573-1.548-0.573-2.121,0
				c-0.575,0.575-0.575,1.547,0,2.121l0.333,0.333c0.573,0.573,1.548,0.573,2.121,0C604.135,51.486,604.135,50.514,603.561,49.939z"
				/>
			<path style="fill:#3EFAFF;" d="M587,45.833c-2,0-2,3,0,3S589,45.833,587,45.833z"/>
			<path style="fill:#3EFAFF;" d="M583.5,35h-0.333c-0.785,0-1.536,0.69-1.5,1.5c0.036,0.813,0.659,1.5,1.5,1.5h0.333
				c0.785,0,1.536-0.69,1.5-1.5C584.964,35.687,584.341,35,583.5,35z"/>
			<path style="fill:#3EFAFF;" d="M576.167,31H575.5c-0.785,0-1.536,0.69-1.5,1.5c0.036,0.813,0.659,1.5,1.5,1.5h0.667
				c0.785,0,1.536-0.69,1.5-1.5C577.63,31.687,577.008,31,576.167,31z"/>
			<path style="fill:#3EFAFF;" d="M588,23.5c-1,0-1,3,0,3C590,26.5,590,23.5,588,23.5z"/>
			<path style="fill:#3EFAFF;" d="M451,23.5c-1,0-1,3,0,3C453,26.5,453,23.5,451,23.5z"/>
			<path style="fill:#3EFAFF;" d="M461,22.833c-1,0-1,3,0,3C463,25.833,463,22.833,461,22.833z"/>
			<path style="fill:#3EFAFF;" d="M466.5,29h-0.333c-0.785,0-1.536,0.69-1.5,1.5c0.036,0.813,0.659,1.5,1.5,1.5h0.333
				c0.785,0,1.536-0.69,1.5-1.5C467.964,29.687,467.341,29,466.5,29z"/>
			<path style="fill:#3EFAFF;" d="M475,35.833c-2,0-2,3,0,3S477,35.833,475,35.833z"/>
			<path style="fill:#3EFAFF;" d="M478.227,43.939l-0.333-0.333c-0.573-0.573-1.549-0.573-2.121,0c-0.575,0.575-0.575,1.547,0,2.121
				c0.111,0.111,0.222,0.222,0.333,0.333c0.573,0.573,1.549,0.573,2.121,0C478.802,45.486,478.802,44.514,478.227,43.939z"/>
			<path style="fill:#3EFAFF;" d="M462.5,44.833c-0.813,0.036-1.5,0.659-1.5,1.5v0.333c0,0.785,0.69,1.536,1.5,1.5
				c0.813-0.036,1.5-0.659,1.5-1.5v-0.333C464,45.549,463.31,44.797,462.5,44.833z"/>
			<path style="fill:#3EFAFF;" d="M450.227,37.939l-0.333-0.333c-0.573-0.573-1.549-0.573-2.121,0c-0.575,0.575-0.575,1.547,0,2.121
				c0.111,0.111,0.222,0.222,0.333,0.333c0.573,0.573,1.549,0.573,2.121,0C450.802,39.486,450.802,38.514,450.227,37.939z"/>
			<path style="fill:#3EFAFF;" d="M438,34.167c-2,0-2,3,0,3S440,34.167,438,34.167z"/>
			<path style="fill:#3EFAFF;" d="M424,35.833c-2,0-2,3,0,3S426,35.833,424,35.833z"/>
			<path style="fill:#3EFAFF;" d="M413,42.5c-1,0-1,3,0,3C415,45.5,415,42.5,413,42.5z"/>
			<path style="fill:#3EFAFF;" d="M413,35.833c-2,0-2,3,0,3S415,35.833,413,35.833z"/>
			<path style="fill:#3EFAFF;" d="M419,42.5c-1,0-1,3,0,3C421,45.5,421,42.5,419,42.5z"/>
			<path style="fill:#3EFAFF;" d="M430,41.5c-2,0-2,3,0,3S432,41.5,430,41.5z"/>
			<path style="fill:#3EFAFF;" d="M432,38.5c0,0,0.1,0.008,0.066,0.01c-0.229-0.392-1.066-0.677-1.066-0.677c-2,0-2,3,0,3
				c0,0-0.1-0.008-0.066-0.01C431.163,41.216,432,41.5,432,41.5C434,41.5,434,38.5,432,38.5z"/>
			<path style="fill:#3EFAFF;" d="M440,48.167c-2,0-2,3,0,3S442,48.167,440,48.167z"/>
			<path style="fill:#3EFAFF;" d="M451.231,47.358c-0.669-0.391-1.684-0.187-2.052,0.538c-0.113,0.222-0.225,0.443-0.338,0.665
				c-0.367,0.722-0.19,1.627,0.538,2.052c0.669,0.391,1.684,0.187,2.052-0.538c0.113-0.221,0.225-0.443,0.338-0.665
				C452.136,48.688,451.959,47.784,451.231,47.358z"/>
			<path style="fill:#3EFAFF;" d="M458.833,44H458.5c-0.785,0-1.536,0.69-1.5,1.5c0.036,0.813,0.659,1.5,1.5,1.5h0.333
				c0.785,0,1.536-0.69,1.5-1.5C460.297,44.687,459.674,44,458.833,44z"/>
			<path style="fill:#3EFAFF;" d="M443,40.833c-2,0-2,3,0,3S445,40.833,443,40.833z"/>
			<path style="fill:#3EFAFF;" d="M446.167,29h-0.333c-0.785,0-1.536,0.69-1.5,1.5c0.036,0.813,0.659,1.5,1.5,1.5h0.333
				c0.785,0,1.536-0.69,1.5-1.5C447.63,29.687,447.008,29,446.167,29z"/>
			<path style="fill:#3EFAFF;" d="M456.833,29h-0.667c-0.785,0-1.536,0.69-1.5,1.5c0.036,0.813,0.659,1.5,1.5,1.5h0.667
				c0.785,0,1.536-0.69,1.5-1.5C458.297,29.687,457.674,29,456.833,29z"/>
			<path style="fill:#3EFAFF;" d="M459,33.167c-2,0-2,3,0,3S461,33.167,459,33.167z"/>
			<path style="fill:#3EFAFF;" d="M491,32.167c-2,0-2,3,0,3S493,32.167,491,32.167z"/>
			<path style="fill:#3EFAFF;" d="M516,43.833c-1,0-1,3,0,3C518,46.833,518,43.833,516,43.833z"/>
			<path style="fill:#3EFAFF;" d="M525,48.167c-2,0-2,3,0,3S527,48.167,525,48.167z"/>
			<path style="fill:#3EFAFF;" d="M470.5,47.167c-0.813,0.036-1.5,0.659-1.5,1.5V49c0,0.785,0.69,1.536,1.5,1.5
				c0.813-0.036,1.5-0.659,1.5-1.5v-0.333C472,47.882,471.31,47.13,470.5,47.167z"/>
			<path style="fill:#3EFAFF;" d="M480,49.833c-2,0-2,3,0,3S482,49.833,480,49.833z"/>
			<path style="fill:#3EFAFF;" d="M494,53.833c-1,0-1,3,0,3C496,56.833,496,53.833,494,53.833z"/>
			<path style="fill:#3EFAFF;" d="M500.167,48H499.5c-0.785,0-1.536,0.69-1.5,1.5c0.036,0.813,0.659,1.5,1.5,1.5h0.667
				c0.785,0,1.536-0.69,1.5-1.5C501.63,48.687,501.008,48,500.167,48z"/>
			<path style="fill:#3EFAFF;" d="M508.896,52.101c-0.227-0.1-0.454-0.201-0.681-0.301c-0.74-0.327-1.611-0.216-2.052,0.538
				c-0.373,0.638-0.207,1.723,0.538,2.052c0.227,0.1,0.454,0.201,0.681,0.301c0.74,0.327,1.611,0.216,2.052-0.538
				C509.807,53.515,509.641,52.43,508.896,52.101z"/>
			<path style="fill:#3EFAFF;" d="M529.227,54.939c-0.575-0.575-1.547-0.575-2.121,0c-0.111,0.111-0.222,0.222-0.333,0.333
				c-0.573,0.573-0.573,1.548,0,2.121c0.575,0.575,1.547,0.575,2.121,0l0.333-0.333C529.8,56.488,529.8,55.512,529.227,54.939z"/>
			<path style="fill:#3EFAFF;" d="M538.211,48.956c-0.222-0.222-0.445-0.444-0.667-0.666c-0.573-0.573-1.548-0.573-2.121,0
				c-0.575,0.575-0.575,1.547,0,2.121c0.222,0.222,0.445,0.444,0.667,0.666c0.573,0.573,1.548,0.573,2.121,0
				C538.785,50.503,538.785,49.53,538.211,48.956z"/>
			<path style="fill:#3EFAFF;" d="M542,56.5c-1,0-1,3,0,3C544,59.5,544,56.5,542,56.5z"/>
			<path style="fill:#3EFAFF;" d="M549.446,60.212c-0.43-0.734-1.327-0.906-2.052-0.538l-0.665,0.337
				c-0.722,0.366-0.93,1.383-0.538,2.052c0.429,0.734,1.327,0.906,2.052,0.538c0.222-0.112,0.443-0.225,0.665-0.337
				C549.63,61.897,549.838,60.881,549.446,60.212z"/>
			<path style="fill:#3EFAFF;" d="M554,56.833c-2,0-2,3,0,3S556,56.833,554,56.833z"/>
			<path style="fill:#3EFAFF;" d="M542,31.833c-2,0-2,3,0,3S544,31.833,542,31.833z"/>
			<path style="fill:#3EFAFF;" d="M534.5,29.833c-0.813,0.036-1.5,0.659-1.5,1.5v0.333c0,0.785,0.69,1.536,1.5,1.5
				c0.813-0.036,1.5-0.659,1.5-1.5v-0.333C536,30.549,535.31,29.797,534.5,29.833z"/>
			<path style="fill:#3EFAFF;" d="M526.5,38.167c-0.813,0.036-1.5,0.659-1.5,1.5V40c0,0.785,0.69,1.536,1.5,1.5
				c0.813-0.036,1.5-0.659,1.5-1.5v-0.333C528,38.882,527.31,38.13,526.5,38.167z"/>
			<path style="fill:#3EFAFF;" d="M520.5,27.833c-0.813,0.036-1.5,0.659-1.5,1.5V30c0,0.785,0.69,1.536,1.5,1.5
				c0.813-0.036,1.5-0.659,1.5-1.5v-0.667C522,28.549,521.31,27.797,520.5,27.833z"/>
			<path style="fill:#3EFAFF;" d="M365.167,33h-0.333c-0.785,0-1.536,0.69-1.5,1.5c0.036,0.813,0.659,1.5,1.5,1.5h0.333
				c0.785,0,1.536-0.69,1.5-1.5C366.63,33.687,366.008,33,365.167,33z"/>
			<path style="fill:#3EFAFF;" d="M373.894,40.939c-0.111-0.111-0.222-0.222-0.333-0.333c-0.573-0.573-1.548-0.573-2.121,0
				c-0.575,0.575-0.575,1.547,0,2.121c0.111,0.111,0.222,0.222,0.333,0.333c0.573,0.573,1.548,0.573,2.121,0
				C374.469,42.486,374.469,41.514,373.894,40.939z"/>
			<path style="fill:#3EFAFF;" d="M377.167,45H376.5c-0.785,0-1.536,0.69-1.5,1.5c0.036,0.813,0.659,1.5,1.5,1.5h0.667
				c0.785,0,1.536-0.69,1.5-1.5C378.63,45.687,378.008,45,377.167,45z"/>
			<path style="fill:#3EFAFF;" d="M384,44.5c-1,0-1,3,0,3C386,47.5,386,44.5,384,44.5z"/>
			<path style="fill:#3EFAFF;" d="M384,36.167c-1,0-1,3,0,3C386,39.167,386,36.167,384,36.167z"/>
			<path style="fill:#3EFAFF;" d="M398.301,40.355c-0.221-0.805-1.054-1.236-1.845-1.048c-0.446,0.106-0.891,0.212-1.337,0.319
				c-0.788,0.188-1.257,1.084-1.048,1.845c0.221,0.805,1.055,1.236,1.845,1.048c0.446-0.106,0.891-0.212,1.337-0.319
				C398.041,42.012,398.51,41.117,398.301,40.355z"/>
			<path style="fill:#3EFAFF;" d="M408.241,42.403c-0.222-0.112-0.443-0.225-0.665-0.337c-0.722-0.366-1.626-0.19-2.052,0.538
				c-0.391,0.668-0.187,1.684,0.538,2.052c0.222,0.112,0.443,0.225,0.665,0.337c0.722,0.366,1.626,0.19,2.052-0.538
				C409.17,43.787,408.966,42.771,408.241,42.403z"/>
			<path style="fill:#3EFAFF;" d="M409.833,47H409.5c-0.785,0-1.536,0.69-1.5,1.5c0.036,0.813,0.659,1.5,1.5,1.5h0.333
				c0.785,0,1.536-0.69,1.5-1.5C411.297,47.687,410.674,47,409.833,47z"/>
			<path style="fill:#3EFAFF;" d="M402,50.833c-2,0-2,3,0,3S404,50.833,402,50.833z"/>
			<path style="fill:#3EFAFF;" d="M412,48.167c-2,0-2,3,0,3S414,48.167,412,48.167z"/>
			<path style="fill:#3EFAFF;" d="M422,50.167c-1,0-1,3,0,3C424,53.167,424,50.167,422,50.167z"/>
			<path style="fill:#3EFAFF;" d="M403,36.167c-1,0-1,3,0,3C405,39.167,405,36.167,403,36.167z"/>
			<path style="fill:#3EFAFF;" d="M400.5,39.5c-0.813,0.036-1.5,0.659-1.5,1.5v0.333c0,0.785,0.69,1.536,1.5,1.5
				c0.813-0.036,1.5-0.659,1.5-1.5V41C402,40.215,401.31,39.464,400.5,39.5z"/>
			<path style="fill:#3EFAFF;" d="M394.227,47.273c-0.111-0.111-0.222-0.222-0.333-0.333c-0.573-0.573-1.549-0.573-2.121,0
				c-0.575,0.575-0.575,1.547,0,2.121l0.333,0.333c0.573,0.573,1.549,0.573,2.121,0C394.802,48.819,394.802,47.847,394.227,47.273z"
				/>
			<path style="fill:#3EFAFF;" d="M327.5,39.833c-0.813,0.036-1.5,0.659-1.5,1.5v0.333c0,0.785,0.69,1.536,1.5,1.5
				c0.813-0.036,1.5-0.659,1.5-1.5v-0.333C329,40.549,328.31,39.797,327.5,39.833z"/>
			<path style="fill:#3EFAFF;" d="M334,39.5c-1,0-1,3,0,3C336,42.5,336,39.5,334,39.5z"/>
			<path style="fill:#3EFAFF;" d="M337,43.5c-2,0-2,3,0,3S339,43.5,337,43.5z"/>
			<path style="fill:#3EFAFF;" d="M341,35.5c-2,0-2,3,0,3S343,35.5,341,35.5z"/>
			<path style="fill:#3EFAFF;" d="M352.227,38.273c-0.111-0.111-0.222-0.222-0.333-0.333c-0.573-0.573-1.549-0.573-2.121,0
				c-0.575,0.575-0.575,1.547,0,2.121l0.333,0.333c0.573,0.573,1.549,0.573,2.121,0C352.802,39.819,352.802,38.847,352.227,38.273z"
				/>
			<path style="fill:#3EFAFF;" d="M444,44.5c-2,0-2,3,0,3S446,44.5,444,44.5z"/>
			<path style="fill:#3EFAFF;" d="M429,47.5c-1,0-1,3,0,3C431,50.5,431,47.5,429,47.5z"/>
			<path style="fill:#3EFAFF;" d="M422.5,39.833c-0.813,0.036-1.5,0.659-1.5,1.5v0.333c0,0.785,0.69,1.536,1.5,1.5
				c0.813-0.036,1.5-0.659,1.5-1.5v-0.333C424,40.549,423.31,39.797,422.5,39.833z"/>
			<path style="fill:#3EFAFF;" d="M426,42.167c-2,0-2,3,0,3S428,42.167,426,42.167z"/>
			<path style="fill:#3EFAFF;" d="M416.5,38.167c-0.813,0.036-1.5,0.659-1.5,1.5V40c0,0.785,0.69,1.536,1.5,1.5
				c0.813-0.036,1.5-0.659,1.5-1.5v-0.333C418,38.882,417.31,38.13,416.5,38.167z"/>
		</g>
		<g>
			<path style="fill:#E1F9FF;" d="M396.167,43h-1c-1.287,0-1.289,2,0,2h1C397.454,45,397.456,43,396.167,43z"/>
			<path style="fill:#E1F9FF;" d="M408.126,41.626c-0.111,0.111-0.222-0.112-0.333,0c-0.22,0.22-0.299,0.374-0.288,0.374
				c-0.002,0,0.495,0-0.505,0s-1,2.667,0,2.667s1.217-0.502,1.215-1.003c0.249,0.021,0.636-0.059,0.867-0.29
				c0.111-0.111,0.285-0.222,0.396-0.333C410.389,42.129,409.038,40.715,408.126,41.626z"/>
			<path style="fill:#E1F9FF;" d="M611,34.833c-1,0-1,2,0,2C613,36.833,613,34.833,611,34.833z"/>
			<path style="fill:#E1F9FF;" d="M625,42.833c-1,0-1,2,0,2C627,44.833,627,42.833,625,42.833z"/>
			<path style="fill:#E1F9FF;" d="M627.5,26.333c-0.646,0-1.217,0.503-1.215,1.005c-0.013,0,0.715-0.005-0.285-0.005s-1,2,0,2
				c2,0,1.808-0.584,1.719-1.121C628.503,27.79,628.603,26.333,627.5,26.333z"/>
			<path style="fill:#E1F9FF;" d="M620,36.333c-1,0-1,2,0,2C622,38.333,622,36.333,620,36.333z"/>
			<path style="fill:#E1F9FF;" d="M626,34.833c-1,0-1,2,0,2C628,36.833,628,34.833,626,34.833z"/>
			<path style="fill:#E1F9FF;" d="M630,42.833c-1,0-1,2,0,2C632,44.833,632,42.833,630,42.833z"/>
			<path style="fill:#E1F9FF;" d="M621,25.333c-1,0-1,2,0,2C623,27.333,623,25.333,621,25.333z"/>
			<path style="fill:#E1F9FF;" d="M605,25.333c-1,0-1,2,0,2C607,27.333,607,25.333,605,25.333z"/>
			<path style="fill:#E1F9FF;" d="M592,27.833v1.5c0,1.287,2,1.289,2,0v-1.5C594,26.546,592,26.544,592,27.833z"/>
			<path style="fill:#E1F9FF;" d="M589,44.333h-0.5c-1.287,0-1.289,2,0,2h0.5C590.287,46.333,590.289,44.333,589,44.333z"/>
			<path style="fill:#E1F9FF;" d="M593,49.833h-0.5c-1.287,0-1.289,2,0,2h0.5C594.287,51.833,594.289,49.833,593,49.833z"/>
			<path style="fill:#E1F9FF;" d="M606,54.833c-1,0-1,2,0,2C608,56.833,608,54.833,606,54.833z"/>
			<path style="fill:#E1F9FF;" d="M601.5,39.333v1c0,1.287,2,1.289,2,0v-1C603.5,38.046,601.5,38.044,601.5,39.333z"/>
			<path style="fill:#E1F9FF;" d="M600,35.833c-1,0-1,2,0,2C602,37.833,602,35.833,600,35.833z"/>
			<path style="fill:#E1F9FF;" d="M612,43.833c-1,0-1,2,0,2C614,45.833,614,43.833,612,43.833z"/>
			<path style="fill:#E1F9FF;" d="M617,49.833h-0.5c-1.287,0-1.289,2,0,2h0.5C618.287,51.833,618.289,49.833,617,49.833z"/>
			<path style="fill:#E1F9FF;" d="M617,56.833c-1,0-1,2,0,2C619,58.833,619,56.833,617,56.833z"/>
			<path style="fill:#E1F9FF;" d="M603,50.333h-0.5c-1.287,0-1.289,2,0,2h0.5C604.287,52.333,604.289,50.333,603,50.333z"/>
			<path style="fill:#E1F9FF;" d="M606,44.333c-1,0-1,2,0,2C608,46.333,608,44.333,606,44.333z"/>
			<path style="fill:#E1F9FF;" d="M613,33.833c-1,0-1,2,0,2C615,35.833,615,33.833,613,33.833z"/>
			<path style="fill:#E1F9FF;" d="M612,22.833c-1,0-1,2,0,2C614,24.833,614,22.833,612,22.833z"/>
			<path style="fill:#E1F9FF;" d="M616.234,18.869c-0.5,0.167-1,0.333-1.5,0.5c-1.215,0.405-0.694,2.337,0.532,1.929
				c0.5-0.167,1-0.333,1.5-0.5C617.981,20.393,617.46,18.46,616.234,18.869z"/>
			<path style="fill:#E1F9FF;" d="M622,21.333c-1,0-1,2,0,2C624,23.333,624,21.333,622,21.333z"/>
			<path style="fill:#E1F9FF;" d="M631,32.833c-1,0-1,2,0,2C633,34.833,633,32.833,631,32.833z"/>
			<path style="fill:#E1F9FF;" d="M631.5,39.333v0.5c0,1.287,2,1.289,2,0v-0.5C633.5,38.046,631.5,38.044,631.5,39.333z"/>
			<path style="fill:#E1F9FF;" d="M631,49.833c-1,0-1,2,0,2C633,51.833,633,49.833,631,49.833z"/>
			<path style="fill:#E1F9FF;" d="M624,47.833c-1,0-1,2,0,2C626,49.833,626,47.833,624,47.833z"/>
			<path style="fill:#E1F9FF;" d="M619,40.833c-1,0-1,2,0,2C621,42.833,621,40.833,619,40.833z"/>
			<path style="fill:#E1F9FF;" d="M617,46.833v0.5c0,1.287,2,1.289,2,0v-0.5C619,45.546,617,45.544,617,46.833z"/>
			<path style="fill:#E1F9FF;" d="M609,29.333c-1,0-1,2,0,2C611,31.333,611,29.333,609,29.333z"/>
			<path style="fill:#E1F9FF;" d="M604,34.333h-0.5c-1.287,0-1.289,2,0,2h0.5C605.287,36.333,605.289,34.333,604,34.333z"/>
			<path style="fill:#E1F9FF;" d="M594,29.833c-1,0-1,2,0,2C596,31.833,596,29.833,594,29.833z"/>
			<path style="fill:#E1F9FF;" d="M583.793,29.626c-0.167,0.167-0.333,0.333-0.5,0.5c-0.911,0.911,0.502,2.326,1.414,1.414
				c0.167-0.167,0.333-0.333,0.5-0.5C586.118,30.129,584.705,28.715,583.793,29.626z"/>
			<path style="fill:#E1F9FF;" d="M593,37.333c-1,0-1,2,0,2C595,39.333,595,37.333,593,37.333z"/>
			<path style="fill:#E1F9FF;" d="M595.793,42.626c-0.167,0.167-0.333,0.333-0.5,0.5c-0.911,0.911,0.502,2.326,1.414,1.414
				c0.167-0.167,0.333-0.333,0.5-0.5C598.118,43.129,596.705,41.715,595.793,42.626z"/>
			<path style="fill:#E1F9FF;" d="M588,35.833c-1,0-1,2,0,2C590,37.833,590,35.833,588,35.833z"/>
			<path style="fill:#E1F9FF;" d="M591,23.333c-1,0-1,2,0,2C593,25.333,593,23.333,591,23.333z"/>
			<path style="fill:#E1F9FF;" d="M595.5,20.333H595c-1.287,0-1.289,2,0,2h0.5C596.787,22.333,596.789,20.333,595.5,20.333z"/>
			<path style="fill:#E1F9FF;" d="M605.5,22.333H605c-1.287,0-1.289,2,0,2h0.5C606.787,24.333,606.789,22.333,605.5,22.333z"/>
			<path style="fill:#E1F9FF;" d="M566,39.333c-1,0-1,2,0,2C568,41.333,568,39.333,566,39.333z"/>
			<path style="fill:#E1F9FF;" d="M571,29.333v0.5c0,1.287,2,1.289,2,0v-0.5C573,28.046,571,28.044,571,29.333z"/>
			<path style="fill:#E1F9FF;" d="M577,37.333v0.5c0,1.287,2,1.289,2,0v-0.5C579,36.046,577,36.044,577,37.333z"/>
			<path style="fill:#E1F9FF;" d="M574,46.333c-1,0-1,2,0,2C576,48.333,576,46.333,574,46.333z"/>
			<path style="fill:#E1F9FF;" d="M568,44.333h-0.5c-1.287,0-1.289,2,0,2h0.5C569.287,46.333,569.289,44.333,568,44.333z"/>
			<path style="fill:#E1F9FF;" d="M578,27.333c-1,0-1,2,0,2C580,29.333,580,27.333,578,27.333z"/>
			<path style="fill:#E1F9FF;" d="M580.793,48.626c-0.167,0.167-0.333,0.333-0.5,0.5c-0.911,0.911,0.502,2.326,1.414,1.414
				c0.167-0.167,0.333-0.333,0.5-0.5C583.118,49.129,581.705,47.715,580.793,48.626z"/>
			<path style="fill:#E1F9FF;" d="M588,61.333c-1,0-1,2,0,2C590,63.333,590,61.333,588,61.333z"/>
			<path style="fill:#E1F9FF;" d="M599,57.833h-0.5c-1.287,0-1.289,2,0,2h0.5C600.287,59.833,600.289,57.833,599,57.833z"/>
			<path style="fill:#E1F9FF;" d="M610,45.833c-1,0-1,2,0,2C612,47.833,612,45.833,610,45.833z"/>
			<path style="fill:#E1F9FF;" d="M611,50.333h-0.5c-1.287,0-1.289,2,0,2h0.5C612.287,52.333,612.289,50.333,611,50.333z"/>
			<path style="fill:#E1F9FF;" d="M613,58.333h-0.5c-1.287,0-1.289,2,0,2h0.5C614.287,60.333,614.289,58.333,613,58.333z"/>
			<path style="fill:#E1F9FF;" d="M616,29.333c-1,0-1,2,0,2C618,31.333,618,29.333,616,29.333z"/>
			<path style="fill:#E1F9FF;" d="M598,26.333c-1,0-1,2,0,2C600,28.333,600,26.333,598,26.333z"/>
			<path style="fill:#E1F9FF;" d="M573.293,22.126c-0.167,0.167-0.333,0.333-0.5,0.5c-0.911,0.911,0.502,2.326,1.414,1.414
				c0.167-0.167,0.333-0.333,0.5-0.5C575.618,22.629,574.205,21.215,573.293,22.126z"/>
			<path style="fill:#E1F9FF;" d="M583.207,18.626c-0.167-0.167-0.333-0.333-0.5-0.5c-0.911-0.911-2.326,0.503-1.414,1.414
				c0.167,0.167,0.333,0.333,0.5,0.5C582.704,20.952,584.119,19.538,583.207,18.626z"/>
			<path style="fill:#E1F9FF;" d="M581,24.333c-1,0-1,2,0,2C583,26.333,583,24.333,581,24.333z"/>
			<path style="fill:#E1F9FF;" d="M562.5,20.333v0.5c0,1.287,2,1.289,2,0v-0.5C564.5,19.046,562.5,19.044,562.5,20.333z"/>
			<path style="fill:#E1F9FF;" d="M552,22.833c-1,0-1,2,0,2C554,24.833,554,22.833,552,22.833z"/>
			<path style="fill:#E1F9FF;" d="M546,28.333c-1,0-1,2,0,2C548,30.333,548,28.333,546,28.333z"/>
			<path style="fill:#E1F9FF;" d="M557,40.833v0.5c0,1.287,2,1.289,2,0v-0.5C559,39.546,557,39.544,557,40.833z"/>
			<path style="fill:#E1F9FF;" d="M558,30.833v0.5c0,1.287,2,1.289,2,0v-0.5C560,29.546,558,29.544,558,30.833z"/>
			<path style="fill:#E1F9FF;" d="M552.5,30.833v0.5c0,1.287,2,1.289,2,0v-0.5C554.5,29.546,552.5,29.544,552.5,30.833z"/>
			<path style="fill:#E1F9FF;" d="M564,26.333h-0.5c-1.287,0-1.289,2,0,2h0.5C565.287,28.333,565.289,26.333,564,26.333z"/>
			<path style="fill:#E1F9FF;" d="M567.707,33.126c-0.167-0.167-0.333-0.333-0.5-0.5c-0.911-0.911-2.326,0.503-1.414,1.414
				c0.167,0.167,0.333,0.333,0.5,0.5C567.204,35.452,568.619,34.038,567.707,33.126z"/>
			<path style="fill:#E1F9FF;" d="M557,23.333v1.5c0,1.287,2,1.289,2,0v-1.5C559,22.046,557,22.044,557,23.333z"/>
			<path style="fill:#E1F9FF;" d="M550.5,38.833v0.5c0,1.287,2,1.289,2,0v-0.5C552.5,37.546,550.5,37.544,550.5,38.833z"/>
			<path style="fill:#E1F9FF;" d="M549,48.333c-1,0-1,2,0,2C551,50.333,551,48.333,549,48.333z"/>
			<path style="fill:#E1F9FF;" d="M563.207,52.126c-0.167-0.167-0.333-0.333-0.5-0.5c-0.911-0.911-2.326,0.503-1.414,1.414
				c0.167,0.167,0.333,0.333,0.5,0.5C562.704,54.452,564.119,53.038,563.207,52.126z"/>
			<path style="fill:#E1F9FF;" d="M580,45c-1,0-1,2,0,2C582,47,582,45,580,45z"/>
			<path style="fill:#E1F9FF;" d="M573,38.667c-2,0-2,2,0,2C574,40.667,574,38.667,573,38.667z"/>
			<path style="fill:#E1F9FF;" d="M568.167,54h-0.333c-1.287,0-1.289,2,0,2h0.333C569.454,56,569.456,54,568.167,54z"/>
			<path style="fill:#E1F9FF;" d="M573.167,60.333v0.333c0,1.287,2,1.289,2,0v-0.333C575.167,59.046,573.167,59.044,573.167,60.333z
				"/>
			<path style="fill:#E1F9FF;" d="M573.833,55.667v0.667c0,1.287,2,1.289,2,0v-0.667C575.833,54.38,573.833,54.378,573.833,55.667z"
				/>
			<path style="fill:#E1F9FF;" d="M587,55.333c-1,0-1,2,0,2C589,57.333,589,55.333,587,55.333z"/>
			<path style="fill:#E1F9FF;" d="M543.5,36.667h-0.333c-1.287,0-1.289,2,0,2h0.333C544.787,38.667,544.789,36.667,543.5,36.667z"/>
			<path style="fill:#E1F9FF;" d="M530.5,47.333v0.333c0,1.287,2,1.289,2,0v-0.333C532.5,46.046,530.5,46.044,530.5,47.333z"/>
			<path style="fill:#E1F9FF;" d="M529.833,49.667H529.5c-1.287,0-1.289,2,0,2h0.333C531.12,51.667,531.122,49.667,529.833,49.667z"
				/>
			<path style="fill:#E1F9FF;" d="M522.643,30.344c-0.495-0.136-1.121,0.167-1.23,0.698c-0.092,0.448-0.184,0.897-0.277,1.345
				c-0.109,0.529,0.154,1.08,0.698,1.23c0.495,0.136,1.121-0.167,1.23-0.698c0.092-0.448,0.184-0.897,0.277-1.345
				C523.45,31.045,523.188,30.493,522.643,30.344z"/>
			<path style="fill:#E1F9FF;" d="M525.5,23.333v0.333c0,1.287,2,1.289,2,0v-0.333C527.5,22.046,525.5,22.044,525.5,23.333z"/>
			<path style="fill:#E1F9FF;" d="M536.5,28h-0.667c-1.287,0-1.289,2,0,2h0.667C537.787,30,537.789,28,536.5,28z"/>
			<path style="fill:#E1F9FF;" d="M530.833,35.667H530.5c-1.287,0-1.289,2,0,2h0.333C532.12,37.667,532.122,35.667,530.833,35.667z"
				/>
			<path style="fill:#E1F9FF;" d="M534,45c-1,0-1,2,0,2C536,47,536,45,534,45z"/>
			<path style="fill:#E1F9FF;" d="M541,52.333c-1,0-1,2,0,2C543,54.333,543,52.333,541,52.333z"/>
			<path style="fill:#E1F9FF;" d="M546.167,58h-0.333c-1.287,0-1.289,2,0,2h0.333C547.454,60,547.456,58,546.167,58z"/>
			<path style="fill:#E1F9FF;" d="M545.338,42.783c-0.257-0.44-0.921-0.667-1.368-0.359c-0.822,0.566-1.063,1.495-0.631,2.393
				c0.234,0.487,0.929,0.616,1.368,0.359c0.431-0.252,0.545-0.726,0.419-1.166C545.454,43.688,545.588,43.21,545.338,42.783z"/>
			<path style="fill:#E1F9FF;" d="M556.833,46H556.5c-1.287,0-1.289,2,0,2h0.333C558.12,48,558.122,46,556.833,46z"/>
			<path style="fill:#E1F9FF;" d="M555.656,55.501c-0.222-0.112-0.443-0.225-0.665-0.337c-1.145-0.581-2.159,1.144-1.009,1.727
				c0.221,0.112,0.443,0.225,0.665,0.337C555.791,57.809,556.805,56.084,555.656,55.501z"/>
			<path style="fill:#E1F9FF;" d="M538.061,20.48c-0.113-0.221-0.225-0.443-0.338-0.664c-0.583-1.148-2.309-0.137-1.727,1.009
				c0.112,0.222,0.225,0.443,0.338,0.665C536.917,22.637,538.643,21.626,538.061,20.48z"/>
			<path style="fill:#E1F9FF;" d="M544,25.333c-2,0-2,2,0,2C545,27.333,545,25.333,544,25.333z"/>
			<path style="fill:#E1F9FF;" d="M544.207,20.96c-0.111-0.111-0.222-0.222-0.333-0.333c-0.911-0.911-2.326,0.503-1.414,1.414
				c0.111,0.111,0.222,0.222,0.333,0.333C543.704,23.285,545.119,21.871,544.207,20.96z"/>
			<path style="fill:#E1F9FF;" d="M538,36.333c-1,0-1,2,0,2C540,38.333,540,36.333,538,36.333z"/>
			<path style="fill:#E1F9FF;" d="M521,41.667c-2,0-2,2,0,2C522,43.667,522,41.667,521,41.667z"/>
			<path style="fill:#E1F9FF;" d="M529,29.667c-2,0-2,2,0,2C530,31.667,530,29.667,529,29.667z"/>
			<path style="fill:#E1F9FF;" d="M524.5,47.333v0.333c0,1.287,2,1.289,2,0v-0.333C526.5,46.046,524.5,46.044,524.5,47.333z"/>
			<path style="fill:#E1F9FF;" d="M519,56c-1,0-1,2,0,2C521,58,521,56,519,56z"/>
			<path style="fill:#E1F9FF;" d="M529.793,59.293l-0.333,0.333c-0.911,0.911,0.503,2.326,1.414,1.414l0.333-0.333
				C532.118,59.796,530.705,58.381,529.793,59.293z"/>
			<path style="fill:#E1F9FF;" d="M535.167,54.667h-0.333c-1.287,0-1.289,2,0,2h0.333C536.454,56.667,536.456,54.667,535.167,54.667
				z"/>
			<path style="fill:#E1F9FF;" d="M501.743,38.667v0.667c0,1.287,2,1.289,2,0v-0.667C503.743,37.38,501.743,37.378,501.743,38.667z"
				/>
			<path style="fill:#E1F9FF;" d="M510.833,28.667H510.5c-1.287,0-1.289,2,0,2h0.333C512.12,30.667,512.122,28.667,510.833,28.667z"
				/>
			<path style="fill:#E1F9FF;" d="M511.942,34.148c-0.112,0.222-0.225,0.443-0.337,0.665c-0.581,1.145,1.144,2.159,1.727,1.009
				c0.112-0.222,0.225-0.443,0.337-0.665C514.25,34.012,512.526,32.999,511.942,34.148z"/>
			<path style="fill:#E1F9FF;" d="M509,42c-1,0-1,2,0,2C511,44,511,42,509,42z"/>
			<path style="fill:#E1F9FF;" d="M508.5,52.333v0.333c0,1.287,2,1.289,2,0v-0.333C510.5,51.046,508.5,51.044,508.5,52.333z"/>
			<path style="fill:#E1F9FF;" d="M514.5,56.333v0.333c0,1.287,2,1.289,2,0v-0.333C516.5,55.046,514.5,55.044,514.5,56.333z"/>
			<path style="fill:#E1F9FF;" d="M517,48.333c-1,0-1,2,0,2C519,50.333,519,48.333,517,48.333z"/>
			<path style="fill:#E1F9FF;" d="M468.167,37v0.333c0,1.287,2,1.289,2,0V37C470.167,35.713,468.167,35.711,468.167,37z"/>
			<path style="fill:#E1F9FF;" d="M477.833,31.333H477.5c-1.287,0-1.289,2,0,2h0.333C479.12,33.333,479.122,31.333,477.833,31.333z"
				/>
			<path style="fill:#E1F9FF;" d="M485.207,28.293l-0.333-0.333c-0.911-0.911-2.326,0.503-1.414,1.414l0.333,0.333
				C484.704,30.618,486.119,29.205,485.207,28.293z"/>
			<path style="fill:#E1F9FF;" d="M496,24.667c-1,0-1,2,0,2C498,26.667,498,24.667,496,24.667z"/>
			<path style="fill:#E1F9FF;" d="M490.833,38.333H490.5c-1.287,0-1.289,2,0,2h0.333C492.12,40.333,492.122,38.333,490.833,38.333z"
				/>
			<path style="fill:#E1F9FF;" d="M480.499,46.336c0-0.491-0.46-1.064-1-1c-0.573,0.068-1.049,0.379-1.109,1
				c-0.053,0.545,0.256,1.129,0.834,1.239c0.53,0.1,1.079-0.148,1.23-0.698c0.035-0.128,0.037-0.265,0.017-0.402
				C480.478,46.427,480.499,46.388,480.499,46.336z"/>
			<path style="fill:#E1F9FF;" d="M489,32c-1,0-1,2,0,2C491,34,491,32,489,32z"/>
			<path style="fill:#E1F9FF;" d="M494,45.667c-2,0-2,2,0,2C495,47.667,495,45.667,494,45.667z"/>
			<path style="fill:#E1F9FF;" d="M496,53c-1,0-1,2,0,2C498,55,498,53,496,53z"/>
			<path style="fill:#E1F9FF;" d="M501,53.667c-1,0-1,2,0,2C503,55.667,503,53.667,501,53.667z"/>
			<path style="fill:#E1F9FF;" d="M497,34c-2,0-2,2,0,2C498,36,498,34,497,34z"/>
			<path style="fill:#E1F9FF;" d="M507.5,24h-0.333c-1.287,0-1.289,2,0,2h0.333C508.787,26,508.789,24,507.5,24z"/>
			<path style="fill:#E1F9FF;" d="M516,24c-1,0-1,2,0,2C518,26,518,24,516,24z"/>
			<path style="fill:#E1F9FF;" d="M449.167,33.333v0.333c0,1.287,2,1.289,2,0v-0.333C451.167,32.046,449.167,32.044,449.167,33.333z
				"/>
			<path style="fill:#E1F9FF;" d="M438.676,40.831l-0.665,0.337c-1.148,0.583-0.137,2.309,1.009,1.727l0.665-0.337
				C440.833,41.975,439.822,40.249,438.676,40.831z"/>
			<path style="fill:#E1F9FF;" d="M437.234,45.036c-0.333,0.111-0.667,0.222-1,0.333c-1.215,0.405-0.694,2.337,0.532,1.929
				c0.333-0.111,0.667-0.222,1-0.333C438.981,46.559,438.46,44.627,437.234,45.036z"/>
			<path style="fill:#E1F9FF;" d="M452,46c-1,0-1,2,0,2C454,48,454,46,452,46z"/>
			<path style="fill:#E1F9FF;" d="M454.5,40v0.333c0,1.287,2,1.289,2,0V40C456.5,38.713,454.5,38.711,454.5,40z"/>
			<path style="fill:#E1F9FF;" d="M463.167,48h-0.333c-1.287,0-1.289,2,0,2h0.333C464.454,50,464.456,48,463.167,48z"/>
			<path style="fill:#E1F9FF;" d="M472.167,53.667H471.5c-1.287,0-1.289,2,0,2h0.667C473.454,55.667,473.456,53.667,472.167,53.667z
				"/>
			<path style="fill:#E1F9FF;" d="M480,40c-2,0-2,2,0,2C481,42,481,40,480,40z"/>
			<path style="fill:#E1F9FF;" d="M470,43c-1,0-1,2,0,2C472,45,472,43,470,43z"/>
			<path style="fill:#E1F9FF;" d="M487,52.333c-1,0-1,2,0,2C489,54.333,489,52.333,487,52.333z"/>
			<path style="fill:#E1F9FF;" d="M464.5,31.667V32c0,1.287,2,1.289,2,0v-0.333C466.5,30.38,464.5,30.378,464.5,31.667z"/>
			<path style="fill:#E1F9FF;" d="M458.833,36.667V37c0,1.287,2,1.289,2,0v-0.333C460.833,35.38,458.833,35.378,458.833,36.667z"/>
			<path style="fill:#E1F9FF;" d="M381.848,39.339c-0.253-0.233-0.538-0.294-0.804-0.254c-0.29-0.075-0.608-0.026-0.88,0.264
				c-0.727,0.776-0.288,2.178,0.86,2.178C382.134,41.527,382.642,40.068,381.848,39.339z"/>
			<path style="fill:#E1F9FF;" d="M387.167,33h-0.333c-1.287,0-1.289,2,0,2h0.333C388.454,35,388.456,33,387.167,33z"/>
			<path style="fill:#E1F9FF;" d="M390.793,41.626c-0.111,0.111-0.222,0.222-0.333,0.333c-0.911,0.911,0.503,2.326,1.414,1.414
				l0.333-0.333C393.118,42.129,391.705,40.715,390.793,41.626z"/>
			<path style="fill:#E1F9FF;" d="M393.874,48.293c-0.111-0.111-0.222-0.222-0.333-0.333c-0.911-0.911-2.326,0.503-1.414,1.414
				c0.111,0.111,0.222,0.222,0.333,0.333C393.371,50.618,394.785,49.205,393.874,48.293z"/>
			<path style="fill:#E1F9FF;" d="M402.5,46h-0.667c-1.287,0-1.289,2,0,2h0.667C403.787,48,403.789,46,402.5,46z"/>
			<path style="fill:#E1F9FF;" d="M398,33.667c-2,0-2,2,0,2C399,35.667,399,33.667,398,33.667z"/>
			<path style="fill:#E1F9FF;" d="M410,36c-1,0-1,2,0,2C412,38,412,36,410,36z"/>
			<path style="fill:#E1F9FF;" d="M421,38.667c-1,0-1,2,0,2C423,40.667,423,38.667,421,38.667z"/>
			<path style="fill:#E1F9FF;" d="M421,46.333c-1,0-1,2,0,2C423,48.333,423,46.333,421,46.333z"/>
			<path style="fill:#E1F9FF;" d="M411,44.667c-1,0-1,2,0,2C413,46.667,413,44.667,411,44.667z"/>
			<path style="fill:#E1F9FF;" d="M425,35.333c-1,0-1,2,0,2C427,37.333,427,35.333,425,35.333z"/>
			<path style="fill:#E1F9FF;" d="M431.5,36.333V37c0,1.287,2,1.289,2,0v-0.667C433.5,35.046,431.5,35.044,431.5,36.333z"/>
			<path style="fill:#E1F9FF;" d="M430.167,44v0.333c0,1.287,2,1.289,2,0V44C432.167,42.713,430.167,42.711,430.167,44z"/>
			<path style="fill:#E1F9FF;" d="M428.675,45.829c-0.222,0.113-0.443,0.225-0.665,0.338c-1.148,0.583-0.137,2.309,1.009,1.727
				c0.222-0.113,0.443-0.225,0.665-0.338C430.833,46.973,429.821,45.247,428.675,45.829z"/>
			<path style="fill:#E1F9FF;" d="M445,42c-2,0-2,2,0,2C446,44,446,42,445,42z"/>
			<path style="fill:#E1F9FF;" d="M441.874,35.293c-0.111-0.111-0.222-0.222-0.333-0.333c-0.532-0.533-1.225-0.264-1.537,0.227
				c-0.352-0.236-0.823-0.282-1.21,0.106l-0.333,0.333c-0.911,0.911,0.503,2.326,1.414,1.414l0.333-0.333
				c0.048-0.048,0.065-0.101,0.101-0.152c0.051,0.051,0.101,0.101,0.152,0.152C441.371,37.618,442.785,36.205,441.874,35.293z"/>
			<path style="fill:#E1F9FF;" d="M406,39.667c-1,0-1,2,0,2C408,41.667,408,39.667,406,39.667z"/>
			<path style="fill:#E1F9FF;" d="M342.731,42.423c-0.112-0.333-0.224-0.666-0.336-0.999c-0.408-1.214-2.341-0.693-1.929,0.532
				c0.112,0.333,0.224,0.666,0.336,0.999C341.211,44.168,343.143,43.648,342.731,42.423z"/>
			<path style="fill:#E1F9FF;" d="M344,38.667c-1,0-1,2,0,2C346,40.667,346,38.667,344,38.667z"/>
			<path style="fill:#E1F9FF;" d="M348,41.333c-2,0-2,2,0,2C349,43.333,349,41.333,348,41.333z"/>
			<path style="fill:#E1F9FF;" d="M352.167,42.333c-0.817,0-1.112,0.804-0.892,1.392c-0.758,0.287-0.689,1.941,0.225,1.941
				c1.386,0,1.789-0.952,1.253-1.542C353.392,43.622,353.207,42.333,352.167,42.333z"/>
			<path style="fill:#E1F9FF;" d="M354.931,35.708c-0.332,0.224-0.664,0.448-0.997,0.672c-0.017,0.011-0.029,0.025-0.044,0.037
				c-0.879-0.386-1.908,0.813-1.097,1.624l0.333,0.333c0.49,0.49,1.114,0.301,1.456-0.114c0.118-0.023,0.239-0.071,0.362-0.153
				c0.332-0.224,0.664-0.448,0.997-0.672C357.002,36.719,356.002,34.986,354.931,35.708z"/>
			<path style="fill:#E1F9FF;" d="M360,37.333c-1,0-1,2,0,2C362,39.333,362,37.333,360,37.333z"/>
			<path style="fill:#E1F9FF;" d="M362,40c-2,0-2,2,0,2C363,42,363,40,362,40z"/>
			<path style="fill:#E1F9FF;" d="M365.874,40.293c-0.111-0.111-0.222-0.222-0.333-0.333c-0.911-0.911-2.326,0.503-1.414,1.414
				c0.111,0.111,0.222,0.222,0.333,0.333C365.371,42.618,366.785,41.205,365.874,40.293z"/>
			<path style="fill:#E1F9FF;" d="M369.126,42.626c-0.111,0.111-0.222,0.222-0.333,0.333c-0.911,0.911,0.502,2.326,1.414,1.414
				c0.111-0.111,0.222-0.222,0.333-0.333C371.452,43.129,370.038,41.715,369.126,42.626z"/>
			<path style="fill:#E1F9FF;" d="M359.424,42.035C359.176,41.82,359,41.667,358,41.667s-1,2,0,2s0.411-0.024,0.495-0.032
				c0.16,0.214,0.406,0.365,0.755,0.365C360.471,44,360.521,42.221,359.424,42.035z"/>
			<path style="fill:#E1F9FF;" d="M366,43.333c-2,0-2,2,0,2C367,45.333,367,43.333,366,43.333z"/>
			<path style="fill:#E1F9FF;" d="M369,36.667c-1,0-1,2,0,2C371,38.667,371,36.667,369,36.667z"/>
			<path style="fill:#E1F9FF;" d="M373.122,34.361c-0.273-0.783-1.612-0.971-1.907,0.045c-0.325,1.119,0.752,2.205,1.875,1.87
				C374.107,35.974,373.915,34.619,373.122,34.361z"/>
			<path style="fill:#E1F9FF;" d="M377,38.667c-1,0-1,2,0,2C379,40.667,379,38.667,377,38.667z"/>
			<path style="fill:#E1F9FF;" d="M378,43c-1,0-1,2,0,2C380,45,380,43,378,43z"/>
			<path style="fill:#E1F9FF;" d="M377.31,48.866c-0.227-0.1-0.454-0.201-0.681-0.301c-0.494-0.218-1.074-0.144-1.368,0.359
				c-0.249,0.425-0.138,1.149,0.359,1.368c0.227,0.1,0.454,0.201,0.681,0.301c0.494,0.218,1.074,0.144,1.368-0.359
				C377.918,49.809,377.807,49.085,377.31,48.866z"/>
			<path style="fill:#E1F9FF;" d="M381,47.333c-1,0-1,2,0,2C383,49.333,383,47.333,381,47.333z"/>
			<path style="fill:#E1F9FF;" d="M384,45.667c-1,0-1,2,0,2C386,47.667,386,45.667,384,45.667z"/>
			<path style="fill:#E1F9FF;" d="M386.995,41.136c-0.222,0.111-0.445,0.222-0.667,0.333c-1.151,0.576-0.14,2.301,1.01,1.727
				c0.222-0.111,0.444-0.222,0.667-0.333C389.156,42.288,388.144,40.562,386.995,41.136z"/>
			<path style="fill:#E1F9FF;" d="M390.126,39.293c-0.111,0.111-0.222,0.222-0.333,0.333c-0.911,0.911,0.502,2.326,1.414,1.414
				c0.111-0.111,0.222-0.222,0.333-0.333C392.452,39.796,391.038,38.381,390.126,39.293z"/>
		</g>
	</g>
</g>
<g id="Layer_1">
</g>
</svg>
