<?xml version="1.0" encoding="iso-8859-1"?>
<!-- Generator: Adobe Illustrator 19.1.1, SVG Export Plug-In . SVG Version: 6.00 Build 0)  -->
<svg version="1.1" xmlns="http://www.w3.org/2000/svg" xmlns:xlink="http://www.w3.org/1999/xlink" x="0px" y="0px"
	 viewBox="0 0 100 100" style="enable-background:new 0 0 100 100;" xml:space="preserve">
<g id="quastion">
	<g>
		<circle style="fill:#0D70FF;" cx="-650" cy="700" r="50"/>
		<linearGradient id="SVGID_1_" gradientUnits="userSpaceOnUse" x1="-661.4099" y1="651.8211" x2="-638.7588" y2="747.4666">
			<stop  offset="0" style="stop-color:#091A57"/>
			<stop  offset="1" style="stop-color:#091A32"/>
		</linearGradient>
		<circle style="fill:url(#SVGID_1_);" cx="-650" cy="700" r="49"/>
		<linearGradient id="SVGID_2_" gradientUnits="userSpaceOnUse" x1="-671.9515" y1="662.3921" x2="-623.5295" y2="746.0494">
			<stop  offset="0" style="stop-color:#091A57;stop-opacity:0.1"/>
			<stop  offset="1" style="stop-color:#020919"/>
		</linearGradient>
		<path style="fill:url(#SVGID_2_);" d="M-696.651,715.004C-690.313,734.725-671.827,749-650,749c27.062,0,49-21.938,49-49
			c0-6.928-1.439-13.519-4.034-19.492C-607.682,770.159-675.71,657.111-696.651,715.004z"/>
		<path style="opacity:0.1;fill:#5271AF;" d="M-649.221,674.948c11.289,3.234,20.039-17.289,7.205-23.29
			C-644.615,651.232-647.28,651-650,651c-27.062,0-49,21.938-49,49c0,1.814,0.106,3.603,0.298,5.365
			C-695.432,689.659-691.878,662.727-649.221,674.948z"/>
	</g>
	<g>
		
			<ellipse transform="matrix(0.892 0.4521 -0.4521 0.892 231.6398 358.2018)" style="opacity:0.3;fill:#3887F9;" cx="-633.682" cy="663.784" rx="7.25" ry="2.875"/>
		<ellipse style="opacity:0.3;fill:#3887F9;" cx="-621.994" cy="671.972" rx="2.188" ry="1.938"/>
	</g>
	<g id="Layer_5_copy">
		<g>
			<g>
				<path d="M-650,737.602c-6.711,0-12.172-5.46-12.172-12.172s5.46-12.172,12.172-12.172s12.172,5.46,12.172,12.172
					S-643.289,737.602-650,737.602z M-650,717.258c-4.506,0-8.172,3.666-8.172,8.172s3.666,8.172,8.172,8.172
					s8.172-3.666,8.172-8.172S-645.494,717.258-650,717.258z"/>
				<path d="M-650.109,707.088c-0.601,0-3.206-0.118-5.1-1.953c-0.856-0.83-1.877-2.339-1.877-4.813
					c0-5.335,4.512-7.173,6.897-7.399l0.189-0.009c4.506,0,8.172-3.666,8.172-8.172s-3.666-8.172-8.172-8.172
					s-8.172,3.666-8.172,8.172c0,2.849-1.845,7.086-6.927,7.086c-5.383,0-7.09-4.554-7.241-6.961l-0.004-0.125
					c0-12.32,10.023-22.344,22.344-22.344s22.344,10.023,22.344,22.344S-637.68,707.086-650,707.086
					C-650.021,707.087-650.057,707.088-650.109,707.088z M-649.879,696.913c-0.664,0.089-3.207,0.613-3.207,3.409
					c0,0.866,0.212,1.497,0.649,1.928c0.712,0.703,1.978,0.802,2.391,0.837c10.161-0.001,18.39-8.229,18.39-18.345
					s-8.229-18.344-18.344-18.344c-10.089,0-18.302,8.187-18.344,18.266c0.073,0.793,0.525,3.164,3.245,3.164
					c2.786,0,2.927-2.57,2.927-3.086c0-6.712,5.46-12.172,12.172-12.172s12.172,5.46,12.172,12.172
					C-637.828,691.413-643.223,696.848-649.879,696.913z"/>
			</g>
			<g>
				<path style="fill:#00C4FF;" d="M-650,715.258c-5.622,0-10.172,4.55-10.172,10.172c0,5.622,4.55,10.172,10.172,10.172
					c5.622,0,10.172-4.55,10.172-10.172C-639.828,719.808-644.378,715.258-650,715.258z"/>
				<path style="fill:#00C4FF;" d="M-665.099,689.828c4.927,0,4.927-5.086,4.927-5.086c0-5.617,4.55-10.172,10.172-10.172
					c5.622,0,10.172,4.555,10.172,10.172s-4.55,10.172-10.172,10.172c0,0-5.086,0.482-5.086,5.408c0,4.922,5.086,4.763,5.086,4.763
					c11.235,0,20.344-9.109,20.344-20.344s-9.109-20.344-20.344-20.344c-11.235,0-20.344,9.109-20.344,20.344
					C-670.344,684.742-670.025,689.828-665.099,689.828z"/>
			</g>
		</g>
	</g>
</g>
<g id="Layer_1">
</g>
</svg>
