<?xml version="1.0" encoding="iso-8859-1"?>
<!-- Generator: Adobe Illustrator 19.1.1, SVG Export Plug-In . SVG Version: 6.00 Build 0)  -->
<svg version="1.1" xmlns="http://www.w3.org/2000/svg" xmlns:xlink="http://www.w3.org/1999/xlink" x="0px" y="0px"
	 viewBox="0 0 100 100" style="enable-background:new 0 0 100 100;" xml:space="preserve">
<g id="repeat">
	<g>
		<circle style="fill:#0D70FF;" cx="50" cy="50" r="50"/>
		<linearGradient id="SVGID_1_" gradientUnits="userSpaceOnUse" x1="38.5901" y1="1.8211" x2="61.2412" y2="97.4666">
			<stop  offset="0" style="stop-color:#091A57"/>
			<stop  offset="1" style="stop-color:#091A32"/>
		</linearGradient>
		<circle style="fill:url(#SVGID_1_);" cx="50" cy="50" r="49"/>
		<linearGradient id="SVGID_2_" gradientUnits="userSpaceOnUse" x1="28.0486" y1="12.3921" x2="76.4706" y2="96.0494">
			<stop  offset="0" style="stop-color:#091A57;stop-opacity:0.1"/>
			<stop  offset="1" style="stop-color:#020919"/>
		</linearGradient>
		<path style="fill:url(#SVGID_2_);" d="M3.349,65.004C9.687,84.725,28.173,99,50,99c27.062,0,49-21.938,49-49
			c0-6.928-1.439-13.519-4.034-19.492C92.318,120.159,24.29,7.111,3.349,65.004z"/>
		<path style="opacity:0.1;fill:#5271AF;" d="M50.779,24.948c11.289,3.234,20.039-17.289,7.205-23.29C55.385,1.232,52.72,1,50,1
			C22.938,1,1,22.938,1,50c0,1.814,0.106,3.603,0.298,5.365C4.568,39.659,8.122,12.727,50.779,24.948z"/>
	</g>
	<path d="M50.028,82c-8.546,0-16.581-3.329-22.625-9.375C21.36,66.584,18.032,58.549,18.032,50c0-8.544,3.331-16.579,9.379-22.626
		C33.454,21.329,41.493,18,50.045,18c6.77,0,13.151,2.04,18.568,5.917l4.386-4.359c1.515-1.517,3.723-1.981,5.723-1.15
		C80.778,19.26,82,21.239,82,23.334v17.777C82,43.983,79.742,46,76.693,46H58.916c-2.169,0-4.103-1.081-4.927-3.069
		c-0.825-1.994-0.371-4.166,1.156-5.694l2.449-2.397c-2.327-1.17-4.903-1.755-7.567-1.755c-4.511,0-8.751,1.77-11.94,4.96
		c-3.191,3.19-4.949,7.438-4.949,11.948c0,4.511,1.757,8.754,4.947,11.944c3.19,3.191,7.431,4.95,11.941,4.95
		s8.751-1.756,11.941-4.946c0.991-0.992,2.365-1.562,3.771-1.562c1.426,0,2.766,0.556,3.772,1.564l3.142,3.141
		c2.078,2.078,2.079,5.461,0.002,7.541C66.609,78.671,58.574,82,50.028,82z M50.045,22c-7.484,0-14.518,2.913-19.806,8.202
		C24.947,35.494,22.032,42.524,22.032,50c0,7.479,2.912,14.511,8.2,19.797C35.52,75.087,42.551,78,50.028,78
		s14.508-2.913,19.797-8.203c0.519-0.52,0.519-1.366-0.001-1.886l-3.143-3.142c-0.5-0.5-1.387-0.501-1.885-0.001
		c-3.946,3.947-9.191,6.12-14.77,6.12c-5.58,0-10.825-2.174-14.77-6.12c-3.945-3.944-6.119-9.189-6.119-14.769
		c0-5.578,2.173-10.824,6.12-14.77c3.944-3.946,9.189-6.119,14.769-6.119c4.311,0,8.439,1.295,11.939,3.744l1.953,1.367
		l-5.946,5.946c-0.385,0.386-0.496,0.731-0.289,1.232C57.887,41.888,58.37,42,58.916,42h17.777C77.498,42,78,41.754,78,41.111
		V23.334c0-0.474-0.258-1.003-0.811-1.232l0.079-0.001c-0.509-0.208-1.108-0.087-1.483,0.289l-6.873,6.85l-1.385-1.119
		C62.539,24.116,56.499,22,50.045,22z"/>
	<path style="fill:#00C4FF;" d="M77.955,20.254c-1.244-0.517-2.673-0.232-3.625,0.723l-5.58,5.583
		C63.451,22.309,56.916,20,50.025,20c-8.013,0-15.545,3.122-21.21,8.788C23.148,34.454,20.027,41.987,20.027,50
		s3.122,15.546,8.788,21.211C34.481,76.878,42.014,80,50.027,80c8.013,0,15.546-3.122,21.212-8.789
		c1.301-1.302,1.301-3.412-0.001-4.714l-3.142-3.142c-0.625-0.626-1.473-0.977-2.358-0.977c-0.884,0-1.732,0.352-2.357,0.977
		c-3.567,3.568-8.309,5.534-13.354,5.534c-5.045,0-9.788-1.965-13.356-5.535c-3.568-3.566-5.533-8.309-5.533-13.354
		c0-5.045,1.965-9.788,5.535-13.355c3.567-3.568,8.31-5.534,13.354-5.534c3.916,0,7.65,1.184,10.793,3.383l-4.261,4.261
		c-0.953,0.953-1.238,2.164-0.722,3.41C56.352,43.41,57.568,44,58.916,44h17.777C78.534,44,80,42.952,80,41.112V23.333
		C80,21.985,79.201,20.77,77.955,20.254z"/>
	<g>
		
			<ellipse transform="matrix(0.892 0.4521 -0.4521 0.892 13.3965 -28.4936)" style="opacity:0.3;fill:#3887F9;" cx="66.318" cy="13.784" rx="7.25" ry="2.875"/>
		<ellipse style="opacity:0.3;fill:#3887F9;" cx="78.006" cy="21.972" rx="2.188" ry="1.938"/>
	</g>
</g>
<g id="Layer_1">
</g>
</svg>
