<?xml version="1.0" encoding="iso-8859-1"?>
<!-- Generator: Adobe Illustrator 19.1.1, SVG Export Plug-In . SVG Version: 6.00 Build 0)  -->
<svg version="1.1" xmlns="http://www.w3.org/2000/svg" xmlns:xlink="http://www.w3.org/1999/xlink" x="0px" y="0px"
	 viewBox="0 0 100 100" style="enable-background:new 0 0 100 100;" xml:space="preserve">
<g id="search">
	<g>
		<circle style="fill:#0D70FF;" cx="50" cy="50" r="50"/>
		<linearGradient id="SVGID_1_" gradientUnits="userSpaceOnUse" x1="38.5901" y1="1.8211" x2="61.2412" y2="97.4666">
			<stop  offset="0" style="stop-color:#091A57"/>
			<stop  offset="1" style="stop-color:#091A32"/>
		</linearGradient>
		<circle style="fill:url(#SVGID_1_);" cx="50" cy="50" r="49"/>
		<linearGradient id="SVGID_2_" gradientUnits="userSpaceOnUse" x1="28.0486" y1="12.3921" x2="76.4706" y2="96.0494">
			<stop  offset="0" style="stop-color:#091A57;stop-opacity:0.1"/>
			<stop  offset="1" style="stop-color:#020919"/>
		</linearGradient>
		<path style="fill:url(#SVGID_2_);" d="M3.349,65.004C9.687,84.725,28.173,99,50,99c27.062,0,49-21.938,49-49
			c0-6.928-1.439-13.519-4.034-19.492C92.318,120.159,24.29,7.111,3.349,65.004z"/>
		<path style="opacity:0.1;fill:#5271AF;" d="M50.779,24.948c11.289,3.234,20.039-17.289,7.205-23.29C55.385,1.232,52.72,1,50,1
			C22.938,1,1,22.938,1,50c0,1.814,0.106,3.603,0.298,5.365C4.568,39.659,8.122,12.727,50.779,24.948z"/>
	</g>
	<path d="M72.857,84.828l-21.53-21.53c-3.379,1.604-6.895,2.417-10.47,2.417C27.151,65.715,16,54.563,16,40.857S27.151,16,40.857,16
		s24.857,11.151,24.857,24.857c0,3.575-0.813,7.091-2.417,10.47l21.53,21.53L72.857,84.828z M52.072,58.387l20.785,20.785
		l6.314-6.314L58.387,52.072l0.713-1.313c1.735-3.193,2.615-6.524,2.615-9.902C61.715,29.356,52.358,20,40.857,20
		S20,29.356,20,40.857s9.356,20.857,20.857,20.857c3.378,0,6.709-0.88,9.902-2.615L52.072,58.387z M40.857,56.571
		c-8.665,0-15.715-7.049-15.715-15.714s7.05-15.715,15.715-15.715s15.714,7.05,15.714,15.715S49.522,56.571,40.857,56.571z
		 M40.857,29.142c-6.46,0-11.715,5.255-11.715,11.715c0,6.459,5.255,11.714,11.715,11.714c6.459,0,11.714-5.255,11.714-11.714
		C52.571,34.397,47.316,29.142,40.857,29.142z"/>
	<path style="fill:#00C4FF;" d="M60.857,51.714c1.764-3.246,2.857-6.907,2.857-10.857C63.714,28.232,53.482,18,40.857,18
		C28.232,18,18,28.232,18,40.857s10.232,22.857,22.857,22.857c3.951,0,7.611-1.093,10.857-2.857L72.857,82L82,72.857L60.857,51.714z
		 M40.857,54.571c-7.576,0-13.714-6.139-13.714-13.714s6.138-13.714,13.714-13.714c7.576,0,13.714,6.139,13.714,13.714
		S48.433,54.571,40.857,54.571z"/>
	<g>
		
			<ellipse transform="matrix(0.892 0.4521 -0.4521 0.892 13.4012 -28.513)" style="opacity:0.3;fill:#3887F9;" cx="66.361" cy="13.784" rx="7.25" ry="2.875"/>
		<ellipse style="opacity:0.3;fill:#3887F9;" cx="78.049" cy="21.972" rx="2.188" ry="1.938"/>
	</g>
</g>
<g id="Layer_1">
</g>
</svg>
