<?xml version="1.0" encoding="iso-8859-1"?>
<!-- Generator: Adobe Illustrator 19.1.1, SVG Export Plug-In . SVG Version: 6.00 Build 0)  -->
<svg version="1.1" xmlns="http://www.w3.org/2000/svg" xmlns:xlink="http://www.w3.org/1999/xlink" x="0px" y="0px"
	 viewBox="0 0 100 100" style="enable-background:new 0 0 100 100;" xml:space="preserve">
<g id="setting">
	<g>
		<circle style="fill:#0D70FF;" cx="50" cy="50" r="50"/>
		<linearGradient id="SVGID_1_" gradientUnits="userSpaceOnUse" x1="38.5901" y1="1.8211" x2="61.2412" y2="97.4666">
			<stop  offset="0" style="stop-color:#091A57"/>
			<stop  offset="1" style="stop-color:#091A32"/>
		</linearGradient>
		<circle style="fill:url(#SVGID_1_);" cx="50" cy="50" r="49"/>
		<linearGradient id="SVGID_2_" gradientUnits="userSpaceOnUse" x1="28.0486" y1="12.3921" x2="76.4706" y2="96.0494">
			<stop  offset="0" style="stop-color:#091A57;stop-opacity:0.1"/>
			<stop  offset="1" style="stop-color:#020919"/>
		</linearGradient>
		<path style="fill:url(#SVGID_2_);" d="M3.349,65.004C9.687,84.725,28.173,99,50,99c27.062,0,49-21.938,49-49
			c0-6.928-1.439-13.519-4.034-19.492C92.318,120.159,24.29,7.111,3.349,65.004z"/>
		<path style="opacity:0.1;fill:#5271AF;" d="M50.779,24.948c11.289,3.234,20.039-17.289,7.205-23.29C55.385,1.232,52.72,1,50,1
			C22.938,1,1,22.938,1,50c0,1.814,0.106,3.603,0.298,5.365C4.568,39.659,8.122,12.727,50.779,24.948z"/>
	</g>
	<g>
		<path style="fill:#00C4FF;stroke:#000000;stroke-width:4;stroke-miterlimit:10;" d="M78,42h-5.367
			c-0.283-0.805-0.608-1.586-0.973-2.344l3.77-3.77c1.561-1.562,1.561-4.098,0-5.66l-5.658-5.656c-1.563-1.562-4.094-1.562-5.656,0
			l-3.768,3.77c-0.762-0.364-1.545-0.688-2.348-0.973V22c0-2.211-1.791-4-4-4h-8c-2.209,0-4,1.789-4,4v5.367
			c-0.803,0.281-1.586,0.609-2.346,0.973l-3.77-3.77c-1.56-1.562-4.094-1.562-5.656,0l-5.656,5.656c-1.563,1.563-1.563,4.098,0,5.66
			l3.769,3.77c-0.363,0.758-0.689,1.543-0.972,2.344H22c-2.209,0-4,1.789-4,4v8c0,2.211,1.791,4,4,4h5.369
			c0.283,0.805,0.609,1.586,0.972,2.344l-3.769,3.773c-1.563,1.563-1.563,4.094,0,5.657l5.656,5.656
			c1.563,1.562,4.096,1.562,5.656,0l3.77-3.766c0.76,0.36,1.543,0.688,2.346,0.969V78c0,2.211,1.791,4,4,4h8c2.209,0,4-1.789,4-4
			v-5.367c0.803-0.281,1.586-0.609,2.348-0.969l3.768,3.766c1.562,1.562,4.094,1.562,5.656,0l5.658-5.656
			c1.561-1.563,1.561-4.094,0-5.657l-3.77-3.77c0.365-0.762,0.69-1.543,0.973-2.348H78c2.209,0,4-1.789,4-4v-8
			C82,43.789,80.209,42,78,42z M78,52c0,1.106-0.895,2-2,2h-2.334h-4.07c-0.518,2.555-1.525,4.926-2.914,7.024l2.881,2.883
			l1.623,1.625c0.781,0.781,0.781,2.047,0,2.828l-2.828,2.828c-0.782,0.781-2.047,0.781-2.828,0l-1.623-1.625l-2.879-2.879
			c-2.1,1.391-4.472,2.398-7.027,2.918v4.066V76c0,1.106-0.895,2-2,2h-4c-1.104,0-2-0.894-2-2v-2.332v-4.066
			c-2.553-0.52-4.928-1.527-7.025-2.918l-3.116,3.113l-1.388,1.391c-0.781,0.781-2.047,0.781-2.828,0l-2.828-2.828
			c-0.781-0.781-0.781-2.047,0-2.828l1.625-1.625l2.879-2.883c-1.389-2.098-2.394-4.469-2.914-7.024H28h-1.666H26h-2
			c-1.104,0-2-0.894-2-2v-4c0-1.102,0.896-2,2-2h2h0.334H28h2.404c0.52-2.551,1.525-4.926,2.914-7.024l-2.879-2.883l-1.625-1.621
			c-0.781-0.781-0.781-2.051,0-2.832l2.828-2.828c0.782-0.781,2.047-0.781,2.828,0l1.625,1.625l2.879,2.879
			c2.098-1.391,4.472-2.394,7.025-2.918v-4.062V24c0-1.102,0.896-2,2-2h4c1.105,0,2,0.898,2,2v2.336v4.07
			c2.553,0.516,4.927,1.523,7.027,2.91l2.879-2.879l1.623-1.625c0.781-0.781,2.047-0.781,2.828,0l2.828,2.828
			c0.781,0.781,0.781,2.047,0,2.832l-1.623,1.621l-2.879,2.883c1.389,2.098,2.396,4.469,2.914,7.024h4.068H76c1.105,0,2,0.898,2,2
			V52z M50,38c-6.627,0-12,5.375-12,12c0,6.629,5.373,12,12,12c6.627,0,12-5.371,12-12C62,43.375,56.627,38,50,38z M50,56
			c-3.315,0-6-2.688-6-6c0-3.312,2.685-6,6-6c3.314,0,6,2.688,6,6C56,53.312,53.314,56,50,56z"/>
		<path style="display:none;fill:#99ECFF;" d="M78,52c0,1.106-0.895,2-2,2h-2.334h-4.07c-0.518,2.555-1.525,4.926-2.914,7.024
			l2.881,2.883l1.623,1.625c0.781,0.781,0.781,2.047,0,2.828l-2.828,2.828c-0.782,0.781-2.047,0.781-2.828,0l-1.623-1.625
			l-2.879-2.879c-2.1,1.391-4.472,2.398-7.027,2.918v4.066V76c0,1.106-0.895,2-2,2h-4c-1.104,0-2-0.894-2-2v-2.332v-4.066
			c-2.553-0.52-4.928-1.527-7.025-2.918l-3.116,3.113l-1.388,1.391c-0.781,0.781-2.047,0.781-2.828,0l-2.828-2.828
			c-0.781-0.781-0.781-2.047,0-2.828l1.625-1.625l2.879-2.883c-1.389-2.098-2.394-4.469-2.914-7.024H28h-1.666H26h-2
			c-1.104,0-2-0.894-2-2v-4c0-1.102,0.896-2,2-2h2h0.334H28h2.404c0.52-2.551,1.525-4.926,2.914-7.024l-2.879-2.883l-1.625-1.621
			c-0.781-0.781-0.781-2.051,0-2.832l2.828-2.828c0.782-0.781,2.047-0.781,2.828,0l1.625,1.625l2.879,2.879
			c2.098-1.391,4.472-2.394,7.025-2.918v-4.062V24c0-1.102,0.896-2,2-2h4c1.105,0,2,0.898,2,2v2.336v4.07
			c2.553,0.516,4.927,1.523,7.027,2.91l2.879-2.879l1.623-1.625c0.781-0.781,2.047-0.781,2.828,0l2.828,2.828
			c0.781,0.781,0.781,2.047,0,2.832l-1.623,1.621l-2.879,2.883c1.389,2.098,2.396,4.469,2.914,7.024h4.068H76c1.105,0,2,0.898,2,2
			V52z M50,38c-6.627,0-12,5.375-12,12c0,6.629,5.373,12,12,12c6.627,0,12-5.371,12-12C62,43.375,56.627,38,50,38z"/>
		<path style="fill:#00C4FF;" d="M78,42h-5.367c-0.283-0.805-0.608-1.586-0.973-2.344l3.77-3.77c1.561-1.562,1.561-4.098,0-5.66
			l-5.658-5.656c-1.563-1.562-4.094-1.562-5.656,0l-3.768,3.77c-0.762-0.364-1.545-0.688-2.348-0.973V22c0-2.211-1.791-4-4-4h-8
			c-2.209,0-4,1.789-4,4v5.367c-0.803,0.281-1.586,0.609-2.346,0.973l-3.77-3.77c-1.56-1.562-4.094-1.562-5.656,0l-5.656,5.656
			c-1.563,1.563-1.563,4.098,0,5.66l3.769,3.77c-0.363,0.758-0.689,1.543-0.972,2.344H22c-2.209,0-4,1.789-4,4v8
			c0,2.211,1.791,4,4,4h5.369c0.283,0.805,0.609,1.586,0.972,2.344l-3.769,3.773c-1.563,1.563-1.563,4.094,0,5.657l5.656,5.656
			c1.563,1.562,4.096,1.562,5.656,0l3.77-3.766c0.76,0.36,1.543,0.688,2.346,0.969V78c0,2.211,1.791,4,4,4h8c2.209,0,4-1.789,4-4
			v-5.367c0.803-0.281,1.586-0.609,2.348-0.969l3.768,3.766c1.562,1.562,4.094,1.562,5.656,0l5.658-5.656
			c1.561-1.563,1.561-4.094,0-5.657l-3.77-3.77c0.365-0.762,0.69-1.543,0.973-2.348H78c2.209,0,4-1.789,4-4v-8
			C82,43.789,80.209,42,78,42z M78,52c0,1.106-0.895,2-2,2h-2.334h-4.07c-0.518,2.555-1.525,4.926-2.914,7.024l2.881,2.883
			l1.623,1.625c0.781,0.781,0.781,2.047,0,2.828l-2.828,2.828c-0.782,0.781-2.047,0.781-2.828,0l-1.623-1.625l-2.879-2.879
			c-2.1,1.391-4.472,2.398-7.027,2.918v4.066V76c0,1.106-0.895,2-2,2h-4c-1.104,0-2-0.894-2-2v-2.332v-4.066
			c-2.553-0.52-4.928-1.527-7.025-2.918l-3.116,3.113l-1.388,1.391c-0.781,0.781-2.047,0.781-2.828,0l-2.828-2.828
			c-0.781-0.781-0.781-2.047,0-2.828l1.625-1.625l2.879-2.883c-1.389-2.098-2.394-4.469-2.914-7.024H28h-1.666H26h-2
			c-1.104,0-2-0.894-2-2v-4c0-1.102,0.896-2,2-2h2h0.334H28h2.404c0.52-2.551,1.525-4.926,2.914-7.024l-2.879-2.883l-1.625-1.621
			c-0.781-0.781-0.781-2.051,0-2.832l2.828-2.828c0.782-0.781,2.047-0.781,2.828,0l1.625,1.625l2.879,2.879
			c2.098-1.391,4.472-2.394,7.025-2.918v-4.062V24c0-1.102,0.896-2,2-2h4c1.105,0,2,0.898,2,2v2.336v4.07
			c2.553,0.516,4.927,1.523,7.027,2.91l2.879-2.879l1.623-1.625c0.781-0.781,2.047-0.781,2.828,0l2.828,2.828
			c0.781,0.781,0.781,2.047,0,2.832l-1.623,1.621l-2.879,2.883c1.389,2.098,2.396,4.469,2.914,7.024h4.068H76c1.105,0,2,0.898,2,2
			V52z M50,38c-6.627,0-12,5.375-12,12c0,6.629,5.373,12,12,12c6.627,0,12-5.371,12-12C62,43.375,56.627,38,50,38z M50,56
			c-3.315,0-6-2.688-6-6c0-3.312,2.685-6,6-6c3.314,0,6,2.688,6,6C56,53.312,53.314,56,50,56z"/>
	</g>
	<g>
		
			<ellipse transform="matrix(0.892 0.4521 -0.4521 0.892 13.3965 -28.4936)" style="opacity:0.3;fill:#3887F9;" cx="66.318" cy="13.784" rx="7.25" ry="2.875"/>
		<ellipse style="opacity:0.3;fill:#3887F9;" cx="78.006" cy="21.972" rx="2.188" ry="1.938"/>
	</g>
</g>
<g id="Layer_1">
</g>
</svg>
