<?xml version="1.0" encoding="iso-8859-1"?>
<!-- Generator: Adobe Illustrator 19.1.1, SVG Export Plug-In . SVG Version: 6.00 Build 0)  -->
<svg version="1.1" xmlns="http://www.w3.org/2000/svg" xmlns:xlink="http://www.w3.org/1999/xlink" x="0px" y="0px"
	 viewBox="0 0 100 100" style="enable-background:new 0 0 100 100;" xml:space="preserve">
<g id="share">
	<g>
		<circle style="fill:#0D70FF;" cx="50" cy="50" r="50"/>
		<linearGradient id="SVGID_1_" gradientUnits="userSpaceOnUse" x1="38.5901" y1="1.8211" x2="61.2412" y2="97.4666">
			<stop  offset="0" style="stop-color:#091A57"/>
			<stop  offset="1" style="stop-color:#091A32"/>
		</linearGradient>
		<circle style="fill:url(#SVGID_1_);" cx="50" cy="50" r="49"/>
		<linearGradient id="SVGID_2_" gradientUnits="userSpaceOnUse" x1="28.0486" y1="12.3921" x2="76.4706" y2="96.0494">
			<stop  offset="0" style="stop-color:#091A57;stop-opacity:0.1"/>
			<stop  offset="1" style="stop-color:#020919"/>
		</linearGradient>
		<path style="fill:url(#SVGID_2_);" d="M3.349,65.004C9.687,84.725,28.173,99,50,99c27.062,0,49-21.938,49-49
			c0-6.928-1.439-13.519-4.034-19.492C92.318,120.159,24.29,7.111,3.349,65.004z"/>
		<path style="opacity:0.1;fill:#5271AF;" d="M50.779,24.948c11.289,3.234,20.039-17.289,7.205-23.29C55.385,1.232,52.72,1,50,1
			C22.938,1,1,22.938,1,50c0,1.814,0.106,3.603,0.298,5.365C4.568,39.659,8.122,12.727,50.779,24.948z"/>
	</g>
	<path d="M58.909,84.975c-3.271,0-6.431-1.074-9.061-3.108c-5.305-4.103-7.156-11.114-4.733-17.206l-11.324-8.757
		c-5.286,3.875-12.539,3.846-17.844-0.256c-6.479-5.013-7.674-14.362-2.662-20.842c5.011-6.482,14.362-7.677,20.842-2.663
		c0.978,0.756,1.85,1.622,2.605,2.585l11.435-3.503c-0.34-3.719,0.729-7.438,3.044-10.431c2.429-3.14,5.934-5.146,9.869-5.648
		c3.941-0.498,7.833,0.559,10.973,2.986c6.48,5.012,7.675,14.361,2.663,20.842c-2.676,3.459-6.721,5.555-11.098,5.749l-0.168,0.008
		l-4.76-0.618c-1.746-0.521-3.366-1.354-4.817-2.478c-1.011-0.781-1.906-1.677-2.674-2.674l-11.376,3.487
		c0.23,2.344-0.1,4.71-0.965,6.899l11.328,8.761c2.457-1.793,5.419-2.794,8.5-2.849l0.17-0.003l4.759,0.756
		c1.597,0.53,3.081,1.32,4.412,2.35c6.48,5.012,7.675,14.361,2.663,20.842c-2.428,3.14-5.933,5.146-9.869,5.648
		C60.181,84.935,59.543,84.975,58.909,84.975z M33.638,50.729l16.523,12.778L49.362,65c-2.511,4.684-1.277,10.447,2.934,13.703
		c2.294,1.774,5.134,2.55,8.019,2.183c2.876-0.367,5.438-1.833,7.212-4.128s2.55-5.143,2.182-8.019
		c-0.367-2.876-1.833-5.437-4.128-7.212c-0.93-0.719-1.962-1.278-3.071-1.665l-3.914-0.598c-2.615,0.085-5.101,1.101-7.016,2.869
		l-1.243,1.148L33.814,50.504l0.799-1.491c1.232-2.3,1.591-4.972,1.01-7.521l-0.412-1.812l17.698-5.426l0.81,1.324
		c0.68,1.111,1.556,2.085,2.602,2.895c1.018,0.787,2.147,1.379,3.36,1.76l3.921,0.486c3.138-0.186,6.028-1.707,7.95-4.191
		c1.774-2.295,2.55-5.143,2.182-8.019c-0.367-2.876-1.833-5.438-4.128-7.212c-2.294-1.774-5.141-2.547-8.019-2.183
		c-2.876,0.368-5.438,1.834-7.212,4.128c-1.97,2.547-2.705,5.814-2.017,8.963l0.394,1.8l-17.697,5.421l-0.814-1.298
		c-0.682-1.084-1.543-2.033-2.561-2.82c-4.735-3.663-11.568-2.788-15.23,1.946s-2.79,11.567,1.945,15.23
		c4.212,3.256,10.099,3.002,14.002-0.606L33.638,50.729z M58.927,80.683c-2.26,0-4.535-0.72-6.456-2.205
		c-2.233-1.728-3.66-4.221-4.019-7.022c-0.358-2.801,0.396-5.574,2.124-7.808c1.728-2.233,4.221-3.66,7.022-4.019
		c2.798-0.354,5.571,0.397,7.807,2.124c4.611,3.566,5.462,10.219,1.896,14.83l0,0C65.221,79.272,62.089,80.683,58.927,80.683z
		 M58.951,63.543c-0.28,0-0.563,0.018-0.846,0.054c-1.741,0.223-3.292,1.109-4.365,2.498c-1.074,1.389-1.543,3.112-1.32,4.854
		s1.109,3.292,2.498,4.365c2.868,2.218,7.003,1.688,9.219-1.178l0,0c2.217-2.866,1.688-7.002-1.179-9.219
		C61.796,64.017,60.397,63.543,58.951,63.543z M25.015,54.469c-2.327,0-4.575-0.764-6.446-2.211
		c-2.233-1.728-3.66-4.221-4.019-7.022c-0.357-2.801,0.396-5.573,2.124-7.807c3.565-4.61,10.219-5.461,14.83-1.896
		c4.61,3.566,5.46,10.22,1.895,14.83c-1.728,2.233-4.221,3.66-7.022,4.019C25.922,54.44,25.467,54.469,25.015,54.469z
		 M25.045,37.327c-1.966,0-3.912,0.876-5.206,2.549c-2.217,2.866-1.688,7.001,1.178,9.218l0,0c1.39,1.074,3.112,1.541,4.854,1.32
		c1.741-0.223,3.292-1.109,4.365-2.498c2.217-2.866,1.688-7.002-1.178-9.219C27.863,37.773,26.449,37.327,25.045,37.327z
		 M62.952,40.452c-2.26,0-4.534-0.719-6.456-2.205c-2.233-1.727-3.661-4.221-4.019-7.022c-0.358-2.801,0.396-5.573,2.123-7.808
		c3.564-4.61,10.218-5.46,14.83-1.895c4.611,3.567,5.461,10.22,1.895,14.83l0,0C69.245,39.042,66.114,40.452,62.952,40.452z
		 M62.971,23.316c-1.967,0-3.913,0.876-5.206,2.548c-2.217,2.867-1.688,7.002,1.179,9.219c1.388,1.074,3.109,1.543,4.853,1.32
		c1.741-0.223,3.292-1.109,4.365-2.498l0,0c1.074-1.389,1.543-3.111,1.32-4.853s-1.109-3.292-2.498-4.366
		C65.789,23.763,64.375,23.316,62.971,23.316z"/>
	<path style="fill:#00C4FF;" d="M19.793,50.676c-3.744-2.896-4.432-8.28-1.536-12.024c2.896-3.744,8.28-4.432,12.024-1.536
		c3.744,2.896,4.432,8.28,1.536,12.024C28.921,52.884,23.537,53.572,19.793,50.676z M65.718,75.359
		c-2.896,3.744-8.28,4.432-12.024,1.536s-4.432-8.28-1.536-12.024c2.896-3.744,8.28-4.432,12.024-1.536
		C67.926,66.231,68.614,71.615,65.718,75.359z M58.722,57.26c-3.09,0.055-6.133,1.219-8.501,3.404L36.376,49.956
		c1.494-2.786,1.87-5.955,1.198-8.909l14.439-4.426c0.788,1.287,1.821,2.456,3.085,3.434c1.285,0.993,2.694,1.702,4.164,2.141
		l4.268,0.529c3.643-0.161,7.197-1.862,9.604-4.974c4.345-5.618,3.314-13.691-2.304-18.036c-5.618-4.345-13.691-3.314-18.036,2.304
		c-2.422,3.132-3.171,7.029-2.388,10.613l-14.471,4.433c-0.782-1.245-1.796-2.384-3.031-3.339
		c-5.618-4.345-13.691-3.314-18.036,2.304c-4.345,5.618-3.314,13.691,2.304,18.036c5.039,3.897,12.055,3.466,16.583-0.72
		l13.845,10.708c-2.912,5.435-1.566,12.334,3.473,16.231c5.618,4.345,13.691,3.314,18.036-2.304
		c4.345-5.618,3.314-13.691-2.304-18.036c-1.182-0.914-2.476-1.587-3.819-2.033L58.722,57.26z M69.743,35.129
		c-2.896,3.744-8.28,4.432-12.024,1.536c-3.744-2.896-4.432-8.28-1.536-12.024c2.896-3.744,8.28-4.432,12.024-1.536
		S72.639,31.384,69.743,35.129z"/>
	<g>
		
			<ellipse transform="matrix(0.892 0.4521 -0.4521 0.892 13.3965 -28.4936)" style="opacity:0.3;fill:#3887F9;" cx="66.318" cy="13.784" rx="7.25" ry="2.875"/>
		<ellipse style="opacity:0.3;fill:#3887F9;" cx="78.006" cy="21.972" rx="2.188" ry="1.938"/>
	</g>
</g>
<g id="Layer_1">
</g>
</svg>
