<?xml version="1.0" encoding="iso-8859-1"?>
<!-- Generator: Adobe Illustrator 19.1.1, SVG Export Plug-In . SVG Version: 6.00 Build 0)  -->
<svg version="1.1" xmlns="http://www.w3.org/2000/svg" xmlns:xlink="http://www.w3.org/1999/xlink" x="0px" y="0px"
	 viewBox="0 0 100 100" style="enable-background:new 0 0 100 100;" xml:space="preserve">
<g id="shop">
	<g>
		<circle style="fill:#0D70FF;" cx="50" cy="50" r="50"/>
		<linearGradient id="SVGID_1_" gradientUnits="userSpaceOnUse" x1="38.5901" y1="1.8211" x2="61.2412" y2="97.4666">
			<stop  offset="0" style="stop-color:#091A57"/>
			<stop  offset="1" style="stop-color:#091A32"/>
		</linearGradient>
		<circle style="fill:url(#SVGID_1_);" cx="50" cy="50" r="49"/>
		<linearGradient id="SVGID_2_" gradientUnits="userSpaceOnUse" x1="28.0486" y1="12.3921" x2="76.4706" y2="96.0494">
			<stop  offset="0" style="stop-color:#091A57;stop-opacity:0.1"/>
			<stop  offset="1" style="stop-color:#020919"/>
		</linearGradient>
		<path style="fill:url(#SVGID_2_);" d="M3.349,65.004C9.687,84.725,28.173,99,50,99c27.062,0,49-21.938,49-49
			c0-6.928-1.439-13.519-4.034-19.492C92.318,120.159,24.29,7.111,3.349,65.004z"/>
		<path style="opacity:0.1;fill:#5271AF;" d="M50.779,24.948c11.289,3.234,20.039-17.289,7.205-23.29C55.385,1.232,52.72,1,50,1
			C22.938,1,1,22.938,1,50c0,1.814,0.106,3.603,0.298,5.365C4.568,39.659,8.122,12.727,50.779,24.948z"/>
	</g>
	<g>
		<path d="M63.125,78.25c-4.204,0-7.625-3.421-7.625-7.625S58.921,63,63.125,63s7.625,3.421,7.625,7.625S67.329,78.25,63.125,78.25z
			 M63.125,67c-1.999,0-3.625,1.626-3.625,3.625s1.626,3.625,3.625,3.625c1.999,0,3.625-1.626,3.625-3.625S65.124,67,63.125,67z"/>
		<path d="M44.375,78.25c-4.204,0-7.625-3.421-7.625-7.625S40.171,63,44.375,63S52,66.421,52,70.625S48.579,78.25,44.375,78.25z
			 M44.375,67c-1.999,0-3.625,1.626-3.625,3.625s1.626,3.625,3.625,3.625S48,72.624,48,70.625S46.374,67,44.375,67z"/>
		<path d="M72.5,63.25H35c-3.109,0-5.65-2.481-5.747-5.567L24.555,29.5h-2.681C19.738,29.5,18,27.762,18,25.625
			s1.738-3.875,3.875-3.875h9.256l0.619,3.75H82l-0.021,6.033l-3.731,26.124C78.164,60.755,75.618,63.25,72.5,63.25z M36.697,55.5
			h34.068l3.179-22.25H33.028L36.697,55.5z"/>
	</g>
	<g>
		<path style="display:none;fill:#99ECFF;" d="M72.5,57.5H35l-4.329-26.25H76.25L72.5,57.5z"/>
		<path style="fill:#00C4FF;" d="M30.053,27.5l-0.619-3.75h-7.558c-1.037,0-1.875,0.839-1.875,1.875
			c0,1.037,0.838,1.875,1.875,1.875h4.374l5.001,30c0,2.073,1.679,3.75,3.75,3.75h37.5c2.071,0,3.75-1.677,3.75-3.75L80,31.25V27.5
			H30.053z M72.5,57.5H35l-4.329-26.25H76.25L72.5,57.5z"/>
		<path style="fill:#00C4FF;" d="M44.375,65c-3.107,0-5.625,2.52-5.625,5.625c0,3.105,2.518,5.625,5.625,5.625
			c3.107,0,5.625-2.52,5.625-5.625C50,67.52,47.482,65,44.375,65z"/>
		<path style="fill:#00C4FF;" d="M63.125,65c-3.107,0-5.625,2.52-5.625,5.625c0,3.105,2.518,5.625,5.625,5.625
			c3.107,0,5.625-2.52,5.625-5.625C68.75,67.52,66.232,65,63.125,65z"/>
	</g>
	<g>
		
			<ellipse transform="matrix(0.892 0.4521 -0.4521 0.892 13.4012 -28.513)" style="opacity:0.3;fill:#3887F9;" cx="66.361" cy="13.784" rx="7.25" ry="2.875"/>
		<ellipse style="opacity:0.3;fill:#3887F9;" cx="78.049" cy="21.972" rx="2.188" ry="1.938"/>
	</g>
</g>
<g id="Layer_1">
</g>
</svg>
