<?xml version="1.0" encoding="iso-8859-1"?>
<!-- Generator: Adobe Illustrator 19.1.1, SVG Export Plug-In . SVG Version: 6.00 Build 0)  -->
<svg version="1.1" xmlns="http://www.w3.org/2000/svg" xmlns:xlink="http://www.w3.org/1999/xlink" x="0px" y="0px"
	 viewBox="0 0 100 100" style="enable-background:new 0 0 100 100;" xml:space="preserve">
<g id="sound_off">
	<g>
		<circle style="fill:#0D70FF;" cx="50" cy="50" r="50"/>
		<linearGradient id="SVGID_1_" gradientUnits="userSpaceOnUse" x1="38.5901" y1="1.8211" x2="61.2412" y2="97.4666">
			<stop  offset="0" style="stop-color:#091A57"/>
			<stop  offset="1" style="stop-color:#091A32"/>
		</linearGradient>
		<circle style="fill:url(#SVGID_1_);" cx="50" cy="50" r="49"/>
		<linearGradient id="SVGID_2_" gradientUnits="userSpaceOnUse" x1="28.0486" y1="12.3921" x2="76.4706" y2="96.0494">
			<stop  offset="0" style="stop-color:#091A57;stop-opacity:0.1"/>
			<stop  offset="1" style="stop-color:#020919"/>
		</linearGradient>
		<path style="fill:url(#SVGID_2_);" d="M3.349,65.004C9.687,84.725,28.173,99,50,99c27.062,0,49-21.938,49-49
			c0-6.928-1.439-13.519-4.034-19.492C92.318,120.159,24.29,7.111,3.349,65.004z"/>
		<path style="opacity:0.1;fill:#5271AF;" d="M50.779,24.948c11.289,3.234,20.039-17.289,7.205-23.29C55.385,1.232,52.72,1,50,1
			C22.938,1,1,22.938,1,50c0,1.814,0.106,3.603,0.298,5.365C4.568,39.659,8.122,12.727,50.779,24.948z"/>
	</g>
	<g>
		<path d="M82.163,60.637c-1.11,0-2.155-0.432-2.942-1.215l-4.884-4.886l-4.88,4.882c-1.629,1.62-4.268,1.619-5.886,0l-0.855-0.853
			c-0.79-0.787-1.225-1.834-1.224-2.947c0.001-1.112,0.436-2.157,1.226-2.943l4.877-4.879l-4.881-4.883
			c-0.786-0.782-1.221-1.827-1.222-2.94c-0.001-1.111,0.433-2.156,1.22-2.942l0.862-0.859c1.614-1.617,4.255-1.619,5.88,0
			l4.883,4.884l4.88-4.881c0.791-0.788,1.836-1.22,2.946-1.22c0.003,0,0.007,0,0.011,0c1.11,0.003,2.151,0.438,2.933,1.224
			l0.849,0.847c0.791,0.789,1.226,1.837,1.225,2.95c0,1.112-0.436,2.157-1.226,2.942l-4.877,4.879l4.879,4.881
			c0.789,0.786,1.224,1.83,1.225,2.942c0,1.112-0.433,2.157-1.221,2.942l-0.861,0.858C84.323,60.202,83.277,60.637,82.163,60.637z
			 M66.513,38.954c-0.041,0-0.082,0.016-0.113,0.047l-0.865,0.862c-0.01,0.01-0.044,0.044-0.044,0.106
			c0,0.064,0.036,0.1,0.047,0.111l7.712,7.715l-7.708,7.711c-0.016,0.016-0.051,0.05-0.051,0.113c0,0.064,0.037,0.102,0.048,0.113
			l0.857,0.854c0.066,0.065,0.168,0.064,0.234-0.002l7.705-7.708l7.709,7.712c0.05,0.051,0.172,0.059,0.225,0.004l0.867-0.864
			c0.011-0.012,0.045-0.045,0.045-0.107c0-0.064-0.036-0.1-0.047-0.111l-7.712-7.715l7.707-7.711
			c0.016-0.016,0.051-0.051,0.051-0.113c0-0.065-0.037-0.103-0.049-0.114l-0.855-0.853c-0.018-0.018-0.05-0.051-0.113-0.051
			c-0.034-0.014-0.086,0.017-0.121,0.051l-7.706,7.708l-7.709-7.711C66.597,38.971,66.555,38.954,66.513,38.954z"/>
		<path d="M56.497,82.862H49.26L31.625,65.226H19.227c-3.534,0-6.409-2.875-6.409-6.409V41.183c0-3.534,2.875-6.409,6.409-6.409
			h12.398L49.26,17.139h7.237V82.862z M50.917,78.862h1.58V21.139h-1.58L33.282,38.773H19.227c-1.329,0-2.409,1.081-2.409,2.409
			v17.635c0,1.328,1.081,2.409,2.409,2.409h14.055L50.917,78.862z"/>
	</g>
	<g>
		<path style="fill:#00C4FF;" d="M84.545,54.092l-6.295-6.297l6.295-6.297c0.848-0.844,0.848-2.211,0-3.057l-0.857-0.854
			c-0.839-0.844-2.209-0.844-3.057,0l-6.294,6.297l-6.295-6.297c-0.848-0.844-2.213-0.844-3.057,0l-0.861,0.859
			c-0.844,0.842-0.844,2.209,0.004,3.053l6.295,6.297l-6.295,6.297c-0.848,0.844-0.848,2.211,0,3.057l0.857,0.854
			c0.844,0.844,2.209,0.844,3.057,0l6.295-6.297l6.294,6.297c0.848,0.844,2.218,0.844,3.057,0l0.861-0.859
			C85.394,56.303,85.394,54.936,84.545,54.092z"/>
		<path style="fill:#00C4FF;" d="M32.453,36.773H19.227c-2.437,0-4.409,1.974-4.409,4.409v17.635c0,2.435,1.972,4.409,4.409,4.409
			h13.227l17.635,17.635h4.409V19.138h-4.409L32.453,36.773z"/>
	</g>
	<g>
		
			<ellipse transform="matrix(0.892 0.4521 -0.4521 0.892 13.4012 -28.513)" style="opacity:0.3;fill:#3887F9;" cx="66.361" cy="13.784" rx="7.25" ry="2.875"/>
		<ellipse style="opacity:0.3;fill:#3887F9;" cx="78.049" cy="21.972" rx="2.188" ry="1.938"/>
	</g>
</g>
<g id="Layer_1">
</g>
</svg>
