<?xml version="1.0" encoding="iso-8859-1"?>
<!-- Generator: Adobe Illustrator 19.1.1, SVG Export Plug-In . SVG Version: 6.00 Build 0)  -->
<svg version="1.1" xmlns="http://www.w3.org/2000/svg" xmlns:xlink="http://www.w3.org/1999/xlink" x="0px" y="0px"
	 viewBox="0 0 100 100" style="enable-background:new 0 0 100 100;" xml:space="preserve">
<g id="sound">
	<g>
		<circle style="fill:#0D70FF;" cx="50" cy="50" r="50"/>
		<linearGradient id="SVGID_1_" gradientUnits="userSpaceOnUse" x1="38.5901" y1="1.8211" x2="61.2412" y2="97.4666">
			<stop  offset="0" style="stop-color:#091A57"/>
			<stop  offset="1" style="stop-color:#091A32"/>
		</linearGradient>
		<circle style="fill:url(#SVGID_1_);" cx="50" cy="50" r="49"/>
		<linearGradient id="SVGID_2_" gradientUnits="userSpaceOnUse" x1="28.0486" y1="12.3921" x2="76.4706" y2="96.0494">
			<stop  offset="0" style="stop-color:#091A57;stop-opacity:0.1"/>
			<stop  offset="1" style="stop-color:#020919"/>
		</linearGradient>
		<path style="fill:url(#SVGID_2_);" d="M3.349,65.004C9.687,84.725,28.173,99,50,99c27.062,0,49-21.938,49-49
			c0-6.928-1.439-13.519-4.034-19.492C92.318,120.159,24.29,7.111,3.349,65.004z"/>
		<path style="opacity:0.1;fill:#5271AF;" d="M50.779,24.948c11.289,3.234,20.039-17.289,7.205-23.29C55.385,1.232,52.72,1,50,1
			C22.938,1,1,22.938,1,50c0,1.814,0.106,3.603,0.298,5.365C4.568,39.659,8.122,12.727,50.779,24.948z"/>
	</g>
	<g>
		<path d="M66.567,85.934c-0.958,0-1.833-0.366-2.621-1.1c-0.776-0.723-1.178-1.696-1.134-2.742
			c0.105-2.479,2.727-4.769,3.621-5.478c7.997-7.195,12.581-17.444,12.581-28.131c0-10.678-4.577-20.919-12.561-28.113
			c-0.692-0.521-3.172-2.54-3.492-4.917c-0.14-1.037,0.126-2.015,0.77-2.826c0.688-0.866,1.605-1.369,2.654-1.453
			c2.26-0.189,4.33,1.686,5.432,2.69l0.185,0.168c9.814,8.781,15.442,21.339,15.442,34.451c0,13.275-5.747,25.937-15.768,34.74
			l-0.248,0.226C69.633,85.104,68.007,85.934,66.567,85.934z M67.059,15.265c0.308,0.546,1.095,1.394,1.846,1.944l0.153,0.123
			c8.87,7.955,13.957,19.309,13.957,31.151c0,11.842-5.087,23.195-13.957,31.15l-0.102,0.085c-0.786,0.62-1.595,1.509-1.957,2.104
			c0.32-0.147,0.851-0.516,1.719-1.315c0.121-0.111,0.228-0.21,0.319-0.29c9.156-8.043,14.407-19.609,14.407-31.734
			c0-11.977-5.143-23.446-14.11-31.471l-0.213-0.193C68.054,15.846,67.425,15.432,67.059,15.265z"/>
		<path d="M63.56,76.934c-0.024,0-0.047,0-0.071-0.001c-1.013-0.019-1.923-0.443-2.632-1.229c-0.761-0.842-1.13-1.865-1.07-2.962
			c0.112-2.032,1.67-3.604,2.118-4.016c5.319-5.452,8.249-12.639,8.249-20.243c0-7.594-2.92-14.771-8.225-20.22
			c-1.197-1.034-2.961-3.568-1.639-6.328c0.761-1.588,1.951-2.014,2.593-2.126c2.102-0.36,3.915,1.417,4.512,2.003
			c7.216,7.099,11.189,16.571,11.189,26.671c0,9.801-3.771,19.068-10.619,26.097C66.438,76.142,64.957,76.934,63.56,76.934z
			 M63.826,24.005c0.019,0.618,0.723,1.238,0.731,1.245l0.163,0.148c6.083,6.209,9.432,14.407,9.432,23.085
			c0,8.677-3.35,16.875-9.432,23.084l-0.101,0.096c-0.388,0.354-0.729,0.879-0.818,1.171c0.268-0.14,0.711-0.444,1.299-1.047
			c6.114-6.275,9.482-14.552,9.482-23.304c0-9.02-3.549-17.479-9.995-23.819C64.267,24.348,64.015,24.141,63.826,24.005z"/>
		<path d="M59.961,67.469c-0.936,0-1.789-0.362-2.424-1.035c-2.064-2.187-0.645-5.304-0.476-5.652l0.195-0.322
			c2.64-3.546,4.035-7.688,4.035-11.976s-1.396-8.43-4.035-11.977c-0.875-1.224-1.941-4.076,0.13-6.336
			c0.764-0.833,1.749-1.263,2.806-1.202c1.42,0.078,2.791,1.007,4.072,2.76c3.57,4.895,5.457,10.688,5.457,16.755
			c0,5.919-1.806,11.6-5.222,16.429l-0.004,0.006c-0.528,0.74-2.339,2.408-4.282,2.542C60.129,67.466,60.045,67.469,59.961,67.469z
			 M60.606,62.657c-0.071,0.187-0.123,0.392-0.151,0.574c0.305-0.191,0.635-0.458,0.795-0.65c2.926-4.146,4.472-9.02,4.472-14.098
			c0-5.214-1.621-10.192-4.687-14.396c-0.349-0.477-0.631-0.76-0.828-0.924c-0.072,0.451,0.291,0.999,0.295,1.006
			c3.12,4.191,4.789,9.158,4.789,14.313C65.292,53.562,63.672,58.458,60.606,62.657z"/>
		<path d="M56.43,81.497h-6.069L32.639,63.774H19.012c-3.56,0-6.457-2.885-6.457-6.431v-17.93c0-3.489,2.794-6.223,6.361-6.223
			h13.722l17.723-17.723h6.069V81.497z M52.019,77.497h0.412V19.469h-0.412L34.296,37.191H18.917c-1.39,0-2.361,0.914-2.361,2.223
			v17.93c0,1.34,1.102,2.431,2.457,2.431h15.284L52.019,77.497z"/>
	</g>
	<g>
		<path style="fill:#00C4FF;" d="M70.669,15.522c-0.947-0.848-3.777-3.66-5.369-1.653c-1.592,2.007,2.423,4.952,2.423,4.952
			c8.138,7.299,13.292,17.867,13.292,29.662s-5.153,22.363-13.292,29.662c0,0-4.357,3.416-2.414,5.225
			c1.791,1.666,4.197-0.9,5.049-1.648c9.238-8.115,15.087-19.979,15.087-33.238C85.444,35.373,79.725,23.626,70.669,15.522z"/>
		<path style="fill:#00C4FF;" d="M76.583,48.483c0-9.889-4.058-18.817-10.592-25.244c-0.857-0.844-2.86-2.606-3.898-0.439
			c-1.039,2.168,1.198,3.998,1.198,3.998c5.477,5.592,8.861,13.24,8.861,21.685c0,8.446-3.384,16.093-8.861,21.685
			c0,0-2.63,2.337-0.952,4.195c1.285,1.421,3.171-0.134,4.192-1.179C72.75,66.802,76.583,58.097,76.583,48.483z"/>
		<path style="fill:#00C4FF;" d="M62.868,63.756c3.055-4.318,4.855-9.582,4.855-15.273c0-5.826-1.882-11.202-5.071-15.574
			c-0.389-0.533-2.267-3.048-3.79-1.387c-1.523,1.661,0,3.79,0,3.79c2.747,3.691,4.431,8.216,4.431,13.171s-1.683,9.48-4.431,13.171
			c0,0-1.047,2.161,0.13,3.407C60.168,66.307,62.439,64.358,62.868,63.756z"/>
		<path style="fill:#00C4FF;" d="M33.468,35.191H18.917c-2.449,0-4.361,1.776-4.361,4.223v17.93c0,2.447,2.007,4.431,4.457,4.431
			h14.456L51.19,79.497h3.241V17.469H51.19L33.468,35.191z"/>
	</g>
	<g>
		
			<ellipse transform="matrix(0.892 0.4521 -0.4521 0.892 13.3965 -28.4936)" style="opacity:0.3;fill:#3887F9;" cx="66.318" cy="13.784" rx="7.25" ry="2.875"/>
		<ellipse style="opacity:0.3;fill:#3887F9;" cx="78.006" cy="21.972" rx="2.188" ry="1.938"/>
	</g>
</g>
<g id="Layer_1">
</g>
</svg>
