<?xml version="1.0" encoding="iso-8859-1"?>
<!-- Generator: Adobe Illustrator 19.1.1, SVG Export Plug-In . SVG Version: 6.00 Build 0)  -->
<svg version="1.1" xmlns="http://www.w3.org/2000/svg" xmlns:xlink="http://www.w3.org/1999/xlink" x="0px" y="0px"
	 viewBox="0 0 182 174.242" style="enable-background:new 0 0 182 174.242;" xml:space="preserve">
<g id="star">
	<g>
		<path style="fill:#FFF3CC;" d="M139.958,174.242c-7.61,0-18.551-6.069-29.135-11.941c-7.794-4.336-16.587-9.229-20.257-9.229
			c-3.851,0.044-12.982,5.031-20.32,9.038c-10.442,5.659-21.239,11.51-28.867,11.63c-2.698,0.053-4.987-0.589-6.856-1.924
			c-7.593-5.604-4.6-20.851-1.431-36.993l0.03-0.159c1.693-8.656,3.612-18.468,2.501-21.915
			c-1.119-3.477-8.426-10.411-14.873-16.528C8.801,84.907-2.483,74.219,0.478,65.263c2.948-8.91,18.329-10.78,34.614-12.761
			l0.111-0.014c8.383-1.016,18.815-2.28,21.819-4.418c2.965-2.156,7.482-11.638,11.113-19.257C75.189,14.052,81.829,0.157,91.141,0
			l0.261,0.035c9.35,0.016,15.896,14.098,22.825,29.007c3.752,8.072,7.993,17.196,10.948,19.352
			c2.925,2.167,21.97,4.664,21.97,4.664c16.227,2.146,31.553,4.172,34.412,13.109v0.001c2.843,8.953-8.494,19.491-20.495,30.648
			l-0.472,0.441c-6.349,5.925-13.546,12.641-14.673,16.027c-1.13,3.525,0.784,13.831,2.32,22.113
			c2.998,16.227,5.812,31.462-1.802,36.942c-1.704,1.227-3.805,1.867-6.247,1.903C140.113,174.241,140.034,174.242,139.958,174.242z
			 M90.559,152.066c3.936,0,12.851,4.96,20.716,9.336c10.506,5.828,21.332,11.834,28.68,11.834c0.073,0,0.145,0,0.218-0.002
			c2.232-0.032,4.141-0.609,5.675-1.713c7.097-5.108,4.339-20.039,1.419-35.846c-1.576-8.488-3.515-18.933-2.307-22.705
			c1.211-3.634,8.192-10.149,14.943-16.449l0.474-0.442c11.762-10.934,22.871-21.261,20.221-29.607
			c-2.666-8.328-17.685-10.314-33.586-12.417l-0.325-0.043c-8.895-1.166-18.977-2.488-22.11-4.808
			c-3.161-2.307-7.46-11.556-11.253-19.717C106.525,14.856,100.11,1.056,91.317,1.034l-0.251-0.035
			c-8.597,0.153-15.107,13.775-21.999,28.197c-3.894,8.174-8.281,17.382-11.457,19.691c-3.216,2.289-13.347,3.517-22.284,4.6
			l-0.112,0.013C19.254,55.441,4.18,57.275,1.433,65.58c-2.761,8.349,8.298,18.823,20.008,29.913
			c6.534,6.201,13.94,13.228,15.138,16.949c1.191,3.694-0.754,13.641-2.471,22.416l-0.031,0.159
			c-3.106,15.821-6.04,30.764,1.036,35.986c1.681,1.201,3.765,1.789,6.246,1.732c7.385-0.116,18.072-5.907,28.406-11.508
			C77.586,156.956,86.452,152.114,90.559,152.066z"/>
		<path style="opacity:0.3;fill:#FFFAEB;" d="M180.585,66.434c-2.76-8.625-17.951-10.596-34.036-12.723
			c-8.816-1.156-18.834-2.462-21.856-4.701c-3.045-2.222-7.291-11.361-11.045-19.439C106.82,14.884,100.356,1.028,91.316,1.006
			l-0.168-0.028c-8.961,0.151-15.493,13.839-22.437,28.371c-3.827,8.033-8.179,17.139-11.213,19.344
			c-3.067,2.183-13.085,3.411-21.929,4.483C19.501,55.129,4.288,56.96,1.45,65.541s8.263,19.126,20.029,30.269
			c6.459,6.13,13.772,13.074,14.923,16.647c1.151,3.573-0.799,13.488-2.503,22.202c-3.118,15.877-6.062,30.911,1.224,36.287
			c1.743,1.245,3.933,1.876,6.52,1.82c7.436-0.117,18.135-5.901,28.477-11.506c7.749-4.232,16.537-9.005,20.448-9.049
			c3.782,0,12.599,4.907,20.376,9.234c10.576,5.867,21.521,11.941,28.968,11.818c2.324-0.033,4.308-0.631,5.928-1.798
			c7.33-5.276,4.537-20.304,1.592-36.242c-1.62-8.731-3.436-18.668-2.291-22.241c1.184-3.556,8.582-10.412,15.102-16.497
			C172.115,85.448,183.322,75.059,180.585,66.434z"/>
		<path style="opacity:0.55;fill:#FFF0B9;" d="M175.608,67.583c-2.607-8.146-16.954-10.007-32.145-12.016
			c-8.326-1.091-17.787-2.325-20.642-4.439c-2.876-2.098-6.886-10.729-10.432-18.359C105.941,18.898,99.836,5.811,91.299,5.79
			L91.14,5.764c-8.464,0.142-14.632,13.07-21.191,26.795c-3.614,7.587-7.725,16.186-10.59,18.269
			c-2.897,2.062-12.358,3.221-20.711,4.234C23.474,56.907,9.105,58.636,6.425,66.74s7.804,18.063,18.917,28.587
			c6.1,5.789,13.007,12.348,14.094,15.722c1.087,3.374-0.755,12.738-2.364,20.968c-2.944,14.995-5.725,29.193,1.156,34.271
			c1.646,1.176,3.715,1.772,6.158,1.719c7.023-0.111,17.128-5.573,26.895-10.866c7.319-3.997,15.619-8.504,19.312-8.547
			c3.572,0,11.899,4.634,19.244,8.721c9.989,5.541,20.325,11.278,27.359,11.162c2.195-0.032,4.068-0.596,5.598-1.698
			c6.923-4.982,4.285-19.176,1.504-34.229c-1.53-8.246-3.245-17.631-2.163-21.005c1.119-3.359,8.105-9.833,14.263-15.58
			C167.609,85.541,178.193,75.729,175.608,67.583z"/>
		<path style="opacity:0.7;fill:#FEE586;" d="M170.631,68.733c-2.453-7.667-15.956-9.418-30.254-11.309
			c-7.837-1.027-16.741-2.188-19.428-4.178c-2.707-1.975-6.481-10.098-9.818-17.279c-6.069-13.056-11.815-25.372-19.85-25.392
			l-0.149-0.025c-7.966,0.134-13.771,12.302-19.944,25.218c-3.402,7.141-7.271,15.234-9.967,17.194
			c-2.726,1.94-11.631,3.032-19.492,3.985C27.446,58.684,13.923,60.312,11.4,67.939c-2.523,7.627,7.345,17.001,17.804,26.906
			c5.741,5.449,12.242,11.622,13.265,14.798c1.023,3.176-0.71,11.989-2.225,19.735c-2.771,14.113-5.388,27.476,1.088,32.255
			c1.549,1.107,3.496,1.667,5.796,1.618c6.61-0.104,16.12-5.245,25.313-10.227c6.888-3.761,14.7-8.004,18.176-8.044
			c3.362,0,11.199,4.362,18.112,8.208c9.401,5.215,19.13,10.614,25.75,10.505c2.066-0.03,3.829-0.561,5.269-1.598
			c6.516-4.689,4.033-18.048,1.415-32.215c-1.44-7.761-3.054-16.594-2.036-19.77c1.053-3.161,7.628-9.255,13.424-14.664
			C163.102,85.634,173.064,76.399,170.631,68.733z"/>
		<path style="opacity:0.85;fill:#FEDB54;" d="M165.654,69.882c-2.3-7.188-14.959-8.83-28.363-10.602
			c-7.347-0.963-15.695-2.052-18.214-3.917c-2.537-1.852-6.076-9.467-9.205-16.199c-5.689-12.24-11.076-23.786-18.609-23.805
			l-0.14-0.023c-7.468,0.126-12.911,11.533-18.698,23.642c-3.189,6.694-6.816,14.282-9.344,16.12
			c-2.556,1.819-10.904,2.842-18.274,3.736c-13.39,1.628-26.068,3.154-28.433,10.305s6.886,15.938,16.691,25.224
			c5.382,5.108,11.477,10.895,12.436,13.873s-0.666,11.24-2.086,18.502c-2.598,13.231-5.052,25.759,1.02,30.239
			c1.453,1.037,3.278,1.563,5.433,1.517c6.197-0.098,15.113-4.917,23.731-9.588c6.458-3.526,13.781-7.504,17.04-7.541
			c3.152,0,10.499,4.089,16.98,7.695c8.813,4.889,17.934,9.951,24.14,9.849c1.937-0.028,3.59-0.526,4.94-1.498
			c6.108-4.396,3.781-16.92,1.327-30.202c-1.35-7.276-2.863-15.557-1.909-18.534c0.987-2.963,7.151-8.676,12.585-13.747
			C158.596,85.727,167.935,77.069,165.654,69.882z"/>
		<path style="fill:#F4800C;" d="M162.668,70.571c-2.208-6.9-14.361-8.477-27.229-10.178c-7.053-0.924-15.067-1.97-17.485-3.76
			c-2.436-1.777-5.833-9.088-8.836-15.551c-5.462-11.75-10.633-22.835-17.865-22.853l-0.134-0.022
			c-7.169,0.121-12.394,11.071-17.95,22.697c-3.062,6.427-6.543,13.711-8.97,15.475c-2.454,1.746-10.468,2.729-17.543,3.586
			c-12.854,1.563-25.025,3.028-27.296,9.892s6.61,15.301,16.023,24.215c5.167,4.904,11.017,10.46,11.938,13.318
			s-0.639,10.79-2.002,17.762c-2.494,12.701-4.849,24.729,0.979,29.029c1.395,0.996,3.147,1.501,5.216,1.456
			c5.949-0.094,14.508-4.721,22.781-9.205c6.199-3.385,13.23-7.204,16.359-7.239c3.026,0,10.079,3.926,16.301,7.387
			c8.461,4.694,17.217,9.553,23.175,9.455c1.859-0.027,3.446-0.505,4.742-1.438c5.864-4.22,3.629-16.243,1.274-28.994
			c-1.296-6.985-2.749-14.935-1.833-17.793c0.948-2.845,6.865-8.329,12.081-13.197C155.892,85.783,164.858,77.471,162.668,70.571z"
			/>
		<path style="fill:#FDD021;" d="M160.677,71.031c-2.147-6.708-13.962-8.241-26.472-9.895c-6.857-0.899-14.648-1.915-16.999-3.656
			c-2.368-1.728-5.671-8.836-8.591-15.119c-5.31-11.424-10.338-22.201-17.369-22.218l-0.13-0.022
			c-6.97,0.117-12.05,10.764-17.451,22.066c-2.977,6.248-6.362,13.33-8.721,15.045c-2.386,1.698-10.177,2.653-17.056,3.487
			c-12.497,1.52-24.33,2.944-26.537,9.618c-2.207,6.674,6.427,14.876,15.578,23.542c5.023,4.768,10.711,10.169,11.607,12.948
			c0.895,2.779-0.621,10.49-1.947,17.268c-2.425,12.349-4.715,24.042,0.952,28.223c1.356,0.968,3.059,1.459,5.071,1.415
			c5.784-0.091,14.105-4.589,22.149-8.949c6.027-3.291,12.862-7.004,15.904-7.038c2.942,0,9.799,3.817,15.848,7.182
			c8.226,4.563,16.739,9.288,22.531,9.192c1.808-0.026,3.35-0.491,4.61-1.398c5.701-4.103,3.528-15.792,1.238-28.188
			c-1.26-6.791-2.672-14.52-1.782-17.299c0.921-2.766,6.675-8.098,11.746-12.831C154.09,85.82,162.807,77.74,160.677,71.031z"/>
		<linearGradient id="SVGID_1_" gradientUnits="userSpaceOnUse" x1="91.0013" y1="20.1211" x2="91.0013" y2="154.1211">
			<stop  offset="0" style="stop-color:#FDE444"/>
			<stop  offset="1" style="stop-color:#FDAA21"/>
		</linearGradient>
		<path style="fill:url(#SVGID_1_);" d="M160.677,71.031c-2.147-6.708-13.962-8.241-26.472-9.895
			c-6.857-0.899-14.648-1.915-16.999-3.656c-2.368-1.728-5.671-8.836-8.591-15.119c-5.31-11.424-10.338-22.201-17.369-22.218
			l-0.13-0.022c-6.97,0.117-12.05,10.764-17.451,22.066c-2.977,6.248-6.362,13.33-8.721,15.045
			c-2.386,1.698-10.177,2.653-17.056,3.487c-12.497,1.52-24.33,2.944-26.537,9.618c-2.207,6.674,6.427,14.876,15.578,23.542
			c5.023,4.768,10.711,10.169,11.607,12.948c0.895,2.779-0.621,10.49-1.947,17.268c-2.425,12.349-4.715,24.042,0.952,28.223
			c1.356,0.968,3.059,1.459,5.071,1.415c5.784-0.091,14.105-4.589,22.149-8.949c6.027-3.291,12.862-7.004,15.904-7.038
			c2.942,0,9.799,3.817,15.848,7.182c8.226,4.563,16.739,9.288,22.531,9.192c1.808-0.026,3.35-0.491,4.61-1.398
			c5.701-4.103,3.528-15.792,1.238-28.188c-1.26-6.791-2.672-14.52-1.782-17.299c0.921-2.766,6.675-8.098,11.746-12.831
			C154.09,85.82,162.807,77.74,160.677,71.031z"/>
		<linearGradient id="SVGID_2_" gradientUnits="userSpaceOnUse" x1="91.0013" y1="24.9068" x2="91.0013" y2="149.3354">
			<stop  offset="0" style="stop-color:#FDFFA5"/>
			<stop  offset="1" style="stop-color:#FDD021"/>
		</linearGradient>
		<path style="fill:url(#SVGID_2_);" d="M155.7,72.18c-1.993-6.229-12.965-7.652-24.581-9.189
			c-6.367-0.835-13.602-1.778-15.785-3.395c-2.199-1.605-5.266-8.205-7.977-14.039c-4.931-10.608-9.599-20.615-16.128-20.631
			l-0.121-0.02c-6.472,0.109-11.189,9.995-16.205,20.49c-2.764,5.802-5.907,12.378-8.098,13.97
			c-2.215,1.576-9.45,2.463-15.837,3.238c-11.605,1.411-22.592,2.734-24.642,8.931c-2.05,6.197,5.968,13.813,14.466,21.861
			c4.664,4.427,9.946,9.443,10.778,12.023s-0.577,9.741-1.808,16.035c-2.252,11.467-4.378,22.324,0.884,26.207
			c1.259,0.899,2.841,1.355,4.709,1.314c5.371-0.085,13.098-4.262,20.567-8.31c5.597-3.056,11.944-6.503,14.768-6.536
			c2.732,0,9.099,3.544,14.716,6.669c7.638,4.237,15.543,8.624,20.922,8.535c1.679-0.024,3.111-0.456,4.281-1.298
			c5.294-3.81,3.276-14.664,1.15-26.175c-1.17-6.306-2.482-13.483-1.654-16.063c0.855-2.568,6.198-7.519,10.907-11.914
			C149.583,85.913,157.678,78.41,155.7,72.18z"/>
		<linearGradient id="SVGID_3_" gradientUnits="userSpaceOnUse" x1="97.8851" y1="103.8643" x2="181.5277" y2="225.3296">
			<stop  offset="0" style="stop-color:#F7AC08"/>
			<stop  offset="1" style="stop-color:#F78600"/>
		</linearGradient>
		<path style="opacity:0.3;fill:url(#SVGID_3_);" d="M139.958,174.242c-7.61,0-18.551-6.069-29.135-11.941
			c-7.794-4.336-16.587-9.229-20.257-9.229c-3.851,0.044-12.982,5.031-20.32,9.038c-10.442,5.659-21.239,11.51-28.867,11.63
			c-2.698,0.053-4.987-0.589-6.856-1.924c75.521-37.314,1.771-134.064,112.298-118.801c1.869,0.779,31.765,1.925,34.738,13.151
			v0.001c2.843,8.953-8.494,19.491-20.495,30.648l-0.472,0.441c-6.349,5.925-13.546,12.641-14.673,16.027
			c-1.13,3.525,0.784,13.831,2.32,22.113c2.998,16.227,5.812,31.462-1.802,36.942c-1.704,1.227-3.805,1.867-6.247,1.903
			C140.113,174.241,140.034,174.242,139.958,174.242z"/>
		<linearGradient id="SVGID_4_" gradientUnits="userSpaceOnUse" x1="26.3335" y1="162.1619" x2="130.3335" y2="43.8286">
			<stop  offset="0.4373" style="stop-color:#FFF3CC;stop-opacity:0.2"/>
			<stop  offset="0.6147" style="stop-color:#FFF3CC"/>
			<stop  offset="0.8566" style="stop-color:#FFF3CC;stop-opacity:0.2"/>
		</linearGradient>
		<path style="fill:url(#SVGID_4_);" d="M34.522,171.817c0,0,0.64-0.355,1.84-1.022c1.216-0.639,2.929-1.697,5.089-3.055
			c2.118-1.425,4.696-3.161,7.375-5.494c2.69-2.311,5.546-5.126,8.295-8.498c2.736-3.379,5.359-7.324,7.536-11.805
			c2.221-4.459,4.004-9.419,5.5-14.65c1.469-5.243,2.575-10.779,3.514-16.445c0.941-5.668,1.722-11.468,2.706-17.265
			c1.033-5.782,2.255-11.588,4.292-17.088c2.009-5.485,4.964-10.661,9.016-14.613c4.002-4.019,8.998-6.548,13.837-8.12
			c4.864-1.605,9.665-2.237,14.064-2.587c2.205-0.17,4.32-0.222,6.331-0.242c2.01,0.05,3.916,0.044,5.702,0.175
			c1.787,0.093,3.457,0.2,4.996,0.357c1.541,0.128,2.955,0.266,4.227,0.431c2.55,0.274,4.539,0.596,5.896,0.804
			c1.357,0.206,2.081,0.316,2.081,0.316s-0.728-0.072-2.094-0.208c-1.365-0.146-3.368-0.335-5.92-0.524
			c-1.274-0.116-2.688-0.199-4.228-0.268c-1.538-0.097-3.204-0.14-4.983-0.163c-3.555-0.043-7.572,0.017-11.912,0.444
			c-4.327,0.446-9.025,1.183-13.693,2.848c-4.655,1.638-9.316,4.174-13.084,7.971c-3.799,3.765-6.577,8.694-8.484,14.021
			c-1.934,5.335-3.09,11.05-4.077,16.789c-1.021,5.739-1.847,11.54-2.838,17.234c-0.989,5.695-2.151,11.29-3.685,16.608
			c-0.78,2.655-1.632,5.244-2.614,7.726c-1.016,2.467-2.049,4.868-3.257,7.107c-2.329,4.522-5.101,8.488-7.968,11.863
			c-2.862,3.386-5.878,6.128-8.688,8.354c-2.797,2.252-5.459,3.901-7.641,5.25c-2.22,1.296-4.002,2.238-5.244,2.822
			C35.179,171.495,34.522,171.817,34.522,171.817z"/>
		<linearGradient id="SVGID_5_" gradientUnits="userSpaceOnUse" x1="42.2949" y1="30.5883" x2="90.7666" y2="80.7315">
			<stop  offset="0" style="stop-color:#FFF3CC;stop-opacity:0.8"/>
			<stop  offset="1" style="stop-color:#FFF3CC;stop-opacity:0.1"/>
		</linearGradient>
		<path style="fill:url(#SVGID_5_);" d="M91.382,10.405l-0.149-0.025c-7.987,0.134-13.807,12.334-19.996,25.284
			c-3.411,7.159-7.289,15.274-9.993,17.239c-2.734,1.945-11.661,3.04-19.543,3.995c-14.32,1.741-27.878,3.373-30.408,11.02
			c-0.59,1.783-0.497,3.662,0.114,5.619c15.572,11.057,42.089,8.132,64.04-8.36c16.736-12.574,26.643-29.896,27.622-45.41
			C99.578,14.19,95.83,10.416,91.382,10.405z"/>
		
			<ellipse transform="matrix(0.9185 0.3953 -0.3953 0.9185 21.396 -31.4248)" style="fill:#FFFAEB;" cx="86.95" cy="36.205" rx="4.158" ry="8.298"/>
		
			<ellipse transform="matrix(0.9185 0.3953 -0.3953 0.9185 26.9221 -26.9241)" style="fill:#FFFAEB;" cx="78.792" cy="51.864" rx="2.308" ry="4.607"/>
		
			<ellipse transform="matrix(0.3457 0.9384 -0.9384 0.3457 89.2623 13.7221)" style="fill:#FFFAEB;" cx="34.792" cy="70.864" rx="2.308" ry="4.607"/>
		
			<ellipse transform="matrix(0.3457 0.9384 -0.9384 0.3457 92.2952 2.9746)" style="fill:#FFFAEB;" cx="44.015" cy="67.665" rx="1.507" ry="3.008"/>
	</g>
</g>
<g id="Layer_1">
</g>
</svg>
