<?xml version="1.0" encoding="iso-8859-1"?>
<!-- Generator: Adobe Illustrator 19.1.1, SVG Export Plug-In . SVG Version: 6.00 Build 0)  -->
<svg version="1.1" xmlns="http://www.w3.org/2000/svg" xmlns:xlink="http://www.w3.org/1999/xlink" x="0px" y="0px"
	 viewBox="0 0 100 100" style="enable-background:new 0 0 100 100;" xml:space="preserve">
<g id="tweet">
	<g>
		<circle style="fill:#0D70FF;" cx="50" cy="50" r="50"/>
		<linearGradient id="SVGID_1_" gradientUnits="userSpaceOnUse" x1="38.5901" y1="1.8211" x2="61.2412" y2="97.4666">
			<stop  offset="0" style="stop-color:#091A57"/>
			<stop  offset="1" style="stop-color:#091A32"/>
		</linearGradient>
		<circle style="fill:url(#SVGID_1_);" cx="50" cy="50" r="49"/>
		<linearGradient id="SVGID_2_" gradientUnits="userSpaceOnUse" x1="28.0486" y1="12.3921" x2="76.4706" y2="96.0494">
			<stop  offset="0" style="stop-color:#091A57;stop-opacity:0.1"/>
			<stop  offset="1" style="stop-color:#020919"/>
		</linearGradient>
		<path style="fill:url(#SVGID_2_);" d="M3.349,65.004C9.687,84.725,28.173,99,50,99c27.062,0,49-21.938,49-49
			c0-6.928-1.439-13.519-4.034-19.492C92.318,120.159,24.29,7.111,3.349,65.004z"/>
		<path style="opacity:0.1;fill:#5271AF;" d="M50.779,24.948c11.289,3.234,20.039-17.289,7.205-23.29C55.385,1.232,52.72,1,50,1
			C22.938,1,1,22.938,1,50c0,1.814,0.106,3.603,0.298,5.365C4.568,39.659,8.122,12.727,50.779,24.948z"/>
	</g>
	<g>
		
			<ellipse transform="matrix(0.892 0.4521 -0.4521 0.892 13.4012 -28.513)" style="opacity:0.3;fill:#3887F9;" cx="66.361" cy="13.784" rx="7.25" ry="2.875"/>
		<ellipse style="opacity:0.3;fill:#3887F9;" cx="78.049" cy="21.972" rx="2.188" ry="1.938"/>
	</g>
	<g id="icons_-_round_copy">
		<path style="fill:#000E1E;" d="M39.304,75.979c-7.256,0-14.32-2.07-20.429-5.987l-7.337-4.705l8.655,1.036
			c0.891,0.106,1.823,0.16,2.772,0.16c3.695,0,7.243-0.838,10.462-2.45c-3.964-1.59-7.126-4.875-8.481-9.109l-1.027-3.21
			l0.566,0.109c-2.529-2.652-4.059-6.235-4.059-10.102l0.002-0.214l0.093-3.286L22,39.041c-0.956-1.965-1.473-4.148-1.473-6.406
			c0-2.584,0.686-5.127,1.983-7.352l1.455-2.495l1.824,2.238c5.545,6.806,13.517,11.185,22.155,12.244
			c-0.01-0.223-0.015-0.446-0.015-0.67c0-8.063,6.56-14.621,14.623-14.621c3.641,0,7.166,1.372,9.841,3.799
			c2.243-0.547,4.381-1.418,6.37-2.598l4.529-2.686l-1.604,5.016c-0.291,0.909-0.669,1.782-1.126,2.607
			c0.037-0.017,0.073-0.032,0.11-0.049l6.306-2.791l-3.834,5.732c-1.638,2.448-3.629,4.596-5.93,6.396
			c0.004,0.219,0.006,0.438,0.006,0.657C77.219,56.702,63.037,75.979,39.304,75.979z M27.98,70.032
			c3.615,1.283,7.438,1.947,11.323,1.947c21.229,0,33.915-17.244,33.915-33.915c0-0.518-0.012-1.03-0.035-1.542l-0.049-1.079
			l0.876-0.633c0.47-0.338,0.925-0.692,1.365-1.063c-0.302,0.046-0.605,0.087-0.909,0.124l-9.283,1.107l8.018-4.809
			c0.386-0.231,0.755-0.486,1.105-0.761c-0.709,0.2-1.428,0.373-2.155,0.517l-1.088,0.215l-0.759-0.81
			c-1.997-2.131-4.823-3.353-7.754-3.353c-5.857,0-10.623,4.765-10.623,10.621c0,0.828,0.092,1.643,0.274,2.42l0.605,2.587
			l-2.653-0.134c-9.594-0.48-18.645-4.62-25.295-11.478c-0.22,0.857-0.333,1.745-0.333,2.639c0,3.559,1.767,6.864,4.728,8.843
			l5.805,3.88l-6.979-0.218c-1.091-0.034-2.179-0.193-3.237-0.471c1.081,3.726,4.159,6.678,8.1,7.47l8.306,1.669l-8.176,2.222
			c-0.958,0.261-1.942,0.423-2.936,0.484c1.91,2.755,5.061,4.504,8.541,4.567l5.625,0.104l-4.428,3.471
			C36.347,67.421,32.302,69.24,27.98,70.032z"/>
		<path style="fill:#00C4FF;" d="M81.48,29.898c-2.265,1.003-4.697,1.682-7.25,1.987c2.606-1.563,4.608-4.036,5.551-6.984
			c-2.439,1.446-5.143,2.496-8.017,3.063c-2.301-2.455-5.583-3.985-9.213-3.985c-6.972,0-12.623,5.651-12.623,12.621
			c0,0.99,0.111,1.952,0.327,2.875c-10.489-0.525-19.795-5.55-26.017-13.186c-1.087,1.865-1.711,4.031-1.711,6.345
			c0,4.378,2.229,8.242,5.616,10.506c-2.069-0.065-4.014-0.633-5.717-1.576c-0.001,0.051-0.001,0.105-0.001,0.157
			c0,6.115,4.35,11.218,10.124,12.378c-1.06,0.287-2.175,0.442-3.325,0.442c-0.815,0-1.602-0.079-2.374-0.227
			c1.605,5.015,6.269,8.665,11.792,8.766c-4.322,3.387-9.763,5.403-15.677,5.403c-1.019,0-2.023-0.057-3.01-0.176
			c5.585,3.581,12.219,5.671,19.349,5.671c23.217,0,35.914-19.234,35.914-35.914c0-0.548-0.012-1.092-0.036-1.632
			C77.649,34.652,79.788,32.429,81.48,29.898z"/>
	</g>
</g>
<g id="Layer_1">
</g>
</svg>
