<?xml version="1.0" encoding="iso-8859-1"?>
<!-- Generator: Adobe Illustrator 19.1.1, SVG Export Plug-In . SVG Version: 6.00 Build 0)  -->
<svg version="1.1" xmlns="http://www.w3.org/2000/svg" xmlns:xlink="http://www.w3.org/1999/xlink" x="0px" y="0px"
	 viewBox="0 0 100 100" style="enable-background:new 0 0 100 100;" xml:space="preserve">
<g id="unlock">
	<g>
		<circle style="fill:#0D70FF;" cx="50" cy="50" r="50"/>
		<linearGradient id="SVGID_1_" gradientUnits="userSpaceOnUse" x1="38.5901" y1="1.8211" x2="61.2412" y2="97.4666">
			<stop  offset="0" style="stop-color:#091A57"/>
			<stop  offset="1" style="stop-color:#091A32"/>
		</linearGradient>
		<circle style="fill:url(#SVGID_1_);" cx="50" cy="50" r="49"/>
		<linearGradient id="SVGID_2_" gradientUnits="userSpaceOnUse" x1="28.0486" y1="12.3921" x2="76.4706" y2="96.0494">
			<stop  offset="0" style="stop-color:#091A57;stop-opacity:0.1"/>
			<stop  offset="1" style="stop-color:#020919"/>
		</linearGradient>
		<path style="fill:url(#SVGID_2_);" d="M3.349,65.004C9.687,84.725,28.173,99,50,99c27.062,0,49-21.938,49-49
			c0-6.928-1.439-13.519-4.034-19.492C92.318,120.159,24.29,7.111,3.349,65.004z"/>
		<path style="opacity:0.1;fill:#5271AF;" d="M50.779,24.948c11.289,3.234,20.039-17.289,7.205-23.29C55.385,1.232,52.72,1,50,1
			C22.938,1,1,22.938,1,50c0,1.814,0.106,3.603,0.298,5.365C4.568,39.659,8.122,12.727,50.779,24.948z"/>
	</g>
	<g>
		<path d="M68.75,84.409h-37.5c-4.225,0-7.932-3.813-7.932-8.159v-30c0-4.25,3.632-7.841,7.932-7.841h22.068V35
			c0-3.998-3.211-7.25-7.158-7.25c-1.903,0-3.644,0.734-5.034,2.124c-0.754,0.756-1.758,1.172-2.827,1.172
			c-1.068,0-2.072-0.416-2.828-1.173l-2.647-2.651c-0.755-0.755-1.17-1.762-1.167-2.834c0.004-1.064,0.421-2.065,1.174-2.819
			C36.417,17.977,41.195,16,46.284,16c10.496,0,19.034,8.523,19.034,19v3.409h3.432c4.173,0,7.568,3.518,7.568,7.841v30
			C76.318,80.673,72.852,84.409,68.75,84.409z M31.25,42.409c-2.094,0-3.932,1.795-3.932,3.841v30c0,2.138,1.911,4.159,3.932,4.159
			h37.5c2.103,0,3.568-2.192,3.568-4.159v-30c0-2.153-1.567-3.841-3.568-3.841h-7.432V35c0-8.271-6.744-15-15.034-15
			c-4.02,0-7.792,1.561-10.623,4.395l2.64,2.652c2.153-2.157,4.872-3.297,7.858-3.297c6.153,0,11.158,5.047,11.158,11.25v7.409
			H31.25z M68.318,76.409h-37v-30h37V76.409z M35.318,72.409h29v-22h-29V72.409z"/>
		<path d="M50,70.75c-3.17,0-5.75-2.579-5.75-5.75v-7.5c0-3.171,2.58-5.75,5.75-5.75s5.75,2.579,5.75,5.75V65
			C55.75,68.171,53.17,70.75,50,70.75z M50,55.75c-0.965,0-1.75,0.785-1.75,1.75V65c0,0.965,0.785,1.75,1.75,1.75
			s1.75-0.785,1.75-1.75v-7.5C51.75,56.535,50.965,55.75,50,55.75z"/>
	</g>
	<g>
		<path style="fill:#00C4FF;" d="M68.75,40H63v-5c0-9.374-7.501-17-16.875-17c-4.543,0-8.75,1.769-11.958,4.981
			c-0.78,0.781-0.749,2.047,0.032,2.827l2.667,2.651c0.78,0.781,2.056,0.781,2.836,0c1.748-1.747,3.824-2.71,6.294-2.71
			C51.097,25.75,55,29.899,55,35v5H31.25c-3.17,0-6.25,3.079-6.25,6.25v30c0,3.171,3.079,5.75,6.25,5.75h37.5
			c3.171,0,5.25-2.579,5.25-5.75v-30C74,43.079,71.921,40,68.75,40z M66,48v26H33V48H66z"/>
		<path style="fill:#00C4FF;" d="M50,68.75c2.073,0,3.75-1.677,3.75-3.75v-7.5c0-2.073-1.677-3.75-3.75-3.75
			c-2.073,0-3.75,1.677-3.75,3.75V65C46.25,67.073,47.927,68.75,50,68.75z"/>
	</g>
	<g>
		
			<ellipse transform="matrix(0.892 0.4521 -0.4521 0.892 13.4012 -28.513)" style="opacity:0.3;fill:#3887F9;" cx="66.361" cy="13.784" rx="7.25" ry="2.875"/>
		<ellipse style="opacity:0.3;fill:#3887F9;" cx="78.049" cy="21.972" rx="2.188" ry="1.938"/>
	</g>
</g>
<g id="Layer_1">
</g>
</svg>
