<?xml version="1.0" encoding="iso-8859-1"?>
<!-- Generator: Adobe Illustrator 19.1.1, SVG Export Plug-In . SVG Version: 6.00 Build 0)  -->
<svg version="1.1" xmlns="http://www.w3.org/2000/svg" xmlns:xlink="http://www.w3.org/1999/xlink" x="0px" y="0px"
	 viewBox="0 0 100 100" style="enable-background:new 0 0 100 100;" xml:space="preserve">
<g id="web">
	<g>
		<circle style="fill:#0D70FF;" cx="50" cy="50" r="50"/>
		<linearGradient id="SVGID_1_" gradientUnits="userSpaceOnUse" x1="38.5901" y1="1.8211" x2="61.2412" y2="97.4666">
			<stop  offset="0" style="stop-color:#091A57"/>
			<stop  offset="1" style="stop-color:#091A32"/>
		</linearGradient>
		<circle style="fill:url(#SVGID_1_);" cx="50" cy="50" r="49"/>
		<linearGradient id="SVGID_2_" gradientUnits="userSpaceOnUse" x1="28.0486" y1="12.3921" x2="76.4706" y2="96.0494">
			<stop  offset="0" style="stop-color:#091A57;stop-opacity:0.1"/>
			<stop  offset="1" style="stop-color:#020919"/>
		</linearGradient>
		<path style="fill:url(#SVGID_2_);" d="M3.349,65.004C9.687,84.725,28.173,99,50,99c27.062,0,49-21.938,49-49
			c0-6.928-1.439-13.519-4.034-19.492C92.318,120.159,24.29,7.111,3.349,65.004z"/>
		<path style="opacity:0.1;fill:#5271AF;" d="M50.779,24.948c11.289,3.234,20.039-17.289,7.205-23.29C55.385,1.232,52.72,1,50,1
			C22.938,1,1,22.938,1,50c0,1.814,0.106,3.603,0.298,5.365C4.568,39.659,8.122,12.727,50.779,24.948z"/>
	</g>
	<g>
		<path d="M50,85C30.7,85,15,69.299,15,50S30.7,15,50,15S85,30.7,85,50S69.299,85,50,85z M34.329,76.604
			c4.596,2.718,9.954,4.278,15.67,4.278c17.029,0,30.882-13.854,30.882-30.882c0,17.029-13.854,30.882-30.882,30.882
			C44.448,80.882,39.037,79.373,34.329,76.604z M31.249,69.097c4.986,4.89,11.739,7.667,18.751,7.667c1.77,0,3.5-0.173,5.175-0.503
			c-0.55-0.317-0.921-0.746-1.103-1.279c-0.083-0.221-0.126-0.451-0.131-0.683c-0.035-0.054-0.072-0.107-0.103-0.147
			c-0.357-0.326-0.56-0.723-0.743-1.081l-0.063-0.122c-0.45-0.701-0.449-1.399-0.388-1.867l-0.617-0.877
			c-0.364-0.35-0.998-0.997-0.998-2.013c0-0.482,0.338-1.728,0.669-2.486c0.048-0.148,0.104-0.287,0.177-0.425
			c0.022-0.041,0.045-0.08,0.069-0.12c-0.046-0.224-0.077-0.446-0.107-0.651c-0.041-0.134-0.27-0.583-0.455-0.909
			c-0.531-0.354-1.275-0.983-1.74-1.936c-0.261-0.535-0.278-1.157-0.046-1.706c0.001-0.003,0.002-0.006,0.004-0.009
			c-0.377-0.058-0.718-0.185-1.023-0.377c-0.259-0.163-0.482-0.367-0.66-0.603c-0.661,0.307-1.546,0.696-2.658,0.643
			c-0.292-0.014-0.588-0.085-0.883-0.213c-0.333-0.124-0.881-0.193-1.462-0.266c-0.393-0.05-0.784-0.102-1.167-0.175
			c-0.405-0.076-1.434-0.333-2.141-1.034l-1.401-1.376c-0.216-0.216-0.385-0.424-0.53-0.646c-0.479-0.738-0.694-1.662-0.889-2.624
			c-0.016-0.08-0.031-0.155-0.044-0.218l-0.008-0.014c-0.634-0.933-0.818-2.112-0.489-3.195l0.555-1.843
			c0.016-0.119,0.021-0.205,0.022-0.259c-0.644-1.353-0.006-2.244,0.794-3.363c0.001-0.001,0.061-0.085,0.062-0.086
			c1.077-1.499,1.619-2.254,2.321-2.68c0.328-0.273,0.741-0.445,1.188-0.473c0.08-0.265,0.207-0.563,0.406-0.876
			c0.2-0.321,0.462-0.618,0.771-0.871l0.049-0.039c-0.111-0.305-0.139-0.599-0.128-0.864c-0.198-0.555-0.213-1.331,0.48-2.262
			c0.018-0.049,0.034-0.092,0.046-0.131c-0.066-0.573,0.082-1.139,0.421-1.597c0.316-0.427,0.769-0.724,1.278-0.846
			c0.116-0.051,0.235-0.094,0.356-0.127c-0.528-0.297-0.949-0.874-1.068-1.466c-0.056-0.357-0.088-0.87,0.135-1.395
			c0.082-0.188,0.18-0.347,0.276-0.48c0.075-0.206,0.184-0.405,0.326-0.588c0.026-0.033,0.052-0.065,0.08-0.098
			c0.012-0.014,0.031-0.034,0.052-0.057c0.123-0.174,0.268-0.34,0.412-0.457c0.145-0.116,0.297-0.212,0.454-0.288
			c0.077-0.064,0.165-0.13,0.261-0.193c0.036-0.074,0.077-0.147,0.123-0.217c0.094-0.148,0.22-0.294,0.361-0.424
			c0.126-0.122,0.266-0.227,0.418-0.314c0.168-0.162,0.341-0.282,0.529-0.377c0.097-0.048,0.198-0.088,0.301-0.122
			c0.486-0.153,1.022-0.139,1.526-0.014c0.04,0.01,0.08,0.022,0.121,0.034c0.051,0.016,0.102,0.035,0.152,0.055
			c0.272-0.553,0.722-1.028,1.315-1.367c0.037-0.021,0.074-0.041,0.113-0.06c0.328-0.161,0.525-0.276,0.635-0.349
			c0.111-0.229,0.261-0.437,0.444-0.615c0.066-0.08,0.139-0.157,0.216-0.229c0.067-0.096,0.127-0.17,0.19-0.243
			c0.066-0.076,0.137-0.175,0.146-0.187c0.056-0.077,0.12-0.153,0.186-0.221c0.086-0.09,0.258-0.26,0.495-0.455
			c-0.166-0.019-0.333-0.036-0.499-0.052c-0.318,0.217-0.593,0.423-0.834,0.623c-0.908,0.753-4.003,2.522-6.092,2.522
			c-0.023,0-0.045,0-0.068-0.001v0.022c-0.156,0-0.31-0.006-0.449-0.024c-0.041,0.003-0.082,0.004-0.123,0.004
			c-0.013,0.007-0.027,0.014-0.04,0.02c-0.421,0.226-0.896,0.31-1.268,0.332c-0.171,0.045-0.346,0.067-0.52,0.067
			c-0.3,0.234-0.652,0.415-1.026,0.532c-0.185,0.135-0.358,0.222-0.483,0.279c-0.07,0.051-0.141,0.099-0.204,0.14
			c-0.429,0.367-0.921,0.552-1.465,0.552c-0.747,0-1.517-0.46-1.88-1.113c-0.01-0.018-0.02-0.036-0.029-0.054
			c-0.08,0.066-0.168,0.131-0.265,0.193c-0.01,0.031-0.116,0.293-0.185,0.466c-0.248,0.616-0.624,1.548-1.659,2.008
			c-0.573,0.255-1.023,0.275-1.267,0.287c-0.346,0.117-0.658,0.139-0.919,0.125c-0.139,0.28-0.343,0.535-0.605,0.744
			c-0.653,0.537-1.432,0.513-1.852,0.486c-0.422,0.459-0.909,0.722-1.457,0.785c-3.006,3.418-5.064,7.488-6.027,11.913
			c0.02,0.021,0.04,0.042,0.06,0.064c0.647,0.392,1.112,1.119,1.2,1.892c0.028,0.113,0.044,0.186,0.058,0.255
			c0.063,0.314,0.064,0.634,0.007,0.947c0.118,0.428,0.255,0.913,0.361,1.259c0.32,0.371,2.723,3.216,2.834,5.162
			c0.281,0.192,0.525,0.44,0.711,0.734c0.195,0.202,0.361,0.428,0.493,0.672c0.127,0.076,0.257,0.164,0.39,0.264
			c0.407,0.306,3.493,3.323,3.707,5.064c0.137,1.057-0.348,1.89-0.508,2.163c-0.105,0.177-0.273,0.409-0.465,0.657
			c-0.092,0.12-0.197,0.246-0.27,0.361c-0.003,0.005-0.005,0.011-0.007,0.016c0.165,0.605,0.285,1.996,0.197,2.734
			c0.186,0.923-0.238,1.878-1.055,2.413C31.462,68.99,31.357,69.048,31.249,69.097z M57.827,75.226
			c-0.108,0.181-0.241,0.346-0.399,0.491c0.003-0.001,0.005-0.001,0.008-0.002C57.594,75.574,57.725,75.408,57.827,75.226z
			 M56.829,71.328c0.281,0.303,0.591,0.722,0.838,1.18c0.59-0.141,1.222-0.229,1.689-0.259c0.495-0.249,1.465-0.965,1.884-1.413
			c0.065-0.353,0.221-0.683,0.453-0.956c0.31-0.365,0.708-0.663,1.14-0.946c0.133-0.998,0.684-1.953,1.528-2.581
			c0.251-0.186,0.575-0.421,0.997-0.728l0.63-0.457c0.007-0.124,0.011-0.311,0.004-0.582c-0.031-1.176-0.231-2.078-0.279-2.239
			c-0.365-1.015-0.126-1.702,0.19-2.287c0.224-0.413,0.48-0.8,0.738-1.187c0.225-0.336,0.437-0.652,0.589-0.95
			c0.757-1.486,1.677-2.373,2.164-2.828c0.243-0.313,0.452-0.699,0.632-1.161c-0.677,0.021-1.282-0.086-1.88-0.63
			c-0.377-0.347-0.652-0.77-0.812-1.243c-0.099-0.071-0.213-0.15-0.325-0.227c-0.923-0.633-2.441-1.676-2.965-3.931
			c-0.405-0.688-1.901-2.885-2.658-3.959c-0.003-0.004-0.006-0.008-0.009-0.012c-0.11,0-0.238-0.002-0.358-0.002
			c-0.22,0-0.439,0.003-0.657,0.018c-0.589,0.037-1.005-0.042-1.323-0.145c-0.083-0.01-0.16-0.022-0.231-0.037
			c-0.311,0.408-0.712,0.686-1.107,0.839c-1.563,0.607-3.387-0.47-3.956-1.074c-0.591-0.176-1.021-0.338-1.354-0.507
			c-0.026-0.004-0.052-0.009-0.078-0.014c-0.738-0.148-1.359-0.718-1.583-1.437c-0.023-0.073-0.042-0.148-0.057-0.222
			c-1.945,0.143-2.644,0.25-3.004,0.423c-0.677,0.317-1.287,0.284-1.725,0.177c-0.063,0.004-0.124,0.007-0.191,0.004l-0.596,0.484
			c-0.072,0.552-0.36,1.235-1.173,1.894c-0.257,0.209-0.971,0.729-1.871,0.901c-0.311,0.384-0.858,1.145-1.092,1.471
			c-0.057,0.079-0.109,0.152-0.155,0.216c0.083,0.437,0.107,0.989,0.002,1.712c-0.014,0.103-0.039,0.229-0.069,0.354
			c-0.011,0.048-0.039,0.151-0.053,0.198l-0.51,1.691c0.032,0.051,0.062,0.105,0.089,0.159l0.104,0.193
			c0.045,0.08,0.104,0.202,0.153,0.323c0.099,0.223,0.158,0.512,0.238,0.912c0.061,0.3,0.204,1.001,0.323,1.224l1.231,1.191
			c0.042,0.014,0.096,0.03,0.143,0.039c0.304,0.058,0.609,0.096,0.915,0.135c0.665,0.083,1.408,0.178,2.178,0.427
			c0.165-0.053,0.432-0.177,0.623-0.265c0.573-0.266,1.287-0.597,2.169-0.661c0.888-0.048,1.864,0.335,2.491,1.17
			c0.464-0.036,0.936,0.034,1.368,0.214v0.001c0.172,0.071,0.335,0.167,0.482,0.282c0.35,0.172,0.656,0.436,0.883,0.776
			c0.565,0.852,0.521,1.607,0.492,1.927c-0.002,0.106-0.012,0.211-0.03,0.316c-0.005,0.037-0.012,0.074-0.019,0.112
			c-0.024,0.169-0.038,0.317-0.05,0.447c-0.016,0.165-0.034,0.351-0.068,0.549c0.145,0.093,0.288,0.207,0.397,0.323
			c0.39,0.412,1.417,2.182,1.568,3.275c0.018,0.128,0.032,0.231,0.045,0.313c0.407,0.831,0.351,1.552,0.217,2.028
			c-0.136,0.484-0.404,0.911-0.777,1.25c-0.023,0.066-0.047,0.139-0.07,0.213l0.967,1.373c0.021,0.03,0.044,0.065,0.067,0.104
			c0.538,0.736,0.502,1.549,0.428,2.035C56.805,71.283,56.817,71.306,56.829,71.328z M62.7,70.74
			c0.043,0.157,0.108,0.313,0.194,0.463C62.809,71.057,62.745,70.901,62.7,70.74z M66.924,69.579
			c-0.025,0.469-0.146,0.95-0.359,1.43c6.209-4.906,10.2-12.5,10.2-21.008c0-1.308-0.093-2.608-0.28-3.889
			c-0.008,0.093-0.021,0.191-0.041,0.293l0,0c-0.088,0.432-0.314,0.831-0.636,1.132c-0.016,0.034-0.033,0.07-0.051,0.107
			c-0.174,0.915-0.673,1.461-1.242,1.742c-0.018,0.039-0.037,0.077-0.057,0.116c0.198,0.305,0.347,0.71,0.359,1.247
			c0.042,0.193,0.085,0.48,0.05,0.816c-0.094,0.931-0.189,1.283-0.287,1.589c-0.046,0.154-0.085,0.269-0.126,0.384
			c-0.027,0.081-0.058,0.162-0.078,0.245c-0.418,1.716-1.038,3.04-1.894,4.044c-0.062,0.072-0.181,0.193-0.251,0.256
			c-0.306,0.283-0.87,0.806-1.332,1.712c-0.262,0.515-0.566,0.968-0.833,1.369c-0.1,0.148-0.199,0.297-0.296,0.446
			c0.153,0.681,0.31,1.712,0.34,2.865c0.049,1.735-0.192,2.936-1.57,3.931l-0.761,0.553C67.428,69.211,67.149,69.414,66.924,69.579z
			 M19.489,45.203c-0.244,1.563-0.372,3.167-0.372,4.797c0,7.92,2.997,15.153,7.916,20.624c-0.333-0.466-0.457-1.056-0.337-1.624
			c-0.207-0.53-0.617-2.146,1.492-3.229c0.025-0.013,0.05-0.026,0.076-0.038c0.077-0.084,0.163-0.162,0.252-0.233
			c-0.016-0.225-0.04-0.466-0.062-0.613c-0.202-0.6-0.303-1.077-0.315-1.485c-0.009-0.46,0.11-1.071,0.669-1.61
			c0.166-0.297,0.371-0.57,0.567-0.825c-0.527-0.725-1.519-1.854-1.879-2.156c-0.433-0.082-0.833-0.304-1.135-0.634
			c-0.138-0.15-0.25-0.319-0.337-0.499c-0.909-0.229-1.553-1.05-1.553-1.995v-0.001c-0.44-0.67-0.449-1.295-0.329-1.793
			c-0.257-0.516-0.804-1.403-1.444-2.188c-0.106-0.068-0.205-0.146-0.297-0.233c-0.386-0.366-0.58-0.55-1.368-3.597
			c-0.032-0.125-0.051-0.252-0.059-0.382c-0.419-0.117-0.795-0.364-1.068-0.711C19.558,46.332,19.407,45.763,19.489,45.203z
			 M54.479,63.004c0.261,0.059,0.508,0.17,0.725,0.323C54.999,63.182,54.757,63.068,54.479,63.004z M24.714,55.916
			c0.017,0.041,0.035,0.081,0.055,0.12l0.805-0.754l-0.061-0.025L24.714,55.916z M68.639,45.884c0.069,0.06,0.185,0.149,0.275,0.217
			c0.427,0.327,1.074,0.821,1.476,1.663c0.018,0.037,0.035,0.074,0.052,0.112c0.137-0.11,0.254-0.205,0.355-0.289
			c0.176-0.647,0.613-1.184,1.138-1.55c-0.405,0.059-0.821,0.012-1.185-0.173c-0.909-0.447-1.462-0.968-2.858-3.048
			c-0.924-1.384-0.47-2.817,0.454-3.521c0.882-0.669,2.088-0.632,2.9,0.041c0.076,0.062,0.15,0.13,0.218,0.204
			c0.164,0.177,0.321,0.332,0.46,0.462c0.377-0.15,0.711-0.164,0.918-0.164c0.457,0.015,0.886,0.162,1.253,0.418
			c0.014-0.002,0.029-0.005,0.044-0.007c0.005-0.003,0.011-0.006,0.017-0.01c0.186-0.112,0.435-0.262,0.789-0.463
			c1.01-0.569,2.202-0.655,3.275-0.236l-0.001,0.001c0.088,0.034,0.183,0.075,0.247,0.108c0.46,0.23,0.816,0.623,1,1.101
			c-2.704-8.596-9.074-15.584-17.269-19.121c0.442,0.236,0.784,0.628,0.959,1.102c0.048,0.131,0.082,0.263,0.104,0.398
			c0.331,0.739,0.228,1.624-0.323,2.284c-0.269,0.324-0.625,0.55-1.014,0.661c-0.063,0.126-0.138,0.245-0.224,0.357
			c-0.125,0.152-0.262,0.283-0.41,0.396c-0.033,0.035-0.068,0.069-0.106,0.104c-0.029,0.068-0.06,0.135-0.096,0.199
			c-0.054,0.182-0.134,0.356-0.239,0.516c-0.119,0.179-0.422,0.565-0.955,0.787c-0.034,0.602-0.305,1.153-0.758,1.53
			c-0.186,0.166-0.371,0.294-0.553,0.39c-0.118,0.228-0.272,0.435-0.457,0.612c-0.105,0.373-0.302,0.734-0.586,1.063
			c-0.612,0.709-1.446,1.062-2.247,0.952c-0.187,0.091-0.383,0.158-0.582,0.199c0.175,0.075,0.341,0.173,0.494,0.29
			c0.155,0.069,0.306,0.155,0.447,0.257l1.082,0.787c0.318,0.085,0.614,0.239,0.873,0.454c0.041,0.033,0.081,0.067,0.121,0.103
			c0.001-0.004,0.002-0.007,0.004-0.011c0.012-0.036,0.025-0.072,0.039-0.108c0.007-0.111,0.013-0.192,0.013-0.192
			c0.029-0.438,0.193-0.825,0.449-1.13c0.023-0.041,0.048-0.082,0.073-0.124c0.255-0.712,0.786-1.196,1.535-1.398
			c0.358-0.104,0.764-0.136,1.176-0.083c0.054,0.006,0.117,0.015,0.185,0.027c0.379-0.36,0.887-0.58,1.42-0.581
			c-0.316,0.001-0.549,0.075-0.613,0.099c0.223-0.083,0.464-0.174,0.754-0.211c0.71-0.089,1.464,0.226,1.912,0.788
			c0.313,0.392,0.478,0.872,0.482,1.353c0.006,0.004,0.011,0.009,0.016,0.013l0.058,0.047c0.853,0.341,1.481,0.99,1.715,1.794
			c0.285,0.974-0.012,1.97-0.772,2.598c-0.154,0.128-0.323,0.234-0.501,0.322c0.042,0.209,0.052,0.424,0.03,0.637
			c0.019,0.105,0.056,0.209,0.086,0.315c0.141,0.482,0.438,1.506,0.07,2.559c0.083,0.13,0.153,0.268,0.208,0.416
			c0.297,0.328,0.62,0.767,0.998,1.351C68.032,44.124,68.34,44.975,68.639,45.884z M51.901,33.473
			c-0.016,0.013-0.031,0.026-0.046,0.038c0.092-0.015,0.187-0.025,0.287-0.029c0.055-0.004,0.115-0.007,0.17-0.004
			c0.119-0.094,0.246-0.177,0.383-0.246c-0.106,0.027-0.219,0.049-0.339,0.062c-0.068,0.022-0.139,0.041-0.21,0.057
			C52.067,33.397,51.985,33.437,51.901,33.473z M35.578,22.696c-2.772,1.47-5.296,3.351-7.487,5.559
			c0.415-0.336,0.938-0.494,1.464-0.449c0.158-0.067,0.294-0.112,0.388-0.143c0.044-0.015,0.087-0.029,0.132-0.042
			c0.027-0.124,0.066-0.244,0.117-0.361c0.387-0.901,1.203-1.215,1.939-1.439c0.107-0.032,0.213-0.056,0.321-0.07
			c0.506-0.126,1.074-0.084,1.582,0.117c0.153-0.332,0.354-0.701,0.641-1.056c-0.046-0.24-0.05-0.491-0.007-0.738
			C34.766,23.506,35.098,23.007,35.578,22.696z M44.547,19.636c0.484,0,0.956,0.171,1.331,0.489
			c0.475,0.402,0.742,0.998,0.727,1.621c-0.003,0.142-0.014,0.274-0.032,0.399c0.774-0.268,1.786-0.714,2.528-1.33
			c0.514-0.427,1.115-0.855,1.837-1.309c0.369-0.232,0.803-0.342,1.238-0.311c0.731,0.05,1.457,0.127,2.177,0.228
			c-3.892-0.551-8.032-0.332-11.786,0.598c0.528-0.13,1.06-0.246,1.594-0.349C44.289,19.648,44.418,19.636,44.547,19.636z"/>
		<path style="fill:#00C4FF;" d="M47.569,30.14c-0.006,0.008-0.012,0.02-0.016,0.028c-0.01,0.02-0.004,0.04,0.014,0.052
			c0.018,0.012,0.04,0.008,0.054-0.008c0.016-0.02,0.038-0.044,0.064-0.076c0.026-0.032,0.036-0.04,0.075-0.057
			c0.028-0.016,0.06-0.028,0.09-0.036c0.012-0.004,0.024-0.004,0.034,0.004c0.01,0.008,0.016,0.02,0.016,0.032
			c-0.004,0.073,0.02,0.149-0.05,0.205c-0.042,0.032-0.074,0.056-0.098,0.077c-0.024,0.02-0.03,0.056-0.016,0.08
			c0.016,0.028,0.048,0.044,0.078,0.032c0,0,0,0,0.004,0.004c0.002,0.004,0.004,0.004,0.004,0.008
			c0.02,0.085,0.022,0.085,0.135,0.016h0.01c0,0,0.004,0,0.004,0.004c0.016,0.028,0.04,0.052,0.07,0.065
			c0.04,0.02,0.072,0.06,0.082,0.104c0,0.004,0,0.008,0.002,0.012c0,0,0,0.004,0.002,0.008c0.038,0.113,0.006,0.221-0.078,0.306
			c-0.086,0.088-0.213,0.06-0.328,0.06H47.72c-0.018,0-0.04,0.02-0.052,0.036c-0.01,0.016-0.01,0.048,0.004,0.064
			c0.01,0.012,0.024,0.032,0.024,0.052c-0.002,0.068-0.092,0.044-0.121,0.093v0.004c-0.002,0.004-0.004,0.008-0.004,0.012
			c-0.002,0.008,0.002,0.02,0.01,0.024c0.006,0.008,0.016,0.008,0.024,0.008c0.042-0.012,0.076-0.044,0.119-0.048
			c0.082-0.004,0.02,0.201-0.006,0.229c-0.03,0.036-0.239,0.109-0.306,0.121c-0.042,0.004-0.07,0.008-0.084,0.024
			c-0.012,0.016-0.022,0.1,0.036,0.128c0.09,0.044,0.173-0.036,0.261-0.012c0.084,0.024,0.161,0.068,0.219,0.129
			c0.006,0.008,0.012,0.012,0.018,0.012c0.028,0.012,0.06,0.012,0.088,0c0.008-0.004,0.014-0.008,0.02-0.012
			c0.024-0.02,0.048-0.028,0.073-0.028c0.02,0,0.036,0.012,0.042,0.028c0.008,0.02,0,0.04-0.014,0.048
			c-0.066,0.048-0.13,0.092-0.219,0.084c-0.048-0.004-0.098-0.008-0.145,0c-0.149,0.016-0.288,0.08-0.394,0.189
			c-0.036,0.036-0.075,0.072-0.109,0.108c-0.018,0.016-0.02,0.049-0.004,0.068c0.018,0.02,0.046,0.024,0.068,0.012
			c0.016-0.008,0.032-0.02,0.052-0.032c0.062-0.04,0.179-0.084,0.241,0.036c0.002,0,0.002,0,0.002,0c0.01,0.004,0.02,0,0.028-0.004
			c0.086-0.064,0.129-0.185,0.254-0.193c0.088-0.008,0.154,0.077,0.247,0.06c0.103-0.024,0.185-0.1,0.298-0.096
			c0.04,0.004,0.153,0.032,0.163,0.04c0.032,0.02,0.032,0.02,0.197,0.02c0.07,0.004,0.121,0.052,0.187,0.064
			c0.08,0.012,0.153-0.036,0.233-0.036c0.002,0,0.002,0,0.002,0s0.239-0.04,0.233-0.137c-0.004-0.004-0.004,0-0.004,0
			c-0.084-0.048-0.141-0.137-0.151-0.233c-0.002-0.004,0.004-0.012,0.01-0.016c0.008,0,0.016,0,0.024,0.008
			c0.004,0.004,0.01,0.008,0.012,0.008c0.026,0.016,0.042,0.02,0.052,0.012c0.056-0.04,0.117-0.077,0.179-0.113
			c0.033-0.016,0.052-0.052,0.07-0.124c0.004-0.024,0.026-0.137-0.119-0.217h-0.002c-0.012-0.008-0.279-0.145-0.354-0.105
			c-0.052,0.028-0.052,0.028-0.143-0.02c-0.004-0.012,0-0.028,0.012-0.036c0.105-0.081,0.105-0.084,0.102-0.105
			c-0.004-0.052-0.03-0.089-0.061-0.121c-0.026-0.032-0.03-0.073-0.008-0.105c0.002-0.004,0.002-0.004,0.002-0.004
			c0.02-0.028-0.084-0.253-0.084-0.253c-0.01-0.008-0.012-0.012-0.028-0.012c-0.044,0.004-0.091,0.004-0.135,0.004
			c-0.006,0-0.014,0-0.024,0.004c0,0-0.002,0-0.002-0.004c-0.002-0.004-0.004-0.008-0.002-0.012c0.014-0.056-0.04-0.092-0.047-0.145
			c-0.004-0.052,0.01-0.101,0.016-0.153c0.004-0.044-0.002-0.097-0.016-0.149c-0.054-0.181-0.046-0.378,0.02-0.551
			c0.026-0.072,0.064-0.145,0.111-0.209c0.105-0.145-0.368-0.124-0.457-0.121c-0.008,0-0.014,0-0.018-0.008
			c-0.004-0.008-0.004-0.012,0-0.02c0.024-0.032,0.026-0.08,0.058-0.109c0.044-0.04,0.103-0.056,0.151-0.084
			c0.111-0.068,0.018-0.108-0.02-0.121c-0.096-0.024-0.195-0.036-0.294-0.036c-0.038,0-0.074,0.004-0.112,0.016
			c-0.024,0.012-0.052,0.04-0.082,0.08c-0.058,0.084-0.129,0.157-0.209,0.221c-0.004,0.004-0.008,0.008-0.012,0.008
			c-0.022,0.02-0.052,0.02-0.077,0.012c-0.014-0.008-0.03-0.008-0.046,0c0,0-0.006,0-0.008,0.004
			c-0.026,0.012-0.046,0.036-0.062,0.06c-0.018,0.028-0.014,0.064,0.01,0.093c0.022,0.024,0.061,0.032,0.093,0.016
			c0.004,0.008,0.004,0.02,0,0.028c-0.018,0.04-0.024,0.084-0.04,0.125c-0.002,0.004-0.004,0.004-0.01,0.004
			c-0.006,0.004-0.014,0-0.018-0.004c-0.02-0.032-0.03-0.032-0.044-0.032c0,0.004-0.002,0.004-0.002,0.004
			c-0.058,0.012-0.097,0.141-0.095,0.181c0,0.012,0.004,0.02,0.01,0.028C47.627,29.935,47.634,30.051,47.569,30.14z M46.2,31.696
			c0.121-0.052,0.233-0.125,0.362-0.161h0.002c0.177-0.048,0.332,0,0.384-0.068c0.052-0.064,0.141-0.185,0.183-0.281
			c0.02-0.049-0.032-0.117,0.032-0.149c0.07-0.04,0.008-0.112,0.026-0.169c0.05-0.145,0.082-0.149,0.139-0.157
			c0.056-0.008,0.108-0.016,0.128-0.044c0.091-0.137-0.231-0.523-0.432-0.471c-0.211,0.052-0.38,0.358-0.45,0.354
			c-0.089-0.004-0.129-0.008-0.189,0.04c-0.044,0.036-0.05,0.093-0.084,0.137c-0.04,0.052-0.093,0.093-0.135,0.141
			c-0.034,0.044-0.046,0.08,0.002,0.125c0.036,0.028,0.054,0.048-0.05,0.181c-0.084,0.113-0.227,0.169-0.287,0.306
			c-0.022,0.052-0.018,0.149-0.012,0.189C45.846,31.808,46.067,31.752,46.2,31.696z M53.903,39.115
			c0.032,0.004,0.06-0.02,0.092-0.02c0.093-0.008,0.394,0.201,0.497,0.245c0.034,0.012,0.07,0.016,0.102,0.036
			c0.058,0.036,0.103,0.093,0.165,0.125c0.022,0.008,0.056,0.028,0.106,0.016c0.036-0.004,0.089-0.016,0.145-0.197
			c0.022-0.072-0.066-0.113-0.056-0.181c0.012-0.105,0.095-0.181,0.115-0.281c0.008-0.048-0.006-0.072-0.047-0.076
			c-0.006,0-0.012,0-0.018,0.004c-0.026,0.004-0.05,0.02-0.078,0.024c-0.087,0.008-0.077-0.032-0.153,0.012
			c-0.04,0.024-0.075,0.052-0.121,0.064c-0.044,0.008-0.082-0.02-0.127-0.016c-0.06,0.008-0.096,0.068-0.159,0.068
			c-0.082-0.004-0.137-0.077-0.215-0.089c-0.05-0.012-0.078,0.044-0.127,0.04c-0.048-0.004-0.034-0.02-0.074-0.036
			c-0.061-0.02-0.131,0.201-0.119,0.225c0.018,0.032,0.048,0.036,0.066,0.036H53.903z M50,17.059
			c-18.192,0-32.941,14.75-32.941,32.941c0,18.196,14.749,32.941,32.941,32.941c18.194,0,32.941-14.746,32.941-32.941
			C82.941,31.808,68.194,17.059,50,17.059z M61.296,34.668c0.167,0.052,0.285,0.169,0.336,0.317
			c0.002,0.008,0.004,0.012,0.008,0.016c0.008,0.016,0.042,0.056,0.13,0.048c0.034-0.004,0.378-0.313,0.378-0.338
			c0-0.052-0.052-0.064-0.1-0.093c-0.117-0.06-0.195-0.177-0.205-0.309c-0.01-0.133,0.046-0.257,0.153-0.338
			c0.002,0,0.002,0,0.002,0l0.597-0.346c0,0,0-0.04,0.002-0.044c0.01-0.004,0.02-0.052,0.032-0.052c0.002,0,0.002,0,0.002,0
			c0.038,0,0.299-0.116,0.394-0.128c0.028-0.004,0.092,0.084,0.072,0.137c-0.012,0.032-0.04,0.096-0.109,0.137
			c-0.082,0.044-0.282,0.153-0.271,0.249c0.014,0.112,0.151,0.073,0.221,0.121c0.054,0.032,0.034,0.057,0.02,0.109c0,0,0,0,0,0.004
			c-0.04,0.137-0.103,0.27-0.187,0.386c-0.004,0.004-0.006,0.012-0.006,0.02c0.018,0.088,0.018,0.088,0.328,0.213
			c0.139,0.056,0.296-0.02,0.428,0.065c0.301,0.185,0.527,0.479,0.871,0.603c0.114,0.04,0.495,0.197,0.579,0.487
			c0.155,0.531-0.486,0.631-0.714,0.515c-0.131-0.064-0.189,0.08-0.283,0.125c-0.004,0.004-0.008,0.004-0.012,0.008
			c-0.068,0-0.137-0.016-0.183-0.028c-0.114-0.032-0.587-0.036-0.764-0.109c-0.002,0-0.002,0-0.002,0
			c-0.04-0.02-0.642-0.245-0.684-0.233c-0.193,0.06-0.418-0.08-0.595,0.06c-0.105,0.081-0.231,0.125-0.336,0.205
			c-0.145,0.117-0.149,0.121-0.153,0.153v0.012c-0.004,0.036-0.008,0.068-0.054,0.088c-0.056,0.024-0.145,0.036-0.189,0.036
			c-0.131,0-0.259,0.044-0.388,0.028c-0.117-0.012-0.229,0.032-0.346,0.032c-0.002,0-0.002,0-0.002,0
			c-0.213-0.205-0.398-0.257-0.533-0.446l-0.135-0.197c0-0.004-0.002-0.008-0.002-0.008c-0.008-0.012-0.01-0.032-0.002-0.048
			c0.012-0.02,0.036-0.036,0.082,0.008c0.002,0,0.002,0,0.002,0c0.006,0.008,0.018,0.012,0.026,0.004
			c0.01-0.004,0.014-0.016,0.012-0.024c-0.026-0.113-0.075-0.277-0.036-0.39c0.002,0,0.002,0,0.002-0.004
			c0.024-0.065,0.114-0.049,0.139-0.117c0.024-0.076-0.018-0.169-0.024-0.245c-0.002-0.033,0.034-0.386,0.034-0.386
			c0.006,0,0.006,0,0.006,0c0.064,0,0.09-0.052,0.105-0.105c0.034-0.141,0.096-0.261,0.185-0.374c0.024-0.032,0.05-0.1,0.114-0.282
			c0.024-0.068,0.03-0.084,0.135-0.112c0.127-0.036,0.261-0.044,0.394-0.028c0.068,0.008,0.155,0.024,0.255,0.048
			c0.008,0.004,0.016,0.008,0.02,0.016c0.006,0.012,0.002,0.024-0.01,0.032c-0.028,0.016-0.044,0.048-0.038,0.084
			c0.006,0.036,0.038,0.064,0.077,0.064c0.046,0,0.09-0.02,0.126-0.036c0.064-0.032,0.086-0.04,0.139-0.004
			c0.042,0.028,0.062,0.076,0.056,0.124c-0.014,0.109-0.159,0.105-0.157,0.193C61.239,34.627,61.263,34.655,61.296,34.668z
			 M50,78.823c-8.433,0-16.02-3.623-21.29-9.393c0.141-0.056,0.233-0.097,0.233-0.113c-0.006-0.201-0.048-0.402-0.121-0.591
			c-0.064-0.161-0.137-0.318-0.209-0.475c-0.245-0.535,0.852-0.623,1.158-1.122c0.022-0.049,0.207-0.068,0.428,0.088
			c0.175,0.125,0.43-0.165,0.408-0.269c-0.074-0.326-0.074-0.378-0.034-0.676c0.068-0.507-0.07-1.761-0.128-1.93
			c-0.201-0.575-0.243-0.865-0.247-1.001c-0.002-0.105,0.271-0.181,0.322-0.35c0.099-0.346,0.686-0.981,0.867-1.287
			c0.157-0.27,0.283-0.567,0.243-0.877c-0.084-0.688-2.282-3.205-2.903-3.671c-0.49-0.37-0.845-0.37-0.845-0.37
			c0.028-0.31-0.092-0.615-0.322-0.82c-0.086-0.076-0.151-0.181-0.215-0.285c-0.086-0.141-0.243-0.225-0.408-0.225
			c-0.165,0-0.406,0.084-0.406,0.225c0.205-0.491,0.157-0.515-0.231-0.993c-0.209-0.257-0.235-0.233,0.018-0.704
			c0.036-0.648-1.226-2.702-2.344-3.965c-0.036-0.04-0.089-0.061-0.155-0.048c-0.114-0.109-0.668-2.143-0.79-2.618
			c-0.006-0.024,0-0.048,0.014-0.064c0.097-0.121,0.137-0.273,0.107-0.422c-0.024-0.125-0.073-0.27-0.08-0.394
			c-0.014-0.233-0.231-0.422-0.271-0.394c-0.061,0.044-0.125,0.048-0.181,0.024c-0.058-0.024-0.1-0.076-0.114-0.145
			c-0.046-0.254-0.266-0.434-0.521-0.434c-0.052,0-0.261-0.004-0.454-0.02c0.947-6.044,3.772-11.464,7.857-15.646
			c0.006,0.209,0.01,0.414,0.014,0.414c0.344,0.096,0.32,0.02,0.615-0.338c0.171-0.205,0.483-0.282,0.653-0.342
			c0.173-0.06,0.46-0.088,0.46-0.088c0.165-0.033,0.644,0.076,0.78-0.036c0.116-0.093-0.033-0.125,0.036-0.229
			c0.067-0.096,0.121-0.201,0.165-0.31c0.038-0.092,0.153-0.121,0.237-0.173c0.145-0.088,0.006-0.088-0.022-0.133
			c-0.022-0.036,0.002-0.169,0.054-0.181c0.002,0,0.002,0,0.002,0.004c0.077,0.068,0.183,0.097,0.282,0.072
			c0.088-0.02,0.119-0.048,0.145-0.105c0.018-0.036,0.05-0.064,0.089-0.072l0.002-0.004c0.235-0.567-0.814-0.245-0.814-0.245
			c-0.042-0.084,0.555-0.273,0.648-0.302c0,0,0.002,0.004,0.004,0.004c0.056,0.012,0.07,0.004,0.117-0.012
			c0.283-0.113,0.679,0.028,0.679,0.31c0,0.076,0.13,0.137,0.209,0.157c0.094,0.024,0.205,0.052,0.303,0.016
			c0.511-0.193,0.668-0.028,1.092-0.217l0.008-0.004c0.553-0.245,0.581-1.476,1.333-2.147c0.075-0.068,0.157-0.129,0.239-0.181
			c0.139-0.088,0.229-0.221,0.326-0.35c0.044-0.061,0.097-0.121,0.151-0.177c0.062-0.064,0.076-0.165,0.028-0.241
			c-0.048-0.08-0.147-0.121-0.235-0.088c-0.063,0.02-0.183,0.061-0.217,0.004c-0.014-0.02-0.014-0.044-0.002-0.064
			c0.026-0.044,0.097-0.133,0.105-0.177c0-0.008-0.068-0.084-0.173-0.197c2.435-1.267,5.073-2.2,7.852-2.73
			c-0.004,0.165-0.028,0.313-0.064,0.326c-0.236,0.08-0.503,0.084-0.7,0.253c-0.018,0.016-0.022,0.04-0.012,0.061
			c0.012,0.02,0.034,0.032,0.056,0.024c0.042-0.012,0.112-0.04,0.285-0.105c0.03-0.008,0.066,0.012,0.062,0.044
			c-0.002,0.012-0.01,0.02-0.02,0.028c-0.086,0.036-0.181,0.052-0.261,0.093c-0.016,0.012-0.026,0.028-0.022,0.048
			c0.008,0.04-0.032,0.125-0.006,0.149c0,0.004,0.002,0.012,0.002,0.012c-0.008,0.008-0.84,0.607-1.156,0.607H42.71
			c-0.378,0-0.728,0.157-0.83,0.246c-0.106,0.084-0.219,0.153-0.342,0.213c-0.253,0.129-0.481,0.342-0.629,0.503
			c-0.077,0.084,0.056,0.109,0.161,0.153c0,0,0.072,0.02-0.038,0.036c-0.418,0.056-0.776,0.531-0.885,0.688
			c-0.022,0.028-0.022,0.068,0,0.096c0,0.004,0,0.004,0.002,0.004c-0.195,0.193-0.213,0.209-0.356,0.499
			c-0.008,0.02-0.006,0.04,0.008,0.056c0.018,0.02,0.247,0.032,0.268,0.072c0.03,0.065-0.089,0.117-0.062,0.165
			c0.008,0.012,0.02,0.024,0.034,0.024c0.038,0.008-0.115,0.161-0.135,0.193c-0.036,0.052,0.01,0.189,0.091,0.185
			c0.08,0,0.131-0.052,0.207-0.137c0,0,0.205-0.117,0.344-0.233c0.137-0.112,0.41-0.145,0.513-0.334
			c0.054-0.104,0.155-0.173,0.237-0.189c0.036-0.008,0.072,0.012,0.084,0.044c0.012,0.048,0.646-0.233,0.623-0.342
			c-0.02-0.105,0.038-0.113,0.105-0.084c0.046,0.02,0.084,0.004,0.114-0.02c0.189-0.157,0.478-0.35,0.718-0.289
			c0.058,0.016,0.119,0.008,0.171-0.024c0.241-0.137,0.268-0.072,0.211-0.048c-0.064,0.024-0.239,0.089-0.203,0.145
			c0.008,0.012,0.026,0.02,0.042,0.012c0.103-0.04,0.209-0.061,0.319-0.064c0.155,0,0.38-0.024,0.583-0.133
			c0.008-0.004,0.018-0.008,0.026-0.016h0.006c0.479-0.245,0.678-0.406,0.778-0.338c0.03,0.024,0.048,0.056,0.044,0.096
			c0.002,0,0.002,0,0.002,0c0.08,0.056,0.163,0.004,0.257-0.02c0,0,0.077,0.076,0.366,0.072c-0.068,0.177,2.957-0.479,4.872-2.067
			c0.502-0.418,1.059-0.8,1.617-1.15c3.241,0.225,6.335,0.985,9.194,2.196c-0.05,0.1-0.175,0.132-0.185,0.165
			c-0.04,0.105,0.231,0.241,0.312,0.322c0.044,0.044,0.044,0.117,0.004,0.165c-0.002,0-0.002,0-0.002,0
			c-0.137-0.032-0.28,0-0.384,0.092c-0.101,0.088-0.247,0.149-0.334,0.181c-0.05,0.02-0.137,0.048-0.137,0.084
			c0-0.016-0.096-0.012-0.143,0.004c-0.189,0.068-0.297,0.43-0.259,0.563c0.014,0.052,0.006,0.109-0.028,0.153
			c-0.046,0.057-0.121,0.077-0.187,0.052c-0.04-0.012-0.151,0.084-0.096,0.125c0.064,0.048-0.022,0.084-0.089,0.128
			c-0.032,0.02-0.072,0.028-0.113,0.016c-0.233-0.068-0.219-0.128-0.289,0.052c-0.034,0.084-0.08,0.165-0.137,0.237
			c-0.036,0.049-0.032,0.113,0.01,0.153c0.342,0.329-0.149,0.277-0.326,0.197c-0.161-0.072-0.253,0.197,0.042,0.201
			c0.082,0,0.159,0.032,0.213,0.093c0.151,0.169-0.197,0.112-0.412,0.04c-0.183-0.065-0.358-0.161-0.511-0.282
			c-0.096-0.077-0.133-0.209-0.092-0.322c0.044-0.117,0.155-0.193,0.278-0.189c0.179,0.004,0.329-0.129,0.35-0.306
			c0.022-0.177-0.096-0.338-0.269-0.374c-0.428-0.088-0.905-0.036-1.301-0.217c-0.342-0.161-0.625-0.132-0.712-0.245
			c-0.036-0.052-0.052-0.112-0.044-0.177c-0.183-0.036-0.3-0.056-0.378-0.072c-0.077-0.016-0.308,0.02-0.623,0.121
			c-0.684,0.217-1.331,0.888-1.331,0.888s-0.131,0.181-0.255,0.326c-0.115,0.133-0.203,0.269-0.33,0.39
			c-0.052,0.044-0.086,0.097-0.098,0.165c0,0,0-0.004-0.002-0.004l-0.002-0.004c-0.066,0.02-0.119,0.068-0.137,0.137
			c-0.082,0.294-0.316,0.639-1.564,1.255c0,0,0,0-0.002,0c-0.366,0.209-0.597,0.527-0.577,0.925c0.02,0.398,0.287,0.744,0.667,0.861
			c0.472,0.145,0.581-0.378,1.116-0.217c0.201,0.06,0.362,0.213,0.432,0.41c0.086,0.241,0.207,0.386,0.217,0.7
			c0.107,0.105,0.42,0.342,0.456,0.181c0.089-0.378,0.473-0.129,0.637-0.446c0.141-0.269-0.07-0.551,0.032-0.824l0.002-0.004
			c0.131-0.318,0.165-0.668,0.098-1.006c-0.03-0.157,0.01-0.394,0.086-0.848c0.03-0.177,0.378-0.27,0.461-0.402
			c0.145-0.225-0.097-0.655,0.263-0.736c0.179-0.04,0.505,0.044,0.547,0.229c0.014,0.068-0.002,0.137-0.044,0.189
			c-0.1,0.133-0.147,0.31-0.239,0.45c-0.183,0.281-0.223,0.632-0.105,0.949c0.1,0.269,0.264,0.515,0.523,0.539
			c0.075,0.004,0.149-0.016,0.211-0.057c0,0,0,0,0.002,0h0.002l0.372-0.173c0.308-0.109,0.639-0.1,0.959-0.1
			c0.03,0,0.054,0.073,0.063,0.1c0.008,0.032-0.002,0.084-0.026,0.105c-0.384,0.342-0.458,0.125-0.862,0.197
			c-0.139,0.028-0.245,0.145-0.264,0.281c-0.016,0.129,0.004,0.253,0.11,0.318c0.02,0.012-0.01,0.04-0.01,0.064c0,0,0,0,0,0.004
			c0,0.121-0.046,0.229-0.159,0.277c-0.084,0.036-0.161,0.032-0.241-0.004c-0.064-0.028-0.128-0.024-0.187,0.016
			c-0.114,0.076-0.068,0.132-0.092,0.233c-0.036,0.161-0.024,0.33,0.03,0.487h0.002c0.087,0.257-0.388,0.72-0.581,0.683
			c-0.392-0.073-0.796-0.008-1.148,0.177c-0.165,0.088-0.37,0.064-0.509-0.065h-0.002c-0.092-0.088-0.004-0.124-0.121-0.197
			c-0.024-0.016-0.635,0.241-0.661,0.249c-0.028,0.012-0.061,0.008-0.084-0.008c-0.026-0.016-0.042-0.044-0.044-0.073
			c0,0,0-0.004-0.002-0.004c-0.02-0.177-0.814-0.153-0.195-0.84l0.002-0.004c0.064-0.068,0.094-0.165,0.078-0.261
			c-0.024-0.157,0.008-0.306-0.139-0.366c0,0,0,0-0.002,0c-0.324,0.338-0.478,0.808-0.418,1.271c0.04,0.519-0.209,0.43-0.398,0.426
			c-0.078-0.004-0.155,0.028-0.207,0.089c0,0.004,0,0.004-0.002,0.004c-0.075,0-0.183,0-0.362,0.016
			c-0.078,0.008-0.149,0.048-0.195,0.108c-0.004,0.008-0.006,0.016-0.006,0.024c0.006,0.044-0.02,0.084-0.062,0.093
			c-0.141,0.032-0.268,0.101-0.374,0.197c-0.247,0.221-0.372,0.318-0.629,0.462c-0.183,0.101-0.342,0.229-0.476,0.386
			c-0.056,0.064-0.179,0.137-0.465,0.297c-0.026,0.016-0.044,0.04-0.052,0.072c-0.014,0.061-0.064,0.109-0.127,0.117
			c-0.255,0.036-0.328-0.024-0.474-0.121c-0.075-0.052-0.133,0.052-0.114,0.121h0.002c0.016,0.065,0.004,0.133-0.034,0.189
			c-0.038,0.052-0.101,0.084-0.167,0.088c-0.175,0.008-0.35-0.028-0.506-0.108c-0.014-0.004-0.03-0.008-0.044,0
			c-0.255,0.08-0.406,0.386-0.342,0.39c0.438,0.048,0.432,0.125,0.607,0.237C48.1,34.04,48,34.446,48.317,34.482h0.004
			c0.04,0.004,0.072,0.326,0.08,0.366c0.006,0.028-0.008,0.061-0.032,0.077c-0.096,0.064-0.159,0.165-0.173,0.277
			c-0.03,0.213-0.008,0.442-0.151,0.623c-0.061,0.077-0.199,0.221-0.362,0.157c-0.173-0.064-0.36-0.105-0.547-0.112
			c-0.766-0.036-1.216-0.201-1.442-0.314c-0.165-0.084-0.368-0.044-0.489,0.096c-0.054,0-0.119,0.004-0.181,0.008
			c-0.114,0.008-0.193,0.112-0.167,0.225c0.06,0.249,0.06,0.502-0.231,1.246c-0.012,0.032-0.028,0.068-0.042,0.097
			c-0.095,0.177-0.436,0.523-0.352,0.615c0.008,0.008,0.022,0.016,0.036,0.016c0.07,0,0.133,0.044,0.159,0.112
			c0.022,0.057,0.026,0.117,0.01,0.177c-0.024,0.096-0.128,0.434-0.086,0.518c0.024,0.049,0.066,0.085,0.116,0.097
			c0.075,0.02,0.125,0.08,0.189,0.121c0.046,0.028,0.203-0.04,0.296-0.08c0.068-0.028,0.111-0.049,0.261,0.128
			c0.143,0.157,0.032,0.531,0.33,0.539c0.08,0,0.126-0.081,0.147-0.125c0.022-0.052,0.022-0.052,0.593-0.177
			c0.253-0.056,0.5,0.105,0.754,0.024c0.195-0.057,0.205-0.314,0.404-0.37c0.133-0.04,0.271,0.036,0.402-0.032
			c0.07-0.04,0.006-0.253,0.082-0.317c0,0,0,0,0-0.004c0.119-0.1,0.165-0.261,0.119-0.41c-0.022-0.073-0.018-0.093-0.006-0.145
			c0.012-0.06,0.199-0.169,0.308-0.414c0.008-0.02,0.02-0.04,0.034-0.056c0.35-0.318,0.824-0.394,1.222-0.619
			c0.348-0.201,0.105-0.74,0.517-0.905c0.38-0.149,0.663,0.378,1.055,0.153c0.416-0.233,0.933-0.531,1.042-0.535
			c0.112-0.008,0.215,0.024,0.301,0.06c0.131,0.061,0.241,0.157,0.318,0.282c0.378,0.607,1.096,0.865,1.534,1.407
			c0.066,0.08,0.4,0.278,0.527,0.398c0.205,0.193,0.088-0.056,0.267,0.253l0.002,0.004c0.086,0.137,0.241,0.374,0.096,0.434
			c-0.103,0.044-0.103,0.077-0.101,0.109c0.002,0.08-0.064,0.153-0.016,0.233c0.014,0.024,0.064,0.092,0.175,0.04
			c0.131-0.064,0.082-0.088,0.135-0.193c0.128-0.253,0.125-0.269,0.121-0.269c0.044-0.032,0.127-0.004,0.141-0.08
			c0.034-0.181-0.093-0.241-0.175-0.278c-0.052-0.028-0.151-0.073-0.091-0.225c0-0.004,0.002-0.008,0.004-0.012
			c0,0,0-0.004,0.002-0.004c0.062-0.137,0.219-0.197,0.356-0.137c0.1,0.04,0.177,0.06,0.213,0.165c0.008,0.02,0.01,0.036,0.01,0.052
			c-0.002,0.044-0.002,0.084,0.016,0.105c0.028,0.024,0.093,0.004,0.119-0.044c0.016-0.028,0.004-0.121,0.004-0.149c0,0,0,0,0-0.004
			c0,0,0.03,0,0.028,0c0-0.008,0.012-0.012,0.01-0.016c-0.245-0.382-0.696-0.414-1.05-0.615c-0.04-0.024-0.061-0.064-0.064-0.108
			c-0.01-0.089-0.082-0.153-0.171-0.153c-0.217,0.004-0.42-0.105-0.545-0.282l-0.742-1.082c-0.03-0.044-0.058-0.092-0.086-0.141
			c-0.048-0.088-0.006-0.197,0.084-0.229c0.006-0.004,0.01-0.004,0.018-0.008c0.142-0.04,0.297,0.016,0.38,0.141
			c0.04,0.06,0.08,0.133,0.155,0.128c0.09-0.008,0.181,0.02,0.253,0.073l1.277,0.929c0,0.004,0,0.004,0,0.004
			s0.109,0.02,0.272,0.129c0.036,0.024,0.076,0.036,0.119,0.036c0.062-0.004,0.126,0.016,0.175,0.056
			c0.195,0.157,0.32,0.382,0.348,0.627c0.014,0.113,0.022,0.213,0.026,0.286c0.008,0.092,0.056,0.177,0.131,0.229
			c0.034,0.024,0.078,0.056,0.103,0.085c0.032,0.032,0.036,0.04,0.096,0.14c0.022,0.04,0.171,0.173,0.185,0.185
			c0.002,0,0.002-0.028,0.002-0.028c0.006,0.004,0.022-0.016,0.05-0.016h0.004c0.044,0,0.089,0.012,0.133,0.016
			c0.139,0.008,0.346,0.197,0.504,0.121c0.014-0.008,0.181-0.096,0.181-0.096h0.002c0.386-0.177-0.091-0.358-0.107-0.531
			c-0.006-0.065,0.018-0.113,0.06-0.141c0.04-0.028,0.091-0.016,0.143,0.008c0.03,0.012,0.064,0.008,0.091,0.008
			c0.03,0,0.052-0.073,0.06-0.109c0.042-0.201,0.25-0.269,0.455-0.269c0.171,0,0.34,0.044,0.488,0.125
			c0.061,0.036,0.131,0.048,0.201,0.048c0.133,0,0.259-0.06,0.366-0.137c0.05-0.036-0.062,0.096-0.314,0.193
			c-0.004,0-0.006,0-0.006,0c-0.107,0.044-0.165,0.153-0.139,0.265c0.05,0.221,0.515,0.442,0.211,0.728
			c-0.004,0.004-0.008,0.008-0.012,0.008c0.002,0,0.002,0,0.002,0.004c0.169,0.068,0.31,0.189,0.402,0.342
			c0.308,0.515,1.335,0.68,1.426,0.458c0,0,0,0,0.002-0.004c0.044-0.117,0.177-0.177,0.294-0.129
			c0.236,0.089,0.444,0.261,0.714,0.237c0.153-0.016,0.265-0.072,0.356-0.153c0.253-0.217,0.569-0.374,0.901-0.374
			c0.004,0,0.006,0,0.008,0.004c0,0,0.004,0.004,0.002,0.008c-0.167,0.981,0.927,2.071-0.151,2.96
			c-0.087,0.072-0.239,0.105-0.346,0.125c-0.973,0.173-1.958,0.056-2.933,0.121c-0.563,0.04-0.646-0.129-0.82-0.129
			c-0.002,0-0.002,0-0.002,0c-0.004,0-0.004,0-0.004,0c-0.193,0-0.229-0.032-0.513-0.096c-0.177-0.04-0.647-0.736-1.289-0.213
			c-0.185,0.149-0.296,0.334-0.289,0.446c0.08,1.605-1.896,0.422-2.043,0.246c-0.225-0.27-0.527-0.471-0.865-0.567
			c-0.37-0.109-0.818-0.253-1.101-0.402c-0.213-0.112-0.473-0.181-0.583-0.185c-0.04-0.008-0.058-0.201,0.062-0.326
			c0.32-0.322,0.418-0.45,0.317-0.623c-0.267-0.446-0.092-0.41-0.326-0.711c-0.002,0-0.002-0.004-0.002-0.004
			c-0.085-0.109-0.215-0.165-0.35-0.157c-3.993,0.253-4.854,0.37-5.642,0.748c-0.068,0.032-0.211,0.101-0.434,0.004
			c-0.171-0.076-0.362-0.084-0.539-0.024c-0.259-0.169-0.597-0.153-0.836,0.044l-1.301,1.054c-0.133,0.108-0.247,0.237-0.338,0.382
			c-0.236,0.37-0.219,0.615-0.213,0.748c0.022,0.412-1.129,1.253-1.765,1.082v0.06c-0.41,0.117-0.555,0.221-2.002,2.236
			c-0.794,1.11-0.804,1.11-0.644,1.416c0.087,0.165,0.257,0.502,0.125,1.419c-0.008,0.06-0.022,0.121-0.036,0.181
			c-0.006,0.028-0.016,0.056-0.024,0.084l-0.557,1.85c-0.157,0.515-0.054,1.078,0.273,1.508c0.002,0.004,0.004,0.004,0.004,0.008
			l0.123,0.229c0.02,0.036,0.04,0.076,0.056,0.116c0.119,0.269,0.286,1.781,0.732,2.469c0.07,0.109,0.153,0.205,0.245,0.298
			l1.407,1.383c0.247,0.246,0.74,0.41,1.08,0.474c1.006,0.193,2.073,0.201,3.062,0.575c0.046,0.02,0.112,0.044,0.163,0.044
			c1.146,0.077,2.085-0.873,3.193-0.953c0.262-0.016,0.792,0.153,0.927,0.929c0.099,0.579,0.992,0.394,1.411,0.273
			c0.191-0.057,0.396-0.048,0.579,0.028c0.002,0,0.004,0.004,0.004,0.004v0.004c0.012,0.124,0.125,0.217,0.25,0.209
			c0.004-0.004,0.008-0.004,0.008-0.004c0.077-0.008,0.143,0.028,0.183,0.088c0.229,0.345,0.145,0.571,0.145,0.736v0.004
			l0.002,0.004l-0.01,0.056c0,0.004,0,0.004,0,0.008c-0.008,0.04-0.016,0.084-0.022,0.124c-0.116,0.853-0.044,1.247-0.438,1.564
			c-0.042,0.036-0.076,0.077-0.098,0.129c0.428,0.876,1.359,1.319,1.359,1.319c0.137,0.145,0.941,1.532,1.025,2.143
			c0.131,0.929,0.131,0.752,0.155,0.792c0.41,0.671,0.05,0.989-0.199,1.118c-0.077,0.036-0.115,0.068-0.137,0.109
			c-0.038,0.073-0.044,0.149-0.091,0.217c-0.042,0.056-0.517,1.444-0.517,1.733c0,0.266,0.402,0.519,0.555,0.732l0.971,1.379
			c0.016,0.024,0.024,0.049,0.042,0.072c0.342,0.43-0.189,1.038,0.116,1.472c0.1,0.141,0.342,0.708,0.47,0.796
			c0.199,0.137,1.038,1.351,0.788,1.556c-0.026,0.02-0.024,0.081-0.012,0.113c0.075,0.217,1.09,0.559,1.466,0.402
			c0.557-0.241,1.727-0.426,2.203-0.422c0.658,0.004,3.828-2.268,3.579-3.052c-0.004-0.008-0.006-0.02-0.004-0.032c0,0,0,0,0.002,0
			c0.37-0.439,1.446-0.977,1.415-1.029c0-0.004,0-0.004,0-0.004c0.139-0.31,0.187-0.567,0.189-0.772
			c0.006-0.551,0.273-1.07,0.718-1.4c0.38-0.281,0.933-0.679,1.745-1.27c0.506-0.366,0.762-0.628,0.718-2.208
			c-0.038-1.451-0.298-2.585-0.384-2.831c-0.123-0.342-0.089-0.406,0.048-0.659c0.408-0.752,0.959-1.416,1.349-2.179
			c0.619-1.215,1.381-1.93,1.797-2.316c0.018-0.016,0.036-0.032,0.052-0.052c0.754-0.885,1.188-2.079,1.462-3.201
			c0.058-0.237,0.151-0.462,0.221-0.695c0.052-0.177,0.128-0.33,0.221-1.247c0.016-0.153-0.07-0.293-0.062-0.45
			c0.034-0.603-0.173-0.073-0.348,0.016c-0.45,0.213-0.207,0.137-0.404,0.265c-0.095,0.056-0.821,0.314-0.909,0.398
			c-0.103,0.093-0.199,0.201-0.348,0.217c-0.897,0.113-1.054,0.133-1.213-0.012c-0.149-0.137-0.245-0.31-0.283-0.511
			c-0.042-0.209-0.149-0.406-0.31-0.555c-0.856-0.8-2.535-1.319-2.933-3.486c-0.061-0.326-2.447-3.775-2.938-4.471
			c-0.054-0.076-0.073-0.177-0.048-0.269h0.002c0.092,0.233,0.462,0.659,0.688,0.893c0.066,0.068,0.157,0.096,0.231,0.04
			c0.089-0.064,0.03-0.165,0.048-0.482c0.004-0.088,0.135-0.097,0.151-0.008c0.032,0.197,0.126,0.378,0.271,0.519
			c0.317,0.305,0.702,0.872,0.957,1.271c0.155,0.245,0.366,0.442,0.619,0.587c0.362,0.205,0.471,0.539,0.73,1.331
			c0.306,0.941,1.407,1.166,1.814,2.015c0.344,0.716,0.436,1.532,0.873,2.212c0.004,0.004,0.008,0.008,0.01,0.012
			c0.056,0.076,0.151,0.112,0.243,0.093c0.665-0.157,1.437-0.989,1.628-1.138c0.402-0.314,0.694-0.551,0.907-0.728
			c0.291-0.245,0.495-0.579,0.583-0.949c0.073-0.314,0.549-0.587,0.692-0.587c0.372-0.004,0.205-0.487,0.36-0.704
			c0.165-0.225,0.177-0.483,0.368-0.684c0.06-0.068,0.133-0.121,0.213-0.157c0.008-0.004,0.014-0.012,0.014-0.024
			c0.049-0.241-0.106-0.462-0.103-0.704c0-0.06,0.058-0.108,0.119-0.096h0.006c0.002-0.004,0.004-0.004,0.004-0.008
			c0.133-0.752,0.386-1.387-0.28-1.701c-0.263-0.124-0.581,0.072-0.826-0.14c-0.002,0-0.004,0-0.006-0.004
			c-0.135-0.116-0.316-0.161-0.491-0.129c-0.175,0.036-0.322,0.153-0.4,0.314c-0.002,0-0.002,0.004-0.002,0.004
			c-0.068,0.141-0.201,0.241-0.354,0.265c-0.247,0.036-0.221,0.024-0.41,0.229c-0.002,0-0.002,0-0.002,0
			c-0.402-0.205-0.654-0.237-2.079-2.36c-0.425-0.635,0.153-0.957,0.354-0.724V40.94h0.002c0.177,0.193,0.898,0.957,1.486,1.283
			c0.199,0.113,0.8,0.261,0.911,0.061c0.406-0.744,0.7-0.205,0.756-0.084c0.3,0.635,1.134,0.08,1.321,0.092
			c0.406,0.02,0.37-0.064,1.532-0.724c0.462-0.261,1.015-0.301,1.51-0.108c0.026,0.008,0.05,0.02,0.074,0.032
			c0.831,2.69,1.277,5.549,1.277,8.509C78.824,65.92,65.92,78.823,50,78.823z M41.318,43.204c0.01,0.004,0.023,0.001,0.034,0.004
			v-0.004H41.318z"/>
	</g>
	<g>
		
			<ellipse transform="matrix(0.892 0.4521 -0.4521 0.892 13.3965 -28.4936)" style="opacity:0.3;fill:#3887F9;" cx="66.318" cy="13.784" rx="7.25" ry="2.875"/>
		<ellipse style="opacity:0.3;fill:#3887F9;" cx="78.006" cy="21.972" rx="2.188" ry="1.938"/>
	</g>
</g>
<g id="Layer_1">
</g>
</svg>
